<?xml version="1.0" encoding="UTF-8" standalone="no"?>
<!-- Created with Inkscape (http://www.inkscape.org/) -->

<svg
   xmlns:dc="http://purl.org/dc/elements/1.1/"
   xmlns:cc="http://creativecommons.org/ns#"
   xmlns:rdf="http://www.w3.org/1999/02/22-rdf-syntax-ns#"
   xmlns:svg="http://www.w3.org/2000/svg"
   xmlns="http://www.w3.org/2000/svg"
   xmlns:sodipodi="http://sodipodi.sourceforge.net/DTD/sodipodi-0.dtd"
   xmlns:inkscape="http://www.inkscape.org/namespaces/inkscape"
   width="210mm"
   height="297mm"
   viewBox="0 0 744.09448819 1052.3622047"
   id="svg2"
   version="1.1"
   inkscape:version="0.91 r13725"
   sodipodi:docname="climbers.svg">
  <defs
     id="defs4" />
  <sodipodi:namedview
     id="base"
     pagecolor="#ffffff"
     bordercolor="#666666"
     borderopacity="1.0"
     inkscape:pageopacity="0.0"
     inkscape:pageshadow="2"
     inkscape:zoom="1.4"
     inkscape:cx="856.12311"
     inkscape:cy="390.43998"
     inkscape:document-units="px"
     inkscape:current-layer="layer1"
     showgrid="false"
     inkscape:window-width="3200"
     inkscape:window-height="1699"
     inkscape:window-x="0"
     inkscape:window-y="50"
     inkscape:window-maximized="1" />
  <metadata
     id="metadata7">
    <rdf:RDF>
      <cc:Work
         rdf:about="">
        <dc:format>image/svg+xml</dc:format>
        <dc:type
           rdf:resource="http://purl.org/dc/dcmitype/StillImage" />
        <dc:title></dc:title>
      </cc:Work>
    </rdf:RDF>
  </metadata>
  <g
     inkscape:label="Layer 1"
     inkscape:groupmode="layer"
     id="layer1">
    <path
       style="fill:#000000"
       d="m 601.24529,915.29862 c -4.29071,-6.94256 -0.43958,-7.9052 5.56388,-1.3908 2.96556,3.2183 3.54707,5.85076 1.29218,5.85076 -2.25481,0 -5.34003,-2.00662 -6.85606,-4.45996 z m 24.29607,1.56205 c 4.06862,-1.05968 9.71386,-0.99047 12.54498,0.15698 2.83111,1.14533 -0.49738,2.01234 -7.39747,1.92744 -6.89974,-0.0856 -9.21614,-1.02259 -5.14751,-2.08227 z m 28.14664,-1.73118 c 0,-2.68168 3.07779,-3.45736 7.3179,-1.84321 4.6128,1.75615 5.77211,1.34868 3.13624,-1.10321 -6.32545,-5.88358 -28.44198,-10.39279 -25.19357,-5.13715 3.20132,5.17996 -1.90607,5.59884 -9.50307,0.77994 -4.30923,-2.73378 -4.03766,-4.59268 1.32073,-9.0398 5.5863,-4.63622 9.39354,-4.6612 22.15166,-0.14266 18.66625,6.60716 26.54275,12.44865 23.47644,17.40955 -3.31022,5.35623 -22.70633,4.56913 -22.70633,-0.92124 z M 35.105225,892.01406 c -4.766735,-6.05983 -8.659815,-13.11657 -8.651181,-15.68122 0.0072,-2.56466 3.74444,1.45216 8.301804,8.92704 6.840938,11.21984 10.872671,13.59041 23.114796,13.59041 17.357666,0 23.162821,-9.09833 12.982338,-20.34813 -3.728741,-4.12029 -6.779639,-9.0077 -6.779639,-10.86233 0,-1.85391 3.763493,1.41363 8.363318,7.26153 14.842958,18.86955 9.323676,28.13058 -16.765099,28.13058 -7.874575,0 -14.831043,-3.72638 -20.566337,-11.01788 z m 560.699765,2.65456 c 0,-5.74942 0.94914,-8.10214 2.10918,-5.22707 1.16001,2.87507 1.16001,7.57908 0,10.45415 -1.16004,2.87506 -2.10918,0.52092 -2.10918,-5.22708 z m 16.90275,-5.01799 c -3.2901,-3.28966 -4.75169,-18.04964 -4.24453,-42.862 0.4831,-23.62637 1.34269,-29.8225 2.2885,-16.49329 1.47764,20.82623 1.92134,21.47346 18.04392,26.30377 9.09097,2.72379 16.52906,6.64713 16.52906,8.7187 0,6.14404 -9.81798,10.35138 -11.60996,4.97516 -0.90713,-2.72164 -3.58075,-3.75421 -5.94139,-2.29562 -2.36063,1.45931 -6.08666,0.0715 -8.28011,-3.10983 -2.82768,-4.08606 -3.21796,-3.02494 -1.34149,3.64573 1.5565,5.53392 0.80829,9.40874 -1.81687,9.40874 -8.06769,0 -4.66042,8.55385 4.94527,12.41511 5.77154,2.31917 6.90309,3.88407 2.92716,4.04677 -3.5649,0.14266 -8.73966,-1.99306 -11.49956,-4.75324 z M 38.79172,881.76542 c -2.567224,-4.79677 -3.574248,-9.81476 -2.237972,-11.15061 1.336275,-1.33657 2.429643,-0.37107 2.429643,2.15006 0,2.51898 2.956991,7.53697 6.571198,11.15132 3.614138,3.61364 4.621233,6.57078 2.237902,6.57078 -2.383261,0 -6.433618,-3.92476 -9.000771,-8.72155 z m 552.83154,-8.00508 c 0,-5.74943 0.94922,-8.10214 2.10924,-5.22709 1.16001,2.87507 1.16001,7.57908 0,10.45415 -1.16002,2.87508 -2.10924,0.52093 -2.10924,-5.22706 z m -263.81842,-5.96707 c -6.69443,-7.12596 -7.66,-9.874 -3.24164,-9.22606 3.46113,0.50665 8.835,2.92217 11.94192,5.36408 3.10691,2.44192 9.99795,5.50609 15.31343,6.80983 13.82195,3.38957 16.48916,-7.71967 4.83239,-20.12762 -8.04785,-8.5667 -8.81068,-11.67583 -4.82189,-19.65023 4.66239,-9.32168 4.70287,-9.30241 2.52199,1.16315 -1.54581,7.41852 0.38603,12.9924 6.38366,18.42072 10.23821,9.26529 11.20128,21.32002 1.98564,24.8566 -13.15154,5.04653 -25.56671,2.34058 -34.9155,-7.61047 z m 12.25833,4.38859 c 0,-0.86844 -3.29302,-4.16168 -7.31791,-7.3179 -6.63235,-5.20211 -6.7802,-5.05367 -1.57876,1.57847 5.46279,6.96539 8.89667,9.1811 8.89667,5.73943 z m 234.08932,-4.79534 c -7.68711,-9.26245 -3.31278,-10.32714 5.31099,-1.29233 4.02482,4.21663 5.66657,7.66615 3.64825,7.66615 -2.01826,0 -6.04992,-2.86793 -8.95924,-6.37382 z M 22.932102,854.94287 c -0.401753,-9.19964 -4.469166,-22.37187 -9.038734,-29.27161 -15.1161953,-22.82501 -9.8028488,-48.88474 9.750758,-47.82433 2.686823,0.14266 0.65151,1.96737 -4.523683,4.0475 -12.2601111,4.92737 -12.6176204,25.05284 -0.785168,44.19786 5.955224,9.63564 8.113559,18.846 6.975448,29.76541 l -1.648115,15.8118 -0.730506,-16.72663 z m 8.503182,0 c 0.08492,-6.89975 1.022365,-9.21608 2.082622,-5.14715 1.060259,4.0682 0.990469,9.71343 -0.154849,12.54497 -1.145461,2.83084 -2.012977,-0.49951 -1.927702,-7.39782 z m 21.289067,-8.36333 c 0.02854,-11.49954 0.843538,-15.70762 1.804677,-9.35091 0.961212,6.35598 0.935522,15.76469 -0.05709,20.90828 -0.992538,5.14287 -1.778919,-0.0714 -1.747591,-11.55737 z m 534.387219,8.0151 c 0.20052,-4.8717 1.19147,-5.86218 2.52633,-2.52685 1.20797,3.01851 1.05947,6.62573 -0.32968,8.0151 -1.38958,1.38936 -2.37791,-1.08039 -2.1963,-5.48825 z m -523.038227,0.4781 c 0,-1.70905 4.704366,-8.6987 10.454147,-15.53208 12.217298,-14.51877 13.472072,-24.28929 3.136316,-24.41917 -4.024883,-0.0714 0.884993,-3.81344 10.910774,-8.36331 21.31105,-9.66991 28.6951,-10.70747 12.08835,-1.69765 -6.324793,3.43096 -11.499568,9.68346 -11.499568,13.89297 0,4.21019 -5.645231,14.75853 -12.545044,23.44082 -6.899735,8.6823 -12.544975,14.38748 -12.544975,12.67842 z M 317.71569,837.26073 c -6.32735,-14.6201 -6.69015,-14.8563 -4.95662,-3.22972 l 1.87048,12.54496 -5.05524,-10.53977 c -2.78037,-5.79723 -8.34833,-15.15459 -12.37313,-20.79339 -4.02489,-5.63954 -7.31093,-12.18676 -7.30228,-14.55018 0.007,-2.36344 3.74437,1.81894 8.3018,9.29384 8.51353,13.96288 15.36546,18.48921 11.07868,7.3179 -1.32386,-3.45023 -1.4194,-6.27248 -0.21265,-6.27248 3.14952,0 19.51372,37.96603 17.31285,40.16746 -1.01044,1.00974 -4.90932,-5.26203 -8.66424,-13.93862 z m 263.09193,-3.52871 c -1.53816,-6.12763 -1.99015,-11.94841 -1.0044,-12.93388 0.98563,-0.9862 3.05054,3.22187 4.58862,9.35021 1.53808,6.12834 1.99015,11.94841 1.00439,12.93388 -0.98562,0.98617 -3.05054,-3.22187 -4.58861,-9.35021 z m -244.59593,-4.23091 c 0.20051,-4.8717 1.19149,-5.86217 2.5264,-2.52683 1.20798,3.01849 1.05941,6.62571 -0.33039,8.01507 -1.38951,1.38937 -2.37784,-1.08037 -2.1963,-5.48824 z m 221.6282,-8.36332 c 0.20051,-4.87169 1.19147,-5.86216 2.52639,-2.52682 1.20798,3.01849 1.05942,6.6257 -0.32968,8.01507 -1.38957,1.38937 -2.37783,-1.08039 -2.19629,-5.48825 z M 19.964909,810.64297 c -3.678504,-7.11309 -5.945805,-13.67602 -5.038471,-14.583 0.907335,-0.90769 4.779151,4.9131 8.604012,12.93388 8.599944,18.03396 5.620193,19.41261 -3.565541,1.64912 z m 320.098261,2.72664 c 0,-3.31393 1.70627,-7.08027 3.79176,-8.36901 2.08539,-1.28876 2.80678,1.42219 1.60307,6.02557 -2.55336,9.7641 -5.39483,10.99862 -5.39483,2.34344 z M 55.626178,808.83972 c -2.909249,-3.50516 -4.479797,-7.18303 -3.489972,-8.17277 0.989755,-0.98978 4.096456,1.87816 6.903805,6.37309 6.070969,9.72129 4.046289,10.78882 -3.413833,1.79968 z m 519.270452,-1.98951 c 0,-5.75012 0.94914,-8.10214 2.10917,-5.22706 1.16007,2.87507 1.16007,7.57908 0,10.45415 -1.16003,2.87508 -2.10917,0.52092 -2.10917,-5.22709 z m -20.90829,-8.3633 c 0,-5.75013 0.94914,-8.10215 2.10916,-5.22708 1.16001,2.87508 1.16001,7.57909 0,10.45415 -1.16002,2.87507 -2.10916,0.52091 -2.10916,-5.22707 z M 66.433054,795.5312 c -2.269369,-5.95993 -1.788978,-6.44018 2.340873,-2.3413 2.8578,2.83653 4.142625,6.21112 2.85516,7.49844 -1.287465,1.28732 -3.625699,-1.03328 -5.196033,-5.15714 z m 294.538476,2.95571 c 0,-2.2999 1.99278,-4.18166 4.42842,-4.18166 2.43563,0 3.26547,1.88176 1.84406,4.18166 -1.42139,2.29991 -3.41425,4.18165 -4.42848,4.18165 -1.01416,0 -1.844,-1.88174 -1.844,-4.18165 z M 120.5258,794.41442 c 7.98641,-3.53585 34.64634,-5.92781 31.01407,-2.78229 -0.95837,0.8299 -10.21024,2.62888 -20.55984,3.99755 -12.56503,1.66124 -16.03866,1.25734 -10.45423,-1.21526 z m 217.68367,-5.22135 c -3.58025,-5.11148 -6.50963,-12.32519 -6.50963,-16.02946 0,-3.70497 -1.21874,-7.95513 -2.7083,-9.44441 -4.28319,-4.283 -35.59347,15.05896 -39.35795,24.31357 -2.93816,7.22299 -3.43804,7.35286 -3.66696,0.95335 -0.37393,-10.457 36.85897,-33.76368 44.20215,-27.66959 3.06301,2.54182 13.22132,3.52301 23.3402,2.25354 l 17.9167,-2.24784 -17.77205,4.5406 c -19.27039,4.9238 -21.26338,9.05194 -11.26251,23.33024 3.58032,5.11145 5.56875,9.29384 4.41879,9.29384 -1.14995,0 -5.02014,-4.18239 -8.60044,-9.29384 z m 42.67369,2.15433 c 5.20166,-0.99973 12.72864,-0.96192 16.72669,0.0856 3.99806,1.04612 -0.25761,1.86461 -9.45754,1.81822 -9.19965,-0.0715 -12.47075,-0.90268 -7.26915,-1.90244 z m 37.6611,-0.0714 c 7.51593,-0.93053 18.80642,-0.91127 25.09002,0.0714 6.28355,0.95408 0.13423,1.71548 -13.66531,1.69194 -13.79947,0 -18.94062,-0.80422 -11.42471,-1.73475 z m 71.18468,-1.08608 c 19.96014,-4.72899 30.052,-15.61129 30.71527,-33.12146 0.39963,-10.54193 1.12749,-12.09469 2.43743,-5.19852 1.02736,5.40832 0.84855,13.8951 -0.39747,18.85956 -2.7287,10.87159 -23.13605,23.74126 -36.70804,23.14898 -7.56146,-0.32826 -6.65575,-1.17529 3.95274,-3.68856 z M 50.409166,782.11492 c -1.512318,-5.78296 -0.300423,-8.71653 3.601508,-8.71653 6.670103,0 7.366642,3.72637 2.215495,11.85278 -2.689536,4.24302 -4.083897,3.49162 -5.817003,-3.13625 z m 113.240094,5.15359 c 3.01865,-1.20811 6.6253,-1.0597 8.0148,0.32824 1.38958,1.38937 -1.08023,2.37842 -5.48838,2.19644 -4.87143,-0.19979 -5.86232,-1.19168 -2.52642,-2.52611 z m 18.20207,-6.02274 c 3.0696,-1.94597 14.98989,-3.41812 26.48946,-3.27183 25.03957,0.32113 20.87703,2.43693 -9.76282,4.96733 -13.0525,1.07824 -19.9922,0.3782 -16.72664,-1.6955 z m 296.2068,3.11842 c 0,-0.86774 3.29309,-4.16097 7.31789,-7.31791 6.63235,-5.20138 6.78029,-5.05297 1.57882,1.57918 -5.46276,6.96538 -8.89671,9.18037 -8.89671,5.73873 z m 71.74854,-6.78415 c 0,-5.75013 0.94916,-8.10214 2.10917,-5.22708 1.16002,2.87508 1.16002,7.57909 0,10.45416 -1.16001,2.87506 -2.10917,0.52092 -2.10917,-5.22708 z M 34.017636,774.72352 c 3.018645,-1.20811 6.62536,-1.05968 8.01487,0.32826 1.389508,1.38937 -1.080239,2.3777 -5.488463,2.19644 -4.871347,-0.19981 -5.862243,-1.1917 -2.526407,-2.52612 z m 42.600682,-3.41597 c 19.092269,-7.35214 26.604052,-7.24369 10.454223,0.14986 -6.899746,3.15978 -15.36767,5.68663 -18.817539,5.61527 -3.449869,-0.0715 0.313268,-2.66599 8.363316,-5.76583 z m 40.771252,3.32106 c 5.17482,-0.99617 13.64269,-0.99617 18.81753,0 5.17476,0.99691 0.94087,1.81254 -9.4088,1.81254 -10.3496,0 -14.58351,-0.81563 -9.40873,-1.81254 z m 118.13199,-1.23022 c 3.44994,-2.22928 8.15431,-4.05394 10.45423,-4.05394 2.29989,0 1.35902,1.82466 -2.09083,4.05394 -3.44988,2.22926 -8.15433,4.05322 -10.45423,4.05322 -2.29991,0 -1.35904,-1.82396 2.09083,-4.05322 z m 372.98341,-6.27249 c 0.0856,-6.89974 1.02235,-9.21606 2.08262,-5.14786 1.06019,4.0689 0.99046,9.71414 -0.15486,12.54497 -1.14553,2.83154 -2.01298,-0.49951 -1.9277,-7.39711 z m -190.54085,2.96497 c -1.12441,-1.81966 4.40986,-2.55465 12.29821,-1.63341 7.88835,0.92053 14.34245,2.40908 14.34245,3.30751 0,3.14694 -24.61713,1.59988 -26.64066,-1.6741 z m -163.22013,-5.01869 c 2.52262,-2.53612 17.5766,-9.90254 33.45334,-16.37056 15.87667,-6.468 34.86626,-15.41505 42.19908,-19.88285 l 13.33227,-8.12285 -15.85426,-18.6016 C 319.15453,691.8634 308.82054,677.27588 304.90998,669.6779 l -7.11018,-13.81474 -33.57694,31.58679 c -18.46729,17.37265 -35.4469,31.58688 -37.73239,31.58688 -2.28558,0 2.10452,-5.12789 9.75568,-11.39539 35.02202,-28.68882 85.66748,-78.35328 92.14219,-90.35772 3.92848,-7.28351 7.22149,-11.70778 7.31791,-9.8316 0.32682,6.36589 -9.1462,21.63073 -21.5902,34.78954 -12.38227,13.09351 -12.38914,13.12935 -5.15742,27.18086 7.7616,15.08101 36.61434,49.66639 45.76117,54.85351 3.58603,2.03302 13.44847,-3.94832 27.85542,-16.89575 27.14495,-24.39357 57.8479,-48.42776 57.8479,-45.28288 0,1.2687 -10.5741,10.29031 -23.49806,20.04792 -12.92396,9.75775 -21.54618,18.39187 -19.16043,19.1871 4.4245,1.47494 41.15359,-24.36587 49.17166,-34.59473 2.92267,-3.72853 6.46789,-4.3475 10.45423,-1.82538 4.63394,2.93195 4.74683,3.83115 0.48667,3.88039 -3.04954,0.0357 -16.78351,8.71219 -30.51997,19.28207 l -24.97528,19.21772 40.90361,26.78046 c 22.49704,14.72929 38.83699,26.78045 36.31108,26.78045 -2.52599,0 -9.37721,-3.76349 -15.22488,-8.36332 -6.4312,-5.05865 -17.80701,-8.62805 -28.79022,-9.03266 -16.4808,-0.60656 -16.83846,-0.82991 -3.87232,-2.40767 l 14.28557,-1.73832 -25.95325,-16.40978 c -14.27423,-9.02554 -27.0405,-16.40994 -28.36934,-16.40994 -1.32886,0 -8.88524,5.67962 -16.792,12.62217 -10.80895,9.49008 -16.10666,11.65371 -21.35165,8.71799 -5.03647,-2.81798 -13.4,-0.54947 -30.08368,8.17207 -32.24265,16.85007 -74.21174,34.60715 -68.70123,29.06824 z M 120.5258,753.78669 c 11.49965,-5.97278 26.73123,-15.29373 33.84803,-20.71348 7.11689,-5.42046 14.45576,-9.85473 16.3087,-9.85473 1.85291,0 -4.20678,5.48754 -13.46601,12.19531 -17.97444,13.02023 -48.83943,29.74828 -54.29621,29.42647 -1.81652,-0.10711 6.10593,-5.08151 17.60549,-11.05357 z m 256.38834,4.21019 c 3.01865,-1.2081 6.62529,-1.05968 8.0148,0.32826 1.38958,1.38937 -1.08024,2.3777 -5.4884,2.19644 -4.8714,-0.19981 -5.8623,-1.1917 -2.5264,-2.52612 z M 546.1607,742.03595 c 0.0357,-11.49957 0.84355,-15.70762 1.80469,-9.35164 0.96122,6.35668 0.93552,15.76542 -0.0572,20.90828 -0.99261,5.1436 -1.779,-0.0714 -1.74766,-11.55664 z m 24.94853,4.18165 c 0.0499,-9.19964 0.90284,-12.47076 1.903,-7.26938 1.00025,5.2021 0.9623,12.7291 -0.0843,16.72664 -1.04663,3.99826 -1.86497,-0.2569 -1.81859,-9.45726 z m -357.10965,5.21352 c 2.10695,-2.10725 8.28175,-3.13054 13.72183,-2.27493 8.37031,1.31656 7.78138,1.906 -3.83078,3.83056 -8.30987,1.37795 -12.21095,0.76426 -9.89105,-1.55563 z m 184.60695,-1.03186 c 5.74978,-3.28681 12.33588,-5.97635 14.6358,-5.97635 2.29991,0 -0.52306,2.68954 -6.27248,5.97635 -5.74978,3.28682 -12.33597,5.97635 -14.63588,5.97635 -2.29992,0 0.52307,-2.68953 6.27256,-5.97635 z m 194.71622,0.86487 c 1.57033,-4.12385 3.90851,-6.44445 5.19603,-5.15713 1.28747,1.28732 0.003,4.6612 -2.85516,7.49843 -4.12992,4.09889 -4.61023,3.61865 -2.34087,-2.3413 z m -30.9711,-7.13735 c 0,-5.75014 0.94914,-8.10216 2.10917,-5.22708 1.16001,2.87506 1.16001,7.57908 0,10.45415 -1.16003,2.87507 -2.10917,0.52091 -2.10917,-5.22707 z m -50.82185,-16.6824 c -7.06672,-17.06059 -13.49826,-20.48941 -10.54392,-5.62169 2.28748,11.51169 2.22776,11.55807 -2.09191,1.62128 -2.44555,-5.62597 -6.72276,-13.15295 -9.50491,-16.72735 -4.4464,-5.71117 -4.17296,-5.80293 2.25945,-0.75834 8.69656,6.82033 9.58513,1.53331 1.68672,-10.03568 -16.51249,-24.18661 -20.07326,-31.24755 -15.75808,-31.24755 2.56445,0 4.66263,1.66195 4.66263,3.69327 0,2.03131 8.76692,18.04078 19.48203,35.57657 10.71511,17.53599 18.49542,32.86969 17.28952,34.07566 -1.20583,1.20598 -4.57256,-3.55299 -7.48153,-10.57617 z m -232.24947,-5.65951 c 6.81789,-5.92069 15.98721,-15.07681 20.37624,-20.3469 l 7.98004,-9.58207 -6.05648,10.16193 c -3.33104,5.58936 -12.50037,14.74548 -20.37623,20.3472 l -14.31983,10.18441 12.39626,-10.76457 z m 329.60541,-9.02055 c 0.0357,-11.49969 0.84346,-15.70775 1.80467,-9.35135 0.96113,6.35641 0.93545,15.76514 -0.0572,20.90802 -0.99261,5.14357 -1.779,-0.0714 -1.74758,-11.55667 z m -422.49867,7.45921 c 6.32473,-0.95836 16.67434,-0.95836 22.99912,0 6.3248,0.95764 1.14996,1.74187 -11.49956,1.74187 -12.64952,0 -17.82434,-0.78423 -11.49956,-1.74187 z m 355.45054,-15.82266 c 0.0427,-9.19963 0.90277,-12.47076 1.90302,-7.26916 1.00017,5.2016 0.96221,12.72829 -0.0843,16.72656 -1.04663,3.99826 -1.86504,-0.25689 -1.81859,-9.4574 z M 654.7334,678.17646 c -5.17475,-0.84597 -9.40871,-3.12247 -9.40871,-5.05889 0,-4.08904 8.12196,-3.39171 15.71075,1.34884 3.33561,2.0837 6.15652,0.51235 7.71909,-4.29926 1.3544,-4.1706 3.35723,-10.40555 4.45075,-13.85542 1.69557,-5.34882 2.76639,-5.2163 7.27138,0.89992 4.02138,5.45955 6.4466,6.0088 10.1555,2.29991 8.05005,-8.04999 5.90534,-16.99032 -3.48661,-14.53426 -4.59762,1.20226 -9.41303,0.48096 -10.70099,-1.60309 -1.28804,-2.08407 -5.99425,-3.78911 -10.45835,-3.78911 -9.79002,0 -9.87743,-0.95166 -1.65197,-17.97979 l 6.46459,-13.38273 -9.60084,10.45415 c -5.28044,5.74985 -15.24607,15.15172 -22.14581,20.89317 l -12.54496,10.43895 11.49954,-12.75863 c 6.3248,-7.01719 11.49958,-14.1602 11.49958,-15.87325 0,-3.86876 -27.01987,-31.97186 -30.73948,-31.97186 -1.49262,0 -2.7138,3.18228 -2.7138,7.07173 0,6.38465 -0.50808,6.4314 -5.22714,0.48095 -2.87486,-3.62484 -8.04969,-7.76889 -11.49956,-9.20893 -3.44988,-1.44002 -2.03851,-1.83263 3.13624,-0.87251 21.55603,3.99956 2.40767,-19.79422 -24.65159,-30.63214 -6.15646,-2.46582 -7.33951,-4.04336 -3.15665,-4.20906 7.99809,-0.31683 41.3987,23.10687 41.3987,29.03277 0,6.72255 10.23807,4.84272 34.08344,-6.25785 12.303,-5.72732 25.8834,-10.43167 30.17889,-10.45415 4.29539,-0.0214 15.37323,7.52255 24.61747,16.76673 16.16646,16.16654 16.71401,17.59736 14.35502,37.51526 -3.26563,27.5734 -8.35548,35.96548 -26.97591,44.47794 -8.59367,3.9286 -18.44741,9.2705 -21.89727,11.87076 -3.44987,2.60035 -10.50645,4.03573 -15.6813,3.18977 z m -125.9621,-7.60341 c -9.25139,-3.83636 -7.0232,-4.30505 14.10259,-2.96663 24.17157,1.53137 24.68528,1.35739 14.03397,-4.75368 -13.66425,-7.83976 -22.68094,-29.825 -13.65282,-33.28943 4.51254,-1.73161 5.39027,0.10848 3.54982,7.44122 -2.64264,10.52892 6.88948,23.48885 17.27604,23.48885 3.2856,0 5.97385,3.2931 5.97385,7.3179 0,5.62269 -3.50917,7.31791 -15.14803,7.31791 -8.33149,0 -20.09237,-2.05029 -26.13542,-4.55614 z m 95.7091,-0.67079 c 0.0357,-4.51376 1.24121,-5.55526 3.13623,-2.71778 1.68973,2.53004 5.89485,5.67449 9.34473,6.98772 4.19122,1.59552 3.15066,2.49729 -3.13625,2.71785 -6.32115,0.22193 -9.38775,-2.07127 -9.34471,-6.98779 z M 355.05078,648.21872 c 7.0932,-8.19834 16.97239,-20.33456 21.9537,-26.96948 4.98138,-6.63493 9.057,-10.23266 9.057,-7.99489 0,2.23769 -9.87912,14.37398 -21.9537,26.96948 -12.07457,12.59551 -16.15019,16.19315 -9.057,7.99489 z m 235.37884,9.13856 c -5.20144,-6.63235 -5.05352,-6.78028 1.57884,-1.57883 6.9656,5.46279 9.18073,8.89674 5.73907,8.89674 -0.86831,0 -4.1614,-3.29302 -7.31791,-7.31791 z m -147.39903,-7.47952 c -1.43411,-3.73716 -2.4457,-9.93402 -2.24804,-13.7708 0.19768,-3.8367 2.01726,-1.42525 4.04344,5.35887 3.9419,13.19842 2.54782,19.73009 -1.7954,8.41193 z m 119.70348,-7.15627 c -4.49565,-12.28701 -4.38304,-12.81194 1.17401,-5.47327 5.31811,7.02297 8.45878,19.06365 4.9726,19.06365 -0.6458,0 -3.4117,-6.11564 -6.14661,-13.59038 z m 53.80402,-14.63581 c 0.51522,-25.52126 2.36143,-23.02032 4.6313,6.27248 0.75741,9.77459 -0.0843,17.77206 -1.86962,17.77206 -1.78569,0 -3.02848,-10.82009 -2.76168,-24.04454 z m -136.38913,7.3179 c 11.49577,-4.93993 18.09807,-4.93993 10.45413,0 -3.44987,2.22948 -9.09511,3.95017 -12.54496,3.82372 -4.13594,-0.15125 -3.42369,-1.4541 2.09083,-3.82372 z m 115.32591,-6.62094 c 0.20053,-4.87149 1.1915,-5.8623 2.52634,-2.52647 1.20798,3.01865 1.05949,6.62529 -0.32967,8.01488 -1.38958,1.3895 -2.37784,-1.08033 -2.1963,-5.48841 z m -150.385,-6.6275 c -0.26687,-3.8367 -1.56804,-10.42281 -2.89169,-14.6358 -2.281,-7.26024 -2.15719,-7.2713 2.37221,-0.21051 2.6283,4.09709 3.92954,10.6832 2.89161,14.63581 -1.69998,6.47428 -1.93512,6.49519 -2.37213,0.2105 z m 64.08457,-1.61807 c -7.79473,-6.24487 -7.74341,-6.32209 1.29159,-1.94369 5.17478,2.50772 9.40874,5.43409 9.40874,6.50312 0,3.1999 -2.16867,2.27588 -10.70033,-4.55943 z m 39.98757,-1.23295 c -0.0285,-8.47713 27.29539,-34.10435 36.1558,-33.91689 4.96932,0.10496 2.90496,2.26387 -5.77199,6.03606 -7.42944,3.22974 -17.30156,12.09442 -21.93814,19.6992 -4.63651,7.60484 -8.43703,11.28655 -8.44567,8.18163 z m 46.31286,-7.24819 c 0.20053,-4.87142 1.1915,-5.86223 2.52634,-2.5264 1.20798,3.01856 1.05949,6.62529 -0.32967,8.01488 -1.38958,1.3895 -2.37784,-1.08033 -2.1963,-5.48848 z M 335.88152,598.28592 c 0,-7.82433 36.64766,-42.34378 44.84286,-42.23873 4.53309,0.057 1.91999,2.80856 -6.70486,7.05751 -7.7731,3.82921 -19.53398,14.41829 -26.13544,23.53131 -6.60138,9.11302 -12.00256,14.35544 -12.00256,11.64991 z m 87.95211,-25.33848 c -6.72276,-13.17765 -11.11522,-16.79472 -22.03869,-18.14827 -7.50343,-0.92972 -0.47026,-1.69043 15.62906,-1.69043 16.09938,0 23.17772,0.75735 15.7296,1.68295 l -13.54208,1.68294 8.39992,16.46532 c 4.62003,9.05592 7.45913,16.46532 6.30917,16.46532 -1.14996,0 -5.86909,-7.40605 -10.48698,-16.45783 z m 34.44117,-24.075 c 4.06863,-1.06026 9.71386,-0.99055 12.54498,0.15483 2.8311,1.14546 -0.49736,2.01292 -7.39746,1.92771 -6.89975,-0.0849 -9.21615,-1.02243 -5.14752,-2.08262 z m 77.2812,-0.0499 c 5.17484,-0.99669 13.64269,-0.99669 18.81747,0 5.17482,0.99673 0.94086,1.81223 -9.40874,1.81223 -10.3496,0 -14.58357,-0.8155 -9.40873,-1.81223 z m -45.99833,-4.18167 c 5.17485,-0.99668 13.6427,-0.99668 18.81755,0 5.17476,0.99675 0.94087,1.81225 -9.40881,1.81225 -10.34961,0 -14.58349,-0.8155 -9.40874,-1.81225 z M 640.8214,531.18701 c -6.72291,-6.72283 -12.21637,-14.7203 -12.20773,-17.77212 0.007,-3.05182 3.70042,0.49452 8.20404,7.88086 5.01791,8.22966 13.51226,14.96492 21.93807,17.39492 11.01025,3.17535 11.81106,4.04051 4.01933,4.34249 -5.55283,0.21552 -14.9784,-4.87084 -21.95371,-11.84615 z m 36.06517,8.36424 c -1.266,-2.04837 1.93477,-2.7957 7.11274,-1.66075 7.52327,1.64905 8.15445,1.17452 3.14202,-2.36227 -4.69302,-3.31144 -2.06056,-3.90207 10.45416,-2.34557 14.83717,1.84526 15.54578,1.56361 6.27248,-2.49352 -5.74977,-2.51563 -16.0994,-3.63241 -22.99912,-2.48181 -6.89974,1.15066 -10.19284,1.12171 -7.31791,-0.0642 8.67109,-3.5771 5.87929,-9.82268 -4.39074,-9.82268 -9.97732,0 -19.65386,-6.98181 -19.65386,-14.1806 0,-2.27952 2.35222,-1.16274 5.22706,2.48165 2.87493,3.6444 14.4106,7.91962 25.635,9.50051 11.22426,1.5809 24.86695,4.90602 30.31703,7.38926 11.56464,5.26917 13.20376,15.50702 2.59127,16.18494 -4.02482,0.2569 -13.34121,1.16758 -20.70314,2.02339 -7.36192,0.85581 -14.42108,-0.11982 -15.68699,-2.16824 z M 364.85591,523.45451 c -11.3769,-10.16521 -12.74984,-13.29638 -8.80818,-20.0878 4.02575,-6.93642 4.68703,-7.06936 4.79663,-0.96471 0.0715,3.89443 4.30933,10.01007 9.42095,13.59039 6.2072,4.3477 7.24883,6.53087 3.13624,6.57363 -5.34524,0.0572 -5.33011,0.59871 0.11492,4.11764 3.44986,2.22948 13.32906,4.0824 21.95371,4.11765 18.67617,0.0763 20.35782,-6.62978 5.22713,-20.84428 -5.74984,-5.40169 -10.45421,-11.35785 -10.45421,-13.23587 0,-1.87811 5.71538,2.56586 12.70083,9.87541 17.01101,17.80045 14.87122,26.02084 -7.19209,27.62993 -14.30628,1.04334 -19.82628,-0.88122 -30.89596,-10.77199 z m 24.34183,-3.72197 c 2.87491,-1.16001 7.57929,-1.16001 10.4542,0 2.87486,1.16003 0.52236,2.10918 -5.22714,2.10918 -5.74977,0 -8.10193,-0.94915 -5.22706,-2.10918 z m 232.49735,-20.03071 c -2.64664,-2.87649 -3.37815,-7.55018 -1.62556,-10.38592 2.18024,-3.52766 3.97764,-2.13066 5.69169,4.4237 3.03663,11.6121 2.22598,12.80073 -4.06613,5.96222 z m 23.6296,-13.19135 c 0,-8.2228 1.62534,-10.27788 6.61449,-8.36338 3.63797,1.39606 10.22409,2.53825 14.63581,2.53825 11.16196,0 10.07701,11.01868 -1.38743,14.09099 -16.35836,4.38388 -19.86287,2.92551 -19.86287,-8.26586 z M 332.74526,475.52429 c -7.91374,-9.69639 -13.59038,-21.39825 -13.59038,-28.01554 0,-17.94018 24.65965,-37.00584 47.74548,-36.91455 l 12.20138,0.05 -10.08243,5.3959 c -5.9581,3.18871 -11.07184,3.79505 -12.5011,1.48243 -1.33035,-2.15247 -8.86998,0.41888 -16.75482,5.71438 -20.19277,13.56135 -21.38448,30.60433 -3.55955,50.90584 7.3346,8.3537 12.61483,15.82894 11.73377,16.61169 -0.88109,0.78282 -7.7176,-6.07004 -15.19235,-15.22845 z m 37.55972,0.97941 c 0,-8.04971 0.8606,-11.34279 1.91243,-7.31791 1.05176,4.02481 1.05176,10.61093 0,14.63581 -1.05183,4.02488 -1.91243,0.73178 -1.91243,-7.3179 z m -281.92571,5.5068 c 3.018649,-1.20798 6.625355,-1.05941 8.014868,0.33039 1.389513,1.38951 -1.08024,2.37782 -5.488464,2.1963 -4.871346,-0.20053 -5.862236,-1.19157 -2.526404,-2.52641 z m 264.22894,-5.8285 c 0,-4.77672 -5.72971,-14.41466 -12.73265,-21.41758 -7.00292,-7.003 -11.95776,-13.50756 -11.01067,-14.45463 3.46372,-3.46371 27.92499,28.36828 27.92499,36.33939 0,4.51985 -0.94087,8.21783 -2.09083,8.21783 -1.14995,0 -2.09084,-3.90821 -2.09084,-8.68501 z m 37.96668,2.41252 c -0.0214,-4.59982 2.65394,-13.06769 5.94075,-18.81746 7.63615,-13.35805 7.66913,-10.49868 0.12058,10.45413 -3.31428,9.19966 -6.04184,12.96315 -6.06133,8.36333 z m 213.26331,-0.34823 c 0.20052,-4.87143 1.19148,-5.86231 2.52641,-2.52641 1.2079,3.01864 1.05939,6.62529 -0.32969,8.01479 -1.38958,1.38959 -2.37782,-1.08023 -2.1963,-5.48838 z M 60.195176,469.66747 c -4.766735,-6.05999 -8.659743,-13.1165 -8.651182,-15.68122 0.0072,-2.56474 3.617778,1.24429 8.020436,8.4645 4.402659,7.22013 10.511306,14.12815 13.574763,15.35111 3.540495,1.41327 3.776052,2.34373 0.646516,2.55361 -2.708016,0.18123 -8.823656,-4.62803 -13.590461,-10.688 z m 29.269754,6.78442 c -13.36525,-3.14931 -29.267756,-17.7214 -29.480264,-27.0138 -0.04995,-2.23669 3.046546,0.58585 6.883752,6.27249 3.837207,5.68654 7.451629,10.97412 8.032067,11.75024 0.580152,0.77611 7.706096,2.91104 15.834855,4.74441 9.95121,2.24438 15.41598,1.78332 16.72778,-1.41108 1.07153,-2.60945 2.09683,-1.45137 2.27843,2.57351 0.36036,7.99233 0.4774,7.97455 -20.27662,3.08423 z m 526.91824,-2.38727 c 0.20052,-4.87141 1.19156,-5.86231 2.52641,-2.52648 1.20797,3.01865 1.0594,6.62538 -0.32967,8.01488 -1.38952,1.3895 -2.37785,-1.08024 -2.1963,-5.4884 z m 26.26731,-39.37738 c 0,-21.84916 0.70503,-30.78749 1.56619,-19.86287 0.86146,10.92461 0.86146,28.80121 0,39.72582 -0.86137,10.92455 -1.56619,1.9863 -1.56619,-19.86295 z m -49.17844,10.036 c -4.04229,-12.82371 -6.59696,-24.06853 -5.67699,-24.98849 0.91996,-0.91997 4.98001,8.81944 9.02232,21.64315 4.04236,12.82371 6.59702,24.06858 5.67705,24.98856 -0.91994,0.91996 -4.98001,-8.81946 -9.02238,-21.64322 z M 97.442837,457.58533 c -2.909318,-3.5054 -4.479797,-7.18332 -3.489972,-8.17315 0.989753,-0.98975 4.096459,1.87831 6.903805,6.3736 6.07096,9.72115 4.04629,10.78847 -3.413833,1.79955 z m 514.758673,-0.24762 c 0.20053,-4.87143 1.19149,-5.86225 2.52641,-2.52641 1.20797,3.01864 1.0594,6.62529 -0.32968,8.01487 -1.38959,1.38951 -2.37783,-1.08031 -2.19631,-5.48846 z M 78.299332,445.58096 c -1.231092,-3.20802 -1.595667,-13.08723 -0.810287,-21.95376 1.32308,-14.93589 1.574047,-14.50694 3.414903,5.8354 2.028038,22.41098 1.370816,26.47817 -2.604616,16.11836 z m -30.383176,-6.38302 c -0.313266,-5.56867 -3.792678,-14.03653 -7.732142,-18.81746 -6.980446,-8.47135 -6.917935,-8.4675 2.455617,0.15201 6.50255,5.9792 9.007335,12.07508 7.732215,18.81747 l -1.886241,9.97318 -0.569449,-10.12489 z m 346.999384,1.17037 c 4.77323,-5.75143 39.42034,-18.3582 49.38873,-17.97079 3.61516,0.14051 -3.77661,3.58638 -16.42613,7.65743 -12.64952,4.07107 -22.6631,9.19809 -22.25242,11.39345 0.41032,2.19531 -2.77808,3.99148 -7.08626,3.99148 -5.66423,0 -6.66761,-1.4042 -3.62392,-5.07157 z m -29.8462,-3.69149 c -7.68718,-9.26245 -3.31293,-10.32734 5.31093,-1.29281 4.02488,4.21647 5.66657,7.66634 3.64824,7.66634 -2.01825,0 -6.04992,-2.86807 -8.95917,-6.37353 z m 243.28062,-1.98979 c 0,-5.74978 0.94916,-8.10193 2.10918,-5.22707 1.16001,2.87492 1.16001,7.5793 0,10.45416 -1.16002,2.87491 -2.10918,0.52305 -2.10918,-5.22709 z M 56.525235,428.41454 c 0.08492,-6.89974 1.022437,-9.21613 2.082624,-5.14751 1.060257,4.06863 0.990539,9.71388 -0.15485,12.54499 -1.145461,2.83117 -2.012906,-0.49738 -1.927703,-7.39748 z m 42.941214,-6.27248 C 101.23758,413.70217 99.04614,410.06598 88.093907,403.27 78.075549,397.05369 74.184822,391.3121 73.217189,381.31629 72.42296,373.11218 69.596344,367.78043 66.04115,367.78043 c -12.066798,0 -35.070202,14.16996 -36.74051,22.6319 -1.638769,8.30223 -1.75123,8.27311 -2.292777,-0.59299 -0.75227,-12.31649 28.242323,-27.9043 45.041173,-24.21467 6.313875,1.38673 16.772023,0.50952 23.240322,-1.94996 6.468292,-2.45925 12.623612,-3.60829 13.678512,-2.55338 1.05491,1.0549 -5.79217,4.22805 -15.215743,7.05138 -13.65497,4.0911 -17.133809,7.10203 -17.133809,14.82924 0,5.67523 4.24867,12.47971 10.245708,16.4091 9.76624,6.39908 11.122287,6.11007 28.979674,-6.17608 10.30373,-7.08913 21.21756,-12.87772 24.25306,-12.86359 3.03548,0.0138 0.81471,2.50306 -4.93508,5.53084 -22.75265,11.98138 -29.27432,17.70954 -29.33569,25.76637 -0.0357,4.62158 -1.97415,11.22547 -4.30868,14.67534 -3.250484,4.80334 -3.730877,3.82394 -2.050861,-4.18166 z M 458.2748,419.24423 c 4.06863,-1.06026 9.71386,-0.99054 12.54498,0.15484 2.8311,1.14545 -0.49736,2.01292 -7.39746,1.92771 -6.89975,-0.0849 -9.21615,-1.02244 -5.14752,-2.0827 z m 29.19206,-4.16639 c 4.02486,-1.05177 10.61097,-1.05177 14.6358,0 4.02488,1.05184 0.73179,1.91236 -7.31791,1.91236 -8.04969,0 -11.34271,-0.86052 -7.31789,-1.91236 z m 116.70145,-5.48077 c 0,-5.74977 0.94914,-8.10198 2.10917,-5.22706 1.16002,2.87486 1.16002,7.57921 0,10.45414 -1.16003,2.87486 -2.10917,0.52306 -2.10917,-5.22708 z m -556.35698,-8.828 c -2.576216,-7.39005 -3.952239,-14.16833 -3.057821,-15.06268 0.894419,-0.89441 3.734022,4.42022 6.310237,11.81034 2.576217,7.39005 3.95224,14.16833 3.05782,15.06274 -0.894417,0.89434 -3.734021,-4.42028 -6.310236,-11.8104 z m 471.01803,10.24022 c 2.87486,-1.16002 7.57921,-1.16002 10.45414,0 2.87493,1.16002 0.52306,2.10916 -5.22706,2.10916 -5.74979,0 -8.102,-0.94914 -5.22708,-2.10916 z m 28.3209,-10.88709 c 6.05833,-5.21124 12.55673,-16.03123 14.44098,-24.04461 3.01401,-12.81842 3.4772,-13.22597 3.85376,-3.39094 0.42387,11.07748 -17.25961,36.91042 -25.26684,36.91042 -2.22371,0 0.91375,-4.26372 6.9721,-9.47487 z m 65.01501,-6.20641 c 0.22407,-11.94456 1.06602,-13.70421 3.53428,-7.38463 2.98767,7.64952 1.50055,23.06591 -2.22504,23.06591 -0.88173,0 -1.47088,-7.05656 -1.30924,-15.68128 z m -217.74047,7.31798 c 3.44987,-2.22949 8.1543,-4.05364 10.45422,-4.05364 2.29991,0 1.35904,1.82415 -2.09083,4.05364 -3.44987,2.22948 -8.15431,4.05357 -10.45422,4.05357 -2.29992,0 -1.35903,-1.82409 2.09083,-4.05357 z m 52.86936,-3.21325 c -1.09221,-1.76729 5.38286,-2.5105 14.38906,-1.65162 9.00618,0.8589 16.37491,2.30485 16.37491,3.21325 0,3.11469 -28.77661,1.65396 -30.76397,-1.56163 z M 579.67113,380.3254 c 0,-12.64952 0.78396,-17.82436 1.74203,-11.49956 0.95815,6.3248 0.95815,16.6744 0,22.99912 -0.95807,6.3248 -1.74203,1.14996 -1.74203,-11.49956 z m -168.17118,15.14988 c 4.27693,-3.87068 37.28649,-19.28423 37.28649,-17.41068 0,2.37704 -31.55839,18.98743 -36.07444,18.98743 -1.62493,0 -2.17034,-0.70931 -1.21205,-1.57675 z m 188.15659,-9.22585 c 0.20051,-4.87141 1.19149,-5.86223 2.5264,-2.52639 1.2079,3.01864 1.05941,6.62529 -0.32967,8.01485 -1.38958,1.38953 -2.37785,-1.0803 -2.1963,-5.48846 z m 38.35937,-8.01486 c 0.05,-9.19965 0.90276,-12.47075 1.90293,-7.26917 1.00025,5.20167 0.9623,12.72866 -0.0843,16.72671 -1.04655,3.99798 -1.86498,-0.25761 -1.81852,-9.45754 z m -101.4145,2.09083 c 3.44986,-2.22949 8.15424,-4.05358 10.45415,-4.05358 2.29992,0 1.35903,1.82409 -2.09083,4.05358 -3.44987,2.22948 -8.15424,4.05364 -10.45415,4.05364 -2.29992,0 -1.35903,-1.82416 2.09083,-4.05364 z M 153.0133,377.42756 c 4.06861,-1.06025 9.71386,-0.99052 12.54497,0.15486 2.83119,1.14546 -0.49737,2.0129 -7.39747,1.9277 -6.89973,-0.0849 -9.21613,-1.02237 -5.1475,-2.08263 z m 27.10122,-4.05327 c 2.87492,-1.16001 7.57927,-1.16001 10.45421,0 2.87486,1.16008 0.52306,2.10916 -5.22706,2.10916 -5.74986,0 -8.10201,-0.94908 -5.22715,-2.10916 z m 272.85364,0.71836 c 0,-2.86135 25.60397,-15.55547 27.51688,-13.64254 0.90735,0.90732 -4.91273,4.77914 -12.93359,8.60401 -8.0208,3.82486 -14.58329,6.09223 -14.58329,5.03853 z m 142.50671,-4.56985 c 0.20053,-4.87141 1.1915,-5.86231 2.52634,-2.52647 1.20798,3.01863 1.05949,6.62536 -0.32967,8.01486 -1.38958,1.38959 -2.37784,-1.08024 -2.1963,-5.48839 z m -368.31663,-1.78283 c 17.24942,-1.62801 38.35865,-6.04842 46.90943,-9.82313 8.55078,-3.77469 17.95959,-6.77107 20.9083,-6.65868 2.94878,0.11278 -6.62857,4.81675 -21.28307,10.45415 -19.07721,7.33874 -33.92261,10.07052 -52.27082,9.61868 l -25.62628,-0.63083 31.36244,-2.95991 z m 277.03524,-5.59395 c -7.47467,-2.45219 -13.59039,-5.95109 -13.59039,-7.77538 0,-1.82431 -3.29302,-3.46543 -7.3179,-3.64703 -4.02481,-0.18126 -5.30229,-1.167 -2.83882,-2.18994 5.44015,-2.25888 33.64087,9.08369 37.2984,15.00172 1.44296,2.33475 2.0421,3.98044 1.33135,3.65703 -0.71074,-0.32324 -7.40788,-2.59426 -14.88264,-5.0464 z m -389.59165,-4.0831 c 0.9583,-0.74477 8.32844,-5.60471 16.3782,-10.79975 l 14.6358,-9.44554 -12.54497,10.77897 c -6.89982,5.92839 -14.26995,10.78833 -16.3782,10.79974 -2.10831,0.0138 -3.04918,-0.58871 -2.09083,-1.33342 z m 443.23806,-5.26682 c 0.20051,-4.87135 1.19147,-5.86225 2.52639,-2.5264 1.20798,3.01864 1.05942,6.62535 -0.32968,8.01487 -1.38957,1.3895 -2.37783,-1.08024 -2.19629,-5.48847 z m -405.95157,-1.74231 c -7.64394,-4.93992 -1.04164,-4.93992 10.45415,0 5.51451,2.36963 6.22674,3.67215 2.09083,3.82372 -3.44988,0.12626 -9.09513,-1.59423 -12.54498,-3.82372 z m 440.21361,-12.54505 c 0,-10.3496 0.81557,-14.58349 1.81225,-9.40874 0.99675,5.17485 0.99675,13.6427 0,18.81755 -0.99668,5.17475 -1.81225,0.94087 -1.81225,-9.40881 z m -413.03283,8.3634 c 11.49577,-4.93993 18.09816,-4.93993 10.45422,0 -3.44987,2.22947 -9.09518,3.95008 -12.54505,3.82371 -4.13585,-0.15125 -3.42367,-1.45409 2.09083,-3.82371 z m 127.54081,0 c 3.44986,-2.22949 8.15422,-4.05365 10.45414,-4.05365 2.29991,0 1.35903,1.82416 -2.09085,4.05365 -3.44985,2.22947 -8.15421,4.05356 -10.45413,4.05356 -2.2999,0 -1.35904,-1.82409 2.09084,-4.05356 z m 268.28672,-4.18168 c 0,-5.74984 0.94914,-8.10199 2.10917,-5.22714 1.16007,2.87493 1.16007,7.57929 0,10.45423 -1.16003,2.87485 -2.10917,0.52306 -2.10917,-5.22709 z m 58.8532,-4.18172 c 0,-8.04969 0.86059,-11.34271 1.91244,-7.3179 1.05176,4.02488 1.05176,10.61099 0,14.63588 -1.05185,4.02481 -1.91244,0.73179 -1.91244,-7.31798 z M 455.059,342.69046 c -5.27161,-2.26529 -6.04457,-3.59386 -2.09084,-3.59386 3.44987,0 10.03598,1.61722 14.63581,3.59386 5.27153,2.26524 6.04449,3.59381 2.09083,3.59381 -3.44988,0 -10.03599,-1.61722 -14.6358,-3.59381 z m -131.37401,-1.52443 c 0.95835,-0.83841 6.44674,-3.76485 12.19653,-6.50321 9.85729,-4.69451 9.99074,-4.60745 2.33701,1.52446 -6.6614,5.33683 -20.27212,9.99951 -14.53354,4.97875 z m 220.03588,-16.47418 c -6.29975,-9.65007 -20.59654,-27.52429 -31.77077,-39.72047 L 491.63344,262.79646 477.52792,279.178 c -12.46727,14.47889 -43.53664,34.58154 -52.6194,34.04612 -1.8166,-0.10711 5.70476,-4.88276 16.71407,-10.61263 11.00926,-5.72979 26.82156,-17.94982 35.13842,-27.1556 l 15.12155,-16.73769 10.85983,10.19497 c 6.58326,6.18016 18.27014,11.23945 29.67736,12.84739 56.70493,7.99297 54.36162,8.03836 54.36162,-1.05234 0,-4.65448 -5.64522,-14.10795 -12.54496,-21.00776 -8.42356,-8.42355 -12.4044,-16.42864 -12.11695,-24.36623 0.42385,-11.71171 0.45811,-11.69558 3.64822,1.74338 3.40807,14.35595 11.23461,26.16121 17.34405,26.16121 5.15586,0 4.59947,-23.93193 -0.61655,-26.51871 -2.35742,-1.16916 -1.88695,-1.64533 1.04542,-1.05833 3.66752,0.73429 5.67321,11.40415 6.42598,34.18512 0.60157,18.21476 -0.33895,31.03927 -2.09083,28.49893 -1.75188,-2.54031 -9.18316,-4.7633 -16.51406,-4.93999 -7.33082,-0.17696 -17.08628,-2.33209 -21.67875,-4.78992 -10.07094,-5.38978 -29.80817,-5.91891 -29.80817,-0.79917 0,2.01834 2.9814,6.14406 6.62535,9.16827 8.36455,6.94191 32.34757,41.57967 30.24532,43.68199 -0.86379,0.86373 -6.72483,-6.32501 -13.02457,-15.97516 z m -393.61282,9.13279 c 2.54987,-4.12579 30.13912,-13.07053 34.9568,-11.33344 2.10768,0.75998 -5.32219,4.31139 -16.51077,7.89214 -11.18858,3.58067 -19.48931,5.12931 -18.44603,3.4413 z m 270.93401,-3.34032 c -9.64193,-5.87938 -14.34181,-6.75995 -17.77206,-3.3297 -3.43025,3.43023 -5.93873,3.3882 -9.48578,-0.15842 -3.04833,-3.04842 -7.36144,-3.46337 -11.72492,-1.12813 -3.88002,2.07656 -9.4519,2.11859 -12.72445,0.0964 -3.35582,-2.074 -9.4599,-1.83151 -14.41053,0.57229 -7.12123,3.45802 -6.92128,2.82413 1.17022,-3.71011 l 9.75883,-7.88056 -14.86516,-11.3383 c -8.17585,-6.23602 -19.72921,-17.71525 -25.67403,-25.50932 l -10.80887,-14.17113 19.05145,-19.05145 c 23.76917,-23.76915 24.93319,-21.28393 1.79047,3.82301 l -17.26095,18.72591 28.4098,27.17892 c 25.48542,24.38129 39.59843,32.96118 39.54749,24.04269 -0.007,-1.7249 -5.64702,-11.60411 -12.52705,-21.95371 -6.88006,-10.34961 -12.51722,-20.52053 -12.52708,-22.60207 -0.007,-2.08149 7.72801,8.26812 17.19534,22.99919 9.46723,14.73099 17.77189,27.40449 18.45467,28.16325 0.6829,0.75869 6.1411,-1.83087 12.12958,-5.7547 8.94475,-5.86082 10.45964,-6.01732 8.48698,-0.87679 -1.67244,4.35848 2.43029,8.26027 13.51924,12.8571 8.75616,3.62983 13.09773,6.68965 9.64787,6.79954 -3.44986,0.10987 -12.17133,-3.39714 -19.38106,-7.79337 z m 83.01598,-3.47514 c -10.00195,-9.77459 -10.16863,-10.25442 -1.11135,-3.1989 17.84676,13.90259 18.69901,14.69846 15.73952,14.69846 -1.57368,0 -8.15631,-5.17478 -14.62817,-11.49956 z m 66.96684,-9.40873 c 0,-8.04969 0.86059,-11.34278 1.91243,-7.3179 1.05177,4.02488 1.05177,10.611 0,14.6358 -1.05184,4.02489 -1.91243,0.73179 -1.91243,-7.3179 z m -367.91118,1.29917 c 4.02483,-1.05184 10.611,-1.05184 14.6358,0 4.02489,1.05177 0.73181,1.91237 -7.31789,1.91237 -8.0497,0 -11.34279,-0.8606 -7.31791,-1.91237 z m 95.48133,1.37994 c 0.9583,-0.8264 7.38762,-2.76532 14.28736,-4.30868 9.16169,-2.04937 10.85333,-1.66138 6.27249,1.43854 -5.6468,3.82123 -24.75607,6.48885 -20.55985,2.87014 z m 322.29991,-6.86077 c 0,-5.74979 0.94915,-8.10199 2.10916,-5.22708 1.1601,2.87486 1.1601,7.5793 0,10.45416 -1.16001,2.87492 -2.10916,0.52306 -2.10916,-5.22708 z m -387.46421,0 c 11.49578,-4.93992 18.09817,-4.93992 10.45423,0 -3.44988,2.22949 -9.09519,3.95016 -12.54505,3.82372 -4.13585,-0.15123 -3.42369,-1.45401 2.09082,-3.82372 z m 396.22186,-10.45414 c 0.0427,-9.19966 0.90277,-12.47076 1.90294,-7.26917 1.00024,5.2016 0.96228,12.72858 -0.0842,16.72663 -1.04655,3.99806 -1.86498,-0.25761 -1.81851,-9.45746 z m -375.3135,3.02193 c 12.19738,-12.46756 50.23107,-42.74776 53.69372,-42.74776 2.20743,0 -3.32536,5.33153 -12.29508,11.84779 -8.9698,6.51632 -18.97652,15.08694 -22.23722,19.04581 -3.26076,3.95887 -9.84687,9.20736 -14.63588,11.66318 -5.43615,2.78782 -7.1363,2.85953 -4.52554,0.19125 z m 420.25727,-21.92432 c -5.74979,-1.68015 -14.68811,-2.14441 -19.86296,-1.03164 -5.17475,1.11272 -9.40871,0.26903 -9.40871,-1.87497 0,-2.14399 9.87919,-3.75935 21.95376,-3.58959 19.69361,0.27687 22.09128,-0.66008 23.29,-9.10018 1.38386,-9.7439 7.31296,-12.73271 9.89459,-4.98772 0.81051,2.43149 4.8232,3.13559 8.91708,1.56462 9.77517,-3.75107 7.19965,-16.16311 -3.46307,-16.68938 -27.91172,-1.37752 -27.87783,-1.3602 -26.02854,-13.34077 0.97626,-6.32481 0.95373,-9.6179 -0.0499,-7.31798 -1.00382,2.29998 -8.70956,9.75153 -17.12396,16.55916 -12.85153,10.39741 -13.89332,10.73187 -6.51234,2.09082 15.2692,-17.87581 15.26577,-20.07083 -0.0572,-35.84809 -16.12537,-16.60376 -28.11824,-17.00044 -25.08539,-0.82976 0.99689,5.31556 0.63438,6.84193 -0.80564,3.39206 -1.44004,-3.44988 -5.69485,-8.87782 -9.45512,-12.06216 -6.27221,-5.31142 -6.23246,-5.5813 0.48096,-3.26748 8.99905,3.10157 9.09553,1.37047 0.72672,-13.0437 -6.36432,-10.96186 -6.34676,-11.02873 0.51022,-1.94367 9.0652,12.01076 16.76232,11.83644 44.34636,-1.00461 30.84586,-14.3595 39.19804,-13.46729 58.96423,6.29889 15.70005,15.70013 16.63323,17.96586 14.32732,34.7894 -3.47692,25.36662 -9.8608,40.24011 -18.45197,42.99046 -13.10785,4.19634 -28.18101,11.93935 -32.47065,16.67996 -2.48351,2.74455 -8.42697,3.38065 -14.6358,1.56633 z M 613.0103,267.42048 c 0,-10.34962 0.8155,-14.58358 1.81217,-9.40873 0.99675,5.17482 0.99675,13.64269 0,18.81746 -0.99667,5.17483 -1.81217,0.94087 -1.81217,-9.40873 z m 20.09951,10.1057 c 0.20052,-4.87143 1.19156,-5.86225 2.5264,-2.52642 1.20798,3.01864 1.05947,6.62529 -0.32968,8.01487 -1.38957,1.38952 -2.37791,-1.0803 -2.19628,-5.48845 z M 357.98586,248.60301 c 0.0285,-11.49956 0.84354,-15.70762 1.80467,-9.35129 0.96122,6.35641 0.93553,15.76514 -0.0572,20.90837 -0.99254,5.14316 -1.77898,-0.0572 -1.74758,-11.55708 z m 281.7633,11.84801 c -1.5333,-1.53324 -2.7878,-4.7322 -2.7878,-7.10882 0,-2.62024 1.94768,-2.37334 4.94827,0.62725 2.72157,2.72158 3.97607,5.92054 2.78779,7.10882 -1.18826,1.18834 -3.41504,0.90604 -4.94826,-0.62725 z M 472.68383,230.83096 c -16.81341,-27.08431 -46.84742,-57.809 -59.4415,-60.80845 -6.69322,-1.59402 -6.27569,-2.02554 2.09083,-2.16083 11.59454,-0.18768 47.02283,37.11928 65.7553,69.24177 15.39986,26.40782 8.84643,21.51684 -8.40463,-6.27249 z m -12.37171,17.08472 c 2.8892,-1.1648 4.00974,-4.12958 2.49014,-6.58848 -1.63312,-2.64237 -0.78872,-3.2504 2.06472,-1.48684 7.29656,4.50949 5.78518,10.89665 -2.49008,10.52337 -4.41478,-0.19909 -5.23393,-1.17036 -2.06478,-2.44805 z m 62.72708,-10.81223 c -5.41574,-5.17484 -6.89324,-7.15564 -3.28338,-4.40188 3.60985,2.75384 11.22911,6.86849 16.93158,9.14372 6.89467,2.75083 7.99461,4.22553 3.28346,4.40179 -3.89665,0.14556 -11.51582,-3.96887 -16.93166,-9.14363 z m 110.71063,-3.13625 c 0,-8.04976 0.86059,-11.34277 1.91244,-7.31797 1.05176,4.02488 1.05176,10.61099 0,14.63588 -1.05185,4.02481 -1.91244,0.73179 -1.91244,-7.31791 z m -179.57605,-5.22714 c -18.13534,-23.69817 -27.69464,-37.84058 -24.11533,-35.67732 4.94094,2.98624 32.70815,40.90446 29.95403,40.90446 -1.01123,0 -3.63869,-2.35222 -5.8387,-5.22714 z m 39.82695,-1.81109 c 3.01857,-1.20798 6.62528,-1.05941 8.01486,0.33039 1.38952,1.38958 -1.0803,2.37791 -5.48846,2.1963 -4.87142,-0.20053 -5.86224,-1.1915 -2.5264,-2.52642 z m -131.00987,-9.16669 c 2.22884,-7.23861 1.6895,-9.08647 -1.98857,-6.81332 -10.19754,6.30246 3.65025,-13.3108 18.77243,-26.58828 20.01323,-17.57182 26.48111,-16.7063 10.05433,1.34554 -7.23905,7.95515 -15.04691,14.07086 -17.35076,13.59039 -2.3039,-0.48025 -5.13865,1.74054 -6.29945,4.93559 -1.37566,3.78618 -0.32041,4.70258 3.0307,2.63157 4.05128,-2.50384 4.04623,-1.07574 -0.0214,6.73591 -7.33974,14.0867 -9.74897,15.70555 -6.19477,4.1626 z m 20.97979,-29.79339 c 4.16282,-4.59983 6.62787,-8.36332 5.47791,-8.36332 -1.14995,0 -5.49674,3.76349 -9.65956,8.36332 -4.16275,4.59983 -6.62786,8.36332 -5.47783,8.36332 1.14995,0 5.49673,-3.76349 9.65948,-8.36332 z m 181.90244,30.56451 c 0,-6.97374 20.06447,-23.19574 25.83644,-20.8886 3.78548,1.5131 3.31664,2.31283 -1.48841,2.53895 -3.8579,0.18126 -10.91449,5.28823 -15.68123,11.34822 -4.76672,6.05991 -8.6668,9.21056 -8.6668,7.00143 z M 459.28781,185.36321 c -3.95294,-6.03302 -5.12039,-9.69169 -2.59426,-8.13047 4.82732,2.98345 14.56337,19.09947 11.53846,19.09947 -0.96635,0 -4.99124,-4.93607 -8.9442,-10.969 z m 140.03855,-14.12103 c -9.73178,-3.11663 -9.82105,-3.37679 -1.29217,-3.76478 5.03904,-0.22906 10.32492,1.46486 11.74631,3.76478 1.42148,2.29991 2.00299,3.99413 1.29225,3.76486 -0.71073,-0.22907 -5.99661,-1.92343 -11.74639,-3.76486 z M 439.3777,164.29114 c 2.87493,-1.1601 7.5793,-1.1601 10.45416,0 2.87491,1.16001 0.52306,2.10918 -5.22708,2.10918 -5.74979,0 -8.10194,-0.94917 -5.22708,-2.10918 z m 133.81329,0 c 2.87486,-1.1601 7.57922,-1.1601 10.45415,0 2.87493,1.16001 0.52307,2.10918 -5.22708,2.10918 -5.74977,0 -8.10198,-0.94917 -5.22707,-2.10918 z m -106.55286,-4.31011 c 4.06863,-1.06025 9.71386,-0.99054 12.54496,0.15486 2.83112,1.14545 -0.49736,2.01298 -7.39746,1.9277 -6.89973,-0.0849 -9.21613,-1.02237 -5.1475,-2.08264 z m 90.08754,0.0427 c 3.01865,-1.20797 6.62529,-1.0594 8.01488,0.33038 1.38951,1.38959 -1.08031,2.37793 -5.48846,2.19631 -4.87143,-0.20052 -5.86224,-1.1915 -2.52642,-2.52641 z m -52.53219,-4.37134 c 8.6247,-0.90219 22.7378,-0.90219 31.36252,0 8.6247,0.90221 1.56812,1.64035 -15.68123,1.64035 -17.2494,0 -24.30593,-0.73814 -15.68129,-1.64035 z"
       id="path3401"
       inkscape:connector-curvature="0" />
  </g>
</svg>
