<?xml version="1.0" encoding="UTF-8" standalone="no"?>
<!-- Created with Inkscape (http://www.inkscape.org/) -->

<svg
   xmlns:dc="http://purl.org/dc/elements/1.1/"
   xmlns:cc="http://creativecommons.org/ns#"
   xmlns:rdf="http://www.w3.org/1999/02/22-rdf-syntax-ns#"
   xmlns:svg="http://www.w3.org/2000/svg"
   xmlns="http://www.w3.org/2000/svg"
   xmlns:sodipodi="http://sodipodi.sourceforge.net/DTD/sodipodi-0.dtd"
   xmlns:inkscape="http://www.inkscape.org/namespaces/inkscape"
   width="210mm"
   height="297mm"
   viewBox="0 0 744.09448819 1052.3622047"
   id="svg3441"
   version="1.1"
   inkscape:version="0.91 r13725"
   sodipodi:docname="elbow_plank.svg">
  <defs
     id="defs3443" />
  <sodipodi:namedview
     id="base"
     pagecolor="#ffffff"
     bordercolor="#666666"
     borderopacity="1.0"
     inkscape:pageopacity="0.0"
     inkscape:pageshadow="2"
     inkscape:zoom="0.35"
     inkscape:cx="1821.9628"
     inkscape:cy="-574.55089"
     inkscape:document-units="px"
     inkscape:current-layer="layer1"
     showgrid="false"
     inkscape:window-width="3200"
     inkscape:window-height="1699"
     inkscape:window-x="0"
     inkscape:window-y="50"
     inkscape:window-maximized="1" />
  <metadata
     id="metadata3446">
    <rdf:RDF>
      <cc:Work
         rdf:about="">
        <dc:format>image/svg+xml</dc:format>
        <dc:type
           rdf:resource="http://purl.org/dc/dcmitype/StillImage" />
        <dc:title></dc:title>
      </cc:Work>
    </rdf:RDF>
  </metadata>
  <g
     inkscape:label="Layer 1"
     inkscape:groupmode="layer"
     id="layer1">
    <path
       style="fill:#000000"
       d="m 524.95698,766.56691 c 3.3675,-0.87677 8.03977,-0.81908 10.38283,0.12692 2.34304,0.94598 -0.41532,1.66585 -6.12242,1.59549 -5.71054,-0.11537 -7.62791,-0.84217 -4.26041,-1.72355 z m 24.16083,-0.11535 c 5.23409,-0.79603 13.79992,-0.79603 19.03517,0 5.2341,0.79601 0.946,1.44205 -9.51759,1.44205 -10.46934,0 -14.75283,-0.64604 -9.51758,-1.44205 z m -42.20849,-5.94706 c -2.26692,-2.73068 -3.48516,-10.12901 -2.70876,-16.43946 l 1.41322,-11.47418 0.55374,12.80664 c 0.34611,8.10898 2.77568,14.10103 6.6104,16.33448 3.33058,1.94044 4.30081,3.57515 2.15386,3.63284 -2.14578,0 -5.75669,-2.12963 -8.02246,-4.86032 z m 77.68313,1.50436 c 3.80704,-1.63587 9.25802,-2.97411 12.1133,-2.97411 3.27173,0 2.63262,1.09598 -1.73048,2.97411 -3.80704,1.63588 -9.25801,2.9741 -12.11329,2.9741 -3.27175,0 -2.63262,-1.09596 1.73047,-2.9741 z m 83.55865,-3.77589 c 11.12232,-3.22328 16.89401,-11.25037 12.82394,-17.83654 -1.3417,-2.17116 -0.6345,-2.66953 1.71892,-1.21362 2.36844,1.46281 3.99624,0.26532 3.99624,-2.92681 0,-4.86032 -4.03776,-6.9438 -11.24806,-5.80516 -1.42821,0.2192 -2.5484,-3.09408 -2.49071,-7.37756 0.11536,-6.95419 0.48453,-7.13993 3.63282,-1.73048 3.53247,6.06473 13.56689,8.49661 13.56689,3.2879 0,-5.11643 -8.2451,-11.07502 -15.40118,-11.12808 -5.84899,0 -6.18354,-0.64604 -1.90351,-3.40787 4.34117,-2.80567 4.10236,-3.36404 -1.45821,-3.40788 -3.65707,0 -9.43453,2.46765 -12.83894,5.54905 -3.84742,3.48056 -9.18996,4.81763 -14.11603,3.53246 -13.62342,-3.55554 -30.42282,-15.68614 -30.42282,-21.96658 0,-4.87302 1.07289,-4.48654 5.64364,2.04425 3.10447,4.43231 11.03924,10.31246 17.63234,13.06736 10.59625,4.4277 12.94161,4.38501 20.19113,-0.36917 5.15219,-3.37557 15.00665,-5.18218 26.49465,-4.85569 10.07135,0.28841 13.98451,1.16864 8.70773,1.9658 l -9.58565,1.44899 7.22529,10.14632 c 8.61544,12.09946 13.6015,13.12043 11.52262,2.35921 -1.35438,-7.01763 -1.11903,-6.93226 2.41805,0.86525 3.74474,8.26125 4.05161,8.33855 6.77653,1.73046 2.52648,-6.12587 2.88295,-5.85015 3.09753,2.39843 0.25381,9.73447 -12.07984,33.94145 -17.29432,33.94145 -1.65547,0 -2.11463,-2.33614 -1.0152,-5.19141 1.30938,-3.41249 -0.11538,-5.19142 -4.14621,-5.19142 -3.37672,0 -5.0749,1.06137 -3.77358,2.36499 2.81374,2.81374 -16.86402,11.61376 -24.96954,11.16615 -3.11254,-0.17305 -0.76141,-1.73048 5.2191,-3.46326 z m 35.84382,-13.1585 c 0,-1.69932 -2.46305,-4.03545 -5.47406,-5.1914 -8.46662,-3.24867 -9.58566,-2.54495 -4.90877,3.09061 4.77494,5.75325 10.38283,6.88842 10.38283,2.10079 z m 6.92186,-10.95733 c 0,-1.79162 -4.28348,-3.20714 -9.51757,-3.14715 -9.01806,0.11536 -9.17265,0.36916 -2.95103,5.08066 6.6127,5.00567 12.4686,4.09775 12.4686,-1.93351 z m -102.89722,22.03234 c 3.3675,-0.87676 8.03977,-0.81909 10.38282,0.12691 2.34305,0.94598 -0.41531,1.66586 -6.1224,1.59549 -5.71055,-0.11537 -7.62792,-0.84215 -4.26042,-1.72355 z M 18.546341,741.87542 C 2.7921353,726.12122 -1.3459984,712.94772 4.8398567,698.23641 c 2.4607331,-5.8513 4.374634,-16.08876 4.2535011,-22.75107 l -0.2191934,-12.1133 3.0294736,10.0125 c 2.135404,7.05686 1.547046,12.88047 -1.9946539,19.72853 -6.792675,13.13656 -6.300066,23.49863 1.7454669,36.69404 14.757456,24.20352 35.281989,28.46855 38.222634,7.94171 l 1.730469,-12.07983 12.113292,11.88602 c 11.524933,11.31035 8.524299,11.92985 -4.326178,0.89984 -5.476363,-4.70342 -6.056644,-4.55345 -6.056644,1.56434 0,8.60274 -6.413125,15.0724 -14.94319,15.0724 -3.650136,0 -12.582827,-5.9459 -19.848493,-13.21156 z m 610.173109,10.82582 c 3.33058,-0.86524 8.78156,-0.86524 12.11329,0 3.33058,0.86523 0.61143,1.58281 -6.05664,1.58281 -6.66232,0 -9.38839,-0.71527 -6.05665,-1.58281 z m -87.04151,-10.43589 c 2.52071,-4.19581 5.32754,-6.88382 6.23777,-5.97358 0.91137,0.91137 -1.15365,4.34347 -4.58229,7.62906 -5.95974,5.70824 -6.03357,5.63441 -1.65548,-1.65548 z M 39.494263,741.2386 c -3.119466,-2.01542 -3.546311,-3.37557 -1.07289,-3.40787 2.266914,0 5.084115,1.50434 6.260841,3.40787 2.655697,4.29733 1.457053,4.29733 -5.191416,0 z m -17.05321,-12.58053 c -4.111595,-5.22602 -7.003792,-13.72031 -6.775368,-19.9004 0.380698,-10.44512 0.472991,-10.37705 2.914106,2.18616 1.384378,7.13185 5.340233,16.0876 8.790794,19.90041 3.450561,3.81396 5.367919,6.93342 4.259267,6.93342 -1.107505,0 -5.244483,-4.10352 -9.188799,-9.11959 z m 40.837951,3.06294 c -4.393087,-5.60211 -4.230427,-5.67594 2.17231,-0.9806 3.807039,2.79298 7.570232,5.51789 8.363941,6.05664 0.796019,0.54222 -0.184578,0.98061 -2.172311,0.98061 -1.987741,0 -5.750934,-2.72491 -8.36394,-6.05665 z m 562.844736,-0.86523 c 1.17671,-1.90352 2.82528,-3.46095 3.66513,-3.46095 0.84217,0 1.52629,1.55743 1.52629,3.46095 0,1.90351 -1.64972,3.46094 -3.66514,3.46094 -2.01542,0 -2.703,-1.55743 -1.52628,-3.46094 z m -125.77752,-6.92189 c 0,-4.75879 0.78448,-6.70499 1.74547,-4.32617 0.95753,2.37997 0.95753,6.27352 0,8.65235 -0.95752,2.37998 -1.74547,0.43839 -1.74547,-4.32618 z M 81.700434,718.74248 c 0.115358,-5.71055 0.842157,-7.62791 1.723549,-4.26041 0.87677,3.36749 0.819082,8.03976 -0.1269,10.38282 -0.945991,2.34305 -1.665868,-0.41531 -1.595493,-6.12241 z m 437.387936,1.73047 c 1.27248,-4.75879 3.75744,-10.98848 5.52136,-13.84376 2.22885,-3.60746 2.50226,-2.55186 0.88831,3.46095 -1.27247,4.75878 -3.75743,10.98848 -5.52136,13.84375 -2.22885,3.60746 -2.50226,2.55188 -0.88831,-3.46094 z m 63.10449,1.1075 c 2.48842,-0.99213 8.25781,-5.54557 12.82164,-10.1094 4.56382,-4.56382 10.31591,-8.25665 12.7824,-8.2059 2.46534,0 0.19613,2.74684 -5.03451,5.9932 -11.55493,7.16415 -11.99216,10.26054 -1.73047,12.23788 4.28234,0.83064 0.78448,1.58858 -7.78711,1.69818 -8.56584,0.11537 -13.53921,-0.61143 -11.05195,-1.61396 z M 53.673738,718.52559 c 3.421712,-8.3374 26.280079,-35.96609 32.543218,-39.33359 5.895139,-3.17022 5.348308,-3.44479 -3.688207,-1.8493 -7.697127,1.359 -13.257708,-0.20765 -20.258035,-5.71515 -8.546218,-6.72346 -9.398761,-9.14265 -7.471017,-21.20174 1.87583,-11.72566 1.210176,-13.86568 -4.799169,-15.43694 -6.734996,-1.76048 -6.688849,-2.04888 1.322078,-8.35126 4.564978,-3.59014 9.518739,-6.52733 11.010406,-6.52733 1.490514,0 -0.311486,2.33613 -4.007769,5.19141 -6.648469,5.13835 -6.648469,5.24448 0,10.39552 5.227168,4.03892 5.808614,6.13163 2.595699,9.34453 -2.277291,2.27731 -4.140435,7.53217 -4.140435,11.67722 0,13.62572 8.850784,17.02206 42.894898,16.46024 17.333555,-0.28841 27.621775,0.26533 22.862975,1.22402 -4.75879,0.95752 -15.27198,8.63158 -23.361348,17.04858 -8.090522,8.41701 -14.708999,14.17372 -14.708999,12.79281 0,-1.38093 5.767083,-8.41587 12.815867,-15.63539 12.46861,-12.76856 11.17076,-16.94361 -2.922195,-9.40107 -7.736359,4.14045 -13.044287,9.24302 -30.323607,29.14921 -6.477724,7.46178 -11.149992,12.0383 -10.382823,10.16823 z m 496.989952,-0.64603 c -0.80755,-1.42707 2.06041,-10.13134 6.36121,-19.34089 l 7.82057,-16.74404 2.42958,14.38251 c 1.33708,7.90942 1.49744,15.31467 0.35764,16.45563 -1.14211,1.14211 -2.12387,-2.46765 -2.18387,-8.02015 -0.11535,-9.62372 -0.34608,-9.78178 -5.1914,-3.37673 -7.56331,9.99981 -6.20085,15.14969 4.43577,16.76019 9.01921,1.36706 8.93961,1.46975 -1.52627,1.96119 -6.07395,0.28842 -11.70029,-0.64604 -12.50207,-2.07771 z m 67.73869,0.19612 c 3.3675,-0.87677 8.03976,-0.81909 10.38282,0.1269 2.34306,0.94599 -0.4153,1.66587 -6.1224,1.59549 -5.71056,-0.11537 -7.62792,-0.84216 -4.26042,-1.72355 z M 36.033316,715.68763 c 0,-3.71474 10.29746,-22.90105 12.290958,-22.90105 0.945991,0 -0.842157,5.0622 -3.989307,11.24805 -6.424665,12.63244 -8.301651,15.26622 -8.301651,11.653 z m 669.692064,-5.59635 c -1.17672,-1.90351 -0.48453,-3.46094 1.52627,-3.46094 2.01543,0 3.66513,1.55743 3.66513,3.46094 0,1.90352 -0.69218,3.46095 -1.52627,3.46095 -0.84215,0 -2.48841,-1.55743 -3.66513,-3.46095 z M 497.47365,684.13423 c 0,-13.32462 0.64604,-18.35106 1.39014,-11.17076 0.74987,7.18029 0.73833,18.08226 0,24.22658 -0.76141,6.14432 -1.37746,0.26533 -1.36246,-13.05582 z m -204.90847,11.15114 c -2.13656,-2.13539 -3.83588,-5.51789 -3.77819,-7.51715 0,-1.99812 1.65663,-0.96906 3.55323,2.27845 1.9012,3.26136 5.73363,5.03567 8.54621,3.95585 2.80567,-1.07289 5.10027,-1.17787 5.10027,-0.23073 0,3.98355 -9.84059,5.0899 -13.42152,1.50898 z M 19.002034,690.7677 c 0.161504,-4.032 0.980597,-4.85224 2.090403,-2.09041 1.003671,2.49765 0.876771,5.48328 -0.276872,6.63347 -1.153652,1.15364 -1.968124,-0.88831 -1.818151,-4.54306 z m 28.98768,-9.93751 c -5.206404,-5.20526 -8.389315,-12.24135 -8.222035,-18.16994 0.288413,-10.18325 1.248246,-8.80579 4.659582,6.6773 1.17787,5.3483 6.177778,11.65529 11.550307,14.57056 5.211024,2.82759 7.456019,5.20295 4.990676,5.27909 -2.466499,0.11537 -8.306253,-3.68474 -12.97853,-8.35701 z m 274.652196,6.13162 c 2.49879,-1.00367 5.48444,-0.87676 6.63347,0.27688 1.15364,1.15365 -0.88831,1.96697 -4.54191,1.817 -4.032,-0.16152 -4.85224,-0.9806 -2.09156,-2.09041 z m -80.86373,-8.77924 c -5.37139,-4.22581 -13.75724,-7.57371 -18.63602,-7.44218 -8.17935,0.21919 -8.23703,0.1269 -0.74987,-1.2321 8.1759,-1.48244 8.33511,-2.82298 2.37075,-19.98347 -1.32323,-3.80704 1.82621,0.38071 6.99917,9.31224 5.29293,9.13804 14.11604,18.55987 20.18305,21.55243 5.9286,2.92449 8.26358,5.35292 5.18911,5.39676 -3.07446,0 -9.9848,-3.37904 -15.35734,-7.60368 z m 101.41364,5.23986 c 4.28234,-0.83063 11.29075,-0.83063 15.57424,0 4.28233,0.81909 0.78447,1.49975 -7.78712,1.49975 -8.56584,0 -12.07061,-0.68066 -7.78712,-1.49975 z m 184.84193,-4.47961 c 0,-4.7588 0.78448,-6.70499 1.74547,-4.32619 0.95754,2.37999 0.95754,6.27355 0,8.65236 -0.95752,2.37998 -1.74547,0.42686 -1.74547,-4.32617 z m 90.31095,-5.19142 c 0,-7.61406 0.74988,-10.32167 1.57472,-6.01627 0.83063,4.30542 0.79602,10.53511 -0.11535,13.84377 -0.86525,3.30866 -1.54358,-0.20766 -1.50436,-7.8275 z m -351.29358,6.36006 c 2.37882,-0.95753 6.27238,-0.95753 8.65235,0 2.37882,0.95753 0.42685,1.74546 -4.32617,1.74546 -4.7588,0 -6.70615,-0.78447 -4.32618,-1.74546 z m 20.76564,0 c 2.37882,-0.95753 6.27239,-0.95753 8.65236,0 2.37882,0.95753 0.42685,1.74546 -4.32617,1.74546 -4.7588,0 -6.70616,-0.78447 -4.32619,-1.74546 z m 19.10094,-0.11536 c 3.3675,-0.87678 8.03977,-0.81909 10.38282,0.12689 2.34305,0.946 -0.41531,1.66588 -6.1224,1.5955 -5.71055,-0.11536 -7.62792,-0.84216 -4.26042,-1.72354 z m 64.17739,0 c 2.49879,-1.00367 5.48442,-0.87678 6.63346,0.27686 1.15365,1.15366 -0.89985,1.96813 -4.54191,1.817 -4.03199,-0.1615 -4.85223,-0.99213 -2.09155,-2.0904 z m -41.53129,-3.46094 c 2.49879,-1.00368 5.48442,-0.87678 6.63345,0.27687 1.15366,1.15365 -0.89984,1.96812 -4.5419,1.81699 -4.032,-0.16151 -4.85223,-0.99213 -2.09155,-2.0904 z m 68.13784,-0.77295 c 13.62573,-1.61625 17.10167,-3.28443 16.34718,-7.84825 -0.53068,-3.18754 0.62296,-6.77192 2.55649,-7.96709 2.06503,-1.27593 2.66376,0 1.45243,3.20021 -2.6107,6.80191 0,6.90227 5.57212,0.21919 3.53592,-4.26041 2.85874,-5.78092 -3.90279,-8.75041 l -8.18166,-3.59245 8.65235,1.9612 c 4.75878,1.07289 22.43266,3.35134 39.27476,5.05067 16.84209,1.69931 31.51186,3.98008 32.59859,5.06681 1.87238,1.87237 -32.04715,-0.24227 -51.4988,-3.21752 -6.60577,-1.0152 -11.67951,1.36823 -18.81828,8.81963 -8.2578,8.62005 -12.22173,10.11748 -25.56482,9.65833 l -15.79227,-0.54221 17.3047,-2.05118 z M 19.601924,663.32705 c 0,-7.61407 0.749872,-10.32168 1.57473,-6.01626 0.830625,4.30541 0.796019,10.5351 -0.115367,13.84375 -0.865229,3.30867 -1.54358,-0.21919 -1.504354,-7.82749 z M 163.1456,672.9427 c 6.14432,-0.76141 17.04629,-0.77294 24.22658,0 7.1803,0.74987 2.15386,1.37399 -11.17076,1.39014 -13.32462,0 -19.20015,-0.59989 -13.05582,-1.36245 z m 180.26195,0.13844 c 2.49881,-1.00368 5.48445,-0.87678 6.63463,0.27687 1.15365,1.15364 -0.89985,1.96697 -4.54306,1.817 -4.03199,-0.16152 -4.85225,-0.98061 -2.09157,-2.09041 z m 18.81944,-3.57631 c 5.2341,-0.79601 13.79994,-0.79601 19.03518,0 5.2341,0.79601 0.94599,1.44207 -9.51759,1.44207 -10.46935,0 -14.75283,-0.64606 -9.51759,-1.44207 z m 147.6449,-3.86241 c 1.8666,-3.48748 6.11202,-8.54852 9.43568,-11.24806 3.73782,-3.0364 2.90258,-0.62297 -2.19308,6.3416 -9.08959,12.41671 -12.49747,14.72631 -7.2426,4.90646 z m 20.63413,-3.17599 c -4.30426,-5.48905 -4.18197,-5.61134 1.30707,-1.30708 3.33059,2.61301 6.05665,5.33793 6.05665,6.05664 0,2.84836 -2.84258,1.01522 -7.36372,-4.74956 z m 53.84877,-5.92628 c 11.29075,-6.47542 20.91677,-14.41943 21.39093,-17.65196 0.47299,-3.23366 2.71914,-7.62214 4.98721,-9.75293 3.18869,-2.99371 3.21522,-2.10541 0.11537,3.91317 -2.34652,4.56036 -2.61993,7.78711 -0.65758,7.78711 5.72901,0 17.66233,-19.65121 17.66233,-29.08689 0,-7.93479 1.31401,-8.9223 11.24806,-8.46431 10.46936,0.48453 10.58934,0.62297 1.73048,1.96004 -6.94726,1.04983 -9.57527,3.48171 -9.72986,8.99845 -0.26534,9.57643 -16.41639,44.2735 -16.80402,36.11031 -0.38071,-7.92094 -0.11537,-8.00054 -24.04662,6.05664 -11.36803,6.66232 -21.96313,12.06599 -23.5471,12.00831 -1.58279,0 6.35892,-5.40252 17.64966,-11.87794 z M 5.5597343,652.94884 c 0.1153673,-5.71055 0.8421659,-7.62792 1.7235476,-4.26042 0.8767715,3.36751 0.8190924,8.03977 -0.1268985,10.38282 -0.9459919,2.34306 -1.6658695,-0.4153 -1.5954938,-6.1224 z M 500.07281,652.66043 c 0.16152,-4.032 0.98061,-4.85224 2.09041,-2.09041 1.00367,2.49765 0.87678,5.48329 -0.27687,6.63347 -1.15365,1.15365 -1.96812,-0.89984 -1.81815,-4.54306 z m 64.07586,1.15365 c 1.35438,-2.37882 4.85225,-7.10763 7.77558,-10.50741 2.92219,-3.39981 6.38429,-12.74434 7.69252,-20.76565 2.30614,-14.14026 2.39151,-14.22101 2.81144,-2.65686 0.28841,7.78482 -2.73529,16.49947 -8.68927,25.09183 -8.60159,12.41209 -14.95357,18.2657 -9.59027,8.83809 z m -192.40409,-0.46146 c 0,-0.7268 3.11716,-2.14232 6.9265,-3.13792 3.80934,-0.99214 6.05433,-0.40377 4.98721,1.3267 -1.86313,3.01447 -11.91371,4.5419 -11.91371,1.81122 z m 25.62827,-9.92137 -6.59309,-7.78711 8.65236,6.88497 c 4.75878,3.78627 9.3007,7.29104 10.0944,7.78711 0.79602,0.49607 -0.13844,0.89984 -2.05925,0.89984 -1.92544,0 -6.46851,-3.50362 -10.09442,-7.78711 z M 24.071153,642.56603 c 1.322077,-3.80705 2.47804,-8.8681 2.568023,-11.24806 0.115358,-2.37882 3.317886,-4.32618 7.171063,-4.32618 6.190475,0 6.375053,0.5076 1.583961,4.32618 -2.982181,2.37996 -7.29105,7.44101 -9.575271,11.24806 -4.151977,6.92186 -4.151977,6.92186 -1.747776,0 z M 264.44734,620.0699 c 23.61862,-23.09254 58.84407,-51.43881 58.84407,-47.35375 0,0.84217 -8.95577,8.23936 -19.9004,16.44063 -10.94581,8.20128 -30.15864,24.35118 -42.69649,35.88996 -17.17203,15.80381 -16.24564,14.57633 3.75282,-4.97684 z M 70.64273,642.45411 c 0,-1.0152 3.456327,-3.12061 7.680979,-4.68265 7.529856,-2.78606 7.47909,-2.94987 -2.595708,-8.40201 -5.652866,-3.05947 -8.902687,-5.62403 -7.224131,-5.70017 1.678556,-0.11536 8.630436,3.30867 15.447326,7.52293 12.331327,7.621 12.352099,7.67291 3.87048,10.03789 -11.074998,3.08715 -17.178946,3.52209 -17.178946,1.22401 z m 39.2413,-3.75858 c 5.40367,-2.92794 9.04113,-6.10624 8.0836,-7.06377 -0.95752,-0.95753 -4.88569,0 -8.7308,2.00157 -3.8451,2.05811 -8.26127,3.66744 -9.814073,3.57746 -4.905308,-0.27687 34.998183,-20.2765 40.438793,-20.26034 2.85527,0.008 -0.63451,2.43419 -7.76752,5.39098 -7.12723,2.95564 -12.1629,6.66232 -11.19037,8.23705 1.9462,3.14715 -11.61491,13.79992 -17.28739,13.57957 -1.95544,-0.11536 0.86522,-2.53456 6.26776,-5.46252 z M 423.6587,637.3746 c -2.03734,-3.80702 -2.92565,-6.92188 -1.97389,-6.92188 0.95752,0 3.39749,3.11486 5.43483,6.92188 2.03734,3.80705 2.92564,6.92189 1.97388,6.92189 -0.94598,0 -3.39748,-3.11484 -5.43482,-6.92189 z m 81.96661,-6.92188 c 1.13058,-8.56582 2.6211,-16.22257 3.30751,-17.01628 2.60378,-3.00641 0.62297,19.05824 -2.30152,25.66864 -2.04657,4.6215 -2.38113,1.74661 -1.00367,-8.65236 z m -495.172959,5.45907 c 1.038285,-2.70761 4.406929,-5.89052 7.484859,-7.0707 4.596137,-1.76393 4.453085,-0.88832 -0.807551,4.92375 -7.5390821,8.33049 -9.2660947,8.8854 -6.680764,2.14695 z M 220.1173,627.85703 c -0.35763,-8.08938 -2.27267,-14.709 -4.25004,-14.709 -1.97734,0 -0.80754,-2.83106 2.59571,-6.292 7.99246,-8.12167 34.80553,-23.57593 29.21381,-16.83748 -2.31884,2.79414 -8.76426,6.96342 -14.32253,9.26609 -9.22225,3.81974 -10.2144,5.89399 -11.34382,23.734 -1.02673,16.27102 -1.34861,17.08204 -1.89313,4.83839 z m 258.1862,0 c -11.41765,-12.1456 -23.48941,-32.22483 -23.40751,-38.93559 0,-2.85528 3.01218,1.30477 6.61733,9.24417 3.60515,7.9394 11.35765,19.46088 17.22856,25.60519 9.99059,10.45436 12.21135,13.6038 9.59142,13.6038 -0.5999,0 -5.10835,-4.28233 -10.0298,-9.51757 z m -293.44973,4.74956 c 0,-0.71527 2.72492,-3.44364 6.05665,-6.05664 5.48906,-4.30426 5.61134,-4.18197 1.30709,1.30708 -4.52115,5.76477 -7.36374,7.59791 -7.36374,4.74956 z m 204.8704,-7.34527 c 0.11537,-5.71056 0.84216,-7.62792 1.72355,-4.26043 0.87676,3.3675 0.81909,8.03977 -0.12691,10.38283 -0.94598,2.34306 -1.66586,-0.41532 -1.59549,-6.1224 z m 61.87355,-0.46146 c -3.94547,-5.01491 -7.12608,-10.85583 -7.06839,-12.97853 0,-2.12271 1.83314,-0.74987 3.94546,3.06293 2.11233,3.80704 6.19971,9.64794 9.08382,12.97853 2.88412,3.33173 4.33657,6.05665 3.2279,6.05665 -1.10749,0 -5.24447,-4.10353 -9.18879,-9.11958 z m 208.91738,-15.77958 -10.16477,-11.05425 11.51339,9.32377 c 13.77224,11.15461 16.51677,11.46264 21.36555,2.40305 2.03733,-3.80703 2.4815,-6.93111 0.99214,-6.94265 -1.49514,0 1.727,-2.33959 7.15953,-5.17411 5.43252,-2.83334 11.12115,-4.3827 12.64165,-3.44363 1.52051,0.94599 4.4727,-3.19444 6.56195,-9.18649 4.72072,-13.54381 4.86148,-12.64397 -1.88621,-12.07406 -3.12639,0.26533 -6.45004,-1.70164 -7.38565,-4.37002 -1.3117,-3.74013 0.70372,-4.37002 8.8081,-2.7503 9.22109,1.84468 10.78891,0.99214 12.77779,-6.93342 1.46052,-5.81899 0.65758,-10.05749 -2.25884,-11.90564 -5.65864,-3.58899 -30.47589,-3.89932 -30.50588,-0.38069 0,3.14253 -17.62773,13.47805 -22.45574,13.18618 -1.89314,-0.11537 -3.66169,-4.57191 -3.93048,-9.90637 -0.26534,-5.33447 -1.57818,-10.78545 -2.9118,-12.11329 -3.47941,-3.46556 -16.31026,13.42729 -14.25908,18.77329 1.33708,3.48287 -0.32302,3.69513 -7.53217,0.95753 -7.53446,-2.86451 -10.1567,-2.35575 -14.1437,2.74453 -4.71612,6.03242 -4.81533,6.03011 -2.71108,0 3.12639,-9.03306 -3.52669,-19.40896 -16.23412,-25.31332 -10.63547,-4.94107 -3.28212,-4.57652 8.90615,0.43838 4.91801,2.02465 7.88403,-1.6278 15.98493,-19.68353 14.73554,-32.84201 30.67895,-43.85818 60.0208,-41.47014 9.60642,0.78448 36.48639,22.28039 41.87739,33.49499 2.74568,5.71054 5.85706,16.15336 6.91611,23.2056 1.57935,10.53511 0.74987,13.19311 -4.63536,14.90397 -4.05276,1.28631 -7.41333,6.63578 -8.7954,13.9995 -1.22979,6.55502 -3.38364,11.91833 -4.78649,11.91833 -1.40282,0 -5.05066,6.36582 -8.10781,14.14602 -3.05602,7.78135 -6.9392,13.29232 -8.62814,12.24827 -1.69009,-1.03828 -8.29702,3.49209 -14.68246,10.08057 -6.38544,6.58848 -13.35,11.97832 -15.47502,11.97832 -2.12616,0 -8.44009,-4.97453 -14.03066,-11.0554 z m -510.92023,5.23063 c 2.49879,-1.00367 5.48443,-0.87678 6.63347,0.27687 1.15365,1.15365 -0.88832,1.96697 -4.54191,1.817 -4.032,-0.16152 -4.85224,-0.9806 -2.09156,-2.09041 z m 46.57272,0 c 3.3675,-0.87678 8.03976,-0.81909 10.38282,0.1269 2.34306,0.94599 -0.41531,1.66587 -6.1224,1.59549 -5.71055,-0.11536 -7.62792,-0.84216 -4.26042,-1.72354 z m 40.6003,0.79602 c 0,-0.95754 7.67637,-5.63326 17.06012,-10.38744 9.38263,-4.75534 18.04074,-10.23285 19.23937,-12.17213 1.19865,-1.93928 3.85435,-3.52671 5.90322,-3.52671 2.04772,0 0.009,2.90028 -4.53037,6.4466 -9.71371,7.58522 -37.67234,22.16155 -37.67234,19.63968 z m 372.62797,-0.70372 c -1.26901,-1.26902 -2.3073,-6.62079 -2.3073,-11.8941 0,-8.22205 -1.60125,-9.78525 -11.24805,-10.98273 l -11.24806,-1.39591 12.45016,-0.55375 c 9.04805,-0.40378 13.56803,-2.68107 16.54561,-8.34086 2.51263,-4.77496 3.38134,-5.32063 2.24499,-1.40861 -5.88475,20.26265 -5.84207,22.42689 0.47299,24.057 6.10395,1.57588 6.10164,1.65664 -0.11536,2.04196 -4.21658,0.26534 -5.7417,2.18616 -4.43462,5.59287 2.13886,5.57442 1.29669,6.58502 -2.40535,2.88413 z m -442.71202,-3.59592 c 4.28234,-0.83064 11.29074,-0.83064 15.57423,0 4.28234,0.83062 0.78449,1.49974 -7.78712,1.49974 -8.56582,0 -12.07061,-0.68066 -7.78711,-1.49974 z m 385.5765,-4.47962 c 0,-4.75879 0.78449,-6.705 1.74547,-4.32617 0.95752,2.37997 0.95752,6.27353 0,8.65235 -0.95754,2.37998 -1.74547,0.42685 -1.74547,-4.32618 z M 389.37808,599.3458 c -0.36917,-6.65656 6.67731,-32.21791 8.40777,-30.48744 0.71527,0.71527 -0.80754,9.04229 -3.40441,18.49412 -2.59224,9.45183 -4.84416,14.84859 -5.00336,11.99332 z m 27.51217,-1.03829 c -0.3461,-6.30007 10.70469,-22.97372 20.93753,-31.58454 10.40013,-8.75158 10.62972,-9.45876 4.52577,-13.92107 -5.65864,-4.13813 -7.99594,-3.4621 -19.48395,5.63672 -7.1803,5.68632 -13.05467,8.98691 -13.05467,7.33373 0,-1.65317 4.67227,-5.76592 10.38283,-9.13918 5.71054,-3.37327 10.38282,-7.69484 10.38282,-9.60296 0,-3.87626 -3.20368,-2.35921 -20.76565,9.82791 l -12.11329,8.40664 13.18849,-11.68876 13.18734,-11.68759 -16.64828,-7.52524 c -9.15765,-4.13814 -21.32169,-8.10899 -27.03225,-8.82309 -9.76909,-1.22172 -9.66641,-1.3267 1.73047,-1.75932 8.3651,-0.32302 21.05636,4.34002 41.01445,15.05509 15.89495,8.53469 31.46919,15.63999 34.60941,15.78997 4.74611,0.23073 4.83378,0.61144 0.51915,2.26922 -11.37726,4.37348 -28.45933,20.02963 -34.6671,31.77259 -3.60745,6.82383 -6.6277,11.16154 -6.71075,9.63988 z m 89.90717,-5.19141 c -0.20766,-12.37057 21.88007,-38.78562 32.40479,-38.75101 2.12271,0.008 -1.29324,3.15407 -7.58984,6.99341 -6.61155,4.03084 -14.25793,13.16658 -18.09496,21.61819 -3.65359,8.05016 -6.67845,12.61283 -6.71999,10.13941 z m 62.335,-12.46169 c -2.22076,-6.72693 -8.72503,-16.17644 -14.45403,-20.99753 -5.73017,-4.82109 -9.03191,-8.76541 -7.33835,-8.76541 8.3824,0 32.31826,35.50578 27.31143,40.51261 -0.81908,0.81909 -3.29943,-4.0216 -5.51905,-10.74967 z m -212.76248,5.16949 c -1.06136,-1.72587 1.17787,-2.32345 4.98721,-1.3267 8.0813,2.11348 9.10228,4.46462 1.93928,4.46462 -2.74337,0 -5.85938,-1.41207 -6.92649,-3.13792 z m -99.75931,-4.21313 c 2.34765,-2.36612 5.14064,-3.42864 6.20545,-2.36382 1.06136,1.06135 -0.8537,3.0018 -4.26849,4.3008 -4.93183,1.87814 -5.32985,1.48128 -1.93696,-1.93698 z m 115.13395,-3.03178 c -6.32659,-4.08852 -0.86524,-4.08852 8.65236,0 4.56383,1.96121 5.15333,3.03871 1.73047,3.16446 -2.85529,0.11535 -7.52756,-1.31978 -10.38283,-3.16446 z m 273.68775,-5.47981 c 0.16151,-4.032 0.99214,-4.85226 2.0904,-2.09042 1.00368,2.49765 0.87678,5.48329 -0.27687,6.63347 -1.15364,1.15365 -1.96812,-0.88832 -1.81815,-4.54305 z m -225.51952,-2.69954 c 4.60882,-5.67595 17.58965,-14.25677 17.58965,-11.62877 0,0.65758 -5.0622,4.90762 -11.24805,9.43568 -6.95996,5.09566 -9.378,5.9309 -6.3416,2.19309 z M 300.7953,565.8035 c 9.83368,-9.2038 39.02788,-31.70683 45.63019,-35.17123 4.15774,-2.1827 11.16615,-3.84396 15.57423,-3.69398 8.55776,0.28841 6.66578,1.35669 -8.23588,4.63421 -5.13026,1.13056 -16.50407,8.26125 -25.27525,15.85226 -13.58072,11.75451 -37.75886,27.80058 -27.69329,18.37874 z m 355.50554,-14.38828 c 0.24227,-8.72503 1.08442,-10.22246 3.41019,-6.05664 1.86775,3.33865 1.74431,7.93478 -0.31149,11.58952 -2.74223,4.87071 -3.34904,3.78629 -3.0964,-5.53288 z m -173.98842,-6.01973 c 10.36898,-4.70689 22.82837,-9.38377 27.68753,-10.39321 4.85916,-1.0152 -2.56111,2.93142 -16.49023,8.75734 -30.21171,12.63704 -37.90769,13.76071 -11.1973,1.63587 z m 46.1055,-14.20716 c 3.3675,-0.87677 8.03977,-0.81909 10.38282,0.1269 2.34305,0.94599 -0.41531,1.66587 -6.1224,1.59549 -5.71055,-0.11536 -7.62792,-0.84217 -4.26042,-1.72354 z m 29.35224,-3.35481 c 2.37881,-0.95752 6.27237,-0.95752 8.65236,0 2.37881,0.95753 0.43838,1.74546 -4.32619,1.74546 -4.75879,0 -6.70615,-0.78447 -4.32617,-1.74546 z"
       id="path3511"
       inkscape:connector-curvature="0" />
  </g>
</svg>
