<?xml version="1.0" encoding="UTF-8" standalone="no"?>
<!-- Created with Inkscape (http://www.inkscape.org/) -->

<svg
   xmlns:dc="http://purl.org/dc/elements/1.1/"
   xmlns:cc="http://creativecommons.org/ns#"
   xmlns:rdf="http://www.w3.org/1999/02/22-rdf-syntax-ns#"
   xmlns:svg="http://www.w3.org/2000/svg"
   xmlns="http://www.w3.org/2000/svg"
   xmlns:sodipodi="http://sodipodi.sourceforge.net/DTD/sodipodi-0.dtd"
   xmlns:inkscape="http://www.inkscape.org/namespaces/inkscape"
   width="210mm"
   height="297mm"
   viewBox="0 0 744.09448819 1052.3622047"
   id="svg2"
   version="1.1"
   inkscape:version="0.91 r13725"
   sodipodi:docname="half_jack.svg">
  <defs
     id="defs4" />
  <sodipodi:namedview
     id="base"
     pagecolor="#ffffff"
     bordercolor="#666666"
     borderopacity="1.0"
     inkscape:pageopacity="0.0"
     inkscape:pageshadow="2"
     inkscape:zoom="0.98994949"
     inkscape:cx="1184.8366"
     inkscape:cy="452.14647"
     inkscape:document-units="px"
     inkscape:current-layer="layer1"
     showgrid="false"
     inkscape:window-width="3200"
     inkscape:window-height="1699"
     inkscape:window-x="0"
     inkscape:window-y="50"
     inkscape:window-maximized="1" />
  <metadata
     id="metadata7">
    <rdf:RDF>
      <cc:Work
         rdf:about="">
        <dc:format>image/svg+xml</dc:format>
        <dc:type
           rdf:resource="http://purl.org/dc/dcmitype/StillImage" />
        <dc:title></dc:title>
      </cc:Work>
    </rdf:RDF>
  </metadata>
  <g
     inkscape:label="Layer 1"
     inkscape:groupmode="layer"
     id="layer1">
    <path
       style="fill:#000000"
       d="m 69.751921,845.34722 c -3.620035,-4.36195 -4.353361,-12.68096 -2.326827,-26.39637 9.263228,-62.69369 9.355301,-70.48406 1.209308,-102.38383 -8.110086,-31.75897 -8.125718,-35.13968 -0.508218,-110.99777 1.849999,-18.42495 0.799634,-26.93978 -4.281982,-34.69454 -3.887237,-5.93277 -6.46549,-17.92728 -6.099317,-28.37503 l 0.634915,-18.09819 2.533211,19.00538 2.533201,19.00538 31.399716,0 31.399572,0 5.47383,-21.11709 c 3.01059,-11.6144 5.68288,-27.76898 5.9384,-35.89906 0.35054,-11.15715 2.33316,-6.69172 8.08419,18.20941 4.19075,18.14522 8.30507,33.6767 9.14286,34.51463 0.83764,0.83763 17.35825,0.43782 36.71192,-0.88833 30.58135,-2.09609 35.65818,-3.57372 38.77549,-11.28583 l 3.58709,-8.87396 0.26748,9.05079 c 0.33224,11.24541 -9.27406,15.52177 -32.37293,14.41044 -30.37102,-1.46116 -35.25358,1.83451 -32.92801,22.22645 l 2.01442,17.6636 -4.3704,-17.94953 c -2.60696,-10.70664 -6.80645,-17.94953 -10.4072,-17.94953 -3.78249,0 -7.051,-6.34329 -8.75303,-16.98729 -3.72506,-23.29482 -8.71123,-24.57481 -12.32845,-3.16461 -1.6629,9.84211 -5.7385,19.8802 -9.05698,22.30669 -3.63917,2.66103 -6.35905,12.988 -6.85362,26.02231 -0.4505,11.88583 -2.39566,20.65618 -4.32126,19.4901 -1.92573,-1.16708 -2.22251,-11.4183 -0.66026,-22.78212 l 2.84166,-20.66166 -22.56925,-0.003 -22.569246,-0.004 -0.602537,28.51132 c -0.332244,15.68113 -1.588288,42.7652 -2.792943,60.1868 -1.55901,22.54701 0.01408,40.80428 5.461015,63.35129 6.238977,25.82915 6.890228,36.74261 3.528523,59.12785 -7.047047,46.92387 -6.886839,48.70953 4.261152,47.50079 5.420335,-0.58706 12.841161,0.60254 16.490759,2.64513 4.489497,2.51236 0.896779,3.38971 -11.107307,2.71227 -14.303454,-0.80667 -17.490866,0.30832 -16.442328,5.75342 2.745502,14.25615 35.080132,10.4227 41.241402,-4.8893 2.77365,-6.89319 3.84372,-7.4825 4.04054,-2.2249 0.61521,16.41544 -35.19769,27.21021 -46.21814,13.93151 z m 120.416419,-1.55929 c -11.68803,-2.50012 -12.9024,-4.51695 -15.97719,-26.53405 -1.83044,-13.10555 -1.63446,-46.34793 0.43501,-73.87195 2.82068,-37.50902 4.04561,-43.961 4.89086,-25.75905 0.62084,13.35656 1.60279,26.18519 2.18351,28.50807 0.58001,2.32288 1.36979,7.54937 1.75286,11.6144 0.52651,5.58294 2.23841,4.54975 6.99792,-4.22342 3.46559,-6.38791 8.14078,-11.6144 10.38946,-11.6144 2.2487,0 4.38757,-6.17675 4.75304,-13.7261 0.36603,-7.54937 2.02316,-1.37262 3.6838,13.7261 1.66052,15.09872 5.97023,38.83983 9.57689,52.75796 3.60666,13.91814 5.87506,25.98825 5.04065,26.82266 -0.83483,0.83483 -3.54344,-6.75212 -6.02035,-16.85891 -2.47675,-10.10664 -6.40269,-24.2123 -8.7243,-31.34593 -2.32162,-7.1335 -4.22118,-16.16105 -4.22118,-20.06124 0,-10.61894 -6.42691,-8.54862 -12.09756,3.89724 -4.31633,9.47326 -5.93952,10.21419 -11.77178,5.37373 -6.05301,-5.02361 -6.55856,-3.84626 -4.80175,11.1846 1.07978,9.23957 3.40069,20.60029 5.15722,25.24604 2.54686,6.7365 2.27078,7.16404 -1.36417,2.11171 -3.93918,-5.47608 -4.56594,-5.33305 -4.62183,1.05586 -0.0422,4.06504 1.65797,7.39098 3.76335,7.39098 2.10551,0 2.83405,3.80107 1.61912,8.44684 -2.48408,9.49917 3.40773,10.9012 15.10703,3.59483 5.9736,-3.73055 10.84109,-3.4922 21.05979,1.03051 14.15972,6.2677 16.40319,11.68916 8.22243,19.86992 -5.38753,5.38753 -14.55179,5.74414 -35.03367,1.36276 z m 34.5936,-7.14377 c 0.81371,-2.48266 -3.1511,-6.99145 -8.80921,-10.0195 -8.50652,-4.5527 -12.54454,-4.50667 -23.32551,0.26608 -16.10925,7.13054 -16.52343,11.04114 -1.42372,13.44075 17.87688,2.84109 31.92594,1.29799 33.55844,-3.68676 z m 486.97788,8.09489 c -13.95206,-4.59649 -25.34051,-11.56598 -25.34051,-15.50797 0,-2.29037 3.32594,-1.27407 7.39099,2.25812 9.37612,8.14754 28.92928,12.88621 39.42575,9.55464 5.08541,-1.61406 8.30112,-6.77268 8.66279,-13.89674 0.56312,-11.07943 0.61803,-11.10168 2.51279,-1.00799 2.97723,15.85908 -13.12652,25.03234 -32.65181,18.59979 z M 316.93086,830.68858 c -6.53799,-7.22444 -6.92654,-10.80365 -2.86573,-26.39636 2.58389,-9.92138 5.43414,-22.79014 6.33386,-28.59733 1.50227,-9.69543 1.68303,-9.56281 2.21111,1.62179 0.31675,6.69904 -1.60814,19.46742 -4.2765,28.37404 -5.49974,18.35597 -1.1727,27.33285 14.66117,30.4151 8.93633,1.73948 8.94619,1.80635 0.34774,2.36525 -4.86651,0.31676 -12.25172,-3.18587 -16.41179,-7.78249 z m 35.60201,-3.28807 c 8.26115,-6.68962 8.75135,-9.26843 4.96491,-26.12044 -3.31622,-14.75944 -2.8677,-20.98025 2.12917,-29.53253 5.87167,-10.04991 5.75807,-8.61142 -0.89677,11.33832 -1.75779,5.26985 0.0563,4.52962 6.33513,-2.57952 4.84017,-5.48383 8.80033,-8.0922 8.80033,-5.7965 0,2.29585 -3.03664,6.6944 -6.74818,9.77468 -4.84623,4.02197 -6.07201,9.7675 -4.34899,20.38461 2.36328,14.56403 -5.53127,29.95361 -15.36578,29.95361 -2.22025,0 0.0845,-3.34002 5.12947,-7.42223 z m 347.38138,-1.86929 c -2.78746,-2.78746 -5.01038,-7.06366 -4.93971,-9.50269 0.0704,-2.43902 2.06567,-1.10935 4.43332,2.9564 4.67504,8.0266 18.68891,9.96586 22.89051,3.16755 1.43554,-2.32288 5.82395,-4.21172 9.75187,-4.19737 4.51863,0.0141 2.69848,2.34343 -4.95534,6.33513 -14.63766,7.63411 -20.51906,7.90258 -27.18065,1.24028 z m -372.50551,-3.2257 c -8.73952,-2.19646 -9.30855,-3.13407 -3.30285,-5.4423 3.9907,-1.53367 8.43614,-0.87848 9.87871,1.45538 1.70542,2.75944 4.70757,2.51407 8.58213,-0.70108 3.60188,-2.98933 5.9591,-3.24907 5.9591,-0.65744 0,6.16013 -8.90564,8.41445 -21.11709,5.34544 z m -221.06258,-6.27305 c -1.56957,-4.09052 -0.31818,-5.34121 3.77165,-3.77151 3.36592,1.29095 6.12001,4.04561 6.12001,6.12001 0,6.07159 -7.3282,4.33182 -9.89166,-2.3485 z m 572.66217,-13.24394 c -7.29595,-6.89233 -9.36909,-13.28758 -8.92761,-27.53809 0.35618,-11.48165 1.298,-14.53391 2.47084,-8.00239 1.04319,5.80719 6.6761,15.61299 12.51892,21.79058 7.08126,7.487 9.42582,13.14849 7.03185,16.97969 -2.88812,4.62212 -5.45215,3.98959 -13.094,-3.22979 z m 5.58096,-8.38996 c -4.4726,-3.27033 -9.08218,-4.99588 -10.24362,-3.83444 -1.16144,1.16144 1.5476,4.78753 6.0202,8.05786 4.47246,3.27048 9.08219,4.99602 10.24363,3.83458 1.16144,-1.16143 -1.54775,-4.78752 -6.02021,-8.058 z m 46.70468,3.89217 c -4.62451,-9.69754 -6.32697,-19.74027 -4.64478,-27.39915 2.33147,-10.61528 1.45511,-12.08249 -7.18277,-12.02577 -5.41118,0.0282 -12.58677,1.80355 -15.94593,3.92877 -8.03013,5.08049 -21.32489,-2.08144 -21.40922,-11.53289 -0.0563,-6.02512 -0.71516,-6.21447 -3.93383,-1.12624 -2.54898,4.02914 -3.11562,0.42657 -1.66065,-10.55855 1.91405,-14.45268 0.14641,-19.36621 -13.26378,-36.87987 -8.50963,-11.11323 -14.53518,-22.51645 -13.39007,-25.34052 1.60476,-3.95734 2.15859,-3.93256 2.41552,0.11263 0.18301,2.88347 6.86755,13.80284 14.85375,24.26523 9.05924,11.86837 15.57724,26.07087 17.33066,37.76327 3.0037,20.03083 9.77566,26.02274 20.30099,17.9629 5.79791,-4.43993 5.8431,-7.53175 0.41108,-28.08263 -3.35762,-12.70123 -5.91406,-26.95527 -5.68078,-31.67564 0.23369,-4.72024 3.08155,3.77124 6.3295,18.86995 4.27776,19.88569 8.88733,29.88013 16.72431,36.26087 8.42446,6.85897 10.21913,11.19825 8.10883,19.60637 -1.66727,6.64259 -0.0282,15.99958 4.28014,24.31535 3.84458,7.43476 6.24039,14.26741 5.32405,15.18375 -0.91648,0.91648 -4.9514,-5.22268 -8.96646,-13.64248 z m -614.72278,4.50441 c 0.20273,-4.92 1.20367,-5.92081 2.55165,-2.55164 1.22057,3.04874 1.06993,6.69144 -0.33366,8.09488 -1.40357,1.40358 -2.40157,-1.09105 -2.21827,-5.54324 z m -3.9886,-24.98855 c -0.38433,-9.29153 -2.09946,-14.69047 -3.8129,-11.99761 -2.22531,3.49755 -5.9598,2.59275 -13.073452,-3.16757 -5.476924,-4.43501 -8.227077,-8.06363 -6.111563,-8.06363 2.115649,0 5.786084,1.9394 8.156403,4.30972 2.930632,2.93063 4.539752,-4.03914 5.028832,-21.78172 0.39559,-14.35019 1.85491,-27.21768 3.2433,-28.59437 1.3881,-1.37683 1.99359,6.20546 1.34445,16.84919 -0.64899,10.64357 1.23042,25.16847 4.17456,32.27747 2.94457,7.109 4.54243,18.35624 3.55064,24.99377 -1.44765,9.68866 -1.94081,8.73712 -2.50069,-4.82525 z m 253.23279,-21.93476 c -4.14486,-9.09695 -5.96769,-10.17153 -8.98546,-5.29715 -3.89568,6.29205 -37.85324,8.93535 -37.86295,2.94724 -0.003,-1.74215 1.85169,-3.16756 4.12093,-3.16756 7.2533,0 17.50875,-19.95199 21.02995,-40.91352 2.81561,-16.76148 3.50164,-17.89505 3.91117,-6.46422 0.27311,7.62397 -2.39763,20.78907 -5.93531,29.25575 -4.20301,10.05934 -4.99687,16.8292 -2.29064,19.53543 6.59317,6.59332 17.79819,-5.259 14.87657,-15.73575 -1.98093,-7.10337 -1.58576,-7.62397 1.95163,-2.57136 2.70215,3.8595 4.46078,4.37645 4.5002,1.32333 0.0422,-2.75676 8.38883,-17.17101 18.56277,-32.03166 26.60782,-38.86461 37.0681,-64.13923 32.0297,-77.39119 -2.66723,-7.01538 -2.61078,-9.75202 0.16612,-8.03604 2.31584,1.43132 4.262,5.81621 4.32493,9.74412 0.0845,5.02602 4.71981,2.18422 15.66071,-9.59306 l 15.54654,-16.73474 -18.82828,-5.38809 c -14.07792,-4.02872 -15.23204,-4.86806 -4.57438,-3.32651 7.83965,1.13329 21.14342,2.25108 29.56393,2.48267 11.52106,0.31676 13.07767,1.1009 6.28993,3.16756 -12.75796,3.8847 -38.98975,36.63675 -51.04846,63.7373 -5.62389,12.639 -14.93091,28.57227 -20.68207,35.40717 -5.75118,6.83489 -14.20787,19.77995 -18.79267,28.76669 -7.84176,15.37141 -7.92102,16.97265 -1.33742,27.02016 3.84895,5.87421 6.09919,11.57935 5.00039,12.67814 -1.09949,1.0995 -4.33759,-3.13758 -7.1974,-9.41414 z m -8.50934,-37.54505 c 0.20273,-4.92 1.20367,-5.92082 2.55165,-2.55165 1.22056,3.04874 1.06993,6.69144 -0.33365,8.09488 -1.40358,1.40358 -2.40158,-1.09105 -2.21828,-5.54323 z M 95.454098,714.10337 c 0.20272,-4.92 1.203675,-5.92082 2.55165,-2.55165 1.220564,3.04874 1.069927,6.69144 -0.333652,8.09488 -1.403579,1.40358 -2.401574,-1.09105 -2.218283,-5.54323 z m 114.032292,-8.44684 c 0.20273,-4.92 1.20368,-5.92081 2.55165,-2.55165 1.22057,3.04874 1.06994,6.69144 -0.33365,8.09489 -1.40358,1.40358 -2.40157,-1.09105 -2.21827,-5.54324 z m -98.48449,-30.75986 2.32008,-31.11196 -10.15648,3.04058 c -9.101194,2.72481 -9.405131,2.44677 -2.92585,-2.67539 3.97692,-3.14391 8.78767,-10.03963 10.69074,-15.32397 4.91691,-13.65361 6.33766,48.04828 1.48552,64.5123 -2.57333,8.73121 -3.01285,2.99777 -1.41401,-18.44156 z m 102.70791,13.86618 c 0.20272,-4.92 1.20368,-5.9208 2.55165,-2.55164 1.22057,3.04874 1.06993,6.69143 -0.33365,8.09488 -1.40358,1.40358 -2.40157,-1.09105 -2.21828,-5.54324 z m -41.30193,-18.65343 c 0,-12.77584 0.79118,-18.00232 1.75947,-11.6144 0.96716,6.38792 0.96716,16.84089 0,23.2288 -0.96715,6.38792 -1.75947,1.16144 -1.75947,-11.6144 z m 176.5807,8.02126 c -0.70391,-16.7208 7.82585,-38.28642 20.71389,-52.36715 16.85186,-18.41115 21.60054,-29.74653 20.85299,-49.77693 -1.98359,-53.15722 3.30736,-182.9278 7.29582,-178.93934 1.10091,1.1009 -0.0422,36.74402 -2.54883,79.2081 -2.68413,45.55098 -2.99089,78.17618 -0.74755,79.57033 2.09059,1.2994 4.68419,7.11449 5.76341,12.92169 1.0798,5.8072 2.48,-0.84468 3.11267,-14.78197 0.6321,-13.93728 1.97388,-21.0643 2.9806,-15.83782 1.00659,5.22649 3.34931,9.50269 5.20593,9.50269 4.51483,0 1.39091,25.22367 -3.91497,31.61764 -2.30908,2.78225 -2.9478,6.30909 -1.41935,7.83755 1.52846,1.52845 -0.18302,2.779 -3.8022,2.779 -3.61961,0 -7.71914,4.53426 -9.11006,10.07623 -1.39091,5.54183 -7.38267,14.56939 -13.31488,20.06124 -14.03456,12.9925 -22.79661,29.62756 -27.11871,51.48601 -2.40919,12.18427 -3.6282,14.23531 -3.94806,6.64273 z M 218.79706,653.21575 c 0.0704,-15.09872 -0.98687,-40.75599 -2.3447,-57.01615 -1.35853,-16.26016 -1.67529,-23.86232 -0.7039,-16.89368 0.97138,6.96865 3.82852,25.02376 6.34864,40.12248 3.01552,18.06609 3.21332,33.22831 0.57861,44.34589 -3.82867,16.15458 -3.99831,15.69253 -3.8785,-10.55854 z m 171.96296,16.89367 c 2.48632,-4.64576 5.47087,-8.44684 6.63232,-8.44684 1.16144,0 0.0704,3.80108 -2.4089,8.44684 -2.48633,4.64576 -5.47088,8.44684 -6.63232,8.44684 -1.16144,0 -0.0704,-3.80108 2.4089,-8.44684 z m 266.84374,-2.11171 c -2.64583,-5.8072 -4.1198,-10.55855 -3.27526,-10.55855 0.84469,0 4.64858,4.75135 8.4536,10.55855 3.80502,5.80721 5.27898,10.55855 3.2754,10.55855 -2.00359,0 -5.80777,-4.75134 -8.45374,-10.55855 z m 37.87519,-0.11263 c -0.34772,-7.03409 -7.36465,-26.8363 -15.59244,-44.00478 -8.22778,-17.16847 -13.98894,-33.74455 -12.80273,-36.83566 1.18679,-3.09127 0.31536,-5.62053 -1.93418,-5.62053 -2.24995,0 -4.0908,-2.59233 -4.0908,-5.76075 0,-4.26226 -5.12948,-3.16376 -19.72125,4.22342 -10.84659,5.49129 -23.44364,9.98417 -27.99338,9.98417 -7.62749,0 -7.4045,1.06993 2.86009,13.7261 14.66034,18.07596 32.23201,51.62763 31.99887,61.09921 -0.0985,4.1422 -2.75971,0.31395 -5.90617,-8.50624 -6.52236,-18.28501 -21.58575,-41.94643 -37.51493,-58.92809 l -10.89459,-11.6144 13.68543,0 c 24.56241,0 69.46917,-28.90592 46.4469,-29.8973 -4.43938,-0.19146 -5.49044,-1.24168 -2.46366,-2.46366 2.9036,-1.1713 5.39964,-9.09893 5.54704,-17.61616 0.34068,-19.72703 5.5583,-8.20103 10.19603,22.5249 2.91473,19.31032 3.53655,20.2137 7.2678,10.55854 3.76265,-9.73638 3.03692,-24.26143 -2.84884,-57.01614 -2.15788,-12.00887 -1.96107,-11.89864 3.76912,2.11171 8.61817,21.07077 8.44839,58.62991 -0.30831,68.30633 -6.56474,7.254 -6.024,9.80565 8.7491,41.28659 10.30486,21.95938 15.13082,37.64572 13.96515,45.39344 l -1.78116,11.83867 -0.6321,-12.78937 z M 173.97984,632.56703 c -1.5607,-7.80333 -2.62937,-18.22658 -2.37483,-23.16277 0.25481,-4.93605 2.14563,-0.42235 4.20258,10.03062 2.05709,10.45296 3.12575,20.87621 2.37496,23.16277 -0.75035,2.2867 -2.64203,-2.22715 -4.20271,-10.03062 z m 204.10992,4.01085 c 0,-2.18577 1.87872,-5.13541 4.17499,-6.55447 2.39411,-1.47975 3.1021,0.21539 1.65995,3.97409 -2.80773,7.3168 -5.83494,8.65548 -5.83494,2.58038 z M 202.8179,615.21146 c 1.43568,-2.32288 3.44828,-4.22342 4.4726,-4.22342 1.02488,0 1.86253,1.90054 1.86253,4.22342 0,2.32287 -2.01274,4.22342 -4.47274,4.22342 -2.45987,0 -3.29807,-1.90055 -1.86239,-4.22342 z m 441.34723,0.49836 c 0,-2.32288 1.90054,-5.39795 4.22342,-6.83363 2.32287,-1.43554 4.22342,-0.70954 4.22342,1.6132 0,2.32289 -1.90055,5.39809 -4.22342,6.83363 -2.32288,1.43568 -4.22342,0.70954 -4.22342,-1.6132 z m -90.34231,-16.68588 c -0.94463,-1.54986 -3.9648,-11.37043 -6.71214,-21.82339 -5.58701,-21.25745 -15.01439,-38.01077 -21.38921,-38.01077 -2.31909,0 -6.35428,4.6918 -8.96703,10.42608 -2.61274,5.73442 -6.38609,9.41526 -8.38517,8.17977 -1.99909,-1.23465 -9.43273,1.88238 -16.5192,6.92838 -7.08647,5.046 -13.80664,8.2527 -14.93344,7.12575 -2.17267,-2.17267 26.04863,-19.98972 31.66254,-19.98972 1.8172,0 5.46891,-4.75134 8.11488,-10.55855 2.64597,-5.8072 6.59712,-10.55855 8.78035,-10.55855 6.06145,0 20.19455,25.25366 25.68458,45.89435 l 4.90521,18.44212 17.49551,-2.79773 c 9.62264,-1.53874 16.61662,-1.95911 15.54247,-0.93479 -4.11981,3.93032 -33.64727,10.35526 -35.27935,7.67649 z m -58.92583,-3.9451 c 2.68764,-1.7102 6.79238,-9.75834 9.12174,-17.88491 2.32935,-8.12642 4.40657,-11.57314 4.61605,-7.6593 0.6124,11.43377 -7.38943,28.78865 -13.2407,28.71839 -3.91553,-0.0422 -4.05124,-0.91226 -0.49695,-3.17418 z m 69.35655,-24.56537 c 0.20272,-4.92 1.20368,-5.92081 2.55165,-2.55165 1.22057,3.04875 1.06993,6.69145 -0.33365,8.09489 -1.40358,1.40358 -2.40157,-1.09105 -2.21814,-5.54324 z m 7.56302,-17.36233 c 5.09682,-9.80129 12.56622,-16.02365 15.5968,-12.99307 0.99814,0.99814 -3.18783,6.41453 -9.30109,12.03731 -10.59712,9.74681 -10.89051,9.79129 -6.29571,0.9559 z m 98.51236,-3.40281 c 0.0845,-6.96864 1.03333,-9.30814 2.10355,-5.19888 1.07133,4.10924 1.00094,9.81085 -0.15627,12.67025 -1.15722,2.8594 -2.03316,-0.50259 -1.94699,-7.47137 z M 4.42479,529.54012 C -1.02807,516.48961 -1.4153561,504.70811 1.9343768,453.7841 l 3.9666368,-60.30225 -1.7687714,60.18371 c -1.0291,35.00496 -0.1464121,60.18371 2.1080556,60.18371 2.1322616,0 4.7231882,6.17675 5.7573592,13.72612 1.034741,7.54935 1.759903,2.82631 1.612502,-10.49562 -0.14782,-13.32179 1.027701,-25.51691 2.610498,-27.10014 1.583217,-1.58321 2.878537,2.30163 2.878537,8.6331 0,6.80561 1.774404,10.41509 4.34027,8.8292 6.523349,-4.03168 0.64618,24.20906 -6.551085,31.48234 -5.209873,5.26449 -6.863061,4.01985 -12.463589,-9.38415 z m 275.08025,10.72664 c -1.50452,-2.43438 -1.38106,-13.65051 0.27593,-24.92451 l 3.0113,-20.49836 2.74704,14.78197 c 2.68202,14.43255 2.75903,14.48252 3.25725,2.11171 0.28016,-6.96864 -2.31992,-21.99979 -5.77918,-33.40274 -3.45912,-11.4028 -6.05231,-27.55738 -5.76244,-35.89905 0.45332,-13.03671 0.96858,-12.15895 3.66987,6.24995 1.72878,11.77911 5.29279,25.433 7.92004,30.34216 6.57713,12.28959 6.00697,48.4184 -0.91367,57.8828 -3.52543,4.82131 -6.73114,6.09819 -8.42586,3.35607 z m -103.77629,-6.76043 c -0.4688,-10.07848 12.11206,-31.34875 20.43121,-34.54109 3.91581,-1.50255 2.67089,1.55394 -3.16179,7.76251 -5.29152,5.63249 -11.26019,15.7159 -13.26365,22.40734 -2.23855,7.47644 -3.78277,9.16144 -4.00577,4.37124 z m 51.52585,-17.54535 c 0.0282,-11.6144 0.85172,-15.86442 1.82269,-9.44454 0.97138,6.41973 0.94464,15.92242 -0.0563,21.11708 -1.00236,5.19453 -1.79678,-0.0563 -1.76511,-11.67254 z m 226.0648,16.12037 c 3.04875,-1.22057 6.69145,-1.06993 8.09489,0.33365 1.40358,1.40359 -1.09105,2.40157 -5.54324,2.21814 -4.92014,-0.20272 -5.92081,-1.20368 -2.55165,-2.55151 z m -332.85816,-4.53384 c 0,-2.5318 -5.17144,-10.74917 -11.49192,-18.26065 -6.32063,-7.51149 -8.71362,-12.73136 -5.31799,-11.59934 7.45292,2.48421 23.11434,28.15879 19.4266,31.84654 -1.4392,1.43921 -2.61669,0.54482 -2.61669,-1.98655 z m 293.16817,-12.64238 c -1.56942,-8.7108 -4.98153,-18.57825 -7.58231,-21.92785 -3.58681,-4.61943 -3.48361,-5.34263 0.42656,-2.99483 3.41577,2.05076 5.96545,-0.88269 7.55556,-8.69193 1.32053,-6.48295 6.09848,-25.09091 10.6188,-41.35107 4.52032,-16.26016 8.97716,-33.365 9.90406,-38.01076 1.26421,-6.33542 1.80791,-5.7088 2.17534,2.50645 0.26889,6.02429 -3.01763,21.22859 -7.30468,33.78735 -4.28705,12.55876 -9.13019,31.38647 -10.76254,41.83944 -2.74719,17.59223 -2.49167,18.37736 3.43688,10.55854 3.52261,-4.64576 6.46521,-10.05399 6.53912,-12.01829 0.0704,-1.96432 3.58962,-8.6162 7.8129,-14.78197 8.4978,-12.40644 21.05937,-53.72822 23.3082,-76.67349 1.37965,-14.08384 1.48059,-13.95938 2.12466,2.63654 0.37166,9.58026 -2.17492,25.4986 -5.65924,35.37423 -8.49723,24.08362 -8.36631,24.55326 7.39099,26.50871 l 13.7261,1.70344 -15.06014,0.67574 c -13.07824,0.58706 -16.3566,3.03805 -24.91212,18.62542 -5.41864,9.87225 -12.59944,21.14793 -15.95748,25.05684 -4.10376,4.77711 -5.17285,11.35452 -3.26048,20.06124 1.56492,7.12476 1.83001,12.95393 0.58987,12.95393 -1.24028,0 -3.54007,-7.12702 -5.10977,-15.83782 z m 75.72715,12.73727 c 16.14332,-1.67065 16.19358,-1.73386 8.44684,-10.61444 l -7.79305,-8.9338 11.17924,8.15683 c 14.54195,10.61036 11.49474,14.6592 -10.3727,13.782 l -17.70021,-0.70953 16.23988,-1.68064 z m 153.71723,0.60113 c -1.72273,-1.72273 -3.13208,-6.42551 -3.13208,-10.45071 0,-4.0252 -6.5242,-17.01348 -14.4983,-28.86284 -7.97409,-11.84937 -15.70422,-25.34418 -17.17819,-29.98838 -3.19163,-10.05568 -2.89994,-10.03499 -29.17847,-2.06314 -11.40281,3.45911 -24.70657,6.13099 -29.56393,5.93756 -4.85735,-0.19287 2.40961,-3.07141 16.14867,-6.39525 13.73906,-3.32368 27.2119,-7.89553 29.93981,-10.15942 3.47742,-2.88615 4.66899,-23.06395 3.98691,-67.51473 -0.901,-58.69932 1.88082,-77.16791 8.11755,-53.89575 4.15486,15.50389 3.17051,25.09739 -2.23264,21.75807 -6.66033,-4.11629 -1.13329,94.71382 6.20969,111.04592 8.00183,17.7965 29.92095,51.68507 33.52817,51.83711 1.74216,0.0704 3.16757,-3.0341 3.16757,-6.90557 0,-3.87146 0.97983,-6.05877 2.17815,-4.86087 1.19805,1.19804 0.70672,9.25942 -1.09105,17.91405 -1.79819,8.65477 -4.67884,14.32654 -6.40157,12.60395 z m -85.09315,-10.73762 c 10.50153,-3.98635 22.31077,-9.76581 26.24278,-12.84341 6.39073,-5.00222 6.54855,-4.82906 1.48833,1.63179 -3.11337,3.97507 -9.76525,8.72642 -14.78197,10.55854 -6.73424,2.45944 -1.93671,3.99014 18.3309,5.84915 25.0018,2.29318 23.97875,2.49703 -11.4608,2.28487 l -38.9129,-0.23369 19.09366,-7.24782 z M 53.256519,496.59731 c 0.204128,-14.90514 1.895184,-36.60296 3.759122,-48.21735 2.229397,-13.89084 2.627805,-5.21945 1.164255,25.3405 -2.454371,51.25611 -5.504525,65.42836 -4.923662,22.87685 z m 204.777791,13.52705 c -1.26422,-2.04526 -2.03639,-18.67497 -1.7164,-36.95491 0.397,-22.71834 -1.64446,-38.45352 -6.45324,-49.72259 -3.86936,-9.06754 -6.29782,-17.22366 -5.39668,-18.1248 0.90099,-0.901 4.99405,6.51772 9.09527,16.48625 5.21057,12.66505 7.29496,28.23806 6.91936,51.69732 -0.3618,22.57868 1.17271,34.65892 4.68631,36.89015 3.87569,2.46169 3.92567,3.33453 0.19427,3.38254 -2.76661,0.0282 -6.06426,-1.6087 -7.32833,-3.65396 z m 13.41414,-2.94161 c -1.74216,-1.75695 -3.04706,-9.05445 -2.89981,-16.21666 0.26186,-12.7353 0.35899,-12.79541 4.3804,-2.72706 4.5244,11.32551 3.53373,24.0007 -1.48059,18.94372 z M 26.04531,489.56181 c 1.182561,-4.52258 -0.846094,-15.39563 -4.509622,-24.16233 -7.782352,-18.62556 -8.062512,-20.49653 -2.560375,-17.09597 2.254877,1.39373 5.203109,-2.77057 6.551645,-9.25351 1.348679,-6.48295 6.061306,-25.09091 10.472527,-41.35107 4.411363,-16.26016 8.80639,-34.31528 9.766936,-40.12247 l 1.746383,-10.55855 0.575792,11.16953 c 0.316762,6.14325 -3.549219,24.19836 -8.590007,40.12248 -5.77088,18.2308 -9.337272,40.99137 -9.630381,61.46017 -0.256221,17.879 -1.704433,33.74638 -3.218944,35.26089 -1.514663,1.51467 -1.786088,-0.94604 -0.603954,-5.46917 z m 520.89588,-3.46772 c 12.72882,-5.92489 29.83366,-14.64639 38.01077,-19.38112 l 14.86727,-8.6086 -10.55855,8.66337 c -12.59859,10.33737 -52.08207,30.19856 -59.91791,30.14027 -3.04974,-0.0282 4.86946,-4.88888 17.59842,-10.81392 z m 119.40603,-3.92679 c 0.0422,-9.29152 0.91226,-12.59522 1.92208,-7.34171 1.0094,5.25351 0.97139,12.85567 -0.0845,16.89367 -1.05726,4.03802 -1.88364,-0.26044 -1.83676,-9.55196 z M 222.9736,475.83217 c 0,-10.45296 0.82357,-14.72917 1.83029,-9.50269 1.00659,5.22649 1.00659,13.7789 0,19.00539 -1.00658,5.22647 -1.83029,0.95027 -1.83029,-9.5027 z m 421.68144,12.0383 c -0.26889,-3.83191 -6.90543,-23.78756 -14.74662,-44.3459 -8.48443,-22.24503 -15.13857,-48.49358 -16.43487,-64.83103 -1.28392,-16.17738 -0.75459,-23.9831 1.28954,-19.00537 1.9073,4.64575 3.60146,16.56508 3.76461,26.4873 0.16472,9.99923 6.98343,35.15208 15.29808,56.43023 8.25059,21.11441 14.17266,41.50437 13.16017,45.3108 -1.69486,6.37173 -1.87985,6.36807 -2.33091,-0.0422 z m -532.96035,-10.98244 -10.23883,-11.61441 11.6144,10.23884 c 6.38792,5.63151 11.6144,10.85799 11.6144,11.6144 0,3.31243 -3.42012,0.61662 -12.98997,-10.23883 z m 376.3698,2.81363 c -31.96875,-11.34367 -33.39782,-14.75141 -5.2469,-12.51159 17.30574,1.37684 20.51961,2.44719 11.41618,3.80165 -11.77982,1.75257 -11.03776,2.41593 10.55854,9.43989 12.77585,4.15514 19.42773,7.53205 14.78197,7.50417 -4.64576,-0.0282 -18.82519,-3.73308 -31.50979,-8.23412 z m -323.25736,-0.58142 c 6.96864,-2.4707 18.37187,-8.42304 25.34051,-13.2276 11.12984,-7.67353 11.90005,-7.77742 6.33513,-0.85595 -6.65695,8.28058 -29.70837,19.47658 -38.9309,18.90867 -2.97822,-0.18302 0.28719,-2.35498 7.25526,-4.82568 z m 325.20322,-20.3442 c -7.98338,-2.13395 -2.51518,-2.52321 14.78196,-1.05163 15.09873,1.28391 28.24412,3.03297 29.21198,3.88652 3.20234,2.82435 -31.08999,0.61521 -43.99394,-2.83418 z M 215.48816,433.59827 c -1.63827,-11.91187 -2.08666,-22.54996 -0.99673,-23.6403 1.08964,-1.08965 3.28075,7.80572 4.86777,19.76883 1.58702,11.96312 2.03527,22.60134 0.99672,23.64031 -1.03896,1.03896 -3.2295,-7.85697 -4.86776,-19.76884 z m 444.84872,-10.55855 c -1.55859,-18.58304 -3.91399,-38.53869 -5.23451,-44.34589 -1.32053,-5.8072 0.47866,-2.00613 3.99803,8.44684 3.68451,10.94329 5.90504,29.75483 5.2345,44.34589 l -1.16425,25.34051 -2.83363,-33.78735 z M 543.15504,436.5434 c 12.03898,-8.74487 24.98856,-15.05029 24.98856,-12.16725 0,2.00359 -4.84075,5.84845 -10.75733,8.54426 -9.86521,4.49484 -18.43509,6.67666 -14.23123,3.62299 z m -436.15595,-5.83015 c 3.04875,-1.22057 6.69145,-1.06993 8.09489,0.33365 1.40358,1.40359 -1.09105,2.40157 -5.54324,2.21828 -4.92,-0.20272 -5.92081,-1.20367 -2.55165,-2.55165 z m -25.604472,-4.13543 c 2.9036,-1.1713 7.654946,-1.1713 10.558549,0 2.903599,1.1713 0.527923,2.13015 -5.279276,2.13015 -5.8072,0 -8.182873,-0.95871 -5.279273,-2.13015 z m 64.740502,-3.89004 c 0.20272,-4.92001 1.20368,-5.92082 2.55165,-2.55165 1.22057,3.04874 1.06993,6.69144 -0.33365,8.09488 -1.40359,1.40359 -2.40158,-1.09105 -2.21828,-5.54323 z m 403.16315,-13.37417 c 11.88527,-20.69489 18.84533,-30.07933 18.84533,-25.40992 0,3.70522 -26.16367,45.47116 -28.48485,45.47116 -1.03474,0 3.30285,-9.02755 9.63952,-20.06124 z m -489.072696,4.37138 c -1.774814,-8.46993 -0.382919,-20.38686 3.700987,-31.67563 4.379822,-12.10785 5.865199,-26.48436 4.488365,-43.43801 -1.295178,-15.94537 -0.796817,-21.42582 1.344455,-14.78196 5.502832,17.07697 4.696157,39.89173 -2.09073,59.12786 -8.286212,23.48572 -8.069686,25.25112 3.167565,25.83043 6.732967,0.34772 7.424066,1.03895 2.371308,2.37145 -3.922146,1.03473 -7.807413,5.09048 -8.633936,9.01277 -0.881288,4.18203 -2.679337,1.51579 -4.347871,-6.44691 z m 529.368476,4.77937 c 0.20273,-4.92001 1.20367,-5.92082 2.55165,-2.55165 1.22057,3.04874 1.06994,6.69144 -0.33365,8.09488 -1.40358,1.40359 -2.40158,-1.09105 -2.21813,-5.54323 z M 272.5043,394.36314 c 0,-14.61064 -2.85081,-37.50988 -6.33513,-50.88713 -7.91215,-30.37694 -7.66212,-35.30552 0.67715,-13.35149 6.51717,17.15693 13.29392,90.80349 8.35534,90.80349 -1.48369,0 -2.6975,-11.95424 -2.6975,-26.56487 z m -153.09892,15.13743 c 5.22648,-1.00658 13.77891,-1.00658 19.00539,0 5.22648,1.00658 0.95026,1.83029 -9.50269,1.83029 -10.45297,0 -14.72917,-0.82356 -9.5027,-1.83029 z m 35.89906,-4.15416 c 4.06504,-1.06148 10.71693,-1.06148 14.78197,0 4.06504,1.0629 0.73909,1.93151 -7.39099,1.93151 -8.13008,0 -11.45602,-0.86861 -7.39098,-1.93151 z m 30.61978,-4.07813 c 30.09341,-6.36371 28.10531,-4.36265 25.71415,-25.88209 l -2.2135,-19.92117 4.40517,18.29924 c 6.17619,25.65558 3.28723,30.36426 -18.27065,29.78017 -9.94502,-0.2689 -14.28093,-1.29378 -9.63517,-2.27615 z m 51.20276,-7.95579 c -4.07546,-10.62063 -2.8732,-13.36092 2.10552,-4.79921 2.46521,4.23933 3.59243,8.59747 2.50505,9.68486 -1.08683,1.08682 -3.16222,-1.11076 -4.61057,-4.88565 z m -72.89296,-4.08616 c 15.31425,-7.9869 19.93453,-7.90694 9.26857,0.16049 -4.50907,3.41041 -11.16095,6.18914 -14.78197,6.17478 -3.62101,-0.0141 -1.14032,-2.86517 5.5134,-6.33513 z M 399.27147,384.677 c 0.0422,-4.45218 1.99388,-10.94569 4.35181,-14.43001 3.13082,-4.62661 3.52262,-2.91796 1.45286,6.33513 -3.47362,15.52922 -5.89097,18.90036 -5.80467,8.09488 z m 38.27952,0 c 0.20273,-4.92 1.20367,-5.9208 2.55165,-2.55164 1.22056,3.04875 1.06993,6.69144 -0.33365,8.09488 -1.40358,1.40358 -2.40158,-1.09105 -2.21814,-5.54324 z M 6.9644707,371.97409 c -0.2942323,-9.50311 2.2947244,-26.60796 5.7538473,-38.01077 3.459257,-11.4028 6.355253,-29.2849 6.435643,-39.73786 0.213985,-27.89061 14.333997,-87.49628 23.825426,-100.58001 4.524692,-6.23729 18.52617,-16.60549 31.114212,-23.04029 12.587894,-6.43495 24.69714,-13.50973 26.909361,-15.72196 2.54715,-2.54714 6.70961,1.98064 11.35101,12.34759 8.22623,18.37398 18.85306,23.50262 40.34448,19.4708 16.75359,-3.14293 27.93961,-19.81909 19.1739,-28.5848 -2.72439,-2.72438 -4.95351,-6.83715 -4.95351,-9.13947 0,-2.30219 2.37568,-0.94183 5.27928,3.02241 2.9036,3.96453 17.63277,13.50368 32.73149,21.19804 20.45205,10.42256 29.8576,18.21363 36.88537,30.5539 5.18832,9.1102 9.38048,18.46451 9.31615,20.78739 -0.0704,2.32288 -4.21567,-3.37874 -9.22479,-12.67026 l -9.10752,-16.89368 -2.87643,12.67026 c -2.82082,12.42586 -2.886,12.36617 -3.37606,-3.09647 -0.46176,-14.58388 -2.14156,-16.5986 -22.38792,-26.85826 l -21.88829,-11.09169 -7.92228,10.87545 c -9.26421,12.7177 -32.90297,18.60837 -47.67156,11.87935 -5.51761,-2.51406 -12.92886,-10.17253 -16.46921,-17.01883 l -6.43706,-12.44796 -25.537606,12.85932 c -21.894485,11.02481 -25.140042,14.13015 -22.750427,21.7675 5.759757,18.40917 5.801288,21.20424 0.140779,9.26196 l -5.841411,-12.31662 -6.500828,10.20491 c -7.899059,12.40009 -19.954525,69.70301 -19.954525,94.84995 0,10.05328 -2.052015,23.6289 -4.559879,30.16802 -2.508015,6.53912 -6.06807,23.29257 -7.911313,37.22985 -2.8910679,21.85958 -3.4249086,22.9671 -3.8869515,8.06223 z m 192.1517493,4.44472 c -1.44836,-3.77447 -2.47014,-10.03315 -2.27038,-13.90827 0.19991,-3.87499 2.03724,-1.43949 4.08377,5.41245 3.98113,13.33023 2.57319,19.92707 -1.81339,8.49582 z m 29.41934,-11.45109 c -1.16426,-7.54936 -3.30201,-22.983 -4.74993,-34.29683 -2.65935,-20.77823 -8.26974,-22.08764 -11.38901,-2.65808 -0.93198,5.8072 -1.18116,-6.11115 -0.55187,-26.48534 0.6293,-20.3742 2.54673,-39.31496 4.26227,-42.09073 1.71556,-2.77577 4.43516,-11.76335 6.04372,-19.97226 2.40848,-12.29128 3.01031,-12.96126 3.41027,-3.79587 0.26748,6.12114 -2.07567,17.22113 -5.20621,24.66659 -4.91211,11.68254 -4.68955,17.39021 1.62517,41.66318 6.9982,26.90008 13.67782,76.69545 10.28811,76.69545 -0.88833,0 -2.56798,-6.17675 -3.73252,-13.72611 z m 209.13129,9.35628 c -0.24777,-1.24169 3.35184,-13.07275 7.99761,-26.29078 8.67096,-24.6704 11.55048,-60.44782 4.51525,-56.09981 -2.16239,1.336 -5.30686,0.20414 -6.98764,-2.51505 -1.90871,-3.0883 -1.22479,-3.81346 1.81987,-1.93137 3.35241,2.07202 4.87594,-1.90307 4.87594,-12.72149 0,-8.65436 1.22197,-14.51293 2.71622,-13.01897 1.49396,1.49397 3.04874,26.99285 3.45518,56.66419 0.40685,29.67135 0.002,49.67177 -0.89819,44.44529 -2.20025,-12.77119 -6.88853,-11.97635 -12.45542,2.11171 -2.52405,6.38792 -4.79147,10.59825 -5.03868,9.35628 z m 143.48037,-23.88892 c -0.18302,-9.73526 1.16988,-18.6295 3.00736,-19.76504 1.83746,-1.1361 2.6499,4.92901 1.80565,13.47679 -2.30867,23.37324 -4.43867,26.15605 -4.81301,6.28825 z m 46.12423,11.86358 c 0,-2.32288 1.90054,-5.39796 4.22342,-6.83364 2.32288,-1.43554 4.22342,-0.70953 4.22342,1.61321 0,2.32288 -1.90054,5.39809 -4.22342,6.83363 -2.32288,1.43568 -4.22342,0.70954 -4.22342,-1.6132 z m 19.6282,-7.58751 c -2.86799,-14.90656 -7.17798,-86.0164 -4.68996,-77.37937 2.57726,8.94704 9.86688,86.29486 8.28775,87.93791 -0.71799,0.74614 -2.33682,-4.0045 -3.59779,-10.55854 z M 408.91931,340.68306 c 0,-12.77584 0.79119,-18.00232 1.75948,-11.6144 0.96716,6.38793 0.96716,16.84088 0,23.22881 -0.96717,6.38791 -1.75948,1.16144 -1.75948,-11.61441 z M 49.002263,328.01281 c 6.1569,-12.92802 8.107697,-15.32398 8.107697,-9.95798 0,2.26615 -2.955691,7.80939 -6.568116,12.3183 -6.193084,7.73013 -6.281067,7.5954 -1.539581,-2.36032 z M 192.32397,312.87889 c 0.0422,-9.09795 1.7316,-19.17375 3.76884,-22.39059 2.26459,-3.57583 2.8418,2.16886 1.48509,14.78197 -2.76732,25.72891 -5.33924,29.45355 -5.25393,7.60862 z m 339.51934,6.03329 -8.04561,-9.10062 11.6144,7.47461 c 11.97579,7.70732 14.24052,10.72664 8.04561,10.72664 -1.9629,0 -7.18938,-4.09531 -11.6144,-9.10063 z m -54.50321,-3.56963 c -5.56957,-2.39327 -6.28896,-3.70887 -2.11171,-3.86189 3.48432,-0.1267 9.18593,1.6101 12.67026,3.86189 7.72026,4.98926 1.05163,4.98926 -10.55855,0 z M 59.117636,303.72815 c 1.601237,-4.06503 3.971137,-17.36881 5.266182,-29.56393 2.090311,-19.68366 1.458621,-22.21039 -5.627141,-22.50631 -4.454588,-0.18583 -5.648968,-1.27547 -2.702572,-2.46366 2.903599,-1.1713 5.501423,-8.14867 5.772992,-15.50446 0.350549,-9.4765 1.649524,-6.60457 4.45965,9.85465 4.459222,26.11804 0.957311,67.5747 -5.709072,67.5747 -2.45677,0 -3.096195,-3.23725 -1.460039,-7.39099 z m 197.196614,-9.50269 c -0.4505,-10.45296 -1.79692,-23.75673 -2.99215,-29.56393 l -2.17323,-10.55855 4.5375,10.39736 c 2.49562,5.71851 3.84204,19.02241 2.99215,29.56392 l -1.54535,19.16659 -0.81934,-19.00539 z m 156.48356,8.44684 c -0.0422,-5.80721 1.44287,-15.30989 3.30271,-21.1171 2.64964,-8.27367 3.36438,-8.73064 3.30272,-2.11171 -0.0422,4.64577 -1.52958,14.14845 -3.30272,21.1171 -2.89599,11.38099 -3.23203,11.59581 -3.30271,2.11171 z m 191.52331,2.11171 c 1.63558,-4.64577 4.39896,-15.09872 6.14112,-23.22881 3.11294,-14.52729 3.17334,-14.56375 3.50362,-2.11171 0.18442,6.96865 -2.57868,17.4216 -6.14114,23.22881 -4.24383,6.91796 -5.45187,7.64607 -3.5036,2.11171 z m 16.44148,-2.39271 c -1.53113,-2.47746 -1.87801,-5.4102 -0.77148,-6.5173 1.10654,-1.10654 3.13829,0.91929 4.51371,4.50442 2.85588,7.44208 0.42234,8.75121 -3.74279,2.01288 z M 467.35565,268.67279 c -3.15799,-12.89255 -4.79963,-27.14658 -3.64791,-31.67563 1.31489,-5.17369 2.27601,-3.02918 2.5839,5.76904 0.26888,7.70212 2.50983,17.77792 4.97856,22.39088 2.46873,4.61282 3.88977,12.56523 3.15785,17.67191 -0.83342,5.81227 -3.47798,0.51807 -7.0724,-14.1562 z m -373.026816,5.77398 c 3.048745,-1.22057 6.691446,-1.06993 8.094886,0.33365 1.40358,1.40359 -1.09105,2.40157 -5.543236,2.21828 -4.92,-0.20273 -5.920812,-1.20367 -2.55165,-2.55165 z M 420.68688,262.11861 c -0.63492,-15.51529 17.80438,-37.02783 43.46278,-50.70819 13.54295,-7.22064 26.29824,-15.77307 28.34505,-19.00539 5.46763,-8.63449 4.65449,-32.35715 -1.17552,-34.30063 -3.06607,-1.02206 -5.57576,-13.34149 -6.43452,-31.58526 -1.26703,-26.905425 -0.33928,-31.180652 9.2376,-42.561355 13.14455,-15.621297 27.00158,-19.411255 49.1589,-13.44483 13.47172,3.627495 18.3188,7.617357 23.07057,18.989897 8.07742,19.331858 7.88948,58.649208 -0.31958,66.858118 -3.48432,3.48432 -6.35694,9.79693 -6.38355,14.02781 -0.0282,4.73727 -6.30163,10.68694 -16.32464,15.48642 -15.01228,7.18841 -17.26871,7.28033 -29.0567,1.18397 -12.27663,-6.34864 -12.87931,-6.23967 -15.29328,2.76479 -3.67,13.69022 -3.60947,13.89476 8.30578,28.05519 13.58885,16.1495 30.31034,17.11301 46.90247,2.70242 10.3737,-9.00968 11.1922,-11.37015 6.57065,-18.94809 -8.19976,-13.44483 -6.21504,-19.54626 2.67991,-8.2382 4.37756,5.5652 19.37197,15.57316 33.32079,22.2401 24.65252,11.78292 43.3579,33.31166 43.09562,49.60054 -0.0563,3.16798 -4.20145,-2.79238 -9.22296,-13.24535 l -9.13018,-19.00538 -2.848,16.89367 -2.84812,16.89368 -0.59973,-19.07465 c -0.58847,-18.75156 -0.98969,-19.26386 -23.66494,-30.23714 -22.11987,-10.70454 -23.17123,-10.82969 -25.63982,-3.05184 -2.89332,9.11596 -22.58698,20.68798 -35.20782,20.68798 -14.09636,0 -21.1551,-4.50131 -30.3247,-19.33818 l -8.82357,-14.2767 -25.40837,12.82596 c -20.04631,10.11944 -24.7857,14.33484 -22.45845,19.97507 5.67952,13.76426 6.56925,23.92567 1.04178,11.89723 -4.91578,-10.69721 -6.23405,-11.35888 -11.05564,-5.54929 -3.01088,3.62792 -7.07958,11.94412 -9.04164,18.48056 -2.82026,9.3957 -3.6434,10.02527 -3.93045,3.00636 z m 123.65831,-82.23192 c 6.12044,-4.81442 11.12815,-12.21329 11.12815,-16.44191 0,-4.22864 2.85081,-8.78232 6.33513,-10.11946 3.48431,-1.33741 6.33513,-4.50328 6.33513,-7.03621 0,-2.53292 -1.42541,-3.7252 -3.16757,-2.64977 -1.74216,1.07556 -3.73942,-6.72003 -4.43825,-17.32334 -1.99867,-30.325271 -5.13525,-33.413159 -34.21912,-33.687115 l -25.36543,-0.239324 -2.84377,19.617069 c -1.56407,10.78929 -4.49752,22.81097 -6.51885,26.71468 -2.39369,4.62267 -1.71752,9.05542 1.93912,12.71206 3.08802,3.08788 6.8439,10.51321 8.34674,16.50062 2.5118,10.00823 15.18446,19.72519 26.63091,20.41994 2.59035,0.15768 9.71737,-3.65326 15.83781,-8.46753 z m -22.6592,-12.36772 c -3.48432,-2.24954 -5.38486,-4.26045 -4.22342,-4.46866 1.16144,-0.20836 6.55052,-1.20086 11.97593,-2.20505 6.36976,-1.17974 9.26857,-0.0422 8.18287,3.2174 -2.32668,6.98019 -8.42769,8.30339 -15.93538,3.45631 z m -1.73428,-27.44828 c 2.199,-8.76177 1.13469,-10.55855 -6.25474,-10.55855 -5.09964,0 -8.90466,-2.70707 -8.90466,-6.33513 0,-10.38749 16.47894,-7.58962 18.65569,3.16757 2.75325,13.60588 1.63348,24.28466 -2.54644,24.28466 -1.97994,0 -2.40749,-4.75135 -0.95027,-10.55855 z m 18.62795,-16.89368 c 0,-4.34997 2.76803,-6.42143 7.39098,-5.53113 8.90227,1.71443 8.34097,9.21001 -0.83342,11.12013 -3.82627,0.79681 -6.55812,-1.53142 -6.55812,-5.589 z M 232.20811,260.15712 c -1.53114,-2.47747 -1.87802,-5.41021 -0.77148,-6.5173 1.10654,-1.10654 3.13828,0.91929 4.51371,4.50442 2.85587,7.44208 0.42234,8.7512 -3.7428,2.01288 z m 15.3172,-10.27755 c 0.43924,-8.00015 7.47869,-21.47116 7.72379,-14.78197 0.12671,3.48432 -1.6101,9.18594 -3.86189,12.67026 -2.25178,3.48431 -3.98958,4.43458 -3.8619,2.11171 z M 78.956721,229.93278 c -3.083095,-10.57543 -4.793303,-24.66772 -3.800369,-31.31622 1.423427,-9.53197 1.93897,-8.47119 2.437892,5.01657 0.347734,9.40767 2.694261,19.1663 5.213812,21.68585 2.51955,2.51955 3.944954,8.91465 3.167563,14.21138 -1.069932,7.28906 -2.776334,4.95576 -7.018898,-9.59758 z m 42.794349,-85.63291 c -6.96188,-4.87635 -9.52522,-5.11878 -11.16488,-1.05585 -1.16989,2.90036 -2.3388,-0.42797 -2.59614,-7.39675 -0.25763,-6.96865 -3.25809,-16.35941 -6.6685,-20.86848 -3.954104,-5.2276 -6.200818,-18.003861 -6.200818,-35.260475 0,-24.828065 1.0826,-28.073765 13.116948,-39.31524 17.2835,-16.14528 44.10601,-17.119195 61.41569,-2.230101 10.22193,8.792593 11.77109,13.372186 12.62013,37.306859 0.69123,19.490798 -0.53637,27.283987 -4.29746,27.283987 -3.12942,0 -5.65558,-6.61331 -6.22729,-16.302253 -1.82087,-30.858401 -4.8385,-34.177306 -31.80784,-34.982287 -18.2615,-0.544821 -25.05121,0.909443 -27.65804,5.923619 -4.56425,8.780348 -8.73501,55.215561 -4.95928,55.215561 1.61926,0 4.76247,6.1562 6.98497,13.68064 7.80826,26.43452 45.88125,25.24394 51.25062,-1.60293 1.26844,-6.34568 5.10387,-12.61084 8.52159,-13.92235 3.41774,-1.31208 5.45652,-0.95731 4.5306,0.78555 -0.92633,1.74371 -4.03026,9.08514 -6.89824,16.31437 -8.21287,20.70108 -32.47161,28.67644 -49.96206,16.42572 z m 9.26872,-19.01115 c -1.48623,-2.40481 2.15098,-4.22342 8.44684,-4.22342 6.29584,0 9.93305,1.81861 8.44683,4.22342 -1.43569,2.32288 -5.23676,4.22342 -8.44683,4.22342 -3.21009,0 -7.01116,-1.90054 -8.44684,-4.22342 z m 0.37728,-27.452216 c 2.199,-8.761765 1.1347,-10.558548 -6.25474,-10.558548 -8.71783,0 -11.54485,-4.398832 -6.23756,-9.705975 6.43015,-6.430296 18.53179,6.169564 17.60518,18.330053 -0.5237,6.871226 -2.48436,12.493016 -4.35745,12.493016 -1.87308,0 -2.21292,-4.75135 -0.75599,-10.558546 z m 20.08532,-12.852426 c -3.20276,-8.346317 -0.2154,-11.255414 8.23004,-8.014501 3.67014,1.408374 5.63938,5.25407 4.37602,8.546229 -3.0296,7.894834 -9.47679,7.62299 -12.60606,-0.532147 z"
       id="path3400"
       inkscape:connector-curvature="0" />
  </g>
</svg>
