<?xml version="1.0" encoding="UTF-8" standalone="no"?>
<!-- Created with Inkscape (http://www.inkscape.org/) -->

<svg
   xmlns:dc="http://purl.org/dc/elements/1.1/"
   xmlns:cc="http://creativecommons.org/ns#"
   xmlns:rdf="http://www.w3.org/1999/02/22-rdf-syntax-ns#"
   xmlns:svg="http://www.w3.org/2000/svg"
   xmlns="http://www.w3.org/2000/svg"
   xmlns:sodipodi="http://sodipodi.sourceforge.net/DTD/sodipodi-0.dtd"
   xmlns:inkscape="http://www.inkscape.org/namespaces/inkscape"
   width="210mm"
   height="297mm"
   viewBox="0 0 744.09448819 1052.3622047"
   id="svg3421"
   version="1.1"
   inkscape:version="0.91 r13725"
   sodipodi:docname="jumping_jack.svg">
  <defs
     id="defs3423" />
  <sodipodi:namedview
     id="base"
     pagecolor="#ffffff"
     bordercolor="#666666"
     borderopacity="1.0"
     inkscape:pageopacity="0.0"
     inkscape:pageshadow="2"
     inkscape:zoom="0.98994949"
     inkscape:cx="870.96662"
     inkscape:cy="659.32443"
     inkscape:document-units="px"
     inkscape:current-layer="layer1"
     showgrid="false"
     inkscape:window-width="3200"
     inkscape:window-height="1699"
     inkscape:window-x="0"
     inkscape:window-y="50"
     inkscape:window-maximized="1" />
  <metadata
     id="metadata3426">
    <rdf:RDF>
      <cc:Work
         rdf:about="">
        <dc:format>image/svg+xml</dc:format>
        <dc:type
           rdf:resource="http://purl.org/dc/dcmitype/StillImage" />
        <dc:title></dc:title>
      </cc:Work>
    </rdf:RDF>
  </metadata>
  <g
     inkscape:label="Layer 1"
     inkscape:groupmode="layer"
     id="layer1">
    <path
       style="fill:#000000"
       d="m 67.878935,959.98654 c -5.885687,-4.30384 -6.755768,-8.58241 -4.664379,-22.94939 5.982805,-41.09072 7.029828,-75.44827 2.699379,-88.56735 -10.16292,-30.79342 -12.077366,-57.92159 -5.771273,-81.73307 6.852888,-25.87228 5.179245,-56.49941 -3.347283,-61.27288 -4.612496,-2.58097 -5.414727,-14.89514 -4.315816,-66.24856 0.745024,-34.69415 1.391597,-67.57019 1.444813,-73.05809 0,-5.48789 2.865681,-18.56065 6.248886,-29.05059 6.33137,-19.63391 4.436881,-58.75577 -2.847054,-58.75577 -3.903392,0 -5.969503,7.98839 -9.807704,37.9164 -1.408892,10.9758 -6.149106,30.6806 -10.536762,43.78836 -5.644885,16.8684 -8.301692,36.9118 -9.090619,68.59233 -0.851456,34.16865 -2.592949,46.23802 -7.357109,51.00351 -8.718106,8.71679 -9.910144,8.12609 -16.7856472,-8.3283 -5.2550777,-12.58025 -5.5038623,-24.38888 -1.8213172,-86.41488 2.4093528,-40.56308 6.7491158,-78.96652 9.9673524,-88.20281 3.135751,-8.99751 5.769941,-24.44117 5.855087,-34.31938 0.133039,-9.87823 3.427109,-32.84118 7.428949,-51.02868 8.366882,-38.0272 19.385249,-52.90371 48.41057,-65.35545 9.878215,-4.23773 20.204778,-10.66089 22.949393,-14.27373 5.801869,-7.63915 6.734479,-28.99006 1.263875,-28.99006 -6.002759,0 -9.580206,-16.32919 -8.744715,-39.91198 0.678503,-19.22587 2.353476,-23.31445 13.456999,-32.92739 13.68049,-11.84387 36.33851,-14.77567 51.49576,-6.6633 18.65352,9.98291 23.58265,54.37355 9.19838,82.83213 -9.64674,19.08377 -3.91004,28.09337 28.37343,44.56225 38.93279,19.86087 43.72623,29.78564 52.05852,107.765 1.29049,12.07338 4.84399,29.58728 7.89725,38.91963 3.0546,9.3325 7.2427,39.29828 9.30881,66.59075 2.06611,27.29234 5.98545,53.78152 8.70879,58.86498 5.86307,10.93987 5.47858,54.84971 -0.53217,60.86045 -5.64753,5.64888 -11.69953,-4.20406 -11.77935,-19.18037 0,-9.81568 -0.93127,-10.73898 -6.14511,-6.41518 -3.34463,2.77654 -7.10567,4.02579 -8.35624,2.77521 -1.25058,-1.25058 -2.74063,-17.22202 -3.31403,-35.49239 -0.85145,-27.28116 -3.6413,-39.80129 -15.58961,-70.05058 -8.00369,-20.25799 -14.67698,-43.6065 -14.83129,-51.88557 -0.15965,-8.27908 -1.72953,-18.64502 -3.50028,-23.03534 -5.47061,-13.55717 -9.48442,26.03539 -5.11273,50.41176 2.11533,11.78641 3.88609,26.81792 3.93665,33.40339 0,6.58548 2.89628,31.73003 6.32472,55.87732 11.22458,79.04567 11.13544,76.7587 3.08253,78.86474 -9.02143,2.3588 -14.18206,29.76369 -8.44538,44.85175 6.25955,16.46369 4.71627,50.22523 -3.96724,86.7886 l -7.96377,33.52871 9.88353,37.63036 c 14.53461,55.33662 14.48273,55.59206 -11.42946,55.59206 -30.55394,0 -32.03468,-2.82843 -30.30516,-57.87237 1.9956,-63.52656 -1.02442,-154.60437 -5.93093,-178.60611 -1.72552,-8.45068 -5.41739,-14.96698 -8.47863,-14.96698 -3.02665,0 -7.87729,-8.37354 -10.98111,-18.95821 l -5.55842,-18.95819 -3.05193,17.89122 c -1.67897,9.84096 -5.5584,19.72449 -8.62232,21.9649 -5.5757,4.07634 -8.35889,25.83103 -10.98377,85.86662 -0.71842,16.46369 -3.03065,40.15012 -5.13668,52.63726 -2.54238,15.07208 -2.4639,25.13256 0.23948,29.93397 6.25687,11.1381 10.0485,41.27165 7.58859,60.30568 -1.76012,13.61664 -4.52867,18.34886 -13.425052,22.94938 -13.869415,7.17219 -20.022511,7.27729 -29.286082,0.50556 z m 35.702595,-10.76826 c 1.11753,-1.81467 -0.13304,-7.93848 -2.65947,-13.60998 -3.365909,-7.38639 -3.509593,-12.84899 -0.50555,-19.25753 5.91096,-12.6215 5.57039,-26.90599 -0.638587,-26.90599 -2.888297,0 -7.486165,-2.69406 -10.218802,-5.9868 -9.746505,-11.74477 -14.949696,-6.58813 -17.115587,16.96258 -1.157447,12.6215 -3.423117,27.15212 -5.030239,32.28746 -2.535741,8.11145 -1.66566,9.23432 6.620067,8.53851 17.268579,-1.4488 28.004908,0 25.827042,3.55084 -1.184051,1.90646 -9.366011,3.05992 -18.195872,2.56234 -16.798952,-0.94457 -20.718308,2.93621 -9.370002,9.28619 6.856878,3.83821 27.333056,-1.02441 31.29232,-7.42762 z m 103.9747,-6.89014 c -1.80801,-12.5869 -17.96172,-69.91779 -20.38038,-72.3378 -0.89137,-0.89136 -3.48566,3.32467 -5.77926,9.3567 -3.62801,9.54296 -5.00763,10.26936 -10.63655,5.59699 -5.84179,-4.84798 -6.19035,-3.82755 -3.60671,10.54208 1.57253,8.75004 2.89628,22.64473 2.94019,30.87725 0.13304,17.16081 0.14634,17.19674 13.63259,8.36421 9.42855,-6.17704 10.51283,-6.15043 16.8229,0.42574 6.36198,6.63204 6.27018,6.88879 -1.62973,4.53001 -8.83918,-2.63952 -31.26439,6.57217 -26.82085,11.01703 1.43018,1.43018 10.34916,2.60093 19.81762,2.60093 16.50493,0 17.15284,-0.45234 15.64018,-10.9758 z M 109.50979,920.9034 c 0,-2.19516 -1.79604,-2.88164 -3.9912,-1.52464 -2.19516,1.35567 -3.99119,4.2626 -3.99119,6.45775 0,2.19517 1.79603,2.88032 3.99119,1.52464 2.19516,-1.357 3.9912,-4.2626 3.9912,-6.45775 z m -16.137742,-59.397 c -1.90912,-9.87823 -3.423119,-21.55248 -3.363251,-25.94281 0.13304,-7.98238 0.13304,-7.98238 3.275445,0 2.48651,6.25821 4.209378,3.03066 7.982388,-14.95102 6.6693,-31.78988 4.8573,-41.17319 -7.721637,-39.97717 -9.942069,0.94458 -9.94606,0.93128 -1.064315,-3.57079 9.028092,-4.58189 11.062262,-11.38821 14.317752,-47.92763 l 1.66034,-18.61893 -20.750233,-1.33707 -20.748909,-1.33572 1.831961,18.98614 c 1.011103,10.44363 -0.518856,27.39692 -3.399171,37.67424 -3.677223,13.13238 -3.940642,19.11518 -0.891367,20.13294 3.006702,0.99781 3.16635,5.70475 0.518855,15.28894 -2.945503,10.66715 -1.982294,20.34314 4.204062,42.20028 4.412935,15.59626 8.549146,28.58229 9.189069,28.85768 0.63859,0.27939 4.756177,2.53308 9.146495,5.0196 4.390322,2.48652 8.275079,4.28255 8.634287,3.99121 0.359207,-0.29271 -0.917975,-8.61169 -2.820442,-18.48989 z M 73.668832,771.80022 c -3.147724,-3.79296 -3.451056,-6.08258 -0.79824,-6.08258 4.822698,0 10.446296,7.5713 7.679066,10.33985 -0.9978,0.99781 -4.098961,-0.91796 -6.875504,-4.25727 z m 15.964793,-35.92077 c -3.147725,-3.79298 -3.451056,-6.08259 -0.79824,-6.08259 4.822701,0 10.446291,7.5713 7.679068,10.33986 -0.997799,1.01109 -4.098963,-0.90467 -6.875508,-4.25727 z M 185.3532,865.49758 c 1.47941,-1.10422 6.77172,-19.81098 11.76072,-41.58428 6.83294,-29.82224 8.3323,-44.59101 6.07594,-59.86797 -1.64703,-11.15408 -2.9495,-30.49808 -2.89363,-42.98787 l 0.13305,-22.70726 -20.49747,2.31357 c -11.27513,1.27718 -21.06021,2.77256 -21.7467,3.33398 -0.6918,0.55877 0.63859,11.5359 2.95748,24.38622 2.31223,12.85033 5.12602,49.35782 6.25021,81.12776 1.13084,31.76992 3.15038,61.24758 4.50208,65.50619 2.41466,7.60723 2.53175,7.60856 6.63071,0.13304 2.29494,-4.19873 5.38278,-8.53185 6.86086,-9.62943 z m -7.21476,-57.87237 c 0.13303,-6.58548 0.97119,-8.79659 1.98762,-4.91316 1.0111,3.88344 0.94458,9.27155 -0.14635,11.97359 -1.09092,2.70204 -1.92109,-0.47894 -1.83994,-7.06043 z m 7.20411,-55.44971 c 0,-0.86475 2.78718,-2.63817 6.19434,-3.94596 3.55217,-1.36366 5.15396,-0.69182 3.75572,1.56853 -2.34417,3.79299 -9.95006,5.60898 -9.95006,2.37743 z m -11.16072,-14.21532 c 5.50652,-8.81788 9.38463,-7.71897 5.79256,1.64172 -1.3038,3.3872 -4.23199,6.15975 -6.51363,6.15975 -2.62754,0 -2.3628,-2.86435 0.71842,-7.80147 z m 7.48483,-26.45631 c 0.18625,-4.64974 1.13083,-5.59566 2.41068,-2.41201 1.15745,2.88164 1.01111,6.32338 -0.31929,7.64978 -1.3304,1.3304 -2.26834,-1.0244 -2.09538,-5.23777 z m -60.49194,-22.68065 c 2.3668,-7.16952 5.02094,-21.08949 5.90033,-30.93179 0.87806,-9.84362 1.9477,-18.79456 2.3761,-19.89213 0.42573,-1.09092 3.76769,11.4747 7.42096,27.93838 l 6.64269,29.934 33.83471,-1.2772 c 18.6083,-0.7051 34.32164,-1.76675 34.91766,-2.36411 2.93087,-2.92954 -12.93812,-126.58829 -17.08366,-133.13133 -0.37251,-0.5907 -20.11696,1.65436 -43.87124,4.989 -23.75561,3.33464 -53.448792,6.06302 -65.985149,6.06302 l -22.79373,0 -4.540654,31.05472 c -2.660798,18.19587 -3.43376,45.46507 -1.865219,65.85477 l 2.674102,34.80058 29.035965,0 29.035965,0 4.30117,-13.03525 z m 43.0504,-9.79706 c -3.52822,-5.44666 5.26174,-24.85452 14.86721,-32.82628 9.07067,-7.5274 7.68839,1.23728 -1.50734,9.55626 -4.26659,3.86083 -8.30701,11.77138 -8.9802,17.5799 -0.79824,6.88083 -2.32287,8.86444 -4.37967,5.69012 z m -54.71533,-11.83391 c 0,-3.69984 -4.04175,-11.12746 -8.98019,-16.50626 -8.833854,-9.62011 -8.840508,-9.7066 -0.42574,-5.33091 8.93098,4.64043 19.97196,28.56501 13.18426,28.56501 -2.08074,0 -3.78365,-3.028 -3.78365,-6.72784 z m -6.36596,-41.74792 c -7.550019,-8.50392 -7.542037,-8.53052 1.15744,-3.96992 9.70128,5.08878 15.67476,12.5337 10.0565,12.5337 -1.98496,0 -7.02983,-3.85417 -11.21128,-8.56378 z m 40.29115,4.57258 c 1.357,-2.19516 5.50385,-3.99784 9.21566,-4.00716 3.71183,-0.008 12.58558,-3.57346 19.72051,-7.92387 7.13361,-4.34908 12.9714,-6.05065 12.9714,-3.78099 0,4.3411 -30.18675,19.46508 -39.14965,19.61541 -2.87367,0 -4.11494,-1.70823 -2.75792,-3.90339 z M 79.575806,582.122 c -6.468402,-2.77986 -5.333572,-3.43016 5.986796,-3.43016 7.683057,0 17.561268,1.54352 21.951588,3.43016 6.4684,2.77988 5.33358,3.43017 -5.98679,3.43017 -7.683062,0 -17.561277,-1.54352 -21.951594,-3.43017 z m 55.661254,-0.34723 c -1.4741,-2.38646 -0.67851,-6.33777 1.76011,-8.78064 3.26214,-3.2616 4.4422,-2.10868 4.4422,4.33884 0,9.63674 -2.07277,11.12173 -6.20231,4.44167 z M 17.041717,637.79975 c 0.505552,4.40495 1.781405,4.67635 5.321597,1.13083 3.540193,-3.54151 3.062578,-8.69549 -2.002252,-21.58972 -5.876373,-14.95901 -5.953536,-17.3311 -0.6652,-20.29258 3.29673,-1.84487 5.99345,-7.47391 5.99345,-12.50908 0,-5.03515 3.592078,-19.59544 7.982395,-32.3561 4.390318,-12.76067 7.982397,-30.20274 7.982397,-38.76012 0,-8.55753 3.621347,-23.50962 8.048915,-33.227 11.598421,-25.46105 14.657009,-51.82636 6.380595,-55.00255 -3.545513,-1.36048 -6.447115,-4.43211 -6.447115,-6.82575 0,-2.39366 1.79604,-3.24205 3.991197,-1.88533 5.205854,3.21745 5.067493,-11.92728 -0.279383,-31.20264 -3.319346,-11.95523 -5.3655,-14.29633 -9.497721,-10.86723 -6.977944,5.79123 -16.929331,46.76633 -20.39369,83.97745 -1.53395,16.4637 -4.463489,33.16993 -6.512305,37.12507 -2.048815,3.95501 -5.473263,34.48767 -7.6098832,67.85037 -4.9078436,76.64416 -4.9889983,85.47935 -0.9578881,102.567 3.1716713,13.42905 3.3898583,13.04457 5.6448853,-9.97799 1.290486,-13.17096 2.646163,-21.34361 3.016013,-18.15996 z M 36.337828,491.65524 c -1.46344,-1.46343 -2.660799,-4.5167 -2.660799,-6.78502 0,-2.50088 1.858569,-2.26529 4.722917,0.59867 2.598271,2.59761 3.79563,5.65087 2.660799,6.78504 -1.130839,1.13483 -3.259477,0.86475 -4.722917,-0.59869 z M 265.31418,632.82937 c -2.47453,-7.03515 -7.06042,-39.30359 -10.19086,-71.70839 -3.13043,-32.40466 -7.56598,-62.42087 -9.85825,-66.70263 -2.29095,-4.28175 -6.21031,-27.15983 -8.71013,-50.84014 -2.56634,-24.32009 -7.5846,-49.13391 -11.5319,-57.02451 l -6.98725,-13.96919 -2.83242,15.02273 c -2.77255,14.7105 -1.81201,24.83297 3.87677,40.85404 2.6342,7.41844 2.43197,7.49387 -2.86833,1.06698 -5.33491,-6.46654 -5.97882,-6.31368 -9.92877,2.35627 -3.10117,6.80645 -2.70869,15.54093 1.47407,32.85753 3.13444,12.9726 6.34867,31.78444 7.14293,41.80422 0.79824,10.01963 7.23204,31.57209 14.30577,47.89424 10.16426,23.45533 13.2255,36.7552 14.60379,63.44182 1.69494,32.81829 5.39213,49.96447 5.39213,25.00884 0,-6.82229 1.79602,-13.51419 3.99118,-14.86987 2.26302,-1.39959 3.99121,1.95303 3.99121,7.74692 0,5.61694 1.79603,10.21347 3.99119,10.21347 2.19516,0 4.20007,3.1424 4.45418,6.9846 0.42572,6.45909 0.59867,6.44578 2.32288,-0.18627 1.0244,-3.94063 -0.15964,-12.92083 -2.63819,-19.95598 z M 221.26332,486.80475 c 0,-2.19516 1.79605,-5.10116 3.99121,-6.4579 2.19517,-1.35673 3.99119,-0.67051 3.99119,1.5245 0,2.19516 -1.79602,5.10116 -3.99119,6.4579 -2.19516,1.35674 -3.99121,0.67052 -3.99121,-1.5245 z m -93.79314,75.21118 c 19.75643,-2.26566 44.27037,-5.98811 54.47452,-8.27214 l 18.55243,-4.15297 -4.05905,-14.66593 c -2.4027,-8.675 -2.83242,-25.26376 -1.05102,-40.60884 1.65369,-14.26854 2.83775,-31.3309 2.63154,-37.91639 -0.19956,-6.58547 2.09936,-20.95379 5.1247,-31.92958 3.02399,-10.97579 6.50831,-28.4752 7.74025,-38.88743 l 2.2404,-18.93159 -20.20212,-10.23662 -20.20078,-10.23663 -9.31279,10.04851 c -18.30496,19.7519 -44.95287,18.12403 -59.75888,-3.65048 l -8.106121,-11.92092 -16.898733,8.11784 c -25.078026,12.04689 -26.703775,14.56521 -20.854009,32.29145 2.759248,8.3609 5.59832,33.22167 6.307424,55.24643 0.70511,22.02476 2.46922,50.18651 3.911373,62.58171 1.882514,16.17007 0.784936,27.92802 -3.879444,41.62087 -3.577444,10.4962 -6.502993,19.54279 -6.502993,20.10354 0,0.97918 15.459241,3.70863 27.938386,4.93166 3.292738,0.32328 22.151147,-1.26654 41.907577,-3.53249 z m 17.96039,-11.32169 c 0,-1.50841 5.51982,-4.82602 12.26628,-7.37254 10.13366,-3.82503 11.49864,-3.70528 7.85202,0.68915 -4.9145,5.92121 -20.1183,10.97193 -20.1183,6.68326 z m 40.99891,-24.44862 c 0,-9.8782 0.77164,-13.91929 1.72953,-8.98019 0.95789,4.93911 0.95789,13.02128 0,17.9604 -0.95789,4.9391 -1.72953,0.89802 -1.72953,-8.98021 z m -6.68526,-44.4807 c -1.9916,-9.30121 -1.42751,-17.70002 1.56456,-23.29116 6.46574,-12.0803 7.14957,-9.46047 4.14819,15.88629 l -2.59828,21.95159 -3.11447,-14.54672 z M 78.578006,442.30607 c -4.939773,-1.98522 -8.980195,-4.68645 -8.980195,-6.00276 0,-1.31575 4.040422,-1.09226 8.980195,0.49891 4.938443,1.59048 11.224579,2.90892 13.969188,2.92968 2.743286,0.0266 4.989006,1.53461 4.989006,3.3639 0,4.18358 -7.346469,3.87759 -18.958194,-0.78893 z m -0.53216,-28.57617 c -0.252775,-5.90723 -2.259017,-11.85026 -4.454177,-13.20701 -2.195158,-1.35674 -3.746404,-10.89183 -3.447064,-21.1894 0.292687,-10.29742 1.223967,-14.23248 2.059457,-8.74458 0.838152,5.48789 3.473674,16.415 5.864401,24.28258 2.390728,7.86758 3.467021,17.7458 2.393388,21.95158 -1.436831,5.62347 -2.075422,4.80487 -2.416005,-3.09317 z m 66.876514,-51.54326 c 17.03443,-5.9381 21.05755,-14.84964 12.75853,-28.25529 -4.86926,-7.86518 -8.17664,-9.73905 -12.43391,-7.04579 -8.32432,5.26572 -25.3175,4.62979 -31.11139,-1.1641 -3.94597,-3.94676 -5.72206,-3.74361 -8.71944,0.9978 -6.191679,9.79267 -4.49808,15.93406 7.78017,28.21204 13.14036,13.1393 14.17142,13.37518 31.72604,7.25547 z m 1.96766,-43.77294 c 5.78458,-4.54969 10.5168,-11.73385 10.5168,-15.96478 0,-4.23107 2.24439,-7.83459 4.989,-8.00781 3.20893,-0.20222 3.41647,-0.96454 0.58539,-2.13489 -2.42533,-1.00047 -3.56283,-6.24716 -2.52777,-11.65856 1.09093,-5.70608 0.008,-9.8387 -2.57566,-9.8387 -2.45191,0 -4.45683,1.79605 -4.45683,3.9912 0,6.44193 -10.89598,4.57365 -13.54213,-2.32208 -3.7943,-9.8874 -3.07987,-10.70772 7.55532,-8.67461 8.30569,1.58784 9.97802,0.36719 9.97802,-7.28167 0,-11.81554 -1.80137,-12.73138 -27.76013,-14.10914 -20.48016,-1.08694 -21.81322,-0.57208 -24.4953,9.45487 -4.93446,18.44852 -6.698569,42.88862 -3.09717,42.88862 1.90645,0 3.46701,4.38819 3.46701,9.75169 0,10.2824 13.03259,22.17789 24.29709,22.17789 3.60537,0 11.28843,-3.72246 17.07168,-8.27203 z m -23.56934,-9.50769 c -7.41832,-5.60883 -7.13628,-5.92014 5.48256,-6.04055 8.5385,-0.0798 12.73857,1.57108 11.72348,4.61263 -2.45725,7.37547 -8.65957,7.8902 -17.20604,1.42792 z m -0.86477,-24.12786 c 1.61377,-8.44231 0.41242,-9.97799 -7.84936,-9.97799 -6.03204,0 -9.12255,-1.90487 -8.09415,-4.98899 0.91798,-2.74396 6.00276,-4.989 11.3084,-4.989 8.26444,0 9.82233,2.14234 10.88398,14.96699 0.78495,9.51901 -0.46563,14.96699 -3.45903,14.96699 -2.8577,0 -3.94995,-3.90633 -2.78984,-9.978 z m 572.75818,670.23402 c -10.86271,-5.89367 -12.53768,-9.25292 -11.21393,-22.4904 0.37251,-3.7464 -3.01069,-9.11722 -7.52207,-11.93634 -9.38465,-5.8604 -11.01705,-25.87494 -3.7983,-46.58126 5.49855,-15.77189 2.47055,-28.41334 -10.4995,-43.82602 -5.54778,-6.59346 -13.39181,-22.00614 -17.43091,-34.25114 -7.28526,-22.08063 -22.71789,-47.81189 -35.75048,-59.60587 -5.55443,-5.02758 -9.79973,-5.36551 -23.54941,-1.87587 -22.44117,5.69676 -27.01508,3.18365 -32.28346,-17.73954 -2.45991,-9.76912 -7.85334,-21.93695 -11.9869,-27.0417 l -7.51409,-9.27953 -4.99033,9.32609 c -2.74462,5.1287 -7.03115,17.59321 -9.52699,27.69891 l -4.53532,18.37415 -24.09488,1.9956 c -21.97952,1.81999 -25.34942,3.39651 -38.39665,17.96039 -7.86664,8.78063 -19.26019,25.84301 -25.31883,37.91638 -6.05997,12.07338 -16.05659,28.35215 -22.21633,36.17489 -19.54756,24.82924 -22.01279,33.68304 -13.67918,49.15692 7.16289,13.30134 7.14027,13.68982 -1.42485,24.57913 -6.56021,8.34027 -8.10878,14.23527 -6.28879,23.93922 1.97032,10.4995 0.71841,14.06497 -6.81032,19.33601 -17.64376,12.35808 -40.36299,6.67329 -39.88671,-9.98066 0.98451,-34.61166 5.89634,-63.38154 10.81084,-63.38154 8.40147,0 13.00198,-12.19977 19.31074,-51.20707 6.08657,-37.63567 14.54925,-59.36508 24.62435,-63.23123 8.5159,-3.26745 17.60386,-22.73386 17.60386,-37.70483 0,-7.06577 5.12336,-21.97156 11.38556,-33.12562 6.26085,-11.15275 13.68714,-27.4621 16.50227,-36.24274 2.81512,-8.78063 9.26223,-23.14895 14.32839,-31.92958 12.97406,-22.49067 17.87259,-104.93618 8.16466,-137.42307 -3.5628,-11.92304 -6.4777,-30.85063 -6.4777,-42.0615 0,-13.08608 -3.01602,-26.0435 -8.42543,-36.19419 -4.63378,-8.69602 -11.10884,-20.86611 -14.38959,-27.04489 -7.53405,-14.18804 -18.43934,-96.10272 -15.13729,-113.70323 1.36366,-7.27357 11.36028,-30.09591 22.21235,-50.71629 10.85207,-20.62026 19.72317,-39.82298 19.71519,-42.67255 0,-7.5942 25.43855,-63.04391 28.95214,-63.04896 1.64571,-0.002 3.04795,3.13868 3.11447,6.98021 0.13304,6.652 0.31929,6.652 4.18942,0 5.15531,-8.8497 23.62789,-9.42468 23.62789,-0.73572 0,3.43708 -2.0568,10.17224 -4.57257,14.96699 -4.42757,8.44285 -4.32247,8.49753 3.3087,1.73326 10.01524,-8.87776 13.23747,-8.81657 13.23747,0.25144 0,3.97961 -5.38812,12.39785 -11.9736,18.70715 -15.108,14.47434 -15.00956,17.15483 0.69181,18.70528 6.96465,0.6878 13.30133,3.19654 14.07963,5.57476 1.49669,4.56739 -23.82878,13.63633 -38.08003,13.63633 -11.66095,0 -19.42782,16.78072 -29.20227,63.09324 -4.49009,21.27536 -8.81788,39.36772 -9.61612,40.20561 -0.79824,0.83815 2.77655,8.91993 7.94382,17.96039 5.16726,9.04033 11.42812,22.86172 13.91198,30.714 4.49808,14.22278 26.0266,34.53597 29.92202,28.2332 1.13084,-1.82251 -1.17076,-9.43879 -5.12071,-16.92507 -10.98511,-20.85948 -8.13407,-53.26852 5.9828,-68.00376 14.60247,-15.24146 39.62461,-16.05606 56.1628,-1.8285 10.32923,8.88693 11.19531,11.84016 11.16338,38.08321 0,17.27151 -1.8559,29.57544 -4.67236,31.31574 -2.55037,1.57665 -5.82448,7.59178 -7.27328,13.36704 -7.9252,31.5765 26.36052,1.84315 35.88087,-31.11629 3.7118,-12.85206 9.43252,-26.36838 12.71063,-30.03644 5.09676,-5.70128 5.30563,-12.07283 1.43949,-43.90318 -7.67374,-63.17973 -9.66534,-67.99243 -34.32032,-82.93482 -21.67885,-13.13836 -25.40264,-22.95245 -6.95133,-18.32173 6.35399,1.59462 8.96157,0.9978 7.31055,-1.67232 -1.41023,-2.28309 -0.66521,-4.1511 1.66166,-4.1511 3.84618,0 4.71493,2.40443 3.9646,10.97578 -0.14635,1.64638 -3.28609,2.37011 -6.9846,1.60833 -4.28655,-0.88338 -2.87899,1.64704 3.88476,6.98459 5.8338,4.60333 14.47208,8.36969 19.19368,8.36969 4.78278,0 7.47949,1.79151 6.0879,4.04361 -1.37563,2.22403 0.14634,13.44927 3.38188,24.94499 3.23419,11.49571 7.11763,36.73525 8.6303,56.08777 2.267,29.02172 1.65634,36.39386 -3.48832,42.07826 -3.42976,3.79071 -8.64359,16.29832 -11.58643,27.79471 -2.94152,11.49651 -8.95093,24.50449 -13.35323,28.90679 l -8.00367,8.00394 9.36599,28.72878 c 5.15133,15.80075 11.10086,30.46468 13.22285,32.58653 6.25288,6.25274 4.40628,11.67613 -2.12864,6.25247 -5.23379,-4.34321 -5.98679,-1.10954 -5.98679,25.68961 0,16.86203 -1.35568,29.8205 -3.01202,28.79651 -1.65768,-1.02442 -2.02487,-15.94724 -0.82485,-33.16287 1.66831,-23.78608 0.42573,-37.2903 -5.15796,-56.24623 -4.04443,-13.71974 -8.22453,-24.94497 -9.28885,-24.94497 -1.06431,0 -8.38285,2.69405 -16.26413,5.98678 -19.02603,7.94967 -30.46215,7.54896 -49.68908,-1.74108 -11.30575,-5.46223 -16.40915,-6.33976 -17.40694,-2.99341 -8.54251,28.64896 -17.65573,49.30514 -25.47316,57.74067 -8.48397,9.15394 -9.14917,12.3425 -6.358,30.49395 1.7149,11.14901 3.26082,40.26612 3.43644,64.70476 0.27938,38.45347 0.98449,43.0194 5.2564,33.92519 4.78145,-10.17024 4.86128,-10.05889 2.50914,3.46062 -1.33706,7.68306 -4.00982,14.56789 -5.93757,15.2996 -1.92776,0.73173 -3.5056,4.52642 -3.5056,8.4326 0,6.99471 13.3133,10.27015 71.84155,17.66984 20.35378,2.57298 66.30178,-9.95671 64.22769,-17.51392 -0.89136,-3.26026 -2.45458,-23.52571 -3.46568,-45.03442 -1.36633,-29.08318 -0.13304,-45.23623 4.87192,-63.0214 3.69052,-13.15326 7.15622,-27.88398 7.70034,-32.73501 1.83995,-16.40582 11.21793,-44.43161 22.28153,-66.59167 8.17531,-16.37429 11.83257,-31.30124 14.20468,-57.97309 4.69099,-52.75365 3.54419,-63.46483 -11.93901,-111.4397 -7.73627,-23.97419 -14.0663,-46.78907 -14.0663,-50.69992 0,-11.66335 -8.80725,-27.40916 -15.60825,-27.9026 -3.48831,-0.25278 -8.61169,-0.70244 -11.3829,-0.99779 -2.77254,-0.29535 -8.59704,-5.92561 -12.94479,-12.51108 -4.52601,-6.85395 -7.96908,-9.41377 -8.05289,-5.9868 -0.13305,4.55915 -1.15746,4.24983 -4.38368,-1.29714 -7.24535,-12.45798 10.55007,-19.581883 19.44511,-7.78483 2.81779,3.73642 4.98901,4.54703 4.98901,1.86242 0,-20.11164 26.34723,25.11901 34.06621,58.48118 2.87365,12.41646 11.04896,41.41571 18.16926,64.44266 12.62149,40.81906 12.82904,42.6727 8.2937,74.04431 -2.55835,17.69751 -4.6524,37.97226 -4.6524,45.05518 0,7.08305 -5.41207,23.59929 -12.02681,36.70279 -6.61475,13.10349 -14.7355,36.84979 -18.04554,52.76962 -3.31003,15.91969 -8.92032,37.78107 -12.46585,48.581 -13.86009,42.20784 -0.61197,113.43968 28.25237,151.98534 18.67082,24.92636 30.27989,49.16491 32.08258,66.98162 1.02441,10.14562 8.13672,30.89718 15.79981,46.1143 9.85694,19.57283 15.0987,36.85339 17.91516,59.06175 4.94644,38.99 10.8667,56.26258 21.17465,61.77974 5.99212,3.20627 7.45023,6.96597 5.8338,15.04683 -1.27718,6.36063 0.99779,17.82868 5.56106,28.00623 8.915,19.90942 9.64673,28.79915 2.92689,35.52033 -6.51098,6.51097 -26.75301,5.76197 -40.11154,-1.48473 z m 36.9984,-3.80095 c 7.37175,-8.88174 1.41157,-12.19444 -12.49644,-6.94469 -14.52662,5.48259 -22.9853,2.88166 -27.57651,-8.48128 l -3.40448,-8.4241 -0.25279,8.49061 c -0.27938,9.40726 5.61296,15.58163 17.70762,18.55509 14.86589,3.65327 20.95912,2.90558 26.0226,-3.19563 z m -359.74928,-8.88308 c 5.88835,-4.89452 7.67774,-9.66002 5.97484,-15.92089 -1.33573,-4.91448 -4.02181,-7.95046 -5.96685,-6.7491 -5.89767,3.64528 -3.99253,-5.69279 4.59519,-22.52766 9.06668,-17.77148 7.05778,-27.7987 -3.63066,-18.12669 -4.53532,4.10428 -8.57309,4.84798 -12.57626,2.31755 -12.48447,-7.89458 -16.13908,-4.35039 -15.57898,15.10802 0.306,10.42634 -0.6652,23.44829 -2.13396,28.93619 -2.41866,9.00414 -1.48605,10.01923 9.55759,10.40239 6.73183,0.23947 12.23835,-1.11753 12.23835,-2.9934 0,-1.87985 1.74016,-3.4178 3.86613,-3.4178 2.12599,0 2.79385,2.7925 1.48473,6.20499 -1.3171,3.41248 -6.19301,5.9083 -10.85074,5.54509 -4.65772,-0.35919 -11.16337,-0.43902 -14.45612,-0.15964 -5.32159,0.45234 -5.32159,0.93128 0,4.37303 8.96556,5.79388 18.09876,4.79875 27.47674,-2.99341 z m 346.8391,-3.78099 c 5.95885,-3.72644 11.29109,-7.02717 11.84985,-7.3345 0.55878,-0.30597 -1.87452,-6.35264 -5.40672,-13.43303 -3.53089,-7.07906 -5.57571,-17.29253 -4.54333,-22.69396 2.45725,-12.8583 -2.71268,-15.55369 -17.82468,-9.29416 -11.2339,4.65373 -12.9541,4.29984 -19.7152,-4.04974 -7.82807,-9.668 -7.87596,-9.58154 -9.38863,16.84817 -0.67849,11.85653 0.95789,16.08586 7.54204,19.53825 l 8.40946,4.40761 -7.98239,-9.14383 -7.98241,-9.14383 8.93364,4.68699 c 4.91317,2.57698 10.09905,9.57355 11.52525,15.54706 2.47054,10.34517 8.56377,20.83937 12.09997,20.83937 0.90467,0 6.52296,-3.04929 12.48315,-6.7744 z M 388.2045,893.37478 c -0.89137,-2.65947 -3.9167,0.30598 -6.73448,6.59212 -4.79476,10.69908 -4.69099,11.00772 1.61245,4.836 3.70382,-3.62533 6.00807,-8.76866 5.12203,-11.42812 z M 706.00896,870.1806 c -4.89455,-11.69023 -13.50223,-54.10734 -13.64858,-67.24771 -0.13303,-6.97129 -7.32384,-27.53127 -16.10448,-45.68857 -8.78063,-18.15595 -15.96479,-35.3527 -15.96479,-38.21305 0,-6.1052 -6.44179,-6.93006 -9.93808,-1.27718 -1.33573,2.16056 -10.51548,6.28612 -20.40034,9.16777 l -17.97104,5.24045 12.70265,15.7772 c 14.21,17.65041 27.40357,43.96837 27.53661,54.93086 0,3.97257 6.33005,15.39937 13.95987,25.39067 7.62985,9.99263 15.04816,24.70285 16.48499,32.68925 3.62001,20.11164 8.41212,25.38934 18.26637,20.11563 5.29899,-2.83508 6.958,-6.39523 5.07682,-10.89065 z m -47.58174,-68.28941 c -6.29012,-12.16383 -5.45464,-20.20877 2.09937,-20.20877 2.06611,0 3.75572,1.90115 3.75572,4.2267 0,2.32419 -1.79603,3.11579 -3.9912,1.76011 -5.82581,-3.6014 -4.89321,0.90467 2.53574,12.23833 3.59075,5.47859 5.5185,10.97048 4.28655,12.20375 -1.23727,1.23728 -5.14199,-3.36589 -8.68618,-10.22012 z m 17.82868,-16.21756 c 0,-2.19516 1.79605,-3.99121 3.99121,-3.99121 2.19515,0 3.99119,1.79605 3.99119,3.99121 0,2.19516 -1.79604,3.9912 -3.99119,3.9912 -2.19516,0 -3.99121,-1.79604 -3.99121,-3.9912 z M 644.32631,754.215 c 0,-2.19516 1.79605,-5.10208 3.99121,-6.45774 2.19516,-1.35702 3.99119,-0.66522 3.99119,1.52462 0,2.19517 -1.79603,5.10075 -3.99119,6.45776 -2.19516,1.35569 -3.99121,0.66519 -3.99121,-1.52464 z M 374.5067,871.12384 c 1.33972,-3.49097 1.60846,-7.68571 0.59869,-9.3221 -1.0111,-1.63639 -0.27939,-8.2099 1.64038,-14.60645 3.11846,-10.429 3.51358,-10.65784 3.82091,-2.21245 0.29269,7.89324 3.17698,5.56905 17.84864,-14.36035 23.08243,-31.35617 34.16864,-56.56989 29.91934,-68.05257 -1.95169,-5.27637 -1.71089,-8.82588 0.59868,-8.82588 2.12332,0 3.86214,3.02932 3.86214,6.73315 0,5.26439 2.61291,4.23068 11.97361,-4.73755 6.58547,-6.31008 11.97359,-12.78247 11.97359,-14.3856 0,-1.60313 -9.06801,-4.85862 -20.15288,-7.23606 -25.03812,-5.36948 -23.7503,-5.44664 -23.7503,1.42221 0,3.1597 -7.12695,13.97851 -15.83575,24.04165 -16.13507,18.64155 -19.63535,28.12997 -27.29579,73.98616 -2.38407,14.26854 -5.53845,29.98322 -7.00988,34.92299 -1.94504,6.52827 -1.0244,8.98018 3.34994,8.98018 3.31403,0 7.12164,-2.85636 8.46134,-6.34733 z m 30.34774,-64.34076 c 0,-2.09804 1.34637,-5.16196 2.99341,-6.80766 1.6457,-1.64703 2.99339,-4.93977 2.99339,-7.3172 0,-2.37876 2.28961,-4.7881 5.08879,-5.35485 2.79915,-0.57207 3.3486,-0.14634 1.22396,0.91797 -2.1273,1.07763 -2.98808,4.24531 -1.91445,7.04446 1.07763,2.79917 -0.82484,7.39303 -4.2147,10.20816 -3.39385,2.81645 -6.16907,3.40317 -6.16907,1.30379 z m -7.98239,-36.60328 c 0,-2.19516 1.79604,-5.10209 3.9912,-6.45777 2.19516,-1.357 3.99119,-0.6652 3.99119,1.52465 0,2.19516 -1.79603,5.10075 -3.99119,6.45775 -2.19516,1.35568 -3.9912,0.6652 -3.9912,-1.52463 z m 116.72791,-51.79644 c 4.29585,-16.63532 2.10203,-19.13912 -9.59617,-10.94519 -5.0196,3.51624 -11.87116,6.37659 -15.22509,6.35531 -3.35262,0 2.88431,-5.24044 13.86009,-11.59975 10.9758,-6.36064 22.32144,-15.4925 25.21374,-20.29391 4.73621,-7.86665 5.9216,-8.1354 11.97359,-2.70337 3.69318,3.31402 15.69605,10.6219 26.67185,16.23752 10.97579,5.61562 17.62113,10.25606 14.76875,10.31192 -2.85237,0 -10.4862,-2.63685 -16.96258,-5.98546 -6.47639,-3.34995 -11.74877,-5.59433 -11.71418,-4.989 0,0.59868 2.50648,9.18241 5.49722,19.06064 6.0786,20.07571 4.55129,19.68193 47.82653,12.33013 29.40182,-4.99431 49.52277,-13.41707 52.86607,-22.12986 2.51312,-6.54956 -8.83918,-29.18763 -28.10867,-56.05504 -7.87331,-10.9758 -16.28277,-25.91618 -18.68946,-33.20145 -3.3393,-10.10571 -5.93624,-12.57094 -10.96115,-10.40105 -27.55258,11.90174 -51.1645,14.7049 -84.41252,10.02589 -18.65884,-2.62623 -37.51725,-5.63425 -41.90758,-6.68526 -6.0746,-1.45413 -10.49285,2.17519 -18.48456,15.18384 -5.77659,9.40193 -12.62417,23.74896 -15.21711,31.8817 -2.59295,8.13272 -9.95804,24.29708 -16.36524,35.92077 -6.40853,11.6237 -11.6849,23.32456 -11.72481,26.00266 -0.13304,8.27376 35.85427,16.73642 67.5364,15.88497 l 29.69184,-0.79824 3.46304,-13.4091 z M 461.06381,676.4678 c 4.09231,-3.5535 59.54868,-5.79788 57.40141,-2.32421 -1.27718,2.07144 -15.09337,3.7677 -30.6963,3.7677 -15.60292,0 -27.61909,-0.65191 -26.70511,-1.44349 z m 107.76235,-4.01515 c 0.91797,-0.81154 13.06186,-2.71134 26.99247,-4.232 17.47347,-1.90912 24.51925,-1.45413 22.71391,1.46611 -1.43816,2.32819 -13.58471,4.23333 -26.99247,4.23333 -13.40777,0 -23.62789,-0.66521 -22.71391,-1.46744 z m -36.25338,-27.74547 c 0,-2.93487 -9.12653,-7.52076 -20.95379,-10.53012 -26.19157,-6.66263 -38.91418,-12.30752 -38.91418,-17.26325 0,-2.3455 1.94106,-2.26302 4.989,0.21285 2.74328,2.2271 16.66325,7.25601 30.93178,11.17537 14.26853,3.91802 26.97252,8.64227 28.22974,10.49817 2.71669,4.00583 26.43504,-5.39742 48.08862,-19.06727 8.51322,-5.37349 15.47918,-8.38818 15.47918,-6.69857 0,4.12157 -29.84617,21.80391 -50.88776,30.14817 -13.15632,5.21651 -16.96259,5.55975 -16.96259,1.52598 z m -61.97266,-215.2481 c 3.48298,-4.93911 9.9567,-20.65445 14.38694,-34.92299 l 8.05557,-25.94279 -10.16825,-8.13232 c -5.59301,-4.47281 -10.16957,-11.02555 -10.16957,-14.56175 0,-3.53607 -5.45863,-16.8064 -12.13057,-29.4895 l -12.13059,-23.06008 6.14378,-24.49677 c 3.37921,-13.47323 6.19834,-27.97404 6.26618,-32.22414 0.13304,-4.24996 4.10828,-17.51631 8.9802,-29.48045 8.48928,-20.84909 9.68664,-21.94893 28.81379,-26.46643 10.97579,-2.59242 15.91423,-4.92674 10.97579,-5.1875 -10.10172,-0.53348 -12.30486,-12.27107 -3.9912,-21.2671 2.74329,-2.96904 8.56777,-9.83245 12.94346,-15.25209 l 7.95313,-9.85374 -11.03301,9.75662 c -11.28178,9.97693 -24.97159,14.88917 -20.26331,7.2713 1.7335,-2.80528 -1.05102,-3.30524 -8.28173,-1.48924 -9.87156,2.47772 -10.6698,1.87811 -8.5292,-6.40255 1.30381,-5.0248 -1.63904,-1.43245 -6.5296,7.98318 -7.35977,14.1673 -8.05689,18.4593 -4.04042,24.89085 6.31541,10.11262 6.18503,13.95389 -0.29268,8.57921 -3.9952,-3.31523 -9.89818,4.92247 -26.41508,36.86642 -23.48022,45.40667 -24.33035,50.86397 -17.16747,110.10851 4.64175,38.40265 7.75489,48.07983 22.40525,69.6689 6.06528,8.93749 10.35582,20.81728 10.35582,28.67235 0,15.57672 4.89987,17.14326 13.86011,4.4321 z m -6.66531,-21.07658 c -2.71268,-2.7119 9.45915,-29.81118 13.38914,-29.81118 1.62575,0 0.15965,6.73514 -3.24616,14.96698 -7.22142,17.42425 -7.35978,17.6274 -10.14298,14.8442 z M 426.80604,298.74734 c -1.35701,-2.19515 -0.55877,-3.99119 1.76011,-3.99119 2.32422,0 4.22667,1.79604 4.22667,3.99119 0,2.19517 -0.79824,3.99121 -1.76011,3.99121 -0.97119,0 -2.86966,-1.79604 -4.22667,-3.99121 z m 9.97799,-7.74678 c 0,-2.06571 1.77609,-4.85302 3.94597,-6.1942 2.26167,-1.39826 2.93087,0.20355 1.56853,3.75572 -2.65414,6.91436 -5.5145,8.17942 -5.5145,2.43848 z M 476.696,167.03781 c 0,-2.19515 2.58764,-3.99119 5.75132,-3.99119 3.16369,0 6.86087,1.79604 8.21788,3.99119 1.35701,2.19516 -1.23727,3.9912 -5.75132,3.9912 -4.51936,0 -8.21788,-1.79604 -8.21788,-3.9912 z m 73.51121,217.09324 c 11.77803,-4.51977 6.45777,-9.93968 -7.23603,-7.37081 -7.78017,1.45944 -17.27257,0.54945 -22.2935,-2.13809 -4.80939,-2.57406 -9.76114,-3.66406 -11.0024,-2.42226 -2.39074,2.39033 21.63761,13.93221 29.55615,14.19762 2.56367,0.0798 7.50345,-0.93394 10.97578,-2.26646 z m -0.21284,-17.82297 c 5.78457,-4.5497 10.51679,-11.83988 10.51679,-16.2004 0,-4.36052 1.76944,-6.83492 3.93134,-5.49867 2.45592,1.51799 2.98941,-2.5114 1.42219,-10.74031 -2.88963,-15.16989 -5.68214,-19.30052 -8.22852,-12.17197 -2.4639,6.90052 -11.74742,6.26312 -14.53328,-0.99779 -1.65901,-4.32526 0.43902,-5.9868 7.55534,-5.9868 6.74645,0 9.83431,-2.20234 9.79174,-6.9846 -0.13304,-11.9994 -5.25775,-14.95421 -26.79957,-15.36717 -23.01192,-0.4417 -22.54361,-0.98184 -26.87672,30.97807 -1.5446,11.39407 -0.90468,19.6061 1.66033,21.18928 2.30027,1.42179 4.18279,5.96937 4.18279,10.10558 0,7.57383 13.83348,19.94681 22.30147,19.94681 2.50781,0 9.29284,-3.72245 15.0761,-8.27203 z m -21.41279,-8.84462 c -9.97667,-4.22336 -9.97667,-4.22389 -0.95788,-5.81079 4.96504,-0.87275 11.97891,-1.00978 15.58828,-0.30599 5.55043,1.08428 5.69678,1.97964 0.95789,5.81078 -4.03643,3.25869 -8.40945,3.34436 -15.58829,0.306 z m -1.9956,-22.79532 c 1.97565,-6.22536 0.71842,-7.98241 -5.71805,-7.98241 -4.6737,0 -8.25113,-2.59573 -8.25113,-5.98679 0,-3.72513 3.76902,-5.9868 9.97799,-5.9868 8.74205,0 9.97799,1.72952 9.97799,13.96919 0,7.68305 -1.91711,13.96919 -4.25994,13.96919 -2.44394,0 -3.17966,-3.40329 -1.72686,-7.98238 z m -26.22615,-217.5203 c 0,-2.19515 -2.56634,0.49891 -5.70343,5.9868 -3.13709,5.48789 -5.70343,11.77403 -5.70343,13.9692 0,2.19515 2.56634,-0.49891 5.70343,-5.98681 3.13709,-5.4879 5.70343,-11.77404 5.70343,-13.96919 z m 5.43068,13.96919 c 2.67278,-10.21986 0.31929,-10.21986 -5.14732,0 -2.36012,4.41 -2.63152,7.98239 -0.59867,7.98239 2.01556,0 4.6045,-3.59206 5.75264,-7.98239 z m 46.56131,442.02517 c 4.72425,-7.13426 10.57801,-17.01248 13.00599,-21.95158 2.42931,-4.93911 6.07062,-8.9802 8.09282,-8.9802 2.0222,0 -0.41243,6.73514 -5.39744,14.96699 -4.99165,8.23185 -10.95716,18.11006 -13.26009,21.95159 -2.30157,3.84153 -5.72469,6.9846 -7.60721,6.9846 -1.88251,0 0.43902,-5.83714 5.16593,-12.9714 z m -12.09865,-89.77335 c -7.02317,-7.94514 -7.40101,-9.03966 -1.37963,-3.9912 4.56327,3.82584 10.40107,6.956 12.9714,6.956 2.57166,0 4.67504,1.79603 4.67504,3.9912 0,7.00868 -6.30876,4.31115 -16.26681,-6.956 z m -60.80723,-1.12951 c -1.45279,-5.43122 -2.43729,-18.85522 -2.18984,-29.83101 l 0.45235,-19.95598 3.41512,25.94278 c 3.62402,27.5257 2.72467,40.30871 -1.67763,23.84421 z m 76.95562,-11.6483 c 4.57125,-8.54196 12.16518,-14.5321 11.96562,-9.43812 -0.17297,4.45178 -10.12568,17.19821 -13.42507,17.19821 -1.48207,0 -0.82484,-3.49204 1.45945,-7.76009 z m -21.04558,-47.11889 c -4.59654,-8.19193 -6.5163,-24.94499 -2.85903,-24.94499 2.2364,0 4.22933,4.93911 4.42757,10.97579 0.3459,10.74218 0.43902,10.69974 4.10427,-1.99559 2.0608,-7.13426 5.5531,-12.9714 7.76288,-12.9714 2.65681,0 2.61824,2.61518 -0.13303,7.72005 -2.27364,4.24597 -4.13222,11.43011 -4.13222,15.96479 0,8.00049 -5.79123,11.30985 -9.1904,5.25135 z m 61.46578,-21.54941 c -2.40936,-6.91302 -4.19476,-16.34222 -3.96859,-20.95379 0.23947,-4.9842 2.02488,-2.31463 4.38767,6.58241 2.18583,8.23186 5.59299,14.967 7.56996,14.967 1.97697,0 3.59474,2.69406 3.59474,5.9868 0,10.45641 -7.03782,6.45709 -11.58378,-6.58242 z m 37.52656,-99.18432 c -1.357,-2.19516 -0.55877,-3.99121 1.76012,-3.99121 2.32421,0 4.22669,1.79605 4.22669,3.99121 0,2.19514 -0.78495,3.99119 -1.76013,3.99119 -0.97119,0 -2.86966,-1.79605 -4.22668,-3.99119 z m 1.99561,-27.93839 c 0,-2.19516 1.90247,-3.9912 4.22667,-3.9912 2.32422,0 3.11712,1.79604 1.76012,3.9912 -1.357,2.19515 -3.25815,3.9912 -4.22668,3.9912 -0.97119,0 -1.76011,-1.79605 -1.76011,-3.9912 z M 594.43635,163.04649 c -3.12245,-5.05126 2.16189,-5.05126 9.97799,0 5.15928,3.33425 5.05418,3.87743 -0.75833,3.93013 -3.7118,0.0399 -7.85867,-1.73497 -9.21567,-3.93013 z m -31.89633,-23.04678 c -9.9128,-10.69082 -13.14833,-20.8564 -6.63869,-20.8564 6.27284,0 17.4269,15.01835 12.398,16.69452 -3.12511,1.0417 -2.48918,3.36897 1.91976,7.02849 5.95886,4.94549 6.38325,4.16494 4.41825,-8.12835 -2.03284,-12.72221 -1.78539,-13.09951 3.8249,-5.85161 13.91066,17.97329 -0.3326,27.91975 -15.92222,11.11335 z"
       id="path3491"
       inkscape:connector-curvature="0" />
  </g>
</svg>
