<?xml version="1.0" encoding="UTF-8" standalone="no"?>
<!-- Created with Inkscape (http://www.inkscape.org/) -->

<svg
   xmlns:dc="http://purl.org/dc/elements/1.1/"
   xmlns:cc="http://creativecommons.org/ns#"
   xmlns:rdf="http://www.w3.org/1999/02/22-rdf-syntax-ns#"
   xmlns:svg="http://www.w3.org/2000/svg"
   xmlns="http://www.w3.org/2000/svg"
   xmlns:sodipodi="http://sodipodi.sourceforge.net/DTD/sodipodi-0.dtd"
   xmlns:inkscape="http://www.inkscape.org/namespaces/inkscape"
   width="210mm"
   height="297mm"
   viewBox="0 0 744.09448819 1052.3622047"
   id="svg3512"
   version="1.1"
   inkscape:version="0.91 r13725"
   sodipodi:docname="knee_to_elbow_crunches.svg">
  <defs
     id="defs3514" />
  <sodipodi:namedview
     id="base"
     pagecolor="#ffffff"
     bordercolor="#666666"
     borderopacity="1.0"
     inkscape:pageopacity="0.0"
     inkscape:pageshadow="2"
     inkscape:zoom="0.51135979"
     inkscape:cx="1663.8036"
     inkscape:cy="-42.441245"
     inkscape:document-units="px"
     inkscape:current-layer="layer1"
     showgrid="false"
     inkscape:window-width="3200"
     inkscape:window-height="1699"
     inkscape:window-x="0"
     inkscape:window-y="50"
     inkscape:window-maximized="1" />
  <metadata
     id="metadata3517">
    <rdf:RDF>
      <cc:Work
         rdf:about="">
        <dc:format>image/svg+xml</dc:format>
        <dc:type
           rdf:resource="http://purl.org/dc/dcmitype/StillImage" />
        <dc:title></dc:title>
      </cc:Work>
    </rdf:RDF>
  </metadata>
  <g
     inkscape:label="Layer 1"
     inkscape:groupmode="layer"
     id="layer1">
    <path
       style="fill:#000000"
       d="m 264.1311,974.98649 c -2.36997,-0.79142 -9.70963,-2.63063 -16.3096,-4.08895 -7.46178,-1.64834 -27.53026,-18.50102 -53.0482,-44.54423 -55.38081,-56.524 -78.13669,-87.38339 -86.42722,-117.20015 -3.74309,-13.46134 -10.154899,-28.91632 -14.248456,-34.34437 -6.513785,-8.63554 -8.68409,-9.20577 -17.363868,-4.56079 -25.476294,13.6347 -73.2976691,-5.01541 -73.2976691,-28.58597 0,-11.81113 22.5677131,-38.76614 35.8150411,-42.77754 5.18661,-1.57049 26.237552,-10.59686 46.781468,-20.05843 26.547804,-12.22624 38.024124,-19.87415 39.671604,-26.43649 3.80773,-15.15994 13.49869,-25.38839 24.58433,-25.94555 7.13715,-0.35907 10.83859,-3.41431 11.73343,-9.68377 2.23924,-15.69757 20.15755,-28.51702 42.91485,-30.70385 17.92404,-1.72216 22.7171,-0.39067 34.61283,9.62016 11.20485,9.42782 13.80894,14.79728 13.80894,28.47206 0,11.04039 1.95055,16.85297 5.65773,16.85297 6.53675,0 26.37831,20.34512 30.03091,30.7936 1.36451,3.90166 20.08285,19.15081 41.59773,33.88705 44.34113,30.36918 62.29533,49.02818 59.06645,61.37995 -1.88304,7.19677 -0.63199,7.86754 9.37783,5.03968 20.50371,-5.79174 31.5362,-2.985 47.55566,12.0984 8.63525,8.13066 26.31942,22.38114 39.29815,31.66763 12.98018,9.28648 31.99151,24.14567 42.24839,33.02035 22.66683,19.61059 37.22122,24.09225 47.63466,14.66801 5.16505,-4.67355 14.39496,-6.54466 29.10591,-5.89946 20.73782,0.9092 25.37145,-0.91495 51.33753,-20.20394 9.41087,-6.99107 19.37186,0.64205 19.37186,14.84525 0,11.87362 1.07726,13.0165 9.69527,10.31822 5.33168,-1.66903 15.17633,-7.61689 21.8754,-13.21745 15.53397,-12.98593 23.59901,-12.90233 26.90833,0.27864 4.00306,15.95137 -1.27835,27.00169 -26.63974,55.79045 -12.78913,14.51548 -26.15424,29.78502 -29.70056,33.93245 -9.41231,11.00735 -21.41433,9.27068 -38.28122,-5.53938 l -14.89768,-13.07999 -7.50917,12.71285 c -4.13089,6.99209 -12.10113,14.80462 -17.71146,17.36115 -9.0762,4.13521 -12.28928,2.56099 -29.11452,-14.26368 -15.88015,-15.88099 -22.55193,-19.41252 -41.6279,-22.03612 -12.49326,-1.7183 -33.20235,-6.73197 -46.01877,-11.14124 -24.95922,-8.58728 -41.65376,-5.45204 -36.90235,6.93004 1.35014,3.49877 -0.18673,7.15166 -3.39263,8.11759 -68.70571,20.68354 -100.89831,32.8855 -132.94871,50.39156 -13.51161,7.38018 -33.41779,10.07848 -45.24458,6.13316 z m 70.72374,-33.91533 c 39.90287,-41.30329 68.51898,-80.28201 66.00396,-89.90416 -1.20652,-4.58119 -11.43611,-18.35494 -22.75012,-30.60804 l -20.57265,-22.27857 -12.23041,11.21534 c -6.72635,6.16849 -21.47178,17.43281 -32.76713,25.03175 -11.29678,7.59893 -23.90063,17.33916 -28.00856,21.64473 -4.10935,4.3057 -12.31945,9.25977 -18.24433,11.00894 -29.51958,8.71525 -56.01711,37.99899 -56.01711,61.90594 0,9.80817 26.09823,34.03785 39.93732,37.07801 41.69253,9.15893 55.51584,5.06107 84.64903,-25.09394 z M 227.7329,936.76818 c -2.37713,-6.25266 -2.95598,-17.6711 -1.2927,-25.37446 2.81809,-12.9951 3.22745,-12.29533 5.66635,9.6934 3.02635,27.27602 1.75664,31.82347 -4.38083,15.68106 z m 30.79361,1.38319 c -22.82482,-5.03594 -19.53274,-6.29158 16.49489,-6.29158 18.63789,0 32.53733,1.20222 30.8884,2.67058 -5.33024,4.74853 -32.76857,6.84543 -47.38329,3.621 z m 72.50911,-67.89734 c 0.18673,-4.77265 51.5932,-40.12403 51.5932,-35.47548 0,2.28765 -11.63431,11.88711 -25.85405,21.33204 -14.21973,9.44505 -25.80234,15.8096 -25.73915,14.14344 z m 61.49386,58.93374 46.52724,-14.56401 -2.90426,-25.85405 c -1.59722,-14.21973 -3.48025,-28.76264 -4.18405,-32.31756 -0.70381,-3.55494 -1.43635,-8.04664 -1.61013,-9.98154 -0.18673,-1.93488 -5.66348,-2.90441 -12.18013,-2.1545 -8.5936,0.9882 -11.84978,3.77052 -11.84978,10.122 0,10.00092 -19.50258,36.73315 -51.35763,70.39743 -12.04224,12.72636 -18.98694,22.1888 -15.432,21.02753 3.55493,-1.16057 27.40098,-8.66514 52.99074,-16.6753 z m 222.65078,0.0431 c 13.50443,-16.80542 13.70696,-17.55907 3.9528,-14.71784 -5.65485,1.6469 -15.61441,6.76685 -22.13107,11.37778 -6.51809,4.61093 -11.84978,6.60929 -11.84978,4.441 0,-5.87734 17.6296,-16.3159 33.40919,-19.78163 7.63987,-1.67808 14.99678,-4.8409 16.3498,-7.02857 1.35016,-2.18755 4.76721,-3.91589 7.58961,-3.84049 2.8224,0.0719 1.36452,2.98399 -3.23176,6.46353 -4.60058,3.47951 -6.29258,6.32648 -3.76032,6.32648 2.53369,0 7.01937,-2.90858 9.9696,-6.46352 2.95023,-3.55493 4.18548,-6.46351 2.74485,-6.46351 -1.43921,0 1.22087,-6.30193 5.92057,-14.00428 4.69538,-7.70236 8.5462,-18.25268 8.55483,-23.44517 0.009,-5.19251 2.12433,-10.74379 4.69968,-12.33612 3.23176,-1.99679 3.3007,-4.28014 0.21544,-7.35835 -3.07806,-3.07836 -8.05066,-1.92455 -16.02662,3.7181 -25.11721,17.77021 -29.6862,19.29517 -50.35652,16.80398 -24.90894,-3.00208 -28.89763,2.7796 -17.90249,25.94944 6.35579,13.39397 6.57124,16.38313 1.42198,19.73496 -3.33662,2.17274 -10.43068,2.92452 -15.76236,1.67074 -6.00677,-1.41191 -9.69527,-0.27721 -9.69527,2.9837 0,7.88262 26.49896,33.68209 34.59559,33.68209 3.87811,0 13.45704,-7.97052 21.28651,-17.71232 z m 60.77569,3.70617 c 4.74278,-5.3324 18.24722,-19.90086 30.00938,-32.37444 11.76071,-12.47357 21.38416,-24.43395 21.38416,-26.57882 0,-2.14488 1.07725,-7.45172 2.40299,-11.7929 1.32143,-4.34132 -2.07263,0.24274 -7.54077,10.18522 -9.12503,16.5911 -57.48072,56.47356 -62.44758,51.50614 -2.02523,-2.02538 7.42443,-9.32584 33.1133,-25.58158 13.35936,-8.45341 38.6518,-47.72384 33.8372,-52.53787 -0.94798,-0.94511 -10.20661,3.98123 -20.58126,10.94861 -20.06274,13.47399 -32.99838,16.08969 -36.01182,7.28151 -1.0198,-2.96245 -1.12033,-1.03416 -0.24417,4.28603 1.4708,8.87641 -17.5506,44.09868 -23.90063,44.25624 -1.4622,0.0288 -5.56725,1.94867 -9.12218,4.24969 -5.40206,3.49618 -4.33916,5.9381 6.46351,14.86062 16.11139,13.3065 21.74613,13.52942 32.63212,1.29126 z M 235.46613,876.21976 c 9.645,-9.27241 16.34695,-18.78254 14.89336,-21.13353 -1.49521,-2.41979 -0.45961,-2.92166 2.403,-1.15625 2.77501,1.71485 3.92982,4.92304 2.56673,7.12927 -5.01425,8.11355 9.67948,3.69252 22.19858,-6.67912 17.42563,-14.43519 56.47674,-43.0977 74.79145,-54.89303 l 14.9336,-9.61886 -21.3971,-5.53994 c -11.76934,-3.0469 -31.90103,-10.84937 -44.73613,-17.33874 -12.83653,-6.48937 -24.95491,-12.44514 -26.9313,-13.23512 -1.97639,-0.78999 -3.59371,3.14141 -3.59371,8.73652 0,5.59509 -3.12117,14.62937 -6.93607,20.07638 -7.71313,11.01081 -6.1231,26.5965 5.13059,50.31299 6.82834,14.3898 5.54857,23.57214 -3.28491,23.57214 -2.90569,0 -2.63567,-2.3461 0.74691,-6.41252 4.32624,-5.21332 3.93987,-6.94239 -2.06258,-9.24584 -4.32195,-1.65854 -8.96275,-0.33897 -11.19193,3.18062 -2.09418,3.3079 -3.83789,4.32252 -3.8738,2.25491 0,-2.06775 -2.49061,-1.8839 -5.45233,0.40793 -2.96316,2.29224 -9.26438,5.44313 -14.00429,7.00199 -6.43622,2.11701 -5.72379,0.63629 2.81379,-5.84963 7.95443,-6.04179 10.73661,-11.34174 9.14802,-17.41916 -2.15881,-8.25448 -2.72904,-8.33334 -10.35454,-1.43203 -4.76002,4.30686 -8.07077,5.26159 -8.07077,2.32673 0,-2.73737 1.93905,-4.97692 4.30901,-4.97692 2.36995,0 4.30901,-2.90858 4.30901,-6.46351 0,-10.94516 8.30058,-7.1587 13.99135,6.38222 3.50752,8.3431 7.22476,11.69106 10.60591,9.55163 4.05045,-2.56213 3.95278,-7.54277 -0.43091,-22.41173 -5.05016,-17.10546 -4.80742,-20.49163 2.3168,-32.17393 8.79469,-14.42009 10.77827,-50.41812 3.79193,-68.79288 -2.31107,-6.07915 -2.5538,-11.05304 -0.53143,-11.05304 3.83933,0 9.00294,20.43618 9.11786,36.08795 0,6.70093 5.95649,12.0457 22.02907,19.92917 12.0796,5.92488 26.10685,10.201 31.17281,9.50235 6.31413,-0.87041 7.48619,-0.10052 3.7273,2.46922 -3.68708,2.51459 1.7121,5.40033 16.4877,8.81091 29.65172,6.84457 33.17505,6.4954 38.70494,-3.83545 3.70862,-6.93132 3.23894,-11.23904 -2.12289,-19.42128 -9.6608,-14.74412 -55.33343,-49.81931 -58.40288,-44.85203 -4.47705,7.24402 -21.36119,-8.57535 -35.06095,-32.85001 -7.27504,-12.88997 -16.76779,-25.33123 -21.09547,-27.64718 -12.50906,-6.69519 -15.62017,-4.88268 -4.72124,2.75144 6.89298,4.82812 8.56488,8.33837 5.4509,11.45163 -3.11398,3.1134 -6.85707,2.65306 -12.21317,-1.50169 -7.38851,-5.73127 -7.39569,-5.60545 -0.17236,2.90226 4.15244,4.89145 6.25236,10.19037 4.6681,11.77552 -1.58572,1.58528 -1.00545,2.88215 1.27832,2.88215 2.29096,0 6.49225,-2.32686 9.3362,-5.17081 4.02173,-4.02175 5.17081,-3.99173 5.17081,0.12928 0,7.78593 -9.84609,10.25084 -21.82657,5.46424 -5.76975,-2.30517 -7.95299,-4.31432 -4.8505,-4.46456 6.0441,-0.29301 2.7951,-8.89121 -3.3596,-8.89121 -5.0717,0 -3.03784,10.68965 3.54056,18.61678 4.65374,5.60847 4.00308,6.2498 -4.4986,4.42391 -9.51572,-2.04389 -9.59472,-1.85372 -1.86004,4.44101 10.35166,8.42398 6.77232,17.55635 -11.16752,28.49462 -26.88246,16.39018 -54.95422,8.79726 -65.57162,-17.73588 l -6.6445,-16.6062 -14.74542,7.03158 -14.74542,7.03187 8.95412,17.17758 c 8.51173,16.33259 8.61514,18.08879 2.087,35.702 -3.77614,10.18836 -5.83872,22.44864 -4.58479,27.24485 1.55124,5.93208 -1.55986,12.2791 -9.72687,19.84887 l -12.00777,11.12846 8.86794,18.16677 c 8.60222,17.62198 46.3635,63.59623 69.35062,84.43402 l 11.30684,10.25012 7.25349,-16.71365 c 3.99014,-9.19254 15.14617,-24.30036 24.79116,-33.57276 z m -61.48955,-15.19801 c -14.0761,-9.27988 -46.37499,-48.29996 -42.87607,-51.79917 1.23526,-1.23811 4.30183,1.6097 6.8068,6.32994 2.50497,4.72008 15.14041,18.76214 28.0775,31.2044 25.75495,24.76832 26.82501,26.67965 7.99177,14.26483 z m 44.07398,-75.6682 c -1.4665,-7.10987 -3.8379,-17.77466 -5.26992,-23.69955 -1.771,-7.32891 -0.44526,-6.12539 4.13522,3.76478 3.70717,7.99551 6.07857,18.6603 5.27135,23.69955 -1.19216,7.42743 -1.97354,6.71458 -4.13665,-3.76478 z m 105.71003,-36.62657 c -11.04256,-14.21974 -20.9978,-25.85406 -22.12245,-25.85406 -1.12034,0 -6.63157,4.94747 -12.23615,10.99459 -5.60458,6.04697 -10.18937,9.56528 -10.18937,7.81842 0,-1.74688 4.11081,-7.55127 9.13367,-12.8986 l 9.13366,-9.72256 -13.42687,-8.16572 c -7.38564,-4.49113 -12.14136,-9.45151 -10.56999,-11.02301 1.57134,-1.5715 -1.8299,-3.0821 -7.55658,-3.357 -8.87654,-0.4266 -9.14228,-0.81297 -1.79541,-2.61816 4.7399,-1.16487 11.4045,-4.33357 14.8115,-7.04092 5.02574,-3.9956 5.64622,-3.46731 3.29494,2.80545 -2.087,5.56321 1.39326,11.49127 12.40278,21.16211 15.44205,13.55858 56.07599,63.75352 51.60898,63.75352 -1.32143,0 -11.44472,-11.63433 -22.48871,-25.85406 z m 45.9412,21.54505 c 0,-2.36996 2.05397,-4.30902 4.56326,-4.30902 2.50926,0 3.36532,1.93906 1.90026,4.30902 -1.46506,2.36995 -3.51758,4.30901 -4.56323,4.30901 -1.04854,0 -1.90029,-1.93906 -1.90029,-4.30901 z m 179.05079,138.25625 c -1.33578,-2.16743 0.001,-4.83083 2.97753,-5.91829 2.97753,-1.08731 0.56017,-1.99736 -5.35897,-2.02163 -11.48494,-0.0431 -80.31417,-27.16644 -97.45828,-38.40002 -9.99546,-6.54925 -10.26549,-6.40046 -10.20804,5.61808 0,6.78985 1.19216,16.60089 2.59402,21.80215 2.07407,7.73065 3.89822,8.60624 9.99833,4.79679 5.63475,-3.51902 14.23266,-2.45642 35.10981,4.33961 24.22524,7.88577 35.43873,10.3656 59.14114,13.0787 3.10248,0.35477 4.54457,-1.12753 3.20446,-3.29539 z m 30.6428,-17.9463 c -3.34236,-8.85574 -9.0561,-13.89025 -18.82318,-16.58696 -7.71313,-2.1298 -28.12203,-15.35573 -45.35231,-29.39131 -46.02022,-37.48564 -69.3851,-52.63139 -61.49244,-39.85962 4.05192,6.55529 -3.77181,5.14409 -13.18124,-2.37757 -8.12823,-6.49841 -8.09088,-6.6116 1.33578,-4.01873 13.60068,3.74253 12.0839,-4.24264 -2.81952,-14.8553 -15.89019,-11.3146 -29.98065,-11.26101 -54.37681,0.20683 -23.72398,11.15156 -26.40848,14.92813 -14.96519,21.05238 4.88067,2.61213 14.58887,12.63889 21.5752,22.28174 12.62109,17.42347 12.72451,17.46786 16.65145,7.13974 3.62675,-9.53813 17.7761,-25.03204 17.7761,-19.46465 0,1.32142 -2.05972,7.81941 -4.57761,14.44121 -2.5179,6.62178 -3.25329,10.71579 -1.63455,9.09761 1.61732,-1.61818 11.46628,3.56756 21.8869,11.52386 22.0262,16.8182 98.11469,47.76033 113.00231,45.95372 6.00817,-0.72967 9.0762,0.54867 7.4876,3.11943 -2.85973,4.6273 9.16815,8.83533 17.4041,6.08892 3.6411,-1.21371 3.6684,-4.91616 0.14363,-14.3513 z M 399.86486,811.20742 c 2.95023,-3.55494 7.20466,-6.46352 9.45397,-6.46352 2.24785,0 1.1778,2.90858 -2.37428,6.46352 -3.55492,3.55493 -7.80934,6.4635 -9.45395,6.4635 -1.64461,0 -0.57454,-2.90857 2.37426,-6.4635 z m 16.68592,-22.62231 c -5.35897,-6.83437 -5.20673,-6.98677 1.62737,-1.62694 4.1467,3.25273 7.54077,6.64607 7.54077,7.54077 0,3.54646 -3.53915,1.26397 -9.16814,-5.91383 z m -293.1203,12.34733 c 3.19297,-2.0238 6.3127,-11.20457 6.93032,-20.40186 0.61763,-9.1973 3.38114,-22.29668 6.14177,-29.10994 4.13809,-10.21694 3.67846,-15.12519 -2.62131,-28.00855 -4.20129,-8.59144 -10.80556,-16.20432 -14.67792,-16.91746 -3.87093,-0.71386 -18.41383,8.67547 -32.31756,20.86363 -27.253042,23.89174 -40.35961,32.50415 -40.35961,26.5208 0,-2.0729 4.362153,-5.85851 9.695269,-8.41246 5.33168,-2.55381 21.963016,-15.49118 36.958366,-28.74971 14.993915,-13.25839 28.851685,-23.12372 30.795045,-21.92293 1.94193,1.20077 10.03424,-0.64061 17.98149,-4.09098 8.73866,-3.79423 11.35712,-6.3407 6.62582,-6.44268 -4.30327,-0.0861 -12.05947,2.08784 -17.23603,4.8459 -8.29628,4.41947 -8.7559,4.21767 -3.87524,-1.70077 5.07746,-6.15799 35.69439,-13.15928 34.10868,-7.79973 -1.92039,6.49023 15.07722,39.1156 22.42981,43.05029 10.80987,5.78558 31.95561,5.94672 28.41361,0.2169 -1.46506,-2.36996 -8.38102,-4.30901 -15.37023,-4.30901 -10.80411,0 -13.74143,-2.58268 -19.60455,-17.23604 -3.79337,-9.47981 -8.51316,-17.23603 -10.48957,-17.23603 -1.97783,0 -2.90571,-3.57676 -2.064,-7.94855 1.22087,-6.33495 -0.57454,-7.54708 -8.81193,-5.97141 -6.87144,1.31425 -11.23933,-0.36053 -13.01465,-4.98811 -4.5977,-11.97934 1.91034,-27.76437 12.26775,-29.75989 8.67547,-1.67146 8.50455,-1.92784 -1.63454,-2.45326 -14.33034,-0.74258 -22.25604,8.71296 -22.90238,27.32113 -0.50273,14.52638 -12.43581,32.54019 -21.38274,32.28194 -2.59546,-0.0719 0.83307,-5.022 7.62838,-10.99342 6.79099,-5.97157 11.28816,-11.91715 9.99259,-13.21229 -4.63649,-4.63563 -91.57361,38.31628 -105.862281,52.30216 -18.9998552,18.59538 -16.4805213,34.00843 7.191734,43.99512 15.944768,6.72709 25.025285,6.01941 65.55869,-5.11005 6.499417,-1.78464 8.705637,-1.46937 5.560057,0.7943 -3.949924,2.84322 -2.905709,8.63051 4.30901,23.87651 10.26693,21.69829 10.90323,22.24036 19.63615,16.70602 z M 111.1613,765.96283 c 0,-7.10986 0.74689,-12.92703 1.66615,-12.92703 0.91925,0 2.51789,5.81717 3.56211,12.92703 1.04853,7.10985 0.28727,12.92702 -1.66615,12.92702 -1.95917,0 -3.56211,-5.81717 -3.56211,-12.92702 z M 20.672121,753.43926 c 0,-2.14818 3.878107,-2.89148 8.618016,-1.65207 4.73991,1.23956 8.618017,2.99707 8.618017,3.90569 0,0.90777 -3.878107,1.65192 -8.618017,1.65192 -4.739909,0 -8.618016,-1.75749 -8.618016,-3.90554 z m -8.277605,-11.53507 c 0.201087,-5.01971 1.235249,-6.04079 2.602641,-2.60335 1.249612,3.11052 1.091615,6.82704 -0.344721,8.25893 -1.436336,1.43202 -2.45039,-1.11316 -2.263666,-5.65558 z m 99.107194,-2.93615 c -5.73816,-2.92755 -11.38584,-8.23135 -12.550708,-11.78629 -1.883035,-5.74535 -1.249612,-5.74535 5.673528,0 4.28459,3.55494 12.84084,8.72976 19.01422,11.49974 6.17193,2.76997 8.31351,5.16521 4.75858,5.32277 -3.55493,0.158 -11.15746,-2.10883 -16.89562,-5.03622 z m 124.19423,-26.41323 c 5.88611,-6.26572 7.94726,-11.39631 5.24982,-13.06389 -5.39344,-3.33303 -27.00025,14.56316 -23.81301,19.72203 3.67126,5.94056 8.27903,4.2879 18.56319,-6.65814 z m -15.1002,-7.99536 c 11.23214,-10.07547 25.58546,-54.78961 21.23049,-66.13694 -1.42198,-3.70074 -8.60365,-6.03895 -18.55316,-6.03895 -8.9297,0 -22.03913,-1.16056 -29.13176,-2.57923 -11.54814,-2.30948 -13.39527,-1.14906 -17.66406,11.09571 -2.6285,7.54262 -6.7637,12.44081 -9.21985,10.92276 -3.00481,-1.85705 -3.1384,0.49122 -0.40217,7.21759 2.22344,5.48335 5.10475,14.98702 6.40175,21.11944 3.28059,15.50339 18.80595,34.0949 28.47249,34.0949 4.43684,0 12.92846,-4.36287 18.87346,-9.69528 z m -27.56328,-7.54075 c 0,-5.0575 3.31218,-5.0575 15.08151,0 7.63701,3.28159 7.26931,3.73777 -3.23173,4.00607 -6.5181,0.16662 -11.84978,-1.63612 -11.84978,-4.00607 z m 4.67813,-17.23603 c 0.14365,-3.55494 1.90315,-10.34163 3.93988,-15.08154 3.70287,-8.61802 3.70287,-8.61802 3.93987,0 0.14364,4.73991 -1.64317,11.5266 -3.93987,15.08154 -3.71293,5.74534 -4.15101,5.74534 -3.93988,0 z m -17.60515,-21.54505 c 0,-2.36997 3.8781,-4.30901 8.61801,-4.30901 4.73991,0 8.61802,1.93904 8.61802,4.30901 0,2.36995 -3.87811,4.309 -8.61802,4.309 -4.73991,0 -8.61801,-1.93905 -8.61801,-4.309 z m 35.52776,-1.07726 c 0.97671,-2.96244 5.97516,-6.0046 11.11006,-6.7604 6.98634,-1.02841 8.68409,0.32748 6.74216,5.38625 -3.06945,7.99839 -20.47496,9.3382 -17.85222,1.37459 z m 102.36049,46.47338 c 0,-1.10167 -4.36358,-4.11712 -9.69526,-6.70109 -9.31033,-4.51181 -9.36348,-4.43225 -1.33579,2.00282 8.79181,7.04352 11.02675,7.99567 11.02675,4.69827 z M 159.87895,664.10016 c 4.5891,-4.58837 -1.16343,-9.96128 -7.89555,-7.37731 -3.46588,1.33006 -5.22825,4.15375 -3.91688,6.2752 2.79367,4.51946 7.91708,4.99746 11.81243,1.10169 z m 48.0598,-123.75615 c -14.12349,-10.7257 -35.74466,-29.7922 -48.04688,-42.37019 -12.30221,-12.57801 -36.18561,-36.96095 -53.07549,-54.18449 -16.88844,-17.22354 -32.626375,-30.1296 -34.970475,-28.68019 -15.163402,9.37109 -41.620714,-18.61735 -36.582046,-38.69704 1.307066,-5.18633 12.249075,-21.74254 24.327225,-36.7916 16.795078,-20.92715 21.792092,-30.5075 21.246285,-40.73709 -1.350157,-25.2281 0.172359,-37.07456 4.724109,-37.07456 2.509279,0 3.378262,1.91679 1.930436,4.25959 -1.574225,2.54705 0.488354,3.11958 5.132029,1.4234 7.282224,-2.65951 7.262114,-2.26366 -0.315994,6.37131 -5.067394,5.77379 -7.164445,12.71043 -5.623256,18.60286 2.8224,10.78947 -9.064717,36.53177 -22.464297,48.6497 -4.991269,4.51469 -9.066154,10.33185 -9.053227,12.92702 0.01293,2.59503 13.576249,-9.82453 30.140077,-27.5992 16.563824,-17.77465 29.974904,-34.25661 29.799664,-36.62656 -0.17236,-2.36995 -1.2927,-1.88518 -2.49061,1.07726 -2.42453,6.00904 -14.382028,7.45213 -14.382028,1.73565 0,-2.00771 4.362148,-5.75453 9.695268,-8.32629 5.33168,-2.57177 7.14434,-4.80712 4.02605,-4.96756 -3.11828,-0.16088 -9.56743,1.79426 -14.330325,4.34362 -7.865377,4.20904 -8.221588,3.81289 -3.875235,-4.309 2.632804,-4.91932 7.1429,-9.0755 10.02275,-9.23579 2.87842,-0.16088 0.71817,-2.46175 -4.790177,-5.11407 -8.672597,-4.17271 -9.63638,-6.89141 -7.154391,-20.17623 1.577097,-8.44451 4.976905,-17.90536 7.555129,-21.02407 8.626629,-10.43772 28.416469,-18.02918 46.998349,-18.02918 16.92291,0 20.42757,2.11745 43.31991,26.17507 24.41771,25.66057 25.60556,26.30894 60.44101,32.98962 59.42267,11.39618 68.42706,14.27215 79.57159,25.41769 7.43447,7.43448 10.11325,13.96019 8.72144,21.24556 -1.68196,8.79598 -0.316,10.51527 8.37815,10.51527 5.71374,0 16.28948,3.05137 23.50132,6.78067 7.21184,3.72944 27.95973,10.60289 46.10783,15.27457 18.14811,4.67168 44.15297,12.28513 57.78955,16.91889 32.26585,10.96413 48.93165,11.01066 51.77417,0.14507 1.59002,-6.07987 7.61689,-9.09789 22.68117,-11.35696 14.68655,-2.2022 25.24074,-7.34342 37.13361,-18.08894 17.63821,-15.93528 25.88709,-14.96088 31.82921,3.76047 3.50753,11.05218 -12.86382,44.34258 -26.05802,52.98774 -5.95073,3.89994 -12.37689,14.18252 -15.03844,24.06796 -2.68881,9.9847 -9.08769,20.16817 -15.18063,24.16119 -9.94232,6.51365 -11.62571,6.26271 -29.91601,-4.4558 -10.65905,-6.24677 -21.32959,-15.00038 -23.71247,-19.45231 -5.34604,-9.99014 -27.97839,-14.22417 -79.85167,-14.93817 -27.42539,-0.37777 -43.07571,-2.72172 -53.44751,-8.00585 -8.06645,-4.10965 -15.15334,-7.47211 -15.74798,-7.47211 -0.5889,0 -0.14364,7.27144 1.04852,16.15878 1.64318,12.46854 -0.90489,21.91705 -11.18188,41.37309 -7.32243,13.86796 -13.31195,25.98705 -13.31195,26.93129 0,0.94511 21.21468,1.717 47.14486,1.717 25.93018,0 48.20775,1.7193 49.50619,3.82051 1.2927,2.10136 9.65362,5.16306 18.56752,6.80407 8.9139,1.64088 24.68919,6.70669 35.05808,11.25714 42.42651,18.61951 175.62084,28.12346 180.69827,12.89342 0.89054,-2.66341 9.07908,-8.65091 18.20269,-13.30551 9.12362,-4.65472 21.77917,-15.26767 28.12203,-23.58435 6.34429,-8.31667 14.1436,-15.12131 17.33514,-15.12131 9.05611,0 15.15909,15.49764 16.05536,40.7707 0.66072,18.76384 -1.01979,25.09636 -8.87511,33.47596 -5.33312,5.68387 -9.69528,13.36539 -9.69528,17.06984 0,15.09676 -11.73342,18.43381 -42.36043,12.04727 -17.18,-3.58265 -43.46926,-5.26359 -65.36477,-4.17959 -82.89959,4.10433 -121.75822,2.05195 -141.78793,-7.48892 -17.79763,-8.47768 -29.5641,-8.63956 -35.11123,-0.48405 -2.05109,3.01631 -60.57748,9.76652 -101.03188,11.65272 -7.10987,0.33179 -34.33562,1.72145 -60.50135,3.08885 l -47.57433,2.48629 -25.67881,-19.50099 z m 167.31305,6.56908 c 32.67809,-2.15105 60.36346,-4.86085 61.52403,-6.02184 1.16342,-1.16056 0.14362,-7.35347 -2.31825,-13.76125 -2.43602,-6.40792 -4.42966,-18.15256 -4.42966,-26.09923 0,-27.97236 -0.2011,-28.0775 -55.40092,-28.11054 -42.18376,-0.0288 -55.24437,-1.75233 -82.05071,-10.84979 -17.53479,-5.95075 -32.24575,-10.3001 -32.69101,-9.66524 -0.44526,0.63485 -6.81972,11.81931 -14.16515,24.85406 -7.34398,13.03474 -20.19344,30.31245 -28.55292,38.39485 l -15.19787,14.6953 15.99935,12.39457 c 17.87233,13.846 12.46021,13.70264 157.28311,4.16911 z m -139.81583,-23.4716 c 6.50804,-13.44655 7.40143,-13.9586 9.95237,-5.70111 2.07263,6.70827 3.09387,4.58091 3.9212,-8.16355 1.04853,-16.24783 1.22089,-16.43844 2.8497,-3.32469 0.94797,7.65136 -0.27292,17.34663 -2.71325,21.54504 -3.10968,5.34174 -4.4828,5.81588 -4.57473,1.57955 -0.14363,-4.73302 -1.92612,-4.42924 -8.35803,1.3918 -8.0636,7.29645 -8.08514,7.14921 -1.07726,-7.32732 z m 98.2497,5.83712 c -18.17971,-9.26882 -41.56183,-30.29016 -55.46269,-49.86484 -5.04871,-7.10987 4.56899,0.17522 21.37125,16.18895 19.06162,18.16634 35.55793,30.11752 43.8657,31.77892 7.32388,1.46464 13.31484,4.35958 13.31484,6.43336 0,5.64092 -5.08751,4.64138 -23.0891,-4.53639 z m 72.97305,-7.85201 c -1.37887,-6.51738 -0.76125,-17.66693 1.39325,-24.77679 3.32081,-11.02633 3.84364,-9.28406 3.55925,11.84976 -0.18673,13.62724 -0.80435,24.7768 -1.37889,24.7768 -0.57453,0 -2.17892,-5.33239 -3.55924,-11.84977 z M 307.9178,491.83103 c -6.7278,-3.64556 -11.4045,-7.45443 -10.39476,-8.46417 2.01661,-2.01719 29.08867,10.63822 29.08867,13.59851 0,3.32094 -6.26961,1.59907 -18.69391,-5.13434 z m 409.6172,57.60413 c 2.29239,-2.96245 5.48251,-9.05396 7.08976,-13.53647 2.5854,-7.21097 2.04104,-7.48375 -4.71693,-2.36607 -4.20272,3.18133 -10.0644,8.67388 -13.02613,12.20555 -2.96316,3.53181 -5.38625,4.49214 -5.38625,2.13411 0,-5.83914 26.94996,-31.57484 32.31756,-30.86226 2.36996,0.31455 4.77725,-3.16828 5.35035,-7.73956 0.99107,-7.86681 0.83307,-7.85044 -2.93013,0.30593 -2.97896,6.46869 -4.04472,2.37527 -4.27166,-16.41315 -0.20109,-17.16638 1.19216,-24.11077 4.43541,-22.10221 3.33086,2.05843 3.28633,0.2126 -0.15801,-6.20928 -5.63043,-10.52101 -11.06696,-12.39098 -7.27217,-2.50137 1.61444,4.20818 0.40219,6.17912 -3.32655,5.38625 -3.23031,-0.68799 -9.50136,2.99362 -13.93534,8.18067 -4.43396,5.18718 -14.84882,13.09852 -23.14367,17.58089 -8.68266,4.6915 -15.66038,12.07183 -16.44462,17.39289 -1.30707,8.8145 -0.80434,8.94967 10.77252,2.91345 6.67466,-3.48124 14.51419,-6.34156 17.42276,-6.35606 2.90715,-0.0143 8.50311,-4.93469 12.43292,-10.93354 8.23595,-12.56995 13.26601,-11.32494 6.36155,1.5748 -2.54376,4.75312 -11.91154,10.98897 -20.81683,13.85763 -20.36293,6.55903 -27.96116,12.51752 -25.18472,19.75048 1.19217,3.11253 -1.12034,7.49782 -5.12916,9.74497 -6.16331,3.44878 -5.29576,4.53307 5.56437,6.95429 7.07683,1.57782 14.80576,3.51544 17.17571,4.30615 9.97391,3.32726 22.92967,1.74788 26.81208,-3.26852 z m -120.28165,-3.50998 c 71.46778,-7.8503 68.5836,-6.99166 68.07085,-20.26814 l -0.45964,-11.7712 -51.70809,-0.70093 c -114.63544,-1.5547 -140.04277,-2.76509 -140.04277,-6.67194 0,-2.26624 -5.57156,-2.86046 -12.51625,-1.33434 -7.18024,1.57695 -13.71988,0.80433 -15.33575,-1.81223 -1.77819,-2.87713 2.74915,-4.56124 12.262,-4.56124 8.29483,0 16.27944,1.93906 17.74449,4.30901 1.46508,2.36996 8.8507,4.2474 16.41302,4.17199 13.11088,-0.12927 13.35505,-0.43522 5.2656,-6.55171 -7.78637,-5.88625 -18.42244,-9.37698 -50.76443,-16.66077 -11.15458,-2.5123 -11.84976,-1.796 -11.84976,12.2143 0,23.57516 7.06676,38.06248 17.02346,34.90197 4.62068,-1.4662 14.7957,0.64204 22.61367,4.68418 7.81654,4.04243 21.97163,7.07784 31.45575,6.74503 12.56508,-0.44095 15.48947,0.53001 10.77827,3.57864 -8.85214,5.72954 27.52164,5.6076 81.04527,-0.27147 z m 39.60696,-16.95781 c 3.55494,-2.29742 9.3721,-4.07045 12.92702,-3.94017 4.26162,0.15657 3.52766,1.49825 -2.15449,3.94017 -11.84547,5.09037 -18.64939,5.09037 -10.77253,0 z m -174.51483,-4.30901 -12.92703,-3.28935 11.59555,-0.50992 c 6.37733,-0.28007 12.79344,1.42917 14.2585,3.79927 1.46507,2.36995 2.06402,4.07962 1.3358,3.79925 -0.73254,-0.28009 -7.14865,-1.99005 -14.25852,-3.79925 z m -249.06212,-9.69527 c 12.48751,-13.71729 38.73941,-55.2942 42.06023,-66.6141 2.04534,-6.96984 0,-12.00218 -7.86538,-18.78771 -5.86313,-5.09742 -11.93308,-14.34499 -13.4915,-20.5501 -2.60839,-10.39161 -3.41849,-9.54546 -10.27987,10.7211 -8.27328,24.43739 -21.39134,46.70088 -25.24648,42.84576 -1.37888,-1.37601 0.73254,-6.06794 4.66955,-10.42636 3.94417,-4.35842 10.34735,-17.45895 14.22834,-29.11223 3.8824,-11.65329 8.42123,-23.12688 10.08738,-25.49684 7.81512,-11.11451 6.89011,-19.64534 -4.69106,-43.26144 -6.86714,-14.00485 -12.48608,-28.6167 -12.48608,-32.47067 0,-3.85413 -2.12865,-13.11404 -4.72985,-20.57754 -3.99733,-11.46584 -6.90159,-13.57007 -18.73126,-13.57007 -7.76627,0 -18.37936,3.79711 -23.83313,8.52667 -10.47664,9.08685 -34.91876,15.46244 -44.77634,11.67986 -3.328,-1.27691 -12.76616,4.69581 -21.382739,13.53071 l -15.427686,15.81636 0.890529,37.80423 0.876164,37.80408 25.854052,26.41565 c 61.09599,62.42375 85.39449,85.41791 90.26223,85.41791 2.854,0 9.15952,-4.36289 14.01433,-9.69527 z m 27.45125,-56.0171 c -0.17236,-6.51739 1.63599,-11.84978 4.00594,-11.84978 5.05735,0 5.05735,3.31205 0,15.08152 -3.28202,7.63657 -3.73734,7.26859 -4.00594,-3.23174 z M 129.02788,396.90028 c -6.28253,-24.55575 -10.10318,-57.28784 -5.45951,-46.75676 4.88928,11.08291 13.88362,59.171 11.51224,61.54283 -0.99108,0.99395 -3.71868,-5.65945 -6.05273,-14.78607 z m 214.18213,42.31145 c 7.46034,-16.18623 13.52599,-32.18341 13.47858,-35.54933 0,-3.3659 -9.87768,-11.93537 -21.8481,-19.04322 -11.97044,-7.108 -24.73371,-16.20503 -28.36333,-20.21586 -6.103,-6.74388 -8.17707,-5.48867 -27.58197,16.68648 -24.75956,28.29282 -28.06026,36.5822 -21.18452,53.18264 4.18693,10.10766 10.81848,14.35965 35.94,23.04173 16.94303,5.85565 31.97428,10.7998 33.40056,10.98695 1.42197,0.18673 8.69846,-12.90318 16.15878,-29.08939 z m 228.7394,-27.96791 c 4.27741,-9.90569 12.18013,-21.88833 17.56209,-26.62824 15.65175,-13.78552 25.93305,-40.24542 20.3773,-52.44121 l -4.63936,-10.18132 -10.04861,9.44003 c -5.52703,5.19207 -10.04862,11.9713 -10.04862,15.06502 0,6.56635 -30.57097,23.17599 -41.84046,22.73231 -4.24294,-0.16662 0,-3.14026 9.51285,-6.60743 9.47407,-3.46718 20.13886,-9.3741 23.69955,-13.12682 5.82721,-6.14191 5.61321,-6.39917 -2.14445,-2.57765 -4.73991,2.33477 -15.82124,5.54499 -24.62598,7.13371 -20.04839,3.61785 -22.85786,8.05785 -13.82473,21.84524 8.2144,12.53706 3.38255,22.32309 -12.15573,24.61822 -15.26537,2.25476 -13.28467,11.03222 5.57155,24.69233 21.907,15.86894 31.01194,12.88453 42.6046,-13.96419 z m -29.88728,3.88156 c 0,-2.25433 11.71332,-14.93747 26.02928,-28.18509 16.35701,-15.13668 28.29439,-30.45046 32.12797,-41.21408 4.45983,-12.52313 6.1504,-14.44509 6.28829,-7.14922 0.14363,5.48824 -1.99509,14.21398 -4.66379,19.39054 -5.88467,11.40982 -59.78175,62.94197 -59.78175,57.15785 z m -251.48521,-55.21808 22.13537,-22.69081 -20.62003,1.46348 c -11.34133,0.80436 -24.92188,-0.83882 -30.18031,-3.65231 -15.66899,-8.38575 -22.75875,2.92366 -23.51857,37.51193 -0.35908,16.12158 1.03417,34.05525 3.06658,39.85257 3.59947,10.22472 4.05909,9.93616 15.34438,-9.62675 6.40032,-11.09195 21.59675,-30.37822 33.77258,-42.85811 z M 69.873815,410.00857 c 5.381951,-2.06531 6.815414,-9.45684 6.815414,-35.13982 0,-32.25149 0,-32.45905 -8.618016,-24.72523 -4.73991,4.28962 -8.618017,9.97635 -8.618017,12.63716 0,2.66096 -3.878107,8.15868 -8.618017,12.21705 -4.73991,4.05852 -8.618017,5.69637 -8.618017,3.63983 0,-2.05654 2.908581,-6.15313 6.463513,-9.1035 3.554932,-2.95038 6.398877,-7.55068 6.319878,-10.22283 -0.244177,-8.4112 -17.092399,15.06615 -17.092399,23.82306 0,4.58508 4.760018,13.09608 10.577179,18.91325 11.673104,11.67338 11.693212,11.68115 21.388482,7.96103 z M 512.18921,393.95406 c -2.52938,-2.52924 -4.54026,-6.63457 -4.46844,-9.12303 0.14363,-2.48845 2.1071,-1.13039 4.52302,3.01631 2.41592,4.14742 8.30921,7.54077 13.09652,7.54077 6.56118,0 8.36379,-2.38647 7.32675,-9.69528 -1.07725,-7.62535 -4.59771,-9.97937 -16.45897,-11.02632 -18.61636,-1.64302 -135.73665,-34.36333 -151.67853,-42.37494 -19.04008,-9.56871 -32.83608,-7.22518 -46.67806,7.92901 -11.82966,12.95246 -12.15427,14.2499 -5.42647,21.68423 3.93556,4.34908 13.91523,12.0849 22.17702,17.19079 l 15.01977,9.28318 5.96941,-8.98872 5.96798,-8.98889 10.05292,10.05334 c 17.5592,17.55822 61.25973,20.59677 59.8119,4.15892 -0.67507,-7.68023 -0.20108,-7.85575 4.38802,-1.61675 2.98183,4.05564 15.08009,8.36236 28.76693,10.24065 12.99167,1.78278 27.49866,4.68031 32.23856,6.43895 11.47634,4.25774 21.5867,0.4941 15.37167,-5.72222 z M 343.09223,358.01104 c 1.83852,-9.01861 2.92151,-10.10218 4.17687,-4.178 0.93362,4.39906 -0.18673,9.87853 -2.48198,12.17639 -2.69888,2.69801 -3.29928,-0.12927 -1.69489,-7.99839 z m 28.76407,-5.71301 c 1.46506,-2.36996 3.51759,-4.30902 4.56324,-4.30902 1.04853,0 1.90027,1.93906 1.90027,4.30902 0,2.36995 -2.05395,4.30901 -4.56324,4.30901 -2.50927,0 -3.36532,-1.93906 -1.90027,-4.30901 z m -38.78107,-12.92704 c -1.46508,-2.36996 -0.71817,-4.30901 1.64604,-4.30901 2.36995,0 5.50691,1.93905 6.97198,4.30901 1.46506,2.36996 0.71817,4.30901 -1.64604,4.30901 -2.36996,0 -5.50693,-1.93905 -6.97198,-4.30901 z m 19.39053,0.59752 c 0,-2.04132 4.84765,-2.78477 10.77252,-1.65221 5.92489,1.13326 10.77252,2.80286 10.77252,3.71148 0,0.9092 -4.84763,1.65222 -10.77252,1.65222 -5.92487,0 -10.77252,-1.67017 -10.77252,-3.71149 z m -116.34322,8.6884 c 0,-4.37263 3.55781,-11.1701 7.90704,-15.10552 6.57267,-5.94886 10.25687,-6.33582 21.84667,-2.29541 26.66413,9.29511 69.35348,-3.87495 69.35348,-21.39623 0,-7.83436 -18.32334,-28.29181 -22.02477,-24.59037 -1.09162,1.09737 -18.02459,0.37776 -37.61909,-1.59706 -41.18118,-4.15143 -71.66742,1.07438 -67.63133,11.5931 1.36453,3.5387 4.6523,15.39494 7.32101,26.34715 5.84015,23.96714 11.10001,34.99447 16.69023,34.99447 2.28522,0 4.15676,-3.57764 4.15676,-7.95013 z m -11.76791,-55.36213 c 4.19268,-1.09305 10.00984,-1.02125 12.92702,0.15943 2.91722,1.18067 -0.51708,2.0742 -7.62263,1.98644 -7.10986,-0.0862 -9.49704,-1.05426 -5.30439,-2.14617 z m -79.36474,6.87357 c 14.60897,-5.09252 17.4874,-11.2728 7.10699,-15.25618 -3.55494,-1.36453 -6.46352,-5.18144 -6.46352,-8.48286 0,-8.52293 -7.18886,-7.43218 -17.23603,2.61557 -9.79868,9.79883 -11.53665,25.85404 -2.79799,25.85404 3.2016,0 11.92734,-2.12879 19.39055,-4.73057 z m 31.15844,-16.81446 c 2.17604,0 3.95711,-1.78493 3.95711,-3.96659 0,-4.46226 -25.21202,-11.03852 -28.75115,-7.4994 -3.94849,3.94762 9.08339,15.57463 15.09876,13.47184 3.15707,-1.10312 7.51922,-2.00585 9.69528,-2.00585 z m 28.73391,-2.97034 c -4.14815,-1.08444 -10.93484,-1.08444 -15.08154,0 -4.14813,1.08443 -0.76126,1.97065 7.54077,1.97065 8.29484,0 11.68747,-0.88622 7.54077,-1.97065 z m 53.84249,-8.05455 c -42.77841,-7.72232 -44.74044,-8.53371 -61.61164,-25.48592 -16.36418,-16.44216 -21.31666,-18.47128 -21.31666,-8.73377 0,3.55492 1.93904,6.4635 4.30901,6.4635 2.36995,0 4.309,1.67247 4.309,3.71652 0,2.04404 -4.83901,3.18522 -10.75385,2.53585 -5.91483,-0.64921 -11.98766,0.81441 -13.49437,3.25388 -1.7624,2.85155 3.42566,3.84607 14.53859,2.78635 12.6498,-1.20652 16.71895,-0.18815 15.18781,3.80226 -1.14906,2.99764 -5.27709,5.68058 -9.171,5.9621 -19.82432,1.43346 39.26512,10.33429 71.70477,10.80139 l 37.55875,0.5415 -31.26041,-5.64293 z m -87.23731,-6.21114 c 0,-2.36995 -2.05396,-4.30901 -4.56325,-4.30901 -2.50928,0 -3.36534,1.93906 -1.90027,4.30901 1.46506,2.36996 3.51759,4.309 4.56325,4.309 1.04851,0 1.90027,-1.93904 1.90027,-4.309 z m -2.18467,-25.80465 c 1.50959,-2.44263 -0.21545,-3.16511 -4.05478,-1.69358 -7.46465,2.86462 -8.8306,5.95318 -2.63281,5.95318 2.23064,0 5.23976,-1.91679 6.68759,-4.2596 z"
       id="path3584"
       inkscape:connector-curvature="0" />
  </g>
</svg>
