<?xml version="1.0" encoding="UTF-8" standalone="no"?>
<!-- Created with Inkscape (http://www.inkscape.org/) -->

<svg
   xmlns:dc="http://purl.org/dc/elements/1.1/"
   xmlns:cc="http://creativecommons.org/ns#"
   xmlns:rdf="http://www.w3.org/1999/02/22-rdf-syntax-ns#"
   xmlns:svg="http://www.w3.org/2000/svg"
   xmlns="http://www.w3.org/2000/svg"
   xmlns:sodipodi="http://sodipodi.sourceforge.net/DTD/sodipodi-0.dtd"
   xmlns:inkscape="http://www.inkscape.org/namespaces/inkscape"
   width="210mm"
   height="297mm"
   viewBox="0 0 744.09448819 1052.3622047"
   id="svg3621"
   version="1.1"
   inkscape:version="0.91 r13725"
   sodipodi:docname="lunges.svg">
  <defs
     id="defs3623" />
  <sodipodi:namedview
     id="base"
     pagecolor="#ffffff"
     bordercolor="#666666"
     borderopacity="1.0"
     inkscape:pageopacity="0.0"
     inkscape:pageshadow="2"
     inkscape:zoom="0.49497475"
     inkscape:cx="2934.3004"
     inkscape:cy="591.0404"
     inkscape:document-units="px"
     inkscape:current-layer="layer1"
     showgrid="false"
     inkscape:window-width="3200"
     inkscape:window-height="1699"
     inkscape:window-x="0"
     inkscape:window-y="50"
     inkscape:window-maximized="1" />
  <metadata
     id="metadata3626">
    <rdf:RDF>
      <cc:Work
         rdf:about="">
        <dc:format>image/svg+xml</dc:format>
        <dc:type
           rdf:resource="http://purl.org/dc/dcmitype/StillImage" />
        <dc:title></dc:title>
      </cc:Work>
    </rdf:RDF>
  </metadata>
  <g
     inkscape:label="Layer 1"
     inkscape:groupmode="layer"
     id="layer1">
    <path
       style="fill:#000000"
       d="m 671.08645,981.81592 c -45.10898,-3.4676 -48.17753,-6.4137 -45.1654,-43.34494 4.00975,-49.16276 2.95984,-59.33712 -9.94043,-96.32477 -13.29382,-38.11876 -14.92716,-51.72493 -8.30021,-69.15509 2.28834,-6.01875 2.73005,-10.31884 0.97698,-9.55652 -1.74894,0.75682 -14.01485,6.80034 -27.25638,13.4149 l -24.07775,12.02787 2.75343,22.02885 c 1.5673,12.55489 1.12834,22.02885 -1.01826,22.02885 -2.07505,0 -5.93619,7.2214 -8.57954,16.04724 -7.63834,25.4937 -21.27892,54.14124 -29.87083,62.73316 -11.03163,11.03162 -33.72372,9.9487 -63.63859,-3.04102 -35.11764,-15.2464 -77.88186,-29.69333 -81.52972,-27.54122 -4.52438,2.6695 -3.78958,37.57523 0.85315,40.44424 2.17136,1.33475 2.90066,5.16699 1.62234,8.49974 -1.67738,4.37026 -9.04465,6.06002 -26.41839,6.06002 -20.21661,0 -25.12628,-1.47647 -30.51895,-9.17536 -3.53363,-5.0459 -6.42604,-14.30657 -6.42604,-20.57988 0,-6.27469 -2.22091,-19.71024 -4.93444,-29.85846 -4.33175,-16.19448 -4.04278,-19.4364 2.36263,-26.5147 11.43893,-12.6402 30.24512,-19.02773 40.96439,-13.91577 19.39513,9.25241 48.16514,14.14832 67.54788,11.49259 14.27079,-1.95396 24.54009,-0.82562 35.99829,3.9781 15.29318,6.40266 15.88626,6.36551 12.89614,-0.7981 -1.72553,-4.13084 -4.07304,-21.97105 -5.21927,-39.64615 -1.65811,-25.59826 -3.62308,-32.9614 -9.66111,-36.19093 -16.14907,-8.64422 -21.72336,-50.95697 -10.31471,-78.30967 1.7792,-4.26706 -6.8196,-15.5161 -26.79403,-35.05571 -28.39711,-27.78064 -49.18065,-59.62884 -49.18065,-75.36785 0,-23.84108 53.54404,-79.51659 101.13812,-105.16302 28.73699,-15.48582 32.88435,-19.12129 31.94452,-27.99943 -6.98473,-65.92967 -6.82511,-68.0116 6.34762,-82.75438 10.10004,-11.30407 15.48032,-13.94055 28.36684,-13.90202 8.74603,0 23.33331,3.69877 32.4151,8.16123 l 16.51235,8.11582 -0.85314,24.69834 c -1.11458,32.47978 -8.3635,63.44869 -18.06863,77.24613 -9.63908,13.7025 -7.61082,19.5066 12.4448,35.62401 14.51573,11.66461 16.11605,15.10193 20.88675,44.86268 9.70513,60.53976 10.55551,69.39176 7.84887,81.76639 -1.48887,6.81134 -2.92819,23.62228 -3.19652,37.35919 l -0.48161,24.97492 24.16169,4.98948 c 37.57109,7.7608 37.08949,6.48935 40.18005,106.23755 2.25394,72.77542 3.74417,87.35169 9.38726,91.82378 3.68914,2.92268 9.50836,11.21601 12.93055,18.42916 3.42218,7.21176 12.72414,17.28292 20.6707,22.37836 32.6917,20.96241 32.42613,20.51934 19.37862,32.23209 -6.37102,5.7201 -14.73039,10.1111 -18.57639,9.7602 -3.84738,-0.3578 -22.10178,-1.8012 -40.56534,-3.2199 z m 62.72765,-13.0737 c 1.26594,-2.05439 -7.24616,-9.67484 -18.92177,-16.93339 -13.50022,-8.39241 -24.18646,-18.99057 -29.34795,-29.10714 l -8.11582,-15.90965 -11.77881,12.60856 c -14.03411,15.02486 -15.48032,15.21337 -27.80816,3.63271 l -9.55378,-8.97583 0,17.15358 c 0,15.30694 1.22468,17.44391 11.35225,19.85059 6.24442,1.48335 14.79644,5.69813 19.00571,9.36662 8.30158,7.23652 47.71518,9.24145 62.52399,3.18138 8.13509,-3.32861 8.13785,-3.28183 0.24769,3.1511 -4.40741,3.59137 -11.83798,6.55817 -16.51235,6.59257 -6.51549,0 -7.15672,0.9081 -2.74654,3.707 6.09993,3.8611 27.6279,-1.7943 31.65967,-8.3181 z m -52.53816,4.7803 c -8.3181,-1.6196 -19.46393,-5.7448 -24.76852,-9.16706 -14.52674,-9.37076 -28.21961,-11.97283 -28.21961,-5.36101 0,11.13757 17.58291,18.43877 43.23209,17.94897 21.96279,-0.4266 23.10765,-0.8257 9.75604,-3.4209 z M 373.6867,929.29286 c 1.49436,-1.49436 0.75681,-5.07204 -1.62785,-7.95069 -2.39016,-2.88002 -3.76757,-13.26767 -3.06028,-23.08426 1.22466,-17.10128 0.60545,-18.1966 -15.01661,-26.10602 -19.0291,-9.6377 -21.73851,-15.03724 -12.28931,-24.48643 9.52625,-9.52626 4.69776,-12.47921 -9.28269,-5.67612 -8.75981,4.26293 -11.39352,8.21076 -10.57616,15.85598 6.22102,58.16337 10.44268,67.1103 29.83368,63.23266 6.28157,-1.25219 12.39527,-0.70178 13.58553,1.22466 1.18339,1.93194 -5.23303,3.51162 -14.27354,3.51162 -20.1602,0 -28.09438,-9.17123 -28.35583,-32.78113 -0.1376,-9.21664 -2.90617,-22.32882 -6.22928,-29.14016 l -6.04214,-12.38426 2.49336,16.51234 c 1.37603,9.08179 3.86114,25.49782 5.53439,36.47991 1.67324,10.98208 5.67612,21.6353 8.89603,23.67319 6.77281,4.28771 42.38306,5.1436 46.4107,1.11459 z m 286.10806,-10.69999 c 7.86262,-8.93043 8.04288,-12.79157 4.66886,-100.1061 -3.05754,-79.09539 -4.4721,-91.78788 -10.9642,-98.3364 -9.83723,-9.92392 -32.97929,-14.96706 -69.23489,-15.08678 l -29.57362,-0.1376 -12.85074,20.88536 c -7.06865,11.4871 -14.01897,29.39872 -15.44454,39.80288 l -2.59244,18.91902 20.83858,-2.00212 c 12.14071,-1.16962 31.52896,-7.5654 46.44373,-15.32759 l 25.60239,-13.32546 -3.48823,13.70938 c -5.44907,21.41375 -2.87865,48.99213 6.62558,71.09115 4.78583,11.12657 10.84999,33.41824 13.47545,49.53704 6.6586,40.8832 11.91228,46.89919 26.49407,30.33869 z m -12.24253,-1.72004 c -1.51363,-1.51363 -2.75207,-4.67162 -2.75207,-7.01775 0,-2.58693 1.92231,-2.34337 4.88491,0.61921 2.68738,2.68739 3.92581,5.84538 2.75205,7.01776 -1.16962,1.16962 -3.37126,0.89441 -4.88489,-0.61922 z M 544.95275,759.93811 c 2.97911,-1.19714 6.54028,-1.04579 7.91217,0.33025 1.37603,1.37603 -1.0733,2.3475 -5.4188,2.16861 -4.80922,-0.19263 -5.78757,-1.16962 -2.49337,-2.49336 z m 93.99791,-21.39436 c -1.77782,-2.87728 -2.11908,-6.34624 -0.75681,-7.70989 3.69464,-3.69326 7.72228,1.7393 5.72703,7.7264 -1.39805,4.19414 -2.37089,4.19139 -4.97159,0 z M 518.35963,906.08614 c 13.54149,-13.54288 34.2755,-67.89326 28.21271,-73.95605 -7.15122,-7.15122 -48.4486,-9.25379 -63.03863,-3.21165 -9.78357,4.05378 -12.24116,7.24754 -10.70964,13.92678 2.93232,12.79157 5.85226,34.27138 3.835,28.21823 -3.60796,-10.82797 -27.58112,-18.48557 -62.75105,-20.04048 -19.45292,-0.8669 -42.8,-2.03239 -51.88179,-2.60208 -14.17035,-0.89441 -16.69261,0.23393 -17.7838,7.88878 -1.08706,7.66861 2.10119,9.8675 22.70448,15.62068 44.65351,12.47233 61.87176,18.5241 88.36582,31.05834 31.99818,15.13632 50.11773,16.02662 63.0469,3.09745 z m -71.70762,-23.80255 c -4.52164,-3.06029 -2.85251,-3.44283 6.19212,-1.42006 15.17898,3.39466 18.4732,5.75731 7.91217,5.67337 -4.35101,0 -10.69862,-1.94846 -14.10429,-4.25331 z m -39.38608,-16.59904 c -4.4432,-7.18837 0.61922,-8.71026 6.27882,-1.88928 3.25568,3.92443 3.56942,6.29257 0.82562,6.29257 -2.41356,0 -5.6142,-1.98147 -7.10995,-4.40329 z m 103.37142,-42.78073 c 13.62269,-0.16513 29.84469,1.12834 36.05058,2.86765 l 11.28069,3.15798 -2.57456,-19.67033 c -1.41593,-10.81834 -2.7782,-19.90151 -3.02589,-20.18497 -0.24768,-0.28897 -19.49006,-1.3953 -42.76284,-2.4686 l -42.31289,-1.95121 0,22.55725 c 0,21.61603 0.38529,22.421 9.2882,19.2699 5.10919,-1.80948 20.43402,-3.41943 34.05671,-3.57767 z m 11.82284,-58.65736 c 1.44345,-10.53351 8.19837,-28.20846 15.00972,-39.27861 6.81134,-11.07015 12.38426,-21.02848 12.38426,-22.1293 0,-4.82435 -16.53574,-1.38979 -22.62329,4.69914 -5.42293,5.42294 -11.49259,6.15911 -31.80966,3.85976 -13.80982,-1.56179 -29.36996,-5.63209 -34.5796,-9.04601 -8.69376,-5.69676 -9.83311,-5.52751 -13.89377,2.06129 -7.1003,13.26492 -5.20827,42.56044 3.69051,57.1546 8.8052,14.44142 24.39699,20.84821 52.21342,21.4578 l 16.98294,0.37152 2.62547,-19.15157 z m -65.14121,-8.26443 c -2.17412,-5.66649 -1.57005,-5.92106 3.68638,-1.55905 7.1636,5.94445 7.90942,8.33461 2.60069,8.33461 -2.02688,0 -4.856,-3.04927 -6.28707,-6.77556 z m 56.73642,-52.52839 c -4.1501,-2.34613 -12.03612,-4.35788 -17.52235,-4.47209 -5.4876,-0.13761 -10.73715,-2.99562 -11.66735,-6.4013 -1.50125,-5.50411 -1.15586,-5.50411 3.06717,0 3.54603,4.61659 5.28395,4.89454 6.83061,1.10083 1.58519,-3.90242 4.99499,-3.58868 14.5171,1.33475 6.84437,3.53914 13.50986,5.36926 14.81295,4.06617 1.30723,-1.30724 0.55042,-2.36815 -1.65948,-2.36815 -2.21404,0 -7.63284,-2.93782 -12.04026,-6.52926 -7.1581,-5.83161 -7.21865,-6.27745 -0.57793,-4.17487 4.7184,1.49299 6.42881,0.71554 4.67574,-2.11634 -1.51913,-2.45758 -7.13196,-3.63408 -12.4737,-2.61307 -5.34174,1.01826 -8.72953,0.26144 -7.52825,-1.67463 1.19714,-1.94296 -4.36889,-3.53226 -12.376,-3.53226 -12.75992,0 -16.55088,-2.67638 -30.69921,-21.67246 -8.87814,-11.91916 -18.46906,-29.10301 -21.31194,-38.1848 -2.84425,-9.08179 -7.22553,-19.08965 -9.73678,-22.238 -3.53914,-4.44046 -2.25944,-7.20627 5.69813,-12.31133 5.64585,-3.62172 16.80683,-13.58416 24.80293,-22.13894 8.61257,-9.21389 18.3865,-15.55325 23.98006,-15.55325 5.24266,0 8.30708,-1.83562 6.88977,-4.12808 -1.40355,-2.27046 -0.55041,-4.12809 1.89892,-4.12809 6.08618,0 1.37603,18.67546 -10.00097,39.61449 -8.27819,15.24227 -8.94282,20.73813 -6.73292,55.72917 2.39292,37.89722 2.69565,38.82604 12.77093,39.115 15.97569,0.45409 29.98643,5.9417 41.28086,16.16008 5.7642,5.21378 17.92416,10.28445 27.54397,11.48434 15.68123,1.95671 17.61317,1.16962 21.55825,-8.76805 2.38328,-6.00362 4.2079,-29.49243 4.05654,-52.19691 -0.19265,-29.13879 1.65949,-45.79561 6.30633,-56.62909 11.26142,-26.25051 7.11958,-65.02012 -7.54751,-70.64945 -9.21664,-3.5364 -18.87086,1.04578 -19.0181,9.03776 -0.1376,6.016 -0.60545,5.96645 -4.33312,-0.44034 -2.31447,-3.97259 -6.69987,-7.22415 -9.74503,-7.22415 -3.04653,0 -14.56389,-7.47046 -25.59551,-16.60041 -19.55062,-16.18072 -34.02644,-19.89462 -30.87947,-7.92317 2.96534,11.27792 2.66125,45.16401 -0.41281,45.16401 -1.68976,0 -2.86765,-9.08041 -2.61858,-20.17946 0.49537,-21.81143 -2.80159,-31.03633 -9.58542,-26.84494 -2.76168,1.70765 -2.29384,3.90791 1.32099,6.19626 3.75243,2.37777 0.8669,3.56941 -8.74329,3.61207 -12.53975,0 -18.81994,4.6097 -49.8948,36.18406 -20.34872,20.67483 -36.7964,41.14325 -38.46689,47.86653 -4.13359,16.64995 10.41929,44.76635 38.48752,74.36199 42.53856,44.85441 59.29721,54.36827 96.53257,54.80035 10.12343,0.1376 10.6711,-0.42657 4.12808,-4.1281 z m 44.76222,-52.15425 c -0.45408,-10.21702 -1.85076,-23.22049 -3.1112,-28.89661 -1.96084,-8.82585 -1.62234,-9.27168 2.33512,-3.07817 2.54428,3.9836 3.94508,16.98707 3.1112,28.89661 l -1.515,21.65456 -0.82562,-18.57639 z M 405.28857,607.85403 c -2.87176,-3.45933 -4.17899,-7.33423 -2.90479,-8.60844 1.2797,-1.27971 4.39228,1.55629 6.92555,6.29121 5.4078,10.1028 3.40017,11.26004 -4.02076,2.31723 z m 132.03411,-5.4133 c 2.71903,-5.30321 6.07654,-8.50936 7.46083,-7.12645 1.3829,1.38428 -0.83938,5.7229 -4.94546,9.64184 -7.13195,6.81271 -7.2434,6.70263 -2.51537,-2.51539 z m 17.89663,-37.83116 c 0,-12.48746 0.77058,-17.59528 1.72003,-11.35224 0.94946,6.24442 0.94946,16.46144 0,22.70448 -0.94945,6.24442 -1.72003,1.12834 -1.72003,-11.35224 z M 439.50629,528.72412 c 4.01662,-1.04579 9.58954,-0.97699 12.38425,0.15135 2.79472,1.12835 -0.49536,1.98699 -7.30258,1.90306 -6.81135,-0.13761 -9.0983,-1.0045 -5.08167,-2.05579 z m 140.48979,166.65773 c -1.57555,-2.5484 -0.34401,-2.72179 3.27633,-0.45409 14.25153,8.89328 21.92014,3.48411 9.58129,-6.75767 -4.62346,-3.83637 -8.48185,-4.20102 -13.17135,-1.23843 -8.99098,5.67199 -10.79357,12.53837 -3.29147,12.53837 3.36852,0 4.99086,-1.83561 3.6052,-4.07855 z m 23.11454,-73.80743 c 0.22017,-10.67386 -1.73793,-29.25025 -4.36201,-41.28088 l -4.76932,-21.8761 -6.03526,14.4483 c -3.32036,7.94657 -6.9806,21.87887 -8.13646,30.96066 -1.72967,13.60617 -1.1421,15.60416 3.37539,11.35223 9.44232,-8.89877 12.82322,-5.61282 3.98499,3.8749 -6.60631,7.09068 -8.41718,14.57628 -8.41718,34.80114 0,23.57826 0.78435,25.87899 9.2882,27.08576 8.28645,1.18338 9.57854,-0.90818 11.97558,-19.32082 1.47923,-11.35224 2.87177,-29.37272 3.09607,-40.04519 z M 459.32936,602.85354 c -2.33788,-8.68687 -6.61182,-18.93141 -9.49736,-22.76503 -4.90691,-6.52237 -5.86738,-6.49347 -14.93678,0.4541 -9.62808,7.37139 -9.64735,7.55715 -2.85802,27.73937 3.75932,11.17472 11.8366,27.61277 17.94892,36.53081 l 11.11419,16.21374 1.23842,-21.18809 c 0.68802,-11.65221 -0.67425,-28.29391 -3.01212,-36.98077 z m 12.00722,-29.82267 c 4.58769,-8.99235 8.34012,-18.28054 8.34012,-20.64043 0,-8.20389 -16.36099,-4.23405 -22.75127,5.52062 -5.25505,8.01812 -5.52887,11.79257 -1.49711,20.64043 2.71353,5.95409 5.52613,10.8266 6.25129,10.8266 0.7293,0 5.07068,-7.35625 9.65697,-16.34722 z m 85.44865,-80.64492 c -0.41281,-8.15297 -2.92131,-14.43731 -5.75593,-14.44831 -5.62521,0 -35.39422,-24.96805 -32.84031,-27.52058 0.89442,-0.89442 7.66036,3.99048 15.02349,10.86925 13.66534,12.76542 31.11476,16.55913 34.15854,7.42781 0.93569,-2.79334 -2.16449,-8.42406 -6.88014,-12.51224 -8.42956,-7.31084 -8.43506,-7.42504 -0.31649,-6.83198 14.66709,1.07331 16.17797,-0.22016 8.01261,-6.87601 -7.49935,-6.11095 -7.52137,-6.37239 -0.33025,-4.08131 6.54853,2.08606 7.2847,0.85314 4.98123,-8.31396 -1.50675,-6.00499 -0.66049,-13.22364 1.92231,-16.33208 2.54291,-3.06305 4.01526,-9.85238 3.27358,-15.08541 -1.08706,-7.71815 -4.27395,-9.75743 -16.82884,-10.79632 -8.75292,-0.7293 -15.70461,0.6192 -15.99634,3.09606 -0.96321,8.13784 -1.78608,10.53488 -9.69412,28.11365 -7.73191,17.19072 -15.44868,21.99444 -20.97342,13.05713 -1.52465,-2.4686 -0.70178,-6.5554 1.82048,-9.08179 2.52777,-2.52776 4.59456,-6.21277 4.59456,-8.1915 0,-1.97873 -2.84151,-0.75682 -6.3146,2.71629 -3.88315,3.88452 -5.3844,10.01748 -3.89829,15.93578 2.66949,10.63533 -4.12946,32.24037 -11.59854,36.85694 -2.62959,1.62509 -3.90655,3.57904 -2.83738,4.34 1.0733,0.75681 9.84412,8.29331 19.50109,16.73663 11.68661,10.21977 21.59402,15.35235 29.63415,15.35235 11.19124,0 12.02512,-1.05954 11.34123,-14.4304 z m -27.5715,0 c -2.86626,-3.45384 -3.31347,-6.19214 -1.00449,-6.19214 2.27045,0 6.44119,2.78646 9.26755,6.19214 2.86627,3.45382 3.31347,6.19212 1.0045,6.19212 -2.27045,0 -6.44119,-2.78645 -9.26756,-6.19212 z m 23.60578,-72.80983 c -8.69375,-4.86564 -5.58254,-11.81596 5.29083,-11.81596 9.99823,0 13.75479,6.1082 7.13472,11.6013 -3.43319,2.84976 -7.58881,2.92131 -12.42555,0.22017 z M 77.188244,970.30262 c -4.540894,-1.1146 -10.577533,-3.91476 -13.416281,-6.21823 -7.2902,-5.91831 -6.405414,-34.39661 1.593441,-51.25159 5.907293,-12.44755 6.165986,-19.39787 2.064044,-55.46909 -7.447069,-65.49072 -6.243043,-90.44913 5.590805,-115.86838 11.287565,-24.24838 14.197867,-64.06652 5.330737,-72.93366 -6.210019,-6.21002 -5.008746,-48.45547 3.025886,-106.52528 3.181379,-22.98518 6.325605,-43.59259 6.988852,-45.79561 0.660493,-2.20302 -13.5071,-17.76316 -31.491798,-34.57961 C 31.879742,458.2907 21.394402,444.96385 12.370404,425.09812 5.8769233,410.80394 1.8988238,396.87165 3.530794,394.13748 c 1.6305943,-2.73417 12.421413,-17.04625 23.97868,-31.80415 11.557267,-14.75792 24.238749,-31.91563 28.179696,-38.12701 9.815213,-15.47207 24.330943,-24.21949 49.63473,-29.91487 26.68946,-6.00775 32.5885,-17.19348 21.44817,-40.66991 -5.30322,-11.17666 -6.73703,-21.96886 -5.3899,-40.58515 1.58243,-21.88712 3.48823,-26.72111 13.9089,-35.30064 10.31195,-8.49011 15.0799,-9.61294 32.65592,-7.69751 11.32058,1.23842 25.14555,5.65135 30.72396,9.81521 9.08042,6.7797 10.07392,10.34911 9.50011,34.13653 -0.85314,35.69061 -4.63722,57.6479 -11.88339,69.06619 -7.69474,12.12556 -4.44457,22.06187 10.00924,30.60013 20.45191,12.08154 26.75275,22.34534 27.93476,45.4984 0.60545,11.96594 4.07167,28.6613 7.692,37.10324 7.36038,17.16734 8.66073,55.88328 2.58831,77.06037 -2.19613,7.65485 -4.42117,21.18947 -4.94545,30.07311 -0.52289,8.88502 -3.1855,18.00672 -5.91417,20.27166 -5.27844,4.38127 -4.87664,10.95594 4.86977,79.61566 5.08993,35.85931 5.03488,42.306 -0.45409,53.87978 -4.31522,9.0928 -5.96921,23.89612 -5.36789,48.02065 0.48161,19.18048 -1.62509,65.11355 -4.67436,102.07232 -4.83125,58.52939 -4.76933,67.84786 0.4816,72.24152 3.31348,2.77407 11.13483,12.02649 17.38063,20.562 6.24578,8.53413 18.79655,19.31394 27.88934,23.95253 34.431,17.56501 4.0015,34.30302 -54.53339,29.99605 -29.75388,-2.18789 -31.87296,-1.76131 -42.12576,8.49148 -10.25416,10.25415 -12.8232,10.77155 -51.23231,10.31605 -22.23938,-0.2614 -44.151256,-1.3926 -48.692151,-2.5085 z m 91.327036,-7.28604 c 13.16997,-8.63045 12.38839,-11.90402 -4.2822,-17.93241 -13.49196,-4.87939 -40.34104,-30.35794 -44.69755,-42.41884 -1.51638,-4.19689 -5.88389,-2.13147 -16.21512,7.67137 -15.900014,15.0854 -22.906753,16.58251 -30.297405,6.47421 -4.410172,-6.02976 -5.310095,-4.94545 -6.851247,8.25617 -1.421439,12.18061 -0.399048,15.19825 5.154604,15.19825 3.810224,0 17.717748,4.93993 30.905608,10.97658 21.3601,9.77943 26.14455,10.5335 43.84304,6.90766 10.92703,-2.2388 19.8671,-2.66812 19.8671,-0.94946 0,1.71316 -10.08354,4.37577 -22.40726,5.91555 -19.0525,2.38053 -25.92713,1.18338 -45.908448,-7.95896 -29.101635,-13.32408 -35.878578,-13.64883 -34.142029,-1.64022 1.638851,11.32196 10.826596,13.66535 58.589937,14.94924 27.50131,0.743 39.07371,-0.6193 46.44097,-5.44501 z m -49.90306,-27.30729 c -8.02501,-7.04664 -14.59141,-14.6093 -14.59141,-16.80544 0,-2.19752 6.28157,2.66537 13.95843,10.80596 9.98998,10.59129 16.05138,13.99696 21.31745,11.97695 5.04727,-1.93745 6.42192,-1.30723 4.37439,2.00487 -4.57805,7.40854 -9.21113,5.93206 -25.05886,-7.98234 z m 157.38468,5.03352 c 10.35462,-2.76995 10.17711,-3.08094 -8.45157,-14.85699 -10.46607,-6.61457 -23.74613,-19.1557 -29.51169,-27.86734 -10.90641,-16.48207 -11.20913,-16.49858 -32.37521,-1.82461 -9.14096,6.33661 -13.52361,7.2159 -18.98232,3.8061 -6.24717,-3.90105 -7.58192,-1.76683 -11.1307,17.81269 -2.79746,15.43491 -2.67225,23.64843 0.41281,26.82706 4.58906,4.73766 78.52584,1.85764 100.04418,-3.89691 z m -71.06777,-2.13423 c -4.54364,-3.18138 -12.85073,-6.64484 -18.46355,-7.69475 l -10.20325,-1.90856 10.32021,-0.38528 c 5.67612,-0.2064 16.82195,3.17037 24.76852,7.52137 7.94657,4.35101 11.61094,7.98785 8.14334,8.08279 -3.46896,0.13761 -10.023,-2.43006 -14.56527,-5.61144 z m 19.42816,-23.60852 c -9.63358,-7.08518 -16.57977,-13.81809 -15.43491,-14.96294 1.1421,-1.1421 7.48284,2.33099 14.08503,7.72228 6.60355,5.39127 15.50646,12.01409 19.78316,14.71937 4.27808,2.7039 5.8206,5.02663 3.43044,5.16011 -2.39017,0.1376 -12.22877,-5.55503 -21.86372,-12.63882 z m -56.84926,18.04111 c 1.16962,-3.97259 3.36026,-14.21025 4.87389,-22.74988 1.51363,-8.53964 4.39917,-16.544 6.4123,-17.78794 5.73529,-3.54465 4.17349,-54.81273 -2.53878,-83.27864 -4.47347,-18.97405 -5.13258,-32.58849 -2.49474,-51.60108 2.72591,-19.64543 2.2099,-28.51118 -2.15486,-37.04394 -3.15523,-6.17011 -7.23791,-18.24476 -9.07353,-26.83256 l -3.3355,-15.61518 -9.48359,20.64044 c -19.77078,43.02843 -29.18282,70.17045 -29.26125,84.37657 0,8.0828 -2.55941,28.75213 -5.58805,45.93048 -3.03002,17.17834 -4.59869,37.42798 -3.48823,45.00027 2.40117,16.35548 21.40412,45.79699 37.14039,57.54003 13.87863,10.35736 16.31282,10.54038 18.99195,1.42143 z m -69.332593,-26.1363 c 11.968703,-11.60129 12.758543,-13.90752 8.977213,-26.2271 -3.03552,-9.88952 -2.35163,-24.03647 2.55391,-52.80924 3.68363,-21.61604 6.70539,-44.64388 6.71227,-51.17451 0.0138,-11.03163 20.79455,-67.80507 28.43151,-77.67257 1.86314,-2.40805 4.36339,-8.37727 5.5564,-13.26629 1.84388,-7.5544 -0.42657,-9.61707 -15.14044,-13.73553 -9.52074,-2.66536 -23.6966,-4.23817 -31.50143,-3.49511 l -14.192365,1.34851 -2.326865,28.8966 c -1.348509,16.79994 -6.066911,36.67255 -11.261421,47.47286 -9.969329,20.72713 -11.653588,53.42295 -5.102315,99.07408 2.117709,14.75792 4.257434,35.19194 4.754181,45.40896 0.97698,20.10929 3.094688,28.89661 6.957201,28.89661 1.348508,0 8.363504,-5.72429 15.582151,-12.72002 z m -12.731019,0.33025 c -1.403549,-2.27044 -0.577932,-4.12808 1.820486,-4.12808 2.403923,0 4.371644,1.85764 4.371644,4.12808 0,2.27045 -0.811857,4.12809 -1.820486,4.12809 -1.004501,0 -2.968094,-1.85764 -4.371644,-4.12809 z M 78.254667,829.8335 c 2.526389,-26.54772 4.148728,-28.71085 4.64685,-6.19213 0.261446,11.92053 -1.004501,21.67245 -2.82086,21.67245 -1.813606,0 -2.635094,-6.96546 -1.82599,-15.48032 z m 30.220343,-77.74564 c 0.19265,-4.80922 1.18339,-5.78757 2.49337,-2.49336 1.19715,2.97911 1.04578,6.54027 -0.33025,7.91217 -1.37602,1.37603 -2.34613,-1.0733 -2.16724,-5.41881 z m 0.30273,-20.48205 c 3.75105,-3.83086 9.06941,-6.21414 11.82146,-5.29771 2.75068,0.92194 -0.31649,4.05103 -6.8196,6.96546 -11.06464,4.95921 -11.38388,4.85188 -5.00186,-1.66775 z m 3.50199,-32.83892 c 5.33211,-5.67612 10.62432,-10.32022 11.75955,-10.32022 1.12834,0 -2.29934,4.6441 -7.63146,10.32022 -5.33211,5.67611 -10.62432,10.32021 -11.75954,10.32021 -1.12834,0 2.29934,-4.6441 7.63145,-10.32021 z m 95.42899,190.77526 c 10.37388,-8.7777 10.9064,-11.35087 13.44792,-64.86876 1.45585,-30.65104 4.71291,-66.31909 7.23929,-79.26325 2.58143,-13.22777 3.23091,-30.40199 1.48337,-39.21683 -1.71179,-8.62494 -3.32862,-22.18434 -3.5942,-30.1309 l -0.4816,-14.44831 -20.64044,1.10083 c -28.28702,1.5095 -37.93161,4.04414 -40.45937,10.6312 -1.1834,3.08781 2.13146,18.34658 7.36863,33.91085 8.11719,24.11904 8.99785,32.00368 5.96783,53.40493 -2.6516,18.72225 -2.01726,30.22171 2.49475,45.21493 3.32861,11.05914 6.05177,35.29238 6.05177,53.85226 0,42.67478 2.21816,45.80663 21.12342,29.81167 z M 193.043,887.80422 c -2.24018,-5.88253 -1.76682,-6.35726 2.31035,-2.31036 2.82224,2.80022 4.08956,6.13159 2.81948,7.40167 -1.26594,1.26595 -3.58042,-1.01827 -5.12983,-5.09131 z m -2.53189,-84.91062 c 2.01037,-17.00771 2.09569,-17.0944 3.49648,-3.49648 0.78434,7.6686 -0.13759,15.51472 -2.05991,17.43703 -1.92232,1.92232 -2.56905,-4.351 -1.43657,-13.94055 z m 19.34972,-95.87054 c 1.30722,-3.40567 3.10707,-6.19214 3.99873,-6.19214 0.89442,0 1.62235,2.78647 1.62235,6.19214 0,3.40567 -1.79985,6.19213 -3.99875,6.19213 -2.19889,0 -2.92956,-2.78646 -1.62233,-6.19213 z m -41.90008,-56.76119 c 3.55565,-11.91917 8.29195,-39.18518 10.52524,-60.59068 2.23467,-21.40551 5.0858,-39.942 6.33799,-41.19418 3.341,-3.341 -2.82361,59.65498 -8.59606,87.84156 l -4.96334,24.24012 21.07665,-2.5319 c 11.59167,-1.39391 26.18582,-2.54978 32.42886,-2.56904 10.29683,0 11.35225,-1.43245 11.35225,-15.04825 0,-14.58178 -7.15673,-80.80868 -10.75642,-99.54193 -1.12835,-5.83849 -4.76795,-9.2882 -9.81797,-9.2882 -4.41705,0 -10.02024,-3.71527 -12.45031,-8.25617 -5.29909,-9.9019 -33.35632,-11.61231 -40.9231,-2.49474 -5.14635,6.20039 -19.62079,6.06416 -50.51539,-0.48161 l -19.196984,-4.06479 -4.85463,31.38309 c -2.669496,17.2609 -5.907293,50.42458 -7.196631,73.69598 l -2.342001,42.31289 24.329566,0.28896 c 13.38189,0.16513 28.04484,1.88654 32.58574,3.83775 19.95517,8.57541 26.17345,5.26743 32.97654,-17.54437 z m -50.72043,-58.73442 c 4.93994,-10.16748 9.63771,-17.82921 10.43855,-17.02836 2.59382,2.59381 -12.04712,35.51393 -15.79406,35.51393 -1.99386,0 0.41281,-8.31809 5.35551,-18.48557 z m -17.344846,-5.21378 c 0,-1.94983 2.116326,-5.66236 4.701896,-8.24791 2.58693,-2.58693 7.10581,-13.6392 10.04225,-24.56212 4.04278,-15.04 5.40642,-17.07239 5.61833,-8.37589 0.31649,13.03925 -8.98685,37.70181 -15.81332,41.92072 -2.50163,1.54666 -4.549156,1.21091 -4.549156,-0.72929 z m 34.655286,-67.82033 c -2.00763,-3.24743 -0.7293,-3.96571 3.88453,-2.19339 3.77858,1.45033 9.65422,1.5673 13.05851,0.26145 4.91656,-1.88654 4.05929,-4.04966 -4.16799,-10.52113 -5.69538,-4.48034 -9.30058,-9.85511 -8.00986,-11.94393 1.29347,-2.09844 -6.53751,-3.91892 -17.50447,-4.06754 -18.82958,-0.26144 -20.83307,-1.42556 -38.893451,-22.72098 -14.647827,-17.27055 -20.124423,-27.83845 -23.729619,-45.78874 -4.451453,-22.17058 -4.221655,-23.65807 4.594562,-29.76626 5.103691,-3.53777 18.104411,-14.64508 28.88835,-24.68459 22.580628,-21.02159 26.627538,-18.46905 5.318352,3.35339 -8.821721,9.03501 -13.087411,16.58114 -11.148586,19.71987 4.697763,7.59981 20.896372,-5.17249 27.938892,-22.02884 6.40954,-15.34135 7.62733,-54.2293 1.97735,-63.15286 -8.10206,-12.79568 -50.420449,3.87353 -56.561666,22.27929 -1.515008,4.54089 -12.450309,19.402 -24.299294,33.02469 -32.1688038,36.98353 -32.3036547,37.4734 -18.312193,66.62457 9.44231,19.67308 19.718494,31.71885 48.188533,56.48736 23.834196,20.73539 39.70944,31.53858 46.50702,31.65004 5.67612,0.13761 13.10668,1.9691 16.51235,4.16937 8.1571,5.27157 9.35975,5.12434 5.75868,-0.70177 z m -5.39266,-7.78144 c 2.79335,-1.72555 3.43045,-5.34313 1.51776,-8.60019 -1.81636,-3.09193 1.19715,-1.92507 6.69438,2.59106 5.49862,4.51613 10.46333,8.3869 11.03025,8.60019 0.56418,0.2064 -4.61382,0.38528 -11.5146,0.38528 -6.90079,0 -10.37802,-1.33474 -7.72779,-2.9791 z M 37.974173,418.05699 c -2.96259,-3.56942 -3.363015,-6.19213 -0.94946,-6.19213 2.304849,0 5.260559,2.78646 6.567786,6.19213 1.307228,3.40567 1.732421,6.19213 0.94946,6.19213 -0.784337,0 -3.741422,-2.78646 -6.567786,-6.19213 z M 16.224661,399.81085 c -1.795718,-6.86638 -1.252187,-8.47772 1.803973,-5.41468 2.399795,2.39979 3.550155,6.79896 2.556662,9.77669 -1.032021,3.09193 -2.902045,1.22466 -4.360635,-4.36201 z m 57.870271,-56.72954 c 2.838747,-1.14212 7.482845,-1.14212 10.320216,0 2.838748,1.1421 0.509132,2.08193 -5.160107,2.08193 -5.67612,0 -7.997481,-0.93571 -5.160109,-2.08193 z M 231.99424,515.31609 c 0,-12.02925 -11.44855,-19.33183 -20.97618,-13.38189 -4.35651,2.72042 -7.92042,3.18276 -7.92042,1.03203 0,-2.15486 1.98286,-5.1436 4.40605,-6.64209 2.93232,-1.81223 3.46621,-14.72764 1.59482,-38.65265 -2.16175,-27.6348 -1.15588,-42.73533 4.35237,-65.40679 9.1905,-37.81189 6.00637,-64.28945 -8.90565,-74.06062 -8.87677,-5.8151 -10.95044,-5.95546 -14.09054,-0.94946 -2.02415,3.22678 -2.60207,9.58128 -1.27971,14.12218 2.16036,7.44019 1.84526,7.59017 -3.19101,1.51501 -3.07268,-3.70702 -13.94331,-7.77181 -24.15619,-9.03226 -12.95944,-1.60031 -21.31881,-5.4876 -27.66643,-12.86724 -5.00325,-5.81785 -9.6501,-10.57891 -10.3271,-10.58304 -0.67426,-0.004 -0.5917,11.3426 0.19264,25.21711 1.73655,30.8313 -7.86951,58.89541 -23.50119,68.65833 -6.020131,3.75932 -11.539383,7.21727 -12.26455,7.68375 -0.729296,0.46784 2.525013,8.3869 7.224151,17.59803 5.530259,10.84173 8.543759,24.64331 8.543759,39.13564 0,24.09151 3.39466,27.2839 29.15668,27.42151 6.36139,0 15.40602,5.09405 22.68383,12.68973 10.40553,10.86238 14.7125,12.5026 30.70059,11.6935 10.22802,-0.52289 20.91977,-2.71491 23.75714,-4.88353 3.36439,-2.57043 5.1601,-2.41355 5.1601,0.45408 0,2.41356 -2.05578,5.65961 -4.56841,7.21315 -5.71465,3.53089 0.63298,7.99473 12.65809,8.90016 5.61833,0.42656 8.42267,-1.8604 8.42267,-6.8595 z m -16.51233,-0.68802 c 0,-6.00086 7.38514,-7.77869 9.49459,-2.2842 1.15586,3.01488 -0.50913,5.48072 -3.69602,5.48072 -3.18963,0 -5.79857,-1.43796 -5.79857,-3.19652 z m -57.21117,-51.72079 c -4.9592,-11.06465 -4.85187,-11.3839 1.66775,-5.00187 3.83087,3.75105 6.21415,9.0694 5.29772,11.82146 -0.92194,2.75069 -4.05103,-0.31648 -6.96547,-6.81959 z m 28.31456,-2.63234 c 0,-5.92106 1.93194,-11.95907 4.29321,-13.41766 2.81672,-1.74069 3.32723,1.37603 1.48335,9.04463 -3.79921,15.81607 -5.77656,17.3132 -5.77656,4.37303 z m 0,-38.08436 c 0,-3.40568 1.79984,-6.19213 3.99874,-6.19213 2.19889,0 2.92956,2.78645 1.62234,6.19213 -1.30724,3.40567 -3.10571,6.19213 -3.99875,6.19213 -0.89442,0 -1.62233,-2.78646 -1.62233,-6.19213 z m -53.08583,-27.44077 c -7.62733,-2.19477 -12.93191,-4.92755 -11.78843,-6.07104 1.1421,-1.1421 11.10043,0.68802 22.12516,4.0758 21.79218,6.69301 12.33335,8.519 -10.33673,1.99524 z m 54.21004,-24.16032 c 0,-10.21701 0.81186,-14.39601 1.78884,-9.28819 0.97697,5.1092 0.97697,13.46858 0,18.57639 -0.99074,5.10919 -1.78884,0.92194 -1.78884,-9.2882 z M 153.5606,500.62422 c -2.82636,-3.40567 -7.23379,-6.13296 -9.7932,-6.0614 -2.56079,0.1376 -1.04578,2.85939 3.35752,6.19213 10.29407,7.78695 12.96081,7.73191 6.43568,-0.1376 z m 86.66092,-28.73011 c 5.65274,-33.04395 4.20653,-58.75642 -4.42256,-78.60014 -2.9612,-6.81134 -5.68437,-21.30642 -6.05039,-32.21008 -0.37153,-10.90365 -2.33237,-21.49632 -4.37027,-23.53698 -2.18789,-2.19201 -3.11258,4.73767 -2.26081,16.92378 0.85313,12.14621 -1.45309,29.47317 -5.59769,42.11337 -9.04464,27.59213 -5.47109,92.24072 5.56328,100.63312 3.7662,2.86489 7.97822,5.26744 9.35976,5.34037 1.38152,0.13759 4.88215,-13.72727 7.77868,-30.66344 z m -20.61153,-43.5114 c 3.40567,-2.20027 8.04976,-4.00149 10.32022,-4.00149 2.27044,0 1.3485,1.80122 -2.06405,4.00149 -3.40567,2.20027 -8.04976,4.00149 -10.32022,4.00149 -2.27044,0 -1.3485,-1.80122 2.06405,-4.00149 z M 91.904874,423.95602 c -4.686754,-10.8954 -8.521747,-23.6443 -8.521747,-28.33105 0,-10.31609 -3.305222,-10.57478 -15.400515,-1.21091 -8.896027,6.88978 -9.011614,7.87639 -3.408424,29.03696 5.768313,21.78392 8.65247,27.08025 24.805673,45.55481 l 8.45157,9.6666 1.293466,-17.45629 C 99.950515,450.19277 97.281018,436.46 91.900746,423.9519 Z M 185.71427,315.89235 c 6.73015,-8.13784 1.2109,-27.86459 -7.80071,-27.86459 -4.24092,0 -13.7768,-5.64722 -21.19222,-12.55075 l -13.48095,-12.54939 16.05687,10.48534 c 17.25541,11.26967 33.78152,13.67497 36.59412,5.3266 0.96322,-2.83737 -1.21091,-7.42367 -4.81611,-10.18948 -5.91141,-4.5354 -5.84537,-5.04178 0.67426,-5.16012 8.1172,-0.15136 10.12207,-8.35111 2.06405,-8.45019 -3.69464,0 -3.52677,-1.10082 0.59168,-3.70564 3.50337,-2.21817 4.81611,-7.22195 3.35889,-12.79762 -1.32098,-5.03489 -0.2064,-12.66085 2.4741,-16.94855 6.20177,-9.93218 -0.39904,-21.65457 -13.2663,-23.56312 -10.43167,-1.54804 -22.26001,6.61869 -19.60565,13.53462 0.99074,2.57042 -0.78434,8.19976 -3.94095,12.51223 -3.15248,4.31247 -5.73253,12.12969 -5.73253,17.37099 0,6.96738 -2.36127,9.5323 -8.77219,9.5323 -7.58192,0 -8.42955,-1.71178 -6.24717,-12.62424 2.35301,-11.76917 2.05991,-12.15859 -4.33725,-5.76281 -5.31559,5.31698 -5.83848,8.49974 -2.31861,14.1365 4.88766,7.82548 0.96323,33.59987 -6.47146,42.5647 -4.73903,5.70914 3.07818,19.47906 11.05777,19.47906 2.58693,0 4.70465,1.72142 4.70465,3.82537 0,8.26993 34.01543,11.1307 40.40983,3.39879 z m -21.83345,-3.09606 c -3.22954,-5.22479 2.23605,-5.22479 10.32021,0 5.33625,3.44832 5.22754,4.00974 -0.78433,4.06479 -3.83912,0 -8.1282,-1.79435 -9.53175,-4.06479 z m -14.12218,-18.92041 c 0.19264,-4.80922 1.18338,-5.78757 2.49336,-2.49336 1.19714,2.97911 1.04578,6.54026 -0.33025,7.91217 -1.37603,1.37603 -2.34613,-1.05954 -2.16724,-5.41881 z m 23.03059,-65.49402 c -1.40492,-3.66161 0.94946,-7.01087 6.06141,-8.63321 10.2294,-3.24742 12.86724,-1.05954 9.45469,7.83099 -3.21853,8.38552 -12.42279,8.86025 -15.5161,0.79809 z"
       id="path3691"
       inkscape:connector-curvature="0" />
  </g>
</svg>
