<?xml version="1.0" encoding="UTF-8" standalone="no"?>
<!-- Created with Inkscape (http://www.inkscape.org/) -->

<svg
   xmlns:dc="http://purl.org/dc/elements/1.1/"
   xmlns:cc="http://creativecommons.org/ns#"
   xmlns:rdf="http://www.w3.org/1999/02/22-rdf-syntax-ns#"
   xmlns:svg="http://www.w3.org/2000/svg"
   xmlns="http://www.w3.org/2000/svg"
   xmlns:sodipodi="http://sodipodi.sourceforge.net/DTD/sodipodi-0.dtd"
   xmlns:inkscape="http://www.inkscape.org/namespaces/inkscape"
   width="210mm"
   height="297mm"
   viewBox="0 0 744.09448819 1052.3622047"
   id="svg4049"
   version="1.1"
   inkscape:version="0.91 r13725"
   sodipodi:docname="plank_jump_ins.svg">
  <defs
     id="defs4051" />
  <sodipodi:namedview
     id="base"
     pagecolor="#ffffff"
     bordercolor="#666666"
     borderopacity="1.0"
     inkscape:pageopacity="0.0"
     inkscape:pageshadow="2"
     inkscape:zoom="0.49497475"
     inkscape:cx="2847.9328"
     inkscape:cy="-249.82158"
     inkscape:document-units="px"
     inkscape:current-layer="layer1"
     showgrid="false"
     inkscape:window-width="3200"
     inkscape:window-height="1699"
     inkscape:window-x="0"
     inkscape:window-y="50"
     inkscape:window-maximized="1" />
  <metadata
     id="metadata4054">
    <rdf:RDF>
      <cc:Work
         rdf:about="">
        <dc:format>image/svg+xml</dc:format>
        <dc:type
           rdf:resource="http://purl.org/dc/dcmitype/StillImage" />
        <dc:title></dc:title>
      </cc:Work>
    </rdf:RDF>
  </metadata>
  <g
     inkscape:label="Layer 1"
     inkscape:groupmode="layer"
     id="layer1">
    <path
       style="fill:#000000"
       d="m 572.09521,930.47323 -19.19807,-2.48167 -8.9783,-26.8773 c -4.93774,-14.78251 -9.90748,-38.34622 -11.04401,-52.36465 l -2.06571,-25.48608 -17.7531,7.84817 c -9.76413,4.31701 -22.36575,11.25775 -28.00486,15.42245 -9.08837,6.71549 -9.76798,8.71593 -5.99492,17.63791 2.34089,5.53544 8.43947,14.67628 13.55128,20.31156 6.14466,6.77435 8.17582,11.97959 5.99492,15.35845 -1.81486,2.81188 -3.29951,8.50603 -3.29951,12.65537 0,10.61525 -16.20701,18.06922 -34.55652,15.89472 -11.26415,-1.33491 -18.42887,-5.26795 -26.8773,-14.75052 -6.33536,-7.11096 -16.40411,-15.36229 -22.37471,-18.33543 -17.82989,-8.87975 -20.04278,-17.46513 -10.01883,-38.86713 4.81231,-10.27353 10.12122,-18.67844 11.79785,-18.67844 4.46931,0 30.19472,-23.23863 30.19472,-27.27534 0,-1.89293 -11.86184,-3.44157 -26.35895,-3.44157 -30.47501,0 -41.92474,-6.51199 -54.38044,-30.92681 -18.72068,-36.69647 -2.06444,-83.3913 44.19523,-123.89666 39.80528,-34.85601 59.71879,-42.04633 120.64706,-43.56298 l 47.62657,-1.19028 7.47957,-12.52226 c 12.24965,-20.50994 26.46646,-33.39952 39.5429,-35.85303 24.75399,-4.64338 63.75295,32.00958 50.72642,47.67776 -7.07513,8.51115 -14.45999,26.22968 -14.45999,34.69731 0,3.76538 -7.89168,12.51458 -17.53807,19.44253 -17.40881,12.50178 -17.59951,12.54017 -25.91739,5.25643 -12.85119,-11.25519 -24.3022,-7.32343 -27.91016,9.58367 -1.66383,7.80082 -3.32766,17.15668 -3.69626,20.79279 -0.37117,3.63612 -2.82084,14.28592 -5.44714,23.66738 -3.62203,12.93694 -3.7321,20.22197 -0.44795,30.15377 4.09815,12.41859 1.42066,63.93725 -5.86053,112.75921 l -2.35113,15.76674 20.22965,2.68261 c 23.45364,3.11137 43.45163,12.27268 39.77456,18.22153 -1.49489,2.41895 -8.89767,3.26239 -17.96811,2.04523 -10.54102,-1.41298 -17.1554,-0.33277 -20.8939,3.40062 -4.73297,4.73424 -3.60668,5.47017 8.36652,5.47017 7.61011,0 20.26036,2.69797 28.11109,5.99492 12.297,5.16428 13.34778,6.51966 7.5794,9.77821 -9.04357,5.10669 -38.96952,7.01884 -62.41677,3.9868 z m 22.05346,-6.95226 c -2.6519,-1.07509 -3.84602,-3.52477 -2.65318,-5.45609 1.19028,-1.93133 -2.12714,-3.51197 -7.38101,-3.51197 -5.2526,0 -12.14214,-2.59174 -15.30982,-5.75942 -3.16769,-3.16768 -7.42582,-5.75942 -9.46337,-5.75942 -5.54056,0 -8.41772,-10.23769 -7.91217,-28.15077 l 0.44796,-16.00479 3.12288,18.61317 c 1.71759,10.23769 3.89465,19.38493 4.83792,20.32819 0.9471,0.94711 3.3955,-11.75305 5.45097,-28.21348 2.05675,-16.45914 2.3332,-30.85129 0.61434,-31.9827 -4.2351,-2.79012 0.40956,-19.52316 4.68817,-16.88022 1.90956,1.17748 3.01921,-20.21813 2.5431,-48.99859 -0.46075,-28.10086 0.62714,-58.42869 2.43816,-67.39546 3.98679,-19.78937 -3.2432,-49.46447 -13.3721,-54.88472 -11.35502,-6.07811 -36.95756,-4.53331 -39.61457,2.38824 -3.70395,9.65151 -2.71845,24.4353 2.23337,33.53518 l 4.56402,8.387 2.78244,-9.59904 c 1.68815,-5.82597 2.79524,3.22784 2.81444,23.03769 0.12799,98.975 3.48509,160.18356 10.08538,182.38165 10.74068,36.11669 11.11697,36.51729 33.87948,36.173 11.01201,-0.16638 17.85164,-1.17748 15.19847,-2.24745 z M 549.05752,822.40218 c 1.30547,-2.11179 3.13441,-3.83961 4.06615,-3.83961 0.93431,0 1.69327,1.72782 1.69327,3.83961 0,2.11179 -1.83021,3.83961 -4.06615,3.83961 -2.23593,0 -2.99874,-1.72782 -1.69327,-3.83961 z m -3.19968,-33.27665 c -1.40785,-1.40786 -2.44967,-6.15874 -2.31656,-10.55894 0.23037,-7.35542 0.53754,-7.25815 3.9228,1.20308 3.76026,9.39937 2.97954,13.94676 -1.60624,9.36098 z m -2.55974,-34.89569 c 0,-2.11179 2.59174,-5.99108 5.75942,-8.61993 3.21248,-2.66598 5.75942,-3.08193 5.75942,-0.93431 0,2.11179 -2.59174,5.99108 -5.75942,8.61993 -3.21247,2.66597 -5.75942,3.08193 -5.75942,0.93431 z m 12.62337,-32.52409 c -6.33152,-8.08879 -12.58881,-29.85044 -8.58409,-29.85044 2.00171,0 3.65019,2.16043 3.66299,4.79952 0.0115,2.64037 2.63653,9.80765 5.82853,15.92928 6.1293,11.75178 5.56744,17.39217 -0.90871,9.12164 z m -19.6665,-53.50246 c 3.51709,-2.82979 7.28247,-8.60073 8.3678,-12.82431 1.15188,-4.47699 1.68559,-2.88995 1.28371,3.80634 -0.48635,8.1771 -2.90147,11.87208 -8.3678,12.82431 -7.00601,1.21588 -7.11864,0.88311 -1.28371,-3.80634 z m -48.7247,250.34026 c 1.25428,-2.0286 -2.92322,-10.87251 -9.2829,-19.65114 -6.35969,-8.77992 -12.68993,-21.96515 -14.06579,-29.30138 -2.27305,-12.11398 -3.42622,-13.1046 -12.56834,-10.78931 -23.12471,5.85669 -29.1913,4.53458 -30.47757,-6.64253 -1.72015,-14.95274 -5.58536,-13.17244 -15.44037,7.1148 -6.45567,13.28635 -7.5282,18.9485 -4.32468,22.80987 2.34472,2.82467 6.55294,4.25685 9.3533,3.18176 2.79908,-1.07509 6.23041,-0.12799 7.62547,2.14762 1.39378,2.25641 5.74406,4.10199 9.66687,4.10199 3.9228,0 10.44247,4.54482 14.48814,10.09946 4.70481,6.45823 12.77951,11.14384 22.39903,12.9971 l 15.04104,2.89762 -14.61485,0.43516 c -11.78121,0.35836 -16.94421,-1.97868 -26.6226,-12.03719 -11.12848,-11.56492 -8.65833,-5.95524 4.22486,9.59904 6.10754,7.37333 40.47081,9.7091 44.59839,3.03073 z m -84.13106,-41.26177 c -2.08363,-5.47145 -1.64335,-5.913 2.14891,-2.1489 2.62501,2.60453 3.80378,5.7031 2.62245,6.88442 -1.17748,1.17749 -3.33022,-0.9471 -4.77136,-4.73552 z m 177.25577,27.2715 c -1.27987,-1.27987 -4.58833,-1.4117 -7.35926,-0.30717 -3.06401,1.22867 -2.15402,2.13482 2.31913,2.31912 4.04823,0.16639 6.31489,-0.74232 5.04013,-2.01579 z m -94.03982,-17.85293 c -4.44371,-4.7432 -9.97019,-13.61527 -12.28164,-19.71513 -5.80934,-15.33158 -8.47403,-10.77012 -3.73467,6.39423 2.13611,7.7381 7.60116,16.67289 12.14342,19.85465 11.34478,7.94544 13.70486,3.96376 3.87289,-6.53375 z m 96.59573,8.00176 c -1.86734,-3.0205 -0.67833,-3.68859 3.61307,-2.04012 3.51453,1.34899 6.38912,0.78072 6.38912,-1.26707 0,-2.04523 -0.71673,-3.7193 -1.60624,-3.7193 -0.88311,0 -4.62161,-1.15189 -8.30892,-2.57255 -4.57042,-1.75342 -5.81958,-1.13908 -3.92665,1.91981 1.52689,2.47143 0.94711,4.49235 -1.29011,4.49235 -2.23593,0 -4.09303,-2.15914 -4.12502,-4.79952 0,-3.18944 -1.28755,-2.86819 -3.72443,0.95991 -2.77476,4.35924 -1.59472,6.36607 4.85839,8.25644 4.68817,1.37331 9.05765,2.66982 9.71039,2.87971 0.65273,0.20478 0,-1.63823 -1.5896,-4.10966 z M 445.85382,853.4621 c 6.59134,-4.02008 23.8696,-11.61228 38.39614,-16.87127 34.62436,-12.53634 47.5293,-18.58757 47.5293,-22.28383 0,-1.66384 -5.14636,-1.22868 -11.43693,0.9599 -6.29057,2.1937 -13.63447,3.18048 -16.31836,2.1937 -2.68517,-0.9855 0.30717,-3.10881 6.63741,-4.71633 19.25695,-4.88527 21.14732,-8.33708 20.7352,-37.84963 -0.58874,-42.03097 -2.47015,-45.94354 -24.12301,-50.15688 -21.84229,-4.24917 -28.45794,-1.19028 -37.63846,17.37938 -7.56916,15.31238 -15.57347,48.80277 -12.75392,53.36423 1.0751,1.7355 6.07683,1.20308 11.11953,-1.16468 7.46932,-3.52605 8.16941,-5.05806 3.78074,-8.27693 -3.88825,-2.85027 2.37288,-4.08023 22.50653,-4.41812 28.74719,-0.48635 27.64522,1.71503 -5.04269,10.05211 -22.05346,5.62376 -64.97523,42.19224 -64.97523,55.35699 0,15.49412 4.51795,16.84055 21.58375,6.4352 z m -2.92066,-19.66906 c 4.98638,-4.15319 11.03377,-7.51285 13.43865,-7.46549 2.40615,0 0,3.46333 -5.22444,7.59347 -12.54786,9.81533 -20.00951,9.69887 -8.21421,-0.12798 z m 29.33209,15.48644 c 1.30547,-2.11179 0.63993,-3.83962 -1.46674,-3.83962 -2.11178,0 -4.90702,1.72783 -6.21249,3.83962 -1.30547,2.11178 -0.63994,3.83961 1.46673,3.83961 2.11179,0 4.90703,-1.72783 6.2125,-3.83961 z m -19.87896,-65.57037 c 1.26707,-10.72148 6.42367,-28.48097 11.45228,-39.46483 l 9.1434,-19.97111 -24.10125,0.12799 c -20.98093,0.12799 -25.52959,1.47569 -35.12479,10.66773 -12.36483,11.84392 -23.14007,13.20827 -39.10518,4.9531 -5.96164,-3.08321 -11.92328,-4.52307 -13.24795,-3.19968 -7.69971,7.6997 4.35668,42.33558 19.26334,55.34035 10.40791,9.07941 15.89728,10.42071 44.02885,10.75604 l 25.38241,0.30717 2.30889,-19.495 z m -37.7818,-55.56689 c 7.49492,-7.49492 15.521,-12.45698 17.835,-11.02609 2.31401,1.42962 5.5828,0.37116 7.26327,-2.34344 2.34985,-3.80122 5.58024,-3.97656 13.9698,-0.75513 6.00259,2.30377 25.08163,4.88015 42.39701,5.72615 31.42852,1.53456 31.4874,1.52048 32.73527,-8.37548 0.69113,-5.45225 -1.77134,-14.43567 -5.46633,-19.96471 -3.69499,-5.52777 -7.05977,-15.03081 -7.47573,-21.11788 -1.89549,-27.69897 12.58882,-37.67429 40.62823,-27.97926 12.23941,4.23125 16.49115,8.13998 19.72026,18.12809 l 4.11479,12.73216 4.52818,-15.11144 c 5.38826,-17.98347 2.28841,-37.68709 -6.47103,-41.13762 -3.45821,-1.36306 -18.72451,-3.44413 -33.92427,-4.62417 -30.64267,-2.38056 -67.04605,3.3123 -92.51805,14.46638 -25.93531,11.3563 -68.27345,51.3062 -79.48128,74.99534 -5.29227,11.18863 -9.62336,21.86404 -9.62336,23.72369 0,4.20438 22.63069,15.71554 31.54883,16.04703 3.62588,0.14078 12.7232,-5.88613 20.21941,-13.38234 z m -35.96823,-8.64041 c -0.43515,-12.40707 9.74622,-37.93666 13.59096,-34.09193 1.07509,1.07509 -0.24318,5.9834 -2.91299,10.91602 -2.67493,4.93263 -6.07171,15.01545 -7.54868,22.40671 l -2.68773,13.43865 -0.43516,-12.66945 z m 14.9169,4.09943 c 0,-5.58152 17.88493,-26.66356 20.41651,-24.0667 1.0367,1.06229 -3.14336,7.90193 -9.27267,15.21383 -6.1293,7.31062 -11.14384,11.29486 -11.14384,8.85287 z m 21.97027,-9.1818 c 6.70909,-7.38613 8.05807,-12.31236 6.31361,-23.06328 -1.46929,-9.05125 0,-17.88364 4.22997,-26.14009 8.3806,-16.20701 11.46893,-13.03549 4.21462,4.32725 -5.28587,12.65024 -4.47955,29.99122 1.39378,29.99122 1.46929,0 9.47489,-3.28415 17.79149,-7.29911 17.69678,-8.54186 59.0827,-21.05004 61.53621,-18.59653 0.93431,0.93431 -13.06109,6.49151 -31.09191,12.35716 -18.03211,5.86565 -39.22294,15.29318 -47.09287,20.95149 -21.83716,15.70019 -26.66483,17.7851 -17.2949,7.47189 z m 81.69931,-3.36606 c 3.16768,-2.04651 9.12932,-3.74874 13.24666,-3.78074 5.82342,0 6.46335,-1.08789 2.87971,-4.66641 -2.53414,-2.53414 -4.54994,-6.42111 -4.47955,-8.63913 0.12799,-2.21674 3.663,0.21758 7.98384,5.41002 7.49877,9.01029 7.53588,9.56831 0.83192,12.20869 -3.86393,1.52176 -11.34478,2.86307 -16.62425,2.97826 -7.56532,0.16638 -8.37932,-0.57594 -3.83961,-3.51069 z m -14.60973,-9.59903 c 0.12798,-6.33537 0.9343,-8.46251 1.91212,-4.72657 0.97271,3.73595 0.90871,8.91943 -0.14078,11.51884 -1.0495,2.59942 -1.84814,-0.46075 -1.77006,-6.79227 z m -46.21744,-17.27827 c 0,-5.27946 0.87032,-7.43861 1.93645,-4.79951 1.06229,2.64037 1.06229,6.95994 0,9.59903 -1.06229,2.64038 -1.93645,0.47355 -1.93645,-4.79952 z m 194.74522,-22.66779 c 3.12288,-1.97613 4.04439,-5.36906 2.25001,-8.27181 -2.16682,-3.50685 -1.20308,-4.21718 3.34814,-2.47015 4.17238,1.60111 6.38912,0.49915 6.38912,-3.18688 0,-3.10113 2.16042,-5.20652 4.79952,-4.67921 4.58578,0.9215 4.57042,-1.20308 -0.12799,-17.92588 -1.59216,-5.67111 -0.60154,-6.8038 4.30805,-4.91983 3.50684,1.34515 6.37632,1.77775 6.37632,0.95991 0,-0.81912 1.04949,-4.21846 2.33064,-7.55892 4.00088,-10.42583 -7.64467,-6.86523 -22.72795,6.95098 -7.82002,7.16344 -15.1716,11.483 -16.335,9.59903 -3.81658,-6.17537 -9.34306,-3.58748 -9.34306,4.3746 0,4.29013 -2.59174,8.794 -5.75942,10.00988 -7.22231,2.7722 -7.54868,9.06788 -0.47355,9.06788 2.90914,0 7.43989,2.59174 10.06874,5.75943 5.48809,6.61309 7.56276,6.93178 14.89003,2.28969 z M 605.9094,625.62197 c -0.89591,-1.5832 -4.1199,-2.87971 -7.16344,-2.87971 -3.83705,0 -5.52648,4.41172 -5.5124,14.39856 l 0,14.39855 7.14296,-11.51884 c 3.92793,-6.33537 6.40832,-12.81407 5.51241,-14.39856 z m -26.45877,-89.27102 c -10.69845,-8.33324 -20.79407,-69.26151 -20.79407,-125.50174 0,-49.78315 -0.51195,-53.65476 -6.71933,-51.11806 -3.69499,1.50897 -16.61913,5.12077 -28.71903,8.02736 -12.0999,2.9053 -37.15338,11.18991 -55.6744,18.40838 -44.46657,17.33202 -67.60024,23.45108 -69.30631,18.32904 -0.81911,-2.43943 -8.02479,-1.10069 -18.681,3.46717 -9.54656,4.09175 -22.61532,7.43989 -29.04156,7.43989 -6.42623,0 -27.23822,6.22274 -46.24814,13.82901 -34.91105,13.96736 -41.01092,13.79458 -41.20162,-1.16468 0,-2.54055 -1.9838,-8.84263 -4.33492,-14.00435 -3.70523,-8.1323 -5.77094,-8.9591 -15.45061,-6.18306 -6.14466,1.76238 -17.61103,3.1792 -25.47968,3.14976 -32.90293,-0.12798 -138.421913,30.77336 -135.606196,39.71198 0.857514,2.7402 1.505128,11.87848 1.428336,20.30771 -0.127987,10.7522 2.009398,16.83031 7.070009,20.37555 9.633591,6.74748 9.087086,12.98814 -2.205218,25.17251 -6.66301,7.18904 -13.273545,10.15962 -22.611486,10.15962 -19.191669,0 -28.740789,-9.87933 -33.308649,-34.46437 C 29.889265,477.88516 25.718165,468.82111 19.317529,463.49556 14.168607,459.21311 8.9352129,449.69215 7.6591813,442.28554 5.4808404,429.63388 6.3153165,428.2657 21.911828,418.93544 c 9.111403,-5.45225 25.057319,-11.07601 35.435795,-12.49795 10.597334,-1.45265 29.936189,-8.79271 44.110767,-16.74327 46.68202,-26.18105 59.68935,-31.4042 84.75563,-34.03818 13.72662,-1.44369 31.86879,-5.97956 40.31595,-10.08154 8.44715,-4.10199 23.13367,-10.14426 32.63671,-13.42841 30.23952,-10.44759 76.40704,-35.4486 82.42755,-44.63679 3.1984,-4.88143 12.96254,-12.89215 21.69894,-17.80173 14.13746,-7.94544 19.04576,-8.66089 44.62399,-6.49791 23.55219,1.9902 31.71265,1.11349 45.21145,-4.85711 9.05893,-4.00728 26.4831,-10.19673 38.72123,-13.75478 12.23685,-3.55676 32.70711,-11.79657 45.4879,-18.30855 30.29711,-15.43781 51.81559,-15.89985 76.15746,-1.6344 21.04876,12.3354 21.36233,12.76288 22.57565,30.77962 1.12629,16.75224 2.17194,17.31794 7.26199,3.93177 2.99874,-7.88785 2.48295,-11.64939 -2.32809,-16.9647 -5.65063,-6.24449 -5.65703,-7.43349 -0.12798,-13.86228 3.3571,-3.86777 10.89682,-12.81663 16.75607,-19.88792 8.42411,-10.1673 14.23985,-13.24667 27.8052,-14.72108 15.94464,-1.73423 18.1729,-0.81912 31.6077,13.07517 7.95056,8.21677 16.03807,20.46002 17.97324,27.2075 3.17152,11.06193 2.1745,13.68438 -10.13914,26.65844 -7.51157,7.91472 -15.22151,18.81538 -17.13492,24.22284 -2.26281,6.3968 -8.46507,11.61611 -17.75437,14.94122 -7.85201,2.80931 -16.25949,5.84645 -18.68356,6.7462 -2.42408,0.89591 -7.88913,-2.09899 -12.14342,-6.66685 -8.54186,-9.16772 -21.43785,-7.68307 -30.78347,3.54396 -4.67537,5.61736 -4.95054,5.59176 -3.11904,-0.28157 1.10069,-3.54524 3.19968,-12.79871 4.65617,-20.56241 2.53414,-13.51032 2.29737,-13.92756 -5.53416,-9.73598 -9.19716,4.9211 -9.75902,8.26157 -4.48467,26.65332 3.1856,11.10544 2.3716,14.63533 -5.86821,25.43744 -8.80424,11.54316 -9.7731,16.93398 -12.16774,67.71159 -4.46419,94.69012 -5.09389,89.179 10.49878,91.80273 15.81793,2.66085 30.71691,10.09947 30.71691,15.3367 0,2.03627 -7.63443,3.70395 -16.96469,3.70395 -9.33026,0 -19.68698,1.04949 -23.01464,2.32168 -8.96934,3.44158 -3.3891,9.19716 8.91558,9.19716 21.59015,0 52.01013,14.8913 44.91196,21.98691 -4.37588,4.3746 -71.76366,3.61947 -77.52564,-0.87032 z m 27.2011,-5.75942 c -1.30547,-2.11178 -0.12799,-3.86521 2.65317,-3.89592 2.76452,0 0.72953,-2.23082 -4.52178,-4.88783 -12.32772,-6.23682 -15.39301,-24.33547 -11.11057,-65.59084 1.78287,-17.1682 3.52477,-50.56401 3.87289,-74.21347 0.51195,-34.63715 2.0094,-45.08986 7.72275,-53.75459 16.45914,-24.96261 3.41086,-74.41172 -20.37299,-77.20183 -13.69974,-1.60624 -26.37687,14.76971 -25.83036,33.36752 l 0.40955,13.8802 4.17238,-10.55894 c 6.98938,-17.68654 9.99708,-11.76713 3.90233,7.67923 -9.1626,29.23738 -7.11992,153.77154 3.25983,198.70014 4.38996,19.00609 8.73769,35.85304 9.66175,37.43624 0.92151,1.58448 7.72531,2.87971 15.11656,2.87971 7.98128,0 12.47491,-1.55889 11.06577,-3.83962 z m -21.12556,-13.45912 c -2.23465,-5.87717 -4.97614,-12.1639 -6.09346,-13.97108 -1.11349,-1.80845 -0.37117,-3.28671 1.65871,-3.28671 4.07383,0 13.24539,23.19383 10.326,26.11322 -1.0111,1.0111 -3.65659,-2.97954 -5.89125,-8.85543 z M 569.10159,456.3654 c -4.27733,-10.87891 -3.5798,-16.43483 1.43345,-11.42157 2.31017,2.31017 3.55548,7.40789 2.76708,11.32686 -1.38354,6.87419 -1.532,6.87803 -4.20053,0.12799 z m 7.33238,-24.79507 c -5.96676,-9.65535 -9.63487,-23.84656 -6.16386,-23.84656 2.05931,0 3.7449,3.11008 3.7449,6.9113 0,3.80122 2.04524,8.95654 4.54354,11.45485 2.49959,2.49959 3.53629,5.5508 2.30377,6.78344 -1.22867,1.22868 -3.22399,0.63994 -4.42835,-1.30303 z m 9.21635,-22.11874 c 0.12799,-9.92924 0.62714,-10.45271 4.23766,-4.23765 2.95394,5.08109 2.92066,8.28972 -0.12799,11.32686 -3.09089,3.09089 -4.20566,1.16468 -4.12119,-7.08921 z m -2.42407,-65.26063 c -3.50685,-13.97236 0,-15.06665 5.02733,-1.59472 2.36136,6.25601 2.74788,11.37293 0.85751,11.37293 -1.88909,0 -4.53842,-4.4002 -5.8874,-9.77821 z m 3.01409,-38.20032 c -2.41,-5.28843 -2.80676,-9.61567 -0.88311,-9.61567 3.77818,0 9.62207,14.8721 6.91003,17.58415 -0.90871,0.90871 -3.6182,-2.68005 -6.02692,-7.96848 z M 574.07389,266.8445 c 0,-1.70863 1.73422,-5.69799 3.78074,-8.86567 3.20735,-4.96334 3.72954,-4.86223 3.78074,0.72952 0,3.57085 -1.66896,7.5602 -3.78074,8.86567 -2.11179,1.30547 -3.81274,0.9727 -3.78074,-0.72952 z M 76.47146,520.58166 c 8.24877,-3.16512 7.630592,-8.95526 -2.061873,-19.27102 -7.084088,-7.54228 -7.579398,-10.24921 -3.839614,-20.97965 2.362642,-6.77564 4.295248,-17.24499 4.295248,-23.2655 0,-9.94972 -1.215878,-10.94546 -13.438648,-10.94546 -13.366976,0 -13.438648,-0.12799 -13.438648,-17.27839 0,-9.50304 -0.767923,-17.27826 -1.700949,-17.27826 -0.934306,0 -7.667709,3.52092 -14.960415,7.82385 -16.256925,9.59264 -15.3111,19.07405 3.702667,37.09592 9.318743,8.83367 12.958697,15.64386 12.958697,24.24972 0,15.98047 6.26241,26.82098 15.494121,26.82098 4.149343,0 7.543561,1.8443 7.543561,4.09815 0,4.51794 -14.178414,1.28115 -22.077779,-5.03885 -2.639094,-2.11179 -4.799517,-10.63573 -4.799517,-18.94338 0,-12.08198 -2.448394,-17.34225 -12.234289,-26.2796 -6.728284,-6.14594 -14.433109,-15.98303 -17.120838,-21.86148 l -4.8852689,-10.68705 2.1642619,11.51897 c 1.190281,6.33536 6.532463,15.22151 11.869526,19.74841 6.953541,5.89509 10.617812,14.06067 12.922861,28.79711 4.352842,27.8116 19.047044,39.56466 39.606896,31.67553 z m 10.896823,-24.13581 c -4.255572,-3.39422 -8.673687,-8.762 -9.817892,-11.92968 -1.29011,-3.5734 -2.193699,-2.27689 -2.38184,3.41597 -0.166384,5.04654 2.701808,11.37294 6.373758,14.05811 9.609274,7.02649 15.073044,1.82638 5.825974,-5.5444 z M 608.57154,492.1954 c 0,-2.11179 -2.69413,-3.83962 -5.98596,-3.83962 -3.29183,0 -4.91855,1.72783 -3.61308,3.83962 1.30547,2.11178 3.99832,3.83961 5.98596,3.83961 1.98764,0 3.61308,-1.72783 3.61308,-3.83961 z M 117.10097,428.48968 c 34.82274,-12.40324 91.59015,-25.64478 106.86285,-24.9255 7.97744,0.37117 11.86697,-0.89591 10.3324,-3.37886 -3.3507,-5.42153 3.06786,-5.04909 8.61866,0.49915 8.1003,8.10031 8.89382,-5.11948 1.68815,-28.13925 -5.81702,-18.58373 -7.75986,-21.20362 -13.38874,-18.05258 -3.62203,2.02604 -19.79576,5.16556 -35.94262,6.97658 -23.90288,2.68005 -37.04459,7.10456 -70.73337,23.812 -22.75611,11.28591 -41.51518,22.40287 -41.685402,24.7028 -0.435157,5.84133 -18.203609,13.35417 -25.219864,10.66261 -4.421955,-1.69711 -5.805496,0.65273 -5.805496,9.83325 l 0,12.06291 20.157973,-2.58278 c 11.087524,-1.42066 31.388839,-6.58366 45.115459,-11.47289 z m -57.594204,6.11151 c -4.922385,-3.18061 -4.782879,-3.73095 0.959903,-3.78087 3.696269,0 6.719325,1.66895 6.719325,3.78087 0,4.68305 -0.435157,4.68305 -7.679228,0 z M 220.77054,393.06156 c 0,-4.63953 7.28503,-10.04955 9.94716,-7.38742 0.95991,0.97271 -0.88311,3.94329 -4.0943,6.61438 -3.6502,3.02817 -5.85286,3.31998 -5.85286,0.76792 z M 145.11607,386.268 c -6.14082,-4.70608 -5.42409,-5.02221 6.54143,-2.88227 16.69592,2.98594 17.57647,3.66427 8.00943,6.16642 -4.20822,1.10069 -10.75604,-0.38396 -14.55086,-3.28415 z m 160.12598,36.93197 c 15.8384,-6.25473 34.52452,-11.43181 41.52414,-11.50476 6.99962,-0.12799 21.23562,-3.79226 31.63586,-8.26669 15.69634,-6.7526 18.59397,-9.52352 17.0594,-16.31836 -1.02389,-4.50131 -3.50812,-15.98815 -5.53416,-25.52703 -2.02732,-9.54016 -7.86481,-26.81843 -12.97278,-38.39614 -5.10796,-11.579 -10.53078,-26.75955 -12.05254,-33.73485 -3.40318,-15.60931 -8.60842,-14.29488 -22.00739,5.55592 -8.9655,13.28507 -16.24669,17.80813 -54.7145,33.99466 -24.40458,10.26969 -44.37185,20.31412 -44.37185,22.32352 0,2.00812 5.28843,19.40669 11.75305,38.66363 6.46335,19.25694 12.45699,37.17258 13.31707,39.81167 2.15018,6.58891 3.65787,6.31502 36.3637,-6.60157 z m -23.03769,-0.60154 c 0,-1.25427 5.32043,-12.44803 11.82474,-24.88838 7.40405,-14.16305 10.91858,-18.48774 9.40193,-11.56619 -2.11563,9.65023 -21.22667,42.47252 -21.22667,36.45457 z m 34.55653,-16.63577 c 0,-3.20863 50.52292,-17.43824 60.87836,-17.14771 5.58535,0.15358 -4.53203,4.39635 -22.48222,9.41985 -34.89697,9.7667 -38.39614,10.47063 -38.39614,7.72786 z m 54.52251,-53.32071 c 0,-7.05593 -3.74874,-20.17717 -8.33068,-29.15803 -4.58194,-8.98214 -7.34646,-17.31538 -6.14338,-18.51846 2.89763,-2.89763 3.32255,-2.21546 13.03037,20.92206 8.87719,21.15499 10.55126,33.9537 4.89935,37.44775 -1.90061,1.17748 -3.45566,-3.63739 -3.45566,-10.69332 z m 84.95274,32.1926 c 21.48648,-8.36652 49.38639,-17.87596 61.99824,-21.1294 38.6278,-9.96635 36.58256,-8.39467 36.58256,-28.12389 l 0,-17.8734 -6.5427,9.4928 c -12.93438,18.76548 -32.13501,27.03857 -41.3552,17.81837 -4.56274,-4.56146 -3.69883,-6.5555 5.91941,-13.66646 6.19457,-4.57938 11.26158,-6.75772 11.26158,-4.84048 0,1.91725 -3.88697,6.19842 -8.63913,9.51329 l -8.63913,6.02563 11.00305,0.20478 c 8.1835,0.15359 14.82219,-3.97784 25.9174,-16.11614 21.82436,-23.876 19.82904,-34.38118 -4.20182,-22.12129 -7.88017,4.02007 -23.64818,8.4753 -35.0416,9.90108 -11.39341,1.4245 -32.23483,7.56532 -46.31598,13.64471 -14.07986,6.07939 -28.23268,11.05297 -31.45027,11.05297 -13.21979,0 -9.45057,8.42667 8.86311,19.80984 10.70996,6.65789 18.6682,12.91007 17.68526,13.89301 -3.18432,3.18432 -34.44518,-17.30258 -46.28911,-30.33423 -6.33536,-6.97018 -8.56234,-10.42455 -4.94798,-7.67411 5.18092,3.942 9.64767,4.06103 21.11788,0.56314 26.62516,-8.11566 42.49172,-16.18013 45.81555,-23.28597 1.80846,-3.86778 13.85716,-17.94252 26.7749,-31.27878 38.8505,-40.10476 43.79592,-41.99001 9.07941,-3.46077 l -32.56632,36.14356 22.73435,-2.65701 c 32.71991,-3.82553 55.97773,-14.88234 55.97773,-26.61108 0,-11.77738 15.41733,-34.87649 24.43658,-36.61328 12.70144,-2.44583 25.01636,3.1472 31.64738,14.37168 5.7735,9.77309 7.67667,10.63445 15.56323,7.04185 11.37038,-5.18092 12.06151,-21.92548 1.30547,-31.6589 -7.3695,-6.66941 -10.7714,-3.70139 -4.79952,4.18774 1.58448,2.09259 -2.09259,-1.29267 -8.17069,-7.5218 -13.97876,-14.32688 -41.32833,-18.24585 -58.43253,-8.37164 -6.13186,3.53884 -7.6933,5.27051 -3.46973,3.84729 13.54744,-4.56658 40.31595,-6.69116 40.31595,-3.19968 0,1.85838 -4.75089,3.61436 -10.55894,3.90233 -27.60042,1.3669 -48.24859,5.41258 -64.64502,12.66561 -9.85757,4.36052 -20.34739,7.9288 -23.31029,7.9288 -2.96291,0 -15.99583,4.46547 -28.96221,9.92284 -20.49586,8.62633 -26.8773,9.59264 -48.83989,7.39766 -15.20359,-1.52049 -29.58806,-0.88311 -36.12308,1.6152 -9.72063,3.7065 -10.57942,5.41513 -8.19118,16.29148 1.46801,6.6822 7.54356,23.60722 13.50264,37.61029 5.95908,14.00307 12.96766,37.03564 15.57476,51.18333 3.88056,21.06413 6.06275,25.72414 12.04486,25.72414 4.01752,0 24.88454,-6.84603 46.37102,-15.21383 z m -22.46046,-72.71589 c -8.39596,-3.7641 -17.81837,-9.92796 -20.9387,-13.69846 -4.0815,-4.93134 0.23038,-3.75514 15.35846,4.1903 26.31159,13.81877 24.53513,12.66304 22.53853,14.65964 -0.9343,0.93431 -8.56106,-1.38738 -16.95829,-5.15148 z m 10.65237,-14.76203 c -6.86267,-3.41598 -12.47875,-7.72275 -12.47875,-9.57088 0,-1.84941 3.83962,-0.67833 8.53418,2.61606 4.69329,3.28671 11.6046,5.977 15.35846,5.977 3.75258,0 6.82427,1.72782 6.82427,3.83961 0,5.08493 -3.31614,4.56402 -18.23816,-2.86179 z m 245.86967,-6.63998 c 15.74241,-6.57725 15.98303,-6.98937 10.28888,-17.62766 -3.42238,-6.39552 -2.67877,-7.42709 5.34986,-7.42709 5.12717,0 10.31704,-2.59174 11.53292,-5.75943 2.26153,-5.89508 -1.85581,-7.85201 -6.57982,-3.128 -6.19969,6.1997 -28.98396,11.57259 -32.81718,7.73938 -2.66853,-2.66853 -6.38271,-0.9599 -11.62507,5.33322 -4.23765,5.08877 -7.76241,7.19544 -7.83281,4.68049 -0.12799,-2.51494 1.59984,-5.64039 3.71163,-6.94586 6.65917,-4.11606 4.18774,-8.63657 -5.75942,-10.53846 -6.77308,-1.29523 -9.59904,-0.14078 -9.59904,3.89849 0,3.1536 -3.60539,11.56748 -8.01199,18.69636 l -8.01199,12.96382 10.18137,-3.87034 c 15.45701,-5.87716 19.54364,-4.80335 24.68872,6.48767 3.02689,6.64381 5.70566,8.762 7.46933,5.90789 1.5128,-2.4484 9.16899,-7.13272 17.01461,-10.41048 z m -12.48643,-46.17263 c 5.21036,-7.10329 5.12845,-7.28375 -1.08789,-2.41 -3.69499,2.89891 -6.71932,7.07385 -6.71932,9.27907 0,2.20522 0.48635,3.28927 1.08789,2.41 0.60154,-0.88312 3.62075,-5.0555 6.71932,-9.27907 z"
       id="path4119"
       inkscape:connector-curvature="0" />
  </g>
</svg>
