<?xml version="1.0" encoding="UTF-8" standalone="no"?>
<!-- Created with Inkscape (http://www.inkscape.org/) -->

<svg
   xmlns:dc="http://purl.org/dc/elements/1.1/"
   xmlns:cc="http://creativecommons.org/ns#"
   xmlns:rdf="http://www.w3.org/1999/02/22-rdf-syntax-ns#"
   xmlns:svg="http://www.w3.org/2000/svg"
   xmlns="http://www.w3.org/2000/svg"
   xmlns:sodipodi="http://sodipodi.sourceforge.net/DTD/sodipodi-0.dtd"
   xmlns:inkscape="http://www.inkscape.org/namespaces/inkscape"
   width="210mm"
   height="297mm"
   viewBox="0 0 744.09448819 1052.3622047"
   id="svg3728"
   version="1.1"
   inkscape:version="0.91 r13725"
   sodipodi:docname="plank.svg">
  <defs
     id="defs3730" />
  <sodipodi:namedview
     id="base"
     pagecolor="#ffffff"
     bordercolor="#666666"
     borderopacity="1.0"
     inkscape:pageopacity="0.0"
     inkscape:pageshadow="2"
     inkscape:zoom="0.49497475"
     inkscape:cx="3075.9644"
     inkscape:cy="-272.0703"
     inkscape:document-units="px"
     inkscape:current-layer="layer1"
     showgrid="false"
     inkscape:window-width="3200"
     inkscape:window-height="1699"
     inkscape:window-x="0"
     inkscape:window-y="50"
     inkscape:window-maximized="1" />
  <metadata
     id="metadata3733">
    <rdf:RDF>
      <cc:Work
         rdf:about="">
        <dc:format>image/svg+xml</dc:format>
        <dc:type
           rdf:resource="http://purl.org/dc/dcmitype/StillImage" />
        <dc:title></dc:title>
      </cc:Work>
    </rdf:RDF>
  </metadata>
  <g
     inkscape:label="Layer 1"
     inkscape:groupmode="layer"
     id="layer1">
    <path
       style="fill:#000000"
       d="m 604.89338,708.93066 c -33.51403,-1.4342 -32.36078,-0.267 -42.70058,-43.39233 -5.26338,-21.95363 -6.95319,-41.10831 -6.97178,-79.00192 0,-46.27994 -0.47617,-49.83146 -6.12165,-47.48197 -3.35407,1.39714 -15.50446,4.59558 -27.00215,7.10649 -11.49769,2.51092 -34.21086,9.47224 -50.47254,15.46962 -41.52408,15.31168 -76.09149,24.48776 -77.40502,20.54603 -0.61552,-1.83266 -10.26198,-0.16259 -21.64817,3.76056 -11.30026,3.88831 -25.65379,7.06934 -31.89623,7.06934 -6.24243,0 -25.73043,5.48753 -43.30564,12.19452 -17.57521,6.70699 -32.47808,12.19452 -33.118,12.19452 -0.63876,0 -3.71526,-7.68371 -6.83473,-17.07581 l -5.6722,-17.07466 -21.60985,1.65266 c -32.18657,2.46212 -87.86792,13.72173 -117.1638,23.6922 -14.22926,4.84298 -28.618801,8.80561 -31.97752,8.80561 -5.324941,0 -5.86963,2.56085 -4.252985,20.03386 1.256617,13.59747 3.974253,21.89207 8.458352,25.8187 8.224914,7.20174 8.207494,8.31086 -0.313573,20.28321 -8.816058,12.38034 -27.150811,16.37666 -41.380076,9.01814 C 32.95059,687.09208 25.5851,672.05369 25.640846,656.0719 c 0,-5.87893 -3.681584,-12.12019 -10.53955,-17.77148 -6.8568052,-5.65014 -11.2816748,-13.1097 -12.5940375,-21.23241 -1.96389868,-12.162 -1.4865702,-12.82515 16.6368105,-23.11965 13.688061,-7.77313 20.284715,-9.74284 24.757201,-7.38871 3.615385,1.90234 6.097261,1.92092 6.097261,0 0,-1.7386 6.093777,-4.13569 13.540564,-5.32727 7.447949,-1.19042 22.734072,-7.15064 33.970455,-13.24442 43.12215,-23.3856 53.89746,-27.48761 82.09699,-31.25281 15.90631,-2.12416 35.19223,-6.74415 42.85736,-10.26546 7.66513,-3.52248 25.6956,-10.5802 40.06771,-15.68564 36.09811,-12.82283 66.29987,-28.50615 74.17521,-38.51727 14.44412,-18.36379 45.66906,-27.99513 73.47257,-22.66438 14.87383,2.85119 20.95716,1.92557 48.77808,-7.41892 17.48231,-5.87195 43.5449,-15.30238 57.91702,-20.95599 52.81389,-20.77482 52.41669,-20.68075 69.53431,-16.41034 8.70457,2.17294 22.4414,7.6268 30.52463,12.12019 l 14.6973,8.17033 16.81219,-19.29871 c 15.41387,-17.6925 18.2488,-19.4311 34.08078,-20.88747 16.631,-1.5307 17.81677,-1.02201 32.12036,13.68458 17.06072,17.54501 23.90243,34.91233 16.25472,41.25929 -2.68744,2.23102 -7.14367,3.19032 -9.90195,2.13114 -2.75945,-1.05686 -13.24325,1.08008 -23.29967,4.75819 -13.54404,4.95097 -19.48104,5.6896 -22.90247,2.85002 -6.1321,-5.08917 -5.82317,-9.80903 1.14977,-17.51249 3.17174,-3.50389 4.26925,-6.37134 2.4389,-6.37134 -6.19481,0 -11.68931,8.31666 -11.68931,17.69134 0,5.13099 -2.60847,11.48027 -5.79646,14.1108 -5.24017,4.32267 -5.40741,4.05091 -1.74208,-2.82912 5.50496,-10.33282 5.17977,-11.55228 -3.08116,-11.55228 -3.9243,0 -11.09816,-4.31222 -15.94113,-9.58141 l -8.8056,-9.58141 1.96273,16.72972 c 1.29726,11.06102 0.74329,15.97599 -1.6329,14.50684 -1.97668,-1.22178 -5.91493,-0.29035 -8.75219,2.05913 -2.83726,2.35412 -6.03802,3.40053 -7.11347,2.32509 -1.08008,-1.08009 1.31353,-3.70713 5.30985,-5.84524 11.70905,-6.26683 9.65457,-22.42514 -4.05672,-31.89855 l -11.32348,-7.82424 8.44674,9.32824 c 4.64553,5.13099 6.7186,9.32938 4.60721,9.32938 -2.1114,0 -7.65352,-4.87432 -12.31531,-10.83105 -11.01107,-14.069 -29.94742,-17.9364 -52.534,-10.7277 -21.55992,6.88119 -18.70988,8.52339 5.85105,3.3715 12.56035,-2.63518 20.9711,-2.93366 23.05113,-0.82459 2.07423,2.10676 -2.94178,3.55383 -13.66484,3.94173 -9.31777,0.33681 -20.06405,2.28445 -23.88035,4.32732 -4.65714,2.49233 -7.32948,2.54575 -8.12504,0.16259 -0.69682,-2.09745 -9.73703,-0.11614 -22.05698,4.85342 -11.48027,4.62347 -26.2972,9.56748 -32.92753,10.98669 -6.63149,1.41921 -19.17443,5.75581 -27.8732,9.63599 -12.39427,5.52935 -23.73518,7.1309 -52.40159,7.4015 l -36.58356,0.34841 0.3368,12.19453 c 0.18582,6.70698 5.41204,23.72705 11.6115,37.82275 6.19947,14.09687 13.19331,36.04236 15.54279,48.76996 2.85468,15.46961 6.01945,23.47735 9.54773,24.15676 2.90113,0.55747 23.97559,-5.5816 46.83161,-13.64624 22.85602,-8.06349 54.88348,-17.9248 71.17187,-21.91182 l 29.61527,-7.25051 0.97555,-17.42075 0.97557,-17.42074 -8.86716,11.07146 c -8.15872,10.18765 -31.24933,21.60056 -35.36992,17.47998 -0.96395,-0.96395 2.99289,-2.8001 8.79864,-4.07529 5.80576,-1.2752 15.6357,-8.08788 21.84445,-15.1398 6.20875,-7.05075 12.54526,-12.42795 14.08177,-11.94947 3.73733,1.16487 3.59912,-12.15619 -0.15098,-14.47315 -1.6178,-0.99879 -10.83338,1.17996 -20.47634,4.84413 -9.64413,3.66417 -25.95807,7.75688 -36.2549,9.09363 -10.29566,1.33791 -29.95555,6.90558 -43.6889,12.37221 -13.73335,5.46662 -27.06023,9.96351 -29.61527,9.99254 -2.55504,0 -6.84751,1.44708 -9.53843,3.15083 -3.66417,2.32045 0.11613,5.91144 14.96673,14.30591 10.92166,6.16347 19.13727,11.92857 18.25695,12.81006 -3.76868,3.76753 -50.97774,-28.20767 -50.97774,-34.52792 0,-2.16714 2.10209,-1.86982 5.24945,0.74329 4.2042,3.4888 8.54197,3.46556 21.77593,-0.11614 26.28558,-7.11463 42.6576,-14.26875 42.6576,-18.64252 0,-4.58629 62.99921,-68.3648 67.52976,-68.3648 1.61781,0 -12.13064,14.2641 -30.5525,31.69762 -18.42069,17.43468 -33.49311,32.84391 -33.49311,34.24453 0,4.08808 52.96835,-5.49914 66.78416,-12.08766 10.28172,-4.90336 12.99355,-8.4061 14.68104,-18.96539 2.56317,-16.02708 17.18034,-31.40495 29.85102,-31.40495 14.46503,0 28.53054,17.17917 33.49662,40.90971 l 4.19839,20.06289 5.63038,-12.95406 c 3.09626,-7.12393 5.62923,-15.35581 5.62923,-18.29179 0,-2.93598 1.82104,-4.94517 4.04626,-4.46667 2.22637,0.47616 5.20531,-3.04863 6.62104,-7.83934 2.24844,-7.6059 2.61892,-7.78359 2.92204,-1.40411 0.18582,4.01838 -2.78848,10.92164 -6.62104,15.34071 -10.35141,11.93552 -8.55242,14.18628 6.96017,8.71269 l 13.92846,-4.91382 5.58625,10.80203 c 3.07186,5.94163 6.60363,9.2179 7.84747,7.28071 1.24384,-1.93718 5.78834,-4.62231 10.10055,-5.96834 4.31105,-1.34489 7.83933,-3.85928 7.83933,-5.58626 0,-1.72697 2.33903,-2.24263 5.19719,-1.14976 6.75461,2.5922 10.76602,-7.76618 5.47592,-14.14101 -4.70941,-5.67451 0.80136,-10.9077 7.27607,-6.90791 2.20662,1.36463 6.12629,-0.40647 8.71037,-3.94405 2.58407,-3.53408 4.69779,-4.76864 4.69779,-2.74434 0,2.02428 -3.13573,7.66628 -6.96829,12.53944 -3.83257,4.87201 -6.96831,10.52445 -6.96831,12.56152 0,2.03707 -8.84509,7.74991 -19.6564,12.69508 l -19.65757,8.99142 -9.59302,-9.19234 c -8.72082,-8.35383 -10.39322,-8.76728 -18.37541,-4.53287 -4.83018,2.56084 -15.04803,12.54873 -22.70619,22.19286 l -13.92498,17.53573 -1.98249,43.43688 c -1.09169,23.89081 -3.01262,54.80333 -4.2704,68.69696 l -2.28792,25.26008 9.12034,0 c 12.79844,0 37.70313,10.53026 36.05397,15.24431 -0.82458,2.35993 -8.15872,3.555 -18.43696,3.00566 -9.3863,-0.49939 -19.22553,0.4994 -21.86652,2.22405 -7.72203,5.04388 -1.04524,10.88297 12.44191,10.88297 23.28224,0 49.64098,11.82056 42.43111,19.03042 -2.94758,2.94759 -20.32419,3.98239 -47.41113,2.82219 z m 1.0104,-7.57563 c -6.32258,-2.47374 -6.20411,-2.84771 1.74208,-5.5096 8.25394,-2.76525 8.17148,-2.90114 -2.6317,-4.27737 -17.43236,-2.22172 -18.15242,-8.55127 -11.54996,-101.51265 2.08817,-29.40971 2.87675,-56.37005 1.75253,-59.91227 -1.24036,-3.90922 1.63871,-12.00521 7.32368,-20.59597 8.10646,-12.2491 9.08782,-16.51022 7.29233,-31.66975 -3.51667,-29.68727 -22.61446,-47.85246 -40.33948,-38.36628 -8.34454,4.46552 -17.78078,21.00825 -17.78078,31.17152 0,11.6928 6.92882,11.98547 10.94488,0.46455 6.70815,-19.23947 6.42361,-9.23067 -0.36003,12.55106 -5.97183,19.18837 -6.29702,27.47949 -3.68158,93.92221 2.23566,56.77652 4.42138,78.0461 9.89498,96.274 3.86392,12.86777 8.02864,25.01816 9.2539,27.0018 1.22642,1.98249 9.58373,3.4946 18.57284,3.35989 11.28748,-0.16259 14.24668,-1.06847 9.56282,-2.89881 z m -24.41808,-16.1769 c -3.01147,-7.20835 -4.69199,-13.8898 -3.73385,-14.84793 0.95234,-0.95234 4.20654,4.15542 7.218,11.36413 3.01262,7.20719 4.69198,13.88979 3.73385,14.84793 -0.95234,0.96395 -4.20537,-4.15659 -7.218,-11.36413 z m -15.28612,-57.33016 c 0,-4.79071 0.78974,-6.74996 1.75717,-4.35519 0.96394,2.39478 0.96394,6.3156 0,8.71037 -0.96395,2.39478 -1.75717,0.44133 -1.75717,-4.35518 z m 2.8361,-28.05553 c -2.10559,-3.93361 -3.31923,-9.78697 -2.69906,-13.00865 0.66199,-3.4226 2.78732,-0.45294 5.12054,7.15063 4.42138,14.40812 3.43305,16.79825 -2.42148,5.85802 z m 14.58464,-13.75425 c 0,-4.79071 0.78974,-6.74996 1.75717,-4.3552 0.96395,2.39594 0.96395,6.3156 0,8.71038 -0.96394,2.39593 -1.75717,0.42971 -1.75717,-4.35518 z m -3.93708,-60.71594 c -5.17745,-13.61722 -4.15311,-15.76114 2.0568,-4.30409 2.94759,5.43992 4.49687,10.75208 3.44234,11.80661 -1.05686,1.05686 -3.52944,-2.3216 -5.49914,-7.50252 z m 3.54685,-36.54176 c -2.14042,-3.99981 -2.43542,-7.26678 -0.65037,-7.26678 3.5817,0 8.52455,10.55349 6.08681,12.99123 -0.84781,0.84781 -3.29252,-1.72813 -5.43062,-5.72445 z M 572.61738,448.4143 c 0,-2.87442 1.51909,-5.22622 3.37498,-5.22622 1.85589,0 2.47258,2.3518 1.36927,5.22622 -1.10331,2.87442 -2.62241,5.22622 -3.37498,5.22622 -0.7549,0 -1.36927,-2.3518 -1.36927,-5.22622 z M 76.285272,686.82032 c 1.271715,-2.05797 -1.219451,-7.50102 -5.536311,-12.09661 -7.101858,-7.56061 -7.492082,-9.77187 -4.098521,-23.26018 l 3.751267,-14.90519 -1.798983,15.94927 c -1.602708,14.21997 -0.836196,16.57526 7.03682,21.73645 11.542985,7.56409 16.916704,0.38325 5.920731,-7.91367 -5.924215,-4.46784 -8.065806,-10.23178 -9.040206,-24.32052 -0.708444,-10.15513 -2.17527,-19.36258 -3.273938,-20.46125 -1.103315,-1.1033 -7.05424,-2.08932 -13.237443,-2.2043 -10.694015,-0.19744 -11.292127,-0.9291 -12.310659,-15.01436 -0.592306,-8.14361 -2.611951,-14.80763 -4.494553,-14.80763 -5.177445,0 -30.2342822,13.33384 -32.7719052,17.43933 -3.674615,5.94628 5.1820912,27.36683 12.2433002,29.60829 6.950877,2.20664 8.394476,5.51774 12.148066,27.86158 3.302973,19.66186 10.288691,26.13077 28.21696,26.13077 8.2133,0 15.973661,-1.684 17.245375,-3.74198 z m -31.267913,-8.70073 c -5.820851,-5.82201 -6.632658,-8.96936 -5.590897,-21.68302 0.441325,-5.34585 -3.931281,-12.27466 -13.181697,-20.9049 -7.611704,-7.10068 -14.893575,-16.43705 -16.183871,-20.74926 -3.4307262,-11.4675 1.359979,-9.59186 5.446886,2.1323 1.912797,5.48521 7.350393,11.73694 12.084189,13.89478 9.591862,4.37029 15.43478,16.58803 15.43478,32.27484 0,8.39447 2.178754,11.3409 11.323484,15.31516 9.15402,3.97889 9.869433,4.9483 3.732685,5.05863 -4.174011,0.11614 -10.054092,-2.32706 -13.065559,-5.33853 z M 613.4969,667.15614 c -5.30171,-0.80135 -8.73708,-2.9174 -7.63377,-4.7036 1.10331,-1.78621 -1.4134,-3.24724 -5.59322,-3.24724 -6.36089,0 -6.89397,0.84781 -3.26349,5.22623 2.39129,2.88023 9.22719,4.99163 15.23387,4.70477 10.61271,-0.51102 10.6464,-0.55747 1.25661,-1.98016 z M 117.99402,603.11283 c 17.27789,-5.45152 43.82595,-12.28743 58.99593,-15.18973 15.16999,-2.90229 28.66641,-7.03333 29.99272,-9.17957 1.75833,-2.84306 3.05907,-2.85583 4.79535,0 1.3112,2.12069 6.16114,3.8558 10.77879,3.8558 6.48981,0 7.90786,-1.38321 6.24941,-6.09726 -1.75137,-4.97769 -1.28333,-5.29707 2.54807,-1.74208 6.14603,5.70123 18.49851,5.70123 16.31627,0 -0.91749,-2.39477 -4.46552,-13.23861 -7.88463,-24.09637 -6.03106,-19.14424 -6.49214,-19.63202 -15.25592,-16.15484 -4.97072,1.97203 -21.38223,4.88826 -36.46976,6.48168 -22.2161,2.34715 -34.14233,6.15068 -62.71468,20.0025 -19.40555,9.4072 -38.833159,18.23022 -43.173247,19.60647 -4.338926,1.37623 -7.091404,3.79191 -6.117004,5.37023 2.3518,3.80469 -8.246981,7.73597 -12.976132,4.81277 -2.100942,-1.29842 -2.69557,-0.65038 -1.371593,1.49006 1.285651,2.08003 0.743284,4.76631 -1.203193,5.97066 -1.947639,1.20319 -3.541057,0.52262 -3.541057,-1.50166 0,-2.02894 -2.3518,-3.68972 -5.226223,-3.68972 -3.65255,0 -5.226223,3.68159 -5.226223,12.22472 l 0,12.22471 20.033856,-2.21475 c 11.01804,-1.21945 34.170206,-6.67679 51.449266,-12.12832 z m -65.168683,4.93472 c 2.515556,-1.0104 5.521214,-0.88265 6.677952,0.27873 1.161383,1.16138 -0.894265,1.98016 -4.572365,1.82918 -4.059033,-0.1626 -4.884776,-0.98717 -2.105587,-2.10443 z m 86.446383,-42.21743 c -0.95233,-1.53303 3.56196,-2.78732 10.02157,-2.78732 6.45962,0 10.96926,1.25429 10.02158,2.78732 -0.95234,1.53302 -5.45735,2.78732 -10.02158,2.78732 -4.56423,0 -9.07388,-1.2543 -10.02157,-2.78732 z m 199.90768,23.33219 c 33.12381,-4.8 52.27153,-12.82516 52.22043,-21.88975 -0.11614,-12.20266 -8.6976,-40.71229 -20.33582,-67.1802 -6.03919,-13.73451 -10.97972,-28.23787 -10.97972,-32.22837 0,-3.99052 -1.26009,-7.25517 -2.80008,-7.25517 -4.16124,0 -25.49701,22.80376 -23.34845,24.95347 2.11024,2.10908 -33.17839,18.54264 -70.73171,32.93915 -29.29007,11.22941 -28.5828,7.77429 -11.33161,55.34222 5.56071,15.33026 10.94488,30.55715 11.96456,33.83921 1.67123,5.37256 4.38075,4.91149 27.27509,-4.63739 13.98188,-5.83131 35.61149,-12.07839 48.06731,-13.88317 z m -56.56864,-1.79783 c 4.18912,-5.97764 9.26784,-15.21063 11.28517,-20.51699 2.01732,-5.30752 4.51777,-8.7998 5.55604,-7.76152 2.72693,2.72693 -10.91351,28.2669 -18.24183,34.15394 -4.72916,3.79889 -4.39468,2.39478 1.40062,-5.87543 z m 33.25504,-3.73268 c 1.22062,-1.97436 11.27703,-6.00668 22.3485,-8.96007 29.94509,-7.98916 43.45081,-9.96583 41.0003,-6.00203 -1.16603,1.88724 -5.55606,3.45047 -9.75446,3.47369 -7.75804,0 -37.00515,7.39453 -49.14392,12.35364 -4.29131,1.75369 -5.87776,1.44476 -4.45042,-0.87104 z m 52.04274,-48.13236 c 0.11613,-5.75814 -3.29949,-17.24189 -7.52228,-25.52023 -4.22279,-8.27717 -7.11812,-16.7274 -6.43407,-18.7784 0.68522,-2.051 5.64201,6.07403 11.02037,18.05718 7.62797,16.99917 9.00768,23.42742 6.27844,29.24944 -3.21122,6.8475 -3.48648,6.59897 -3.34246,-3.00799 z m 310.97538,-95.79551 c 1.18462,-1.91628 0.48779,-3.48415 -1.53651,-3.48415 -2.02893,0 -3.68971,1.56787 -3.68971,3.48415 0,1.91628 0.69683,3.48415 1.53651,3.48415 0.84781,0 2.5051,-1.56787 3.68971,-3.48415 z m -177.6916,79.54195 c 3.83257,-2.12649 9.39675,-5.60599 12.36525,-7.73364 2.9685,-2.1265 1.70492,-0.3368 -2.80706,3.97193 -4.51314,4.31105 -10.07732,7.79171 -12.36525,7.73364 -2.28909,0 -1.02201,-1.84543 2.80706,-3.97193 z m -77.52231,-27.18565 c -8.14478,-3.69668 -14.80762,-8.55823 -14.80762,-10.80318 0,-2.96501 1.24499,-3.04747 4.5561,-0.30196 2.5051,2.07887 11.52091,6.94042 20.03385,10.80202 8.51294,3.86276 13.12595,7.02173 10.25154,7.02173 -2.87443,0 -11.89025,-3.02425 -20.03387,-6.72093 z m 11.88676,-12.70088 c -15.15837,-8.21446 -8.79283,-9.3143 8.499,-1.46799 9.0042,4.08459 12.45235,6.92765 8.35847,6.89049 -3.83256,0 -11.41871,-2.47491 -16.85747,-5.4225 z"
       id="path3798"
       inkscape:connector-curvature="0" />
  </g>
</svg>
