<?xml version="1.0" encoding="UTF-8" standalone="no"?>
<!-- Created with Inkscape (http://www.inkscape.org/) -->

<svg
   xmlns:dc="http://purl.org/dc/elements/1.1/"
   xmlns:cc="http://creativecommons.org/ns#"
   xmlns:rdf="http://www.w3.org/1999/02/22-rdf-syntax-ns#"
   xmlns:svg="http://www.w3.org/2000/svg"
   xmlns="http://www.w3.org/2000/svg"
   xmlns:sodipodi="http://sodipodi.sourceforge.net/DTD/sodipodi-0.dtd"
   xmlns:inkscape="http://www.inkscape.org/namespaces/inkscape"
   width="210mm"
   height="297mm"
   viewBox="0 0 744.09448819 1052.3622047"
   id="svg3942"
   version="1.1"
   inkscape:version="0.91 r13725"
   sodipodi:docname="plank_jacks.svg">
  <defs
     id="defs3944" />
  <sodipodi:namedview
     id="base"
     pagecolor="#ffffff"
     bordercolor="#666666"
     borderopacity="1.0"
     inkscape:pageopacity="0.0"
     inkscape:pageshadow="2"
     inkscape:zoom="0.7"
     inkscape:cx="1988.8747"
     inkscape:cy="186.51688"
     inkscape:document-units="px"
     inkscape:current-layer="layer1"
     showgrid="false"
     inkscape:window-width="3200"
     inkscape:window-height="1699"
     inkscape:window-x="0"
     inkscape:window-y="50"
     inkscape:window-maximized="1" />
  <metadata
     id="metadata3947">
    <rdf:RDF>
      <cc:Work
         rdf:about="">
        <dc:format>image/svg+xml</dc:format>
        <dc:type
           rdf:resource="http://purl.org/dc/dcmitype/StillImage" />
        <dc:title></dc:title>
      </cc:Work>
    </rdf:RDF>
  </metadata>
  <g
     inkscape:label="Layer 1"
     inkscape:groupmode="layer"
     id="layer1">
    <path
       style="fill:#000000"
       d="m 172.22208,878.20357 c -20.95376,-6.3913 -27.8678,-10.26517 -32.79642,-18.37943 -8.68541,-14.30106 -8.03622,-17.37791 6.44931,-30.59462 14.91832,-13.61049 17.55883,-15.16428 31.34551,-18.45398 8.87578,-2.11784 9.74846,-1.72052 6.03544,2.75284 -4.77609,5.75519 -2.864,7.84821 13.72637,15.02357 7.65072,3.30979 10.69682,2.39336 21.92932,-6.59358 7.17418,-5.73982 12.34285,-12.26126 11.48673,-14.49144 -1.78084,-4.64247 11.0563,-13.60221 21.58639,-15.06614 12.64912,-1.75954 49.34541,-18.51664 61.1183,-27.91036 6.30742,-5.03269 18.47763,-12.15484 27.04478,-15.82766 23.66995,-10.14579 69.69965,-43.50141 69.69965,-50.50649 0,-1.61174 -2.03389,-2.92904 -4.52067,-2.92904 -2.4856,0 -16.74882,-6.96961 -31.69434,-15.48592 l -27.17486,-15.4871 -4.34684,11.05276 c -6.89038,17.51862 -20.23954,33.53666 -34.44364,41.33035 -12.11345,6.64679 -8.42171,6.88329 9.94595,0.63855 4.15646,-1.41308 4.40596,-0.81592 1.14701,2.71618 -2.29994,2.48915 -10.28177,4.87069 -17.73738,5.29165 -7.4568,0.4257 -19.14455,3.63498 -25.97344,7.14107 -14.85684,7.62708 -79.25773,68.24164 -80.33971,75.61684 -1.33622,9.10283 -8.05041,13.26165 -7.39649,4.58097 0.35474,-4.79382 14.38975,-21.25056 36.2292,-42.49877 28.47914,-27.70816 42.18423,-38.05497 68.21916,-51.50109 30.00929,-15.4988 33.29425,-18.25992 41.63437,-34.9981 4.98066,-9.99325 9.05553,-21.10631 9.05553,-24.69399 0,-3.58768 2.45249,-10.2664 5.4501,-14.84146 5.08117,-7.75478 4.84468,-9.03779 -3.48717,-18.93998 -6.58766,-7.82928 -14.78115,-12.05433 -31.16931,-16.07362 -21.71292,-5.32594 -74.70159,-6.23528 -79.57109,-1.36578 -1.30665,1.30784 -5.70198,2.38509 -9.76739,2.39573 -6.61131,0 -6.27903,0.91052 3.1478,8.44891 9.11228,7.29125 9.89391,9.20807 5.77293,14.17217 -2.66889,3.21638 -10.03463,5.741 -16.75001,5.741 -9.97314,0 -15.24824,-3.4245 -31.41882,-20.39799 -10.68736,-11.21949 -19.465,-23.28091 -19.50639,-26.80237 0,-4.35985 6.26366,-9.30622 19.77837,-15.4942 16.88599,-7.72995 21.06846,-8.43826 27.98368,-4.73706 6.38072,3.41504 13.54544,3.4375 33.2907,0.11825 15.20449,-2.56483 35.46886,-3.27787 51.2102,-1.8033 l 26.04912,2.44184 42.30839,-22.31126 c 46.07463,-24.29785 47.07029,-24.47168 118.57796,-20.75274 13.69681,0.70949 23.73972,-1.02877 33.70104,-5.83915 l 14.1899,-6.85372 0.6622,-40.76879 c 0.73314,-45.81685 2.97397,-76.22428 6.40556,-87.16116 2.2893,-7.29952 2.04689,-7.32435 -25.43423,-2.61803 -29.7858,5.10127 -98.81497,27.41336 -107.56541,34.76728 -10.16234,8.54233 -90.56472,50.8117 -108.71716,57.15695 l -18.25532,6.38073 -11.89823,-8.74572 c -11.19939,-8.23251 -13.45677,-8.57425 -38.50314,-5.82259 -14.63334,1.60819 -35.38608,5.15567 -46.1172,7.88486 -10.73111,2.72801 -37.07113,6.06264 -58.53337,7.4095 -37.765256,2.36971 -39.301314,2.7895 -47.676907,13.06181 l -8.654661,10.61405 8.045678,6.51435 c 12.594725,10.199 8.359038,18.56749 -11.20648,22.14098 -18.971906,3.46707 -32.419209,-2.40518 -37.814921,-16.51114 -1.640117,-4.28771 -6.521445,-10.98535 -10.847002,-14.88284 -4.325557,-3.8975 -10.1505143,-11.50684 -12.9435612,-16.90846 -4.7276042,-9.14067 -4.4780984,-10.37874 3.6006889,-17.86509 4.7737223,-4.42489 9.2187103,-12.55926 9.8761763,-18.07676 0.969644,-8.16275 5.020862,-12.02122 21.722384,-20.71254 19.067688,-9.92348 20.976231,-10.27231 26.885145,-4.92508 8.217139,7.43669 8.696048,7.37639 25.459059,-3.20574 39.783771,-25.11341 56.939371,-31.32268 88.476441,-32.02272 35.94422,-0.79227 39.20908,-1.90617 62.1447,-21.11221 9.75556,-8.16984 31.97341,-24.94704 49.37379,-37.2828 l 31.6364,-22.42952 50.09392,-4.28771 c 49.2709,-4.21914 50.9465,-4.64602 101.98996,-26.00892 28.54182,-11.94649 56.86487,-21.72049 62.94052,-21.72049 6.07564,0 20.92656,3.32847 33.00217,7.39672 l 21.9577,7.39673 10.74531,-13.47604 c 22.22967,-27.8795 24.59229,-29.70563 41.26898,-31.90932 23.19222,-3.06431 39.70336,5.45874 49.4069,25.50388 8.78355,18.14309 7.53011,24.34775 -8.8888,43.99959 -6.54391,7.83283 -12.4339,15.45044 -13.08901,16.93092 -0.65037,1.48049 -7.57859,6.08984 -15.38304,10.24394 -12.85724,6.84426 -14.93488,7.05711 -22.1197,2.26329 -4.82575,-3.21993 -11.41933,-4.41425 -16.85051,-3.05202 -8.23252,2.067 -8.92073,3.80999 -8.92073,22.58088 0,17.39564 -1.72643,22.77125 -11.9207,37.10779 -10.00389,14.07166 -12.3062,21.02708 -14.32235,43.27531 -1.32084,14.58013 -5.53524,35.61549 -9.36415,46.74511 -3.82891,11.1308 -6.96252,21.58403 -6.96252,23.22888 0,1.64603 8.72443,2.99288 19.38696,2.99288 10.66254,0 26.92653,2.55892 36.1417,5.68779 15.87614,5.3898 16.98768,5.34368 21.23165,-0.88687 16.28883,-23.91236 28.60449,-37.85039 35.89692,-40.62216 15.00346,-5.70552 34.74517,-3.68819 45.61345,4.65784 13.85527,10.64007 15.43862,13.36571 15.5013,26.68767 0.11824,19.55015 -13.70864,29.17327 -44.04311,30.70933 -6.29204,0.31927 -7.38585,2.77885 -7.65901,17.223 -0.17737,9.26719 0.65038,16.85051 1.8376,16.85051 4.94282,0 28.64942,-18.33691 28.83034,-22.30062 0.20103,-4.42607 21.08857,-22.69321 21.08857,-18.44215 0,5.30348 -25.50281,31.66123 -37.83975,39.1062 -12.26363,7.4024 -13.8328,7.5786 -21.66681,2.44658 -6.22937,-4.08196 -10.90021,-4.67085 -17.80479,-2.24319 -8.48911,2.98579 -9.26719,4.79028 -8.3685,19.40825 0.82775,13.4473 -1.05241,19.15519 -11.3602,34.46965 -9.90219,14.71611 -12.81349,23.11536 -14.68419,42.37461 -1.283,13.21199 -5.22307,33.59934 -8.75635,45.30601 -3.53211,11.70667 -6.26248,24.71988 -6.06501,28.9201 0.30745,6.52499 1.97122,7.37284 11.46427,5.83323 14.19582,-2.30468 31.74991,6.54155 32.49015,16.37279 0.4257,5.68187 -1.50413,7.40713 -8.29991,7.40713 -5.00076,0 -7.90259,1.54434 -6.66453,3.54748 2.45249,3.96726 2.60031,3.93651 -19.51112,4.16474 -25.61278,0.26014 -26.51148,0 -33.82283,-12.14657 -6.18325,-10.22264 -6.92231,-17.63687 -6.52499,-65.4118 0.24833,-29.63444 1.47339,-57.97051 2.72801,-62.96772 2.23255,-8.89352 1.88608,-9.08391 -16.41181,-9.01532 -27.58045,0.11825 -65.70164,6.29795 -80.34207,13.05353 -19.81503,9.14421 -54.047,40.21656 -60.71625,55.1136 -3.43041,7.66137 -13.44021,18.96836 -23.40507,26.4358 -9.57701,7.17643 -22.99948,17.29856 -29.82837,22.49443 -14.03264,10.67554 -33.28716,21.18435 -38.81531,21.18435 -2.03152,0 -10.63061,5.2952 -19.10908,11.76698 -8.47847,6.47178 -24.85599,15.31328 -36.39238,19.64593 -24.92576,9.36298 -66.59797,41.72543 -68.22744,52.98393 -0.7095,4.92508 0.73314,7.83756 3.88448,7.83756 7.17892,0 16.76065,11.67593 16.76065,20.42401 0,19.74879 -18.33573,22.79609 -60.25153,10.01099 z m 43.40102,2.6902 c -2.4383,-0.9815 -6.4304,-0.9815 -8.8687,0 -2.4383,0.9815 -0.43752,1.7891 4.43435,1.7891 4.87778,0 6.87264,-0.8041 4.43435,-1.7891 z m -38.42982,-9.55452 c -1.83287,-4.77609 12.23998,-32.3187 15.0685,-29.49136 0.81592,0.81592 -1.87425,7.15999 -5.97159,14.10477 -7.41541,12.56753 -7.41659,12.64321 -0.3784,16.41061 3.88922,2.0812 14.41104,3.7852 23.38024,3.7852 18.80636,0 24.20798,-6.80172 14.19227,-17.86985 -7.61052,-8.40988 -11.96918,-8.767 -17.34125,-1.41899 -3.23293,4.42016 -3.78279,2.69608 -2.71382,-8.51276 1.26172,-13.23327 0.69768,-14.197 -9.63613,-16.46739 -6.03662,-1.32557 -13.30422,-5.7339 -16.15047,-9.79695 l -5.17341,-7.38584 -14.18991,9.39135 c -18.13588,12.00111 -22.43306,19.7831 -16.92501,30.65138 4.42489,8.73034 8.16156,11.2325 25.48981,17.06925 5.85333,1.9712 10.99126,3.7544 11.41814,3.9614 0.4257,0.2128 0,-1.7856 -1.07607,-4.43082 z m -8.39097,-13.45913 c 1.51951,-11.07404 -0.68584,-13.6637 -11.71258,-13.76776 -9.76976,-0.11824 -10.55257,-0.67402 -5.13084,-3.83009 11.96919,-6.96369 31.67188,12.81704 19.96993,20.04916 -2.08118,1.28655 -3.48835,0.17737 -3.12651,-2.45131 z m 77.86121,-58.25193 c 0,-0.96965 -3.19273,-0.11825 -7.09496,2.02324 -3.90222,2.08828 -7.09495,4.59517 -7.09495,5.57072 0,0.96965 3.19273,0.11825 7.09495,-2.02324 3.90223,-2.08828 7.09496,-4.59517 7.09496,-5.57072 z m 377.80629,-40.54648 c -6.2069,-2.6677 -5.76228,-3.15134 3.54748,-3.86084 5.85333,-0.44935 13.83516,-0.55577 17.73738,-0.2365 5.78121,0.46117 6.11467,-0.11825 1.8033,-2.83798 -2.91011,-1.87543 -9.29557,-2.54945 -14.18991,-1.49703 -6.69054,1.43791 -7.62352,1.01694 -3.7615,-1.67796 4.08906,-2.85927 3.00471,-4.06186 -5.32122,-5.90419 -5.75164,-1.27236 -12.49303,-2.94322 -14.97981,-3.71302 -4.98539,-1.54315 -3.60897,-11.75634 4.7619,-35.36113 2.78831,-7.86121 5.72208,-20.63213 6.51789,-28.37982 4.41779,-42.98714 6.78041,-51.7837 16.77484,-62.48407 9.24118,-9.89273 10.16825,-13.21081 10.16825,-36.40658 0,-36.07547 -4.94282,-39.73647 -35.75147,-26.48309 -19.60099,8.43235 -22.06531,13.34797 -20.34242,40.57367 l 1.11155,17.50325 8.61327,-15.03775 c 13.59511,-23.73617 12.4209,-15.13236 -1.73945,12.74135 -11.3874,22.41651 -12.7177,27.80276 -11.72796,47.49126 0.6149,12.21396 -0.22467,24.36052 -1.87661,26.99393 -4.25461,6.80525 1.04059,60.48673 7.13398,72.26199 4.52066,8.74453 7.00271,9.83597 21.85955,9.61484 12.62665,-0.18919 15.01056,-1.00511 9.66451,-3.29797 z m -23.0586,-3.54748 c 0,-1.95111 1.69096,-3.54748 3.75678,-3.54748 2.06581,0 2.77058,1.59637 1.56444,3.54748 -1.20615,1.95111 -2.89593,3.54748 -3.75678,3.54748 -0.86322,0 -1.56444,-1.59637 -1.56444,-3.54748 z m 2.0398,-121.07172 c -3.7556,-3.65154 -5.14857,-6.63733 -3.09458,-6.63733 4.09497,0 13.55372,10.06656 11.31527,12.04368 -0.76862,0.67403 -4.46509,-1.756 -8.22069,-5.40635 z m 15.69758,-57.82624 c 0,-0.96964 3.19273,-3.48244 7.09496,-5.57072 3.90222,-2.08828 7.09495,-2.9988 7.09495,-2.02324 0,0.96964 -3.19273,3.48244 -7.09495,5.57072 -3.90223,2.08828 -7.09496,2.9988 -7.09496,2.02324 z M 425.42206,680.95219 c 4.10325,-9.29793 14.82727,-21.16543 30.76372,-34.04158 27.31084,-22.06649 31.65296,-31.1705 31.68607,-66.4407 0,-29.54457 -7.59042,-43.78887 -26.08815,-48.77544 -25.42122,-6.85254 -48.319,-1.56799 -91.95651,21.22101 l -39.79796,20.78466 2.8699,17.30696 c 2.78004,16.76419 19.2025,42.51651 22.34911,35.04434 0.81592,-1.95111 9.1856,-17.84262 18.5876,-35.31395 17.85326,-33.17718 27.09562,-42.72463 44.88031,-46.35961 9.01414,-1.84232 8.41816,-1.11154 -3.89868,4.74771 -17.76103,8.456 -23.4027,16.21906 -49.10417,67.56406 l -20.1745,40.30289 7.96172,5.81431 c 10.68736,7.80445 57.16167,32.02426 61.87272,32.2442 2.06345,0.11825 6.5853,-6.24829 10.04882,-14.09886 z m -26.21703,-6.59121 c 0,-1.95111 1.59636,-4.53486 3.54747,-5.73982 1.95112,-1.20614 3.54748,-0.59124 3.54748,1.35514 0,1.95111 -1.59636,4.53368 -3.54748,5.73982 -1.95111,1.20496 -3.54747,0.59124 -3.54747,-1.35514 z m 14.06101,-45.66312 c 6.98735,-14.17808 26.70541,-30.86778 43.78887,-37.06522 21.68455,-7.86476 21.53555,-4.62 -0.20102,4.45918 -9.70235,4.0524 -23.35659,14.15561 -32.18862,23.81894 -8.43472,9.23053 -13.56319,13.18479 -11.39686,8.7871 z m -67.27317,-36.34745 c -4.28062,-2.76703 -3.72012,-3.44933 2.86991,-3.49308 4.56797,0 7.22148,1.51477 5.99878,3.49308 -2.63695,4.26525 -2.26802,4.26525 -8.86869,0 z m 112.63239,-52.01429 c 2.4383,-0.98147 6.4304,-0.98147 8.8687,0 2.4383,0.98147 0.43752,1.78911 -4.43435,1.78911 -4.87778,0 -6.87264,-0.80409 -4.43435,-1.78911 z m -229.802,91.17489 c 2.86991,-1.81513 4.46627,-3.8703 3.54747,-4.56679 -0.92234,-0.69767 -6.44458,-4.26525 -12.279,-7.92861 l -10.60932,-6.66216 11.49619,-4.69095 c 13.94513,-5.69015 14.14971,-6.45049 2.00551,-7.45561 -5.21834,-0.43752 -12.41499,-3.43396 -15.99203,-6.67044 -6.07682,-5.49977 -6.11585,-6.31333 -0.60307,-12.40434 5.58373,-6.17025 5.40045,-6.51908 -3.43041,-6.51908 -8.36968,0 -9.12174,1.04059 -7.30307,10.13159 1.51596,7.58214 0.473,10.72757 -4.13872,12.49776 -4.96647,1.90618 -5.36615,1.40362 -2.05399,-2.58729 3.61133,-4.35157 2.25856,-16.49459 -1.83759,-16.49459 -3.5262,0 -19.0062,11.70076 -19.0062,14.3661 0,1.59991 8.88406,11.79182 19.74289,22.65064 19.50048,19.50048 29.23712,23.43109 40.46134,16.33377 z m 292.0756,-14.13433 c 12.08862,-1.88489 32.67581,-3.89631 45.75062,-4.47101 23.47602,-1.02876 23.73972,-1.15884 21.28487,-9.91283 -4.30546,-15.35821 -1.95939,-38.86024 4.60226,-46.11129 8.76463,-9.68461 35.12711,-19.0464 45.96938,-16.32548 23.40862,5.87462 -0.95781,-26.32583 -24.95768,-32.99154 -26.87923,-7.46271 -43.60204,-4.92626 -79.53916,12.0626 -18.53557,8.76227 -38.13183,15.93882 -43.54765,15.9471 l -9.84661,0 5.85925,11.33064 c 4.66612,9.02241 5.50568,18.09804 4.12335,44.53739 -1.44855,27.68924 -0.89869,32.88511 3.29324,31.27574 2.76585,-1.06425 14.92069,-3.47298 27.00813,-5.35788 z M 498.53438,595.5597 c 0,-1.76547 7.4497,-3.20929 16.55489,-3.20929 9.10519,0 15.88915,0.57942 15.07678,1.28537 -3.57349,3.10877 -31.63167,4.81511 -31.63167,1.92392 z m 63.86759,-1.72171 c 0,-7.1458 13.49815,-31.72864 16.02041,-29.20756 0.80409,0.80409 -2.47496,9.23644 -7.28652,18.73895 -4.96765,9.81232 -8.74098,14.33536 -8.73389,10.46861 z m -62.46161,-38.70771 c -2.14149,-6.84426 -2.56719,-12.44455 -0.94599,-12.44455 3.41858,0 7.91915,15.65502 6.08392,21.16189 -0.68584,2.05044 -2.99643,-1.87189 -5.13911,-8.71734 z m -170.30727,39.88074 c -1.09972,-6.34171 -2.60148,-13.52535 -3.34645,-15.96365 -1.61292,-5.27628 -17.9526,-5.96331 -21.08975,-0.88687 -1.20614,1.95112 -3.78871,3.54748 -5.73982,3.54748 -1.95111,0 -2.61094,-1.51595 -1.46629,-3.36892 3.82891,-6.19508 -20.85916,-7.39294 -52.37022,-2.54236 -32.24893,4.96529 -44.09159,10.58331 -34.63283,16.42837 6.59712,4.07841 40.22838,7.43551 60.50458,6.04017 8.77764,-0.60307 22.34674,0.91052 30.15355,3.35118 7.80563,2.44658 17.74567,4.55614 22.08659,4.68622 6.97907,0.21285 7.66255,-1.09972 5.90064,-11.29162 z m -36.57212,-4.72997 c 0.16555,-4.13281 1.01694,-4.97356 2.14268,-2.14386 1.02876,2.56128 0.89869,5.62039 -0.2838,6.79933 -1.1825,1.18249 -2.01615,-0.91052 -1.86243,-4.65547 z m -67.68231,-1.47812 c -4.13163,-2.67006 -3.0934,-3.45169 4.64364,-3.49308 5.75046,0 9.03779,1.44501 7.77253,3.49308 -2.7221,4.40479 -5.60029,4.40479 -12.41617,0 z m 456.32496,-44.34346 c -0.57942,-5.85333 0.3311,-13.43666 2.02443,-16.85051 2.56719,-5.1876 1.39061,-6.20809 -7.14462,-6.20809 -5.71262,0 -13.0488,-3.12887 -16.63885,-7.09495 -6.72956,-7.4367 -14.24785,-9.19506 -17.41338,-4.0725 -1.02877,1.66258 1.32675,9.24472 5.23134,16.85051 3.90578,7.60461 6.30742,17.061 5.33896,21.01289 -1.57035,6.40674 -0.11825,7.17536 13.94395,7.09495 15.30145,-0.11825 15.67866,-0.36657 14.65817,-10.7323 z m -23.46183,-14.27623 c 2.46786,-2.97396 5.21834,-4.67675 6.11112,-3.78279 2.45958,2.45958 -2.53881,9.19033 -6.82534,9.19033 -2.35316,0 -2.08356,-2.03625 0.70949,-5.40754 z M 78.158361,527.69528 c 2.336605,-2.2562 0.827744,-5.27155 -4.434346,-8.83913 -9.893913,-6.71301 -10.02517,-11.63809 -0.626721,-23.58363 l 7.351554,-9.34642 -12.548608,0 c -15.04485,0 -22.524113,-9.74019 -16.345591,-21.28486 4.760714,-8.89589 -1.61765,-9.47886 -19.938003,-1.82458 -14.822541,6.19389 -14.316434,14.66172 0.804095,13.3456 l 10.269946,-0.89869 -10.11504,5.62985 -10.113856,5.62984 7.828099,5.4844 c 4.306637,3.01536 10.076017,10.86119 12.822946,17.43585 3.528557,8.44536 7.321993,11.98338 12.928189,12.06024 7.243948,0.11825 7.378752,0.43752 1.540787,3.82773 -7.656638,4.45445 -16.664864,-1.46275 -16.664864,-10.94752 0,-6.8147 -15.309728,-24.91511 -21.073195,-24.91511 -2.022062,0 -3.295606,-3.59241 -2.830887,-7.98182 0.532122,-5.07644 -1.076068,-7.98183 -4.427251,-7.98183 -9.5143335,0 -8.1024376,12.8537 2.672433,24.32032 5.763467,6.13477 13.407097,16.28529 16.985319,22.55604 3.578222,6.27076 8.989307,11.98693 12.023582,12.70115 8.263256,1.94639 29.853201,-1.48875 33.898507,-5.39216 z m 489.459589,-51.1759 c 3.85137,-13.36217 7.29952,-28.28522 7.66373,-33.163 2.10838,-28.25211 6.21518,-53.2118 8.75754,-53.2118 1.60937,0 6.97434,-5.95858 11.92307,-13.24036 13.79022,-20.29394 11.77998,-63.80256 -3.2152,-69.55657 -5.34723,-2.05162 -27.69161,5.34723 -42.36161,14.02673 -7.76542,4.59516 -12.27072,35.67934 -6.63141,45.75417 3.00471,5.37088 4.57624,4.23687 11.70667,-8.44891 4.52895,-8.05868 9.4895,-14.65226 11.02201,-14.65226 1.53251,0 -2.74929,9.17851 -9.51551,20.39799 -6.76741,11.21831 -13.03343,25.18709 -13.92385,31.04043 -3.51437,23.07125 -4.26643,47.55475 -1.40717,45.78693 1.65904,-1.02877 3.01536,-0.17738 3.01536,1.89435 0,2.06581 -1.59637,3.75678 -3.54748,3.75678 -3.83245,0 -4.85649,42.64422 -1.33976,55.76397 1.95348,7.2877 2.80842,7.51119 11.48082,3.00944 7.28178,-3.77924 10.93096,-10.2794 16.37279,-29.15789 z m -10.7595,-73.84629 c -3.78634,-2.86518 -5.0859,-5.25973 -2.88528,-5.32122 2.19943,-0.11825 5.98695,2.28221 8.41579,5.20888 5.60738,6.75676 3.31571,6.80288 -5.53051,0.11825 z m -379.97144,70.55305 c 11.37676,-2.77058 26.23478,-5.03742 33.01755,-5.03742 6.78278,0 19.48629,-1.80212 28.23082,-4.00392 14.67473,-3.69529 15.47646,-4.46864 10.42604,-10.04882 -3.00944,-3.32635 -8.0102,-13.49697 -11.11306,-22.60334 -3.10286,-9.10637 -6.35354,-16.55607 -7.22385,-16.55607 -0.87504,0 -8.30228,3.45169 -16.51705,7.66964 -9.74847,5.00786 -25.40467,8.57543 -45.08843,10.27586 -23.96794,2.07054 -35.59184,5.22661 -56.65912,15.38777 -14.578954,7.0311 -31.046342,12.78393 -36.595779,12.78393 -14.512728,0 -23.505582,5.72562 -21.433855,13.6495 1.621197,6.19863 5.130834,6.54155 52.006014,5.08354 27.64667,-0.86322 59.57515,-3.82891 70.95072,-6.60067 z m -1.17066,-11.97037 c 0,-3.48954 13.74056,-8.8888 16.24626,-6.38428 0.83957,0.83957 -2.47614,3.34291 -7.3622,5.56954 -4.88606,2.22663 -8.88406,2.59321 -8.88406,0.81592 z m 31.92729,-23.2206 c -2.46313,-2.96924 -2.84744,-5.32122 -0.86322,-5.32122 1.95111,0 5.53524,2.39455 7.96408,5.32122 2.46314,2.96805 2.84745,5.32121 0.86322,5.32121 -1.95111,0 -5.53524,-2.39455 -7.96408,-5.32121 z m 115.293,22.93207 c 15.6089,-7.64245 39.73292,-20.25136 53.60829,-28.01916 l 25.22729,-14.1225 4.22504,-21.47371 c 2.3236,-11.81073 3.33108,-22.91906 2.23846,-24.68689 -1.08789,-1.76664 -0.31927,-10.99008 1.72053,-20.49496 2.95977,-13.80086 2.62158,-19.88006 -1.67796,-30.17011 l -5.38507,-12.88798 -34.65649,1.9523 c -38.26308,2.15568 -46.84088,5.10245 -75.45365,25.9285 -45.16411,32.87093 -56.75963,43.47552 -56.75963,51.90787 0,4.5857 0.57942,8.33894 1.28419,8.33894 4.76544,0 58.27795,-29.73969 62.5704,-34.77356 7.90259,-9.26955 22.12206,-18.46107 28.28285,-18.28251 2.97988,0.11825 -0.473,3.26604 -7.66373,7.06657 -7.19429,3.80053 -15.17611,9.89747 -17.73739,13.55018 -2.56009,3.65272 -17.89584,13.29713 -34.07943,21.43149 -16.1824,8.13555 -30.299,17.07401 -31.36915,19.86233 -3.99801,10.41858 10.10321,41.74517 25.90249,57.54327 18.02355,18.02473 17.39801,18.05311 59.72296,-2.67007 z M 291.45041,443.2334 c -5.12019,-6.0851 -9.30976,-12.89389 -9.30976,-15.12881 0,-2.23609 2.62868,-0.11824 5.84033,4.70632 3.21165,4.82457 8.28336,10.75004 11.27034,13.16942 2.98697,2.4182 4.54786,5.27983 3.46943,6.35708 -1.07607,1.07607 -6.14896,-3.0189 -11.27034,-9.10401 z m -8.16037,-34.34159 c 1.27236,-2.05871 19.49338,-10.5833 40.4909,-18.94352 20.99751,-8.36141 41.32692,-17.3247 45.17593,-19.91909 10.21555,-6.88801 15.61481,-5.78475 5.69489,1.17067 -4.61882,3.23412 -25.32781,12.89981 -46.02024,21.47761 -20.69243,8.57662 -39.87955,16.57854 -42.63831,17.77877 -3.00471,1.30748 -4.08906,0.68585 -2.70317,-1.55852 z M 55.102126,456.59793 c 19.084243,0.34292 19.297092,0.24832 9.755561,-4.782 -10.73703,-5.65586 -12.925823,-12.00703 -4.138723,-12.00703 7.187189,0 4.540771,-8.50566 -3.108772,-9.98851 -9.56518,-1.85533 -37.982835,16.79494 -37.982835,24.9293 0,5.91365 1.400071,6.67281 7.981823,4.33147 4.390594,-1.56207 16.761828,-2.67952 27.492946,-2.48323 z m 53.965404,-11.6239 c 12.0224,-5.79894 12.64084,-6.78041 7.09496,-11.26442 -5.61448,-4.53959 -5.53762,-4.77018 1.01694,-3.04255 3.90222,1.02876 24.20325,0.47299 45.11208,-1.21797 32.99035,-2.67835 40.26268,-4.48046 54.98589,-13.63059 13.31014,-8.27118 16.76065,-12.32003 16.00504,-18.77762 -1.31021,-11.19939 -1.52187,-11.26679 -16.11501,-5.16986 -7.61998,3.18445 -24.07909,5.41345 -40.45424,5.47849 -29.77043,0.11825 -32.52918,1.12336 -87.63333,31.71172 -25.371555,14.08703 -27.351047,15.93527 -20.397993,19.03813 4.235688,1.88962 7.701573,4.67675 7.701573,6.19389 0,3.43041 15.286078,-0.92234 32.68054,-9.31922 z m -34.454281,1.92983 c -1.206142,-1.95111 -0.496647,-3.54748 1.564437,-3.54748 2.065814,0 3.756778,1.59637 3.756778,3.54748 0,1.95111 -0.709495,3.54747 -1.564437,3.54747 -0.863219,0 -2.550636,-1.59636 -3.756778,-3.54747 z m 92.508741,-24.38891 c -1.05242,-1.70752 2.04335,-3.10404 6.88565,-3.10404 4.84231,0 8.80366,1.39652 8.80366,3.10404 0,1.70634 -3.09813,3.10405 -6.88565,3.10405 -3.78753,0 -7.74888,-1.39771 -8.80366,-3.10405 z m 47.89685,-16.70235 c 0.16555,-4.13281 1.00512,-4.97356 2.14268,-2.14385 1.02877,2.56127 0.89869,5.62038 -0.2838,6.79933 -1.18249,1.18249 -2.01615,-0.91052 -1.86243,-4.65548 z m 231.88674,-6.64087 c 18.62426,-6.74139 43.84564,-13.96169 56.04896,-16.04406 40.25676,-6.87146 37.03684,-4.33265 35.33405,-27.86543 -1.96176,-27.12046 2.45485,-34.66949 26.80119,-45.81566 16.50641,-7.55731 21.50362,-8.44418 29.84847,-5.29402 11.46426,4.32674 12.45755,1.66022 4.85768,-13.0358 -6.05082,-11.70076 -22.42006,-20.24001 -49.05333,-25.58878 -18.87494,-3.79047 -19.67194,-3.59312 -70.2365,17.38465 -28.13031,11.67002 -55.53575,22.24268 -60.90072,23.49612 -10.51354,2.45604 -11.79418,5.89473 -6.13477,16.46976 3.70239,6.91758 -0.47299,69.66062 -5.4773,82.34285 -3.37365,8.54788 0.11825,8.01339 38.91227,-6.04963 z m 67.26135,-42.66314 c 2.73983,-10.91795 12.89862,-26.38614 17.44176,-26.55996 1.60464,-0.11825 -0.39022,4.09497 -4.43435,9.23526 -4.04412,5.14148 -7.35273,12.23052 -7.35273,15.75435 0,3.52383 -1.82932,7.53839 -4.06541,8.91954 -2.88174,1.78201 -3.34409,-0.35475 -1.58927,-7.34919 z m -57.31304,-19.09252 c -8.29164,-8.52341 -15.07678,-16.21907 -15.07678,-17.10121 0,-3.67045 22.01565,14.43469 27.23044,22.39286 8.90416,13.5892 4.2416,11.56005 -12.15366,-5.29165 z m -32.64861,-8.46547 c -2.71619,-6.3417 -5.7209,-13.12566 -6.67635,-15.07677 -0.95782,-1.95111 0.79227,-1.46038 3.88448,1.08789 6.18799,5.106 14.43823,25.51345 10.31488,25.51345 -1.42253,0 -4.80801,-5.18877 -7.52301,-11.5293 z m 33.53548,-22.07713 c 9.75556,-2.54236 30.36404,-7.99364 45.79793,-12.11463 15.4327,-4.1198 35.38726,-7.33737 44.34346,-7.14817 13.41656,0.2838 10.97589,1.18486 -13.87064,5.12374 -16.58445,2.62868 -39.58274,8.06224 -51.10731,12.07325 -11.52339,4.00983 -25.89067,7.15644 -31.9273,6.98971 -9.22225,-0.24832 -8.14382,-1.04059 6.76386,-4.9239 z m 201.38317,10.41894 c 7.28179,-4.94754 13.23918,-10.70392 13.23918,-12.7922 0,-2.0871 3.99092,-6.93532 8.8687,-10.77132 4.87778,-3.83719 8.86869,-9.25537 8.86869,-12.04014 0,-3.70948 -1.8979,-3.16671 -7.09496,2.03152 -3.9034,3.90223 -12.28136,7.27824 -18.62425,7.5041 -22.68138,0.80409 -22.15281,0.3784 -22.48982,18.21511 -0.17737,9.26719 0.65037,16.85052 1.83759,16.85052 1.18486,0 8.11308,-4.04886 15.39487,-8.99759 z M 643.9833,297.91018 c 0,-1.95111 1.59636,-3.54748 3.54748,-3.54748 1.95111,0 3.54747,1.59637 3.54747,3.54748 0,1.95111 -1.59636,3.54748 -3.54747,3.54748 -1.95112,0 -3.54748,-1.59637 -3.54748,-3.54748 z m -7.72404,9.77685 c 0.11825,-7.30544 1.05242,-14.68774 2.11548,-16.40708 1.06424,-1.71935 -1.92392,-3.12533 -6.63615,-3.12533 -4.71223,0 -12.87971,-3.39257 -18.15126,-7.53839 -14.46661,-11.38019 -27.81931,-8.4087 -13.94749,3.10404 2.92667,2.42884 5.32121,6.61487 5.32121,9.30267 0,6.08392 4.27826,6.27431 10.14342,0.44935 3.58177,-3.55576 3.99801,-3.20456 2.10365,1.77374 -1.30074,3.41385 -3.7887,6.20808 -5.53169,6.20808 -1.74182,0 -3.1679,4.38941 -3.1679,9.75556 0,8.96802 1.11154,9.75556 13.78431,9.75556 13.52653,0 13.78668,-0.24832 13.96642,-13.28175 z M 339.17344,729.10908 c 8.5033,-6.72957 16.3113,-11.33183 17.34953,-10.2262 1.04059,1.09972 -1.0406,3.8159 -4.62,6.02598 -3.57941,2.21008 -9.80996,6.81234 -13.8458,10.22738 -4.03585,3.41385 -8.91363,6.20808 -10.84109,6.20808 -1.92747,0 3.45406,-5.50568 11.95736,-12.23524 z M 690.1005,532.0433 c 0,-1.95111 1.59636,-3.54747 3.54748,-3.54747 1.95111,0 3.54747,1.59636 3.54747,3.54747 0,1.95112 -1.59636,3.54748 -3.54747,3.54748 -1.95112,0 -3.54748,-1.59636 -3.54748,-3.54748 z"
       id="path4012"
       inkscape:connector-curvature="0" />
  </g>
</svg>
