<?xml version="1.0" encoding="UTF-8" standalone="no"?>
<!-- Created with Inkscape (http://www.inkscape.org/) -->

<svg
   xmlns:dc="http://purl.org/dc/elements/1.1/"
   xmlns:cc="http://creativecommons.org/ns#"
   xmlns:rdf="http://www.w3.org/1999/02/22-rdf-syntax-ns#"
   xmlns:svg="http://www.w3.org/2000/svg"
   xmlns="http://www.w3.org/2000/svg"
   xmlns:sodipodi="http://sodipodi.sourceforge.net/DTD/sodipodi-0.dtd"
   xmlns:inkscape="http://www.inkscape.org/namespaces/inkscape"
   width="210mm"
   height="297mm"
   viewBox="0 0 744.09448819 1052.3622047"
   id="svg4156"
   version="1.1"
   inkscape:version="0.91 r13725"
   sodipodi:docname="situps.svg">
  <defs
     id="defs4158" />
  <sodipodi:namedview
     id="base"
     pagecolor="#ffffff"
     bordercolor="#666666"
     borderopacity="1.0"
     inkscape:pageopacity="0.0"
     inkscape:pageshadow="2"
     inkscape:zoom="0.7"
     inkscape:cx="2016.5297"
     inkscape:cy="120.84792"
     inkscape:document-units="px"
     inkscape:current-layer="layer1"
     showgrid="false"
     inkscape:window-width="3200"
     inkscape:window-height="1699"
     inkscape:window-x="0"
     inkscape:window-y="50"
     inkscape:window-maximized="1" />
  <metadata
     id="metadata4161">
    <rdf:RDF>
      <cc:Work
         rdf:about="">
        <dc:format>image/svg+xml</dc:format>
        <dc:type
           rdf:resource="http://purl.org/dc/dcmitype/StillImage" />
        <dc:title></dc:title>
      </cc:Work>
    </rdf:RDF>
  </metadata>
  <g
     inkscape:label="Layer 1"
     inkscape:groupmode="layer"
     id="layer1">
    <path
       style="fill:#000000"
       d="m 487.93794,882.72629 c -3.40507,-2.23153 -12.07528,-4.08609 -19.2679,-4.12048 -7.19124,0 -16.10084,-1.22445 -19.79758,-2.64289 -7.28066,-2.79422 -26.35871,-41.26949 -41.69598,-84.095 -12.11244,-33.81685 -21.20226,-36.50514 -49.74435,-14.70992 -17.71188,13.52261 -21.46641,14.69203 -46.53188,14.48154 -14.99746,-0.13758 -46.76851,-3.59631 -70.60403,-7.71129 -23.83551,-4.11498 -44.7296,-6.6877 -46.43282,-5.71777 -1.70185,0.96305 -3.09552,-0.4265 -3.09552,-3.09002 0,-3.0171 3.51101,-3.91136 9.28656,-2.3636 5.1083,1.36203 30.23843,5.41097 55.84459,8.98251 l 46.55939,6.49647 16.40351,-12.99294 c 9.02242,-7.14583 18.9501,-16.62639 22.06213,-21.07018 5.18397,-7.40173 5.88424,-7.48566 8.37029,-1.01808 1.49135,3.88797 0.68789,9.07882 -1.7954,11.53735 -3.25099,3.22347 -3.69537,2.16824 -1.59179,-3.78617 2.03066,-5.74666 -2.5796,-3.23722 -15.16943,8.25473 -9.94694,9.0802 -18.88818,16.97446 -19.86912,17.54129 -0.97681,0.56407 3.78066,1.03184 10.5798,1.03184 6.91334,0 20.85969,-5.62835 31.64586,-12.77281 l 19.28304,-12.77281 -9.28932,-13.0232 c -7.75944,-10.87835 -9.20401,-17.9953 -8.77064,-43.21761 0.46777,-27.13328 1.6991,-31.42574 12.14958,-42.33298 15.63445,-16.31959 9.99509,-21.05642 -27.92573,-23.4613 l -30.1435,-1.91234 -28.20089,23.1545 c -15.51063,12.73566 -30.90844,23.1545 -34.21583,23.1545 -3.3074,0 -13.29424,3.71462 -22.19421,8.25472 -8.89996,4.5401 -19.8361,8.25473 -24.30466,8.25473 -15.45421,0 -21.09632,11.02556 -21.09632,41.22409 0,18.31585 1.74312,28.83375 4.95559,29.90549 3.76002,1.25196 3.78892,2.37323 0.13758,4.63915 -3.02536,1.8697 -5.77143,-0.74292 -7.33708,-6.98074 -3.01435,-12.012 -17.47387,-19.57608 -45.20424,-23.64566 -11.35025,-1.66608 -24.57569,-4.30071 -29.38957,-5.85398 -12.273401,-3.96226 -16.536966,13.89821 -7.49254,31.38722 8.05661,15.57941 4.878542,19.66 -19.537556,25.08335 C 36.199545,805.33 28.123673,805.28185 16.93577,796.48781 7.1924444,788.8233 5.9418537,784.44555 3.3292335,748.85393 1.533831,724.39105 2.0359934,706.70118 4.6637473,701.78687 c 4.3805069,-8.18594 25.2443217,-13.61892 56.6521717,-14.7512 14.385232,-0.52279 16.000406,0.19262 10.318405,4.51121 -3.706371,2.82037 -10.80681,5.18672 -15.780281,5.25964 -9.53971,0.13758 -18.025566,8.34002 -8.741753,8.44871 3.933376,0 3.720129,1.16942 -0.784199,4.12736 -5.503149,3.61282 -5.503149,4.51533 0,8.12815 3.802676,2.49705 4.280075,4.08884 1.238209,4.12736 -2.724059,0 -6.953229,-3.18632 -9.398004,-7.15959 -3.854956,-6.26672 -4.292456,-5.87599 -3.300513,2.95794 0.852988,7.55307 4.654288,11.18377 14.74844,14.06605 10.228979,2.92079 12.900758,5.51553 10.766912,10.45598 -7.564079,17.50827 -6.324495,27.62031 4.746466,38.69127 6.169031,6.16903 14.214635,11.08609 17.876981,10.9265 5.144069,-0.22012 4.780861,-1.18318 -1.594538,-4.19065 -6.83216,-3.22759 -6.298354,-3.52064 3.095522,-1.69497 13.204807,2.56585 13.499225,1.66746 4.897803,-14.96719 -3.988408,-7.71128 -5.466003,-16.97033 -3.87009,-24.23862 2.025159,-9.22052 0.963051,-12.16196 -4.897803,-13.62442 -4.113604,-1.01808 -0.976809,-0.92178 6.965611,0.22013 7.945172,1.15566 19.496283,2.11183 25.669443,2.1421 6.17316,0 10.24273,1.64269 9.04305,3.58255 -1.19694,1.94123 3.27437,3.52889 9.94144,3.52889 6.66569,0 18.84828,2.81073 27.07136,6.24608 l 14.94931,6.24745 0,-18.2911 c 0,-10.06113 1.21069,-21.44577 2.68966,-25.30073 2.3017,-5.99843 1.44871,-6.34375 -5.92001,-2.40074 -11.72996,6.27771 -16.97721,5.58569 -8.19832,-1.08688 12.12482,-9.20814 -18.69695,-16.60437 -57.48727,-13.79502 -21.376983,1.54914 -26.653128,1.2107 -15.694982,-0.99056 24.863232,-5.00787 67.900612,-7.30406 65.546632,-3.49588 -1.1419,1.84218 2.80661,5.20323 8.76652,7.46915 13.79777,5.24588 19.7343,5.24313 16.48881,-0.008 -1.4033,-2.27005 -6.46482,-4.12737 -11.24981,-4.12737 -4.78499,0 -7.47053,-1.22445 -5.96817,-2.73093 1.50236,-1.50236 10.25925,-0.24765 19.45914,2.78872 15.24923,5.03263 18.36401,4.7272 35.21328,-3.46011 10.16707,-4.93907 22.10615,-8.97976 26.53068,-8.97976 4.42316,0 13.95874,-6.5006 21.1885,-14.44577 7.22976,-7.94517 14.87639,-14.44577 16.99098,-14.44577 2.11458,0 8.56702,-3.71462 14.33845,-8.25472 12.671,-9.9662 48.16769,-10.98429 73.12035,-2.09532 13.95186,4.97071 22.19695,4.97622 57.78307,0 22.82981,-3.16432 57.47489,-7.01514 76.98906,-8.55878 33.10694,-2.61812 37.19441,-2.03616 61.10009,8.69223 27.66708,12.41648 41.68635,26.35183 41.68635,41.43871 0,5.23625 1.51062,10.45186 3.35693,11.59376 1.8463,1.1419 15.96876,-2.50256 31.3817,-8.09788 l 28.02479,-10.17257 19.17848,11.75472 c 28.5806,17.51653 37.86579,33.45778 34.88309,59.8894 -2.48192,22.00159 -9.82313,40.67103 -21.00965,53.42595 -5.27615,6.01632 -12.64624,7.15272 -42.83927,6.60516 -20.05623,-0.35771 -36.46662,-2.03892 -36.46662,-3.72288 0,-1.68397 -7.3068,-5.98605 -16.23704,-9.55897 -13.71385,-5.48664 -16.44066,-8.60418 -17.54129,-20.05348 -1.16942,-12.21149 -2.73644,-13.6767 -15.75001,-14.78008 l -14.44577,-1.22446 1.38404,22.37581 1.38404,22.37581 26.52381,7.18023 c 14.58747,3.94851 27.7345,9.13936 29.21622,11.53598 1.69222,2.74057 0,3.34866 -4.39014,1.63994 -4.58412,-1.75826 -6.09611,-1.12815 -4.28695,1.80503 1.8807,3.04324 -0.41274,3.63758 -7.00826,1.81879 -8.23822,-2.27143 -8.65921,-1.98389 -2.63601,1.79678 5.023,3.15193 9.5741,3.21109 15.20658,0.19261 9.83688,-5.26514 12.70814,-5.40547 12.70814,-0.61911 0,7.13484 -19.94754,8.56841 -34.51712,2.48055 -18.3021,-7.64663 -19.44813,-7.64525 -16.50395,0 2.68966,7.01101 -3.41333,8.03872 -14.04129,2.36498 -3.94163,-2.10358 -10.09827,-4.70932 -13.68082,-5.78932 -3.63208,-1.10063 -10.34042,-13.55288 -15.16256,-28.16099 -8.11026,-24.56881 -9.37324,-26.1262 -20.3135,-25.04621 -6.41529,0.63287 -20.91334,-1.63443 -32.21543,-5.03951 -11.3021,-3.40507 -22.04975,-4.69143 -23.8823,-2.85888 -7.17335,7.17335 -7.66313,32.6378 -1.05935,55.33829 5.61596,19.31606 8.51612,23.66767 15.86558,23.80112 12.82784,0.23389 65.79703,21.61087 67.69011,27.32039 1.46521,4.41352 -3.11753,5.9489 -34.96426,11.71896 -6.24195,1.12814 -14.13621,0.23388 -17.54129,-2.0004 z m 21.82687,-6.83491 c 6.51573,1.63443 11.05858,0.70165 12.29954,-2.53695 1.25197,-3.24824 -2.00315,-5.239 -8.85594,-5.42611 -5.95304,-0.16509 -14.53932,-1.90271 -19.07942,-3.86734 -7.35909,-3.18632 -7.63975,-2.81761 -2.59061,3.38994 3.11616,3.8302 3.80818,6.96424 1.53813,6.96424 -2.27005,0 -6.25983,-2.5686 -8.86557,-5.70952 -6.56526,-7.9094 4.52771,-11.86066 18.44518,-6.56938 5.78381,2.19988 9.53145,2.40212 8.32489,0.45401 -1.2107,-1.95087 -11.06409,-5.80032 -21.90529,-8.55465 -10.8412,-2.75295 -22.82844,-6.65468 -26.63937,-8.67159 -4.56624,-2.41588 -7.71954,-1.95774 -9.24804,1.34828 -1.27949,2.7557 -1.307,0.92177 -0.13758,-4.07233 1.22445,-4.99686 0.2614,-16.44342 -2.16412,-25.43694 -4.99685,-18.55662 -1.15566,-75.96134 4.84002,-72.25772 2.10358,1.30699 2.91943,4.7272 1.81192,7.61498 -3.39682,8.85044 44.96623,19.67376 68.21428,15.26436 38.83023,-7.36321 63.86818,-38.76418 58.29487,-73.10796 -2.56172,-15.78992 0.50904,-17.71739 11.8524,-7.44852 7.11833,6.44144 7.54757,6.25158 7.54757,-3.33903 0,-14.39624 -6.84729,-21.51732 -35.08257,-36.48451 -24.10793,-12.77831 -25.74924,-13.05622 -61.91043,-10.46699 -20.43045,1.46109 -56.64805,5.46601 -80.48356,8.89859 -55.2186,7.95206 -64.15847,14.89565 -68.23906,53.00084 -2.30719,21.54345 -1.34827,28.43477 6.00119,42.82826 7.42512,14.55583 10.68987,17.15194 21.56409,17.15194 11.78224,0 12.62973,-0.90802 10.5234,-11.35025 -1.26573,-6.24195 -3.55366,-14.61499 -5.0973,-18.60477 -4.33097,-11.19616 24.56194,-37.21505 53.82081,-48.46761 18.22505,-7.00826 33.8705,-9.62776 59.24828,-9.91943 34.4731,-0.39898 34.48823,-0.39898 46.43282,13.89408 16.16,19.32568 16.49707,42.42102 0.85299,58.74474 -9.17925,9.58098 -14.55583,11.57588 -31.19873,11.57588 -12.35457,0 -19.12482,-1.59179 -17.5578,-4.12737 1.42256,-2.30169 -1.6647,-4.09984 -6.97937,-4.06407 -6.8184,0 -7.95893,1.05935 -4.00629,3.56466 3.52889,2.23703 -0.75668,3.50138 -11.87992,3.50138 l -17.40371,0 13.38641,-5.62834 c 15.83256,-6.65744 27.47585,-7.22014 31.01024,-1.50099 7.7732,12.57745 51.59203,-3.53302 51.59203,-18.96798 0,-5.01474 -1.84218,-4.87029 -11.35025,0.89426 l -11.35024,6.87481 11.9776,-10.19321 c 13.4442,-11.44242 13.07548,-23.3705 -1.26572,-41.02322 -7.421,-9.1311 -10.42434,-9.73232 -43.48314,-8.72112 -26.7398,0.81172 -42.1156,3.72976 -62.24887,11.7905 -29.05113,11.62953 -49.76223,31.14645 -44.98274,42.38801 1.55326,3.65546 4.43141,16.18613 6.39465,27.84731 1.96325,11.66117 9.30858,34.87758 16.32372,51.59202 7.01377,16.71444 15.59868,37.19579 19.07529,45.5138 6.56801,15.71012 14.1995,19.80446 37.09261,19.90214 7.24352,0 14.44026,2.11183 15.99352,4.62402 2.0059,3.24686 3.73939,3.08589 5.99156,-0.56407 1.93986,-3.13817 7.17473,-4.12048 13.49922,-2.53283 z m -63.10049,-13.27085 c 0,-4.24292 12.50178,-10.09827 15.38956,-7.2105 1.00433,1.00433 -2.04717,3.90036 -6.78125,6.43318 -4.73822,2.53558 -8.60831,2.88503 -8.60831,0.77045 z m -13.92847,-78.91928 c -9.31408,-23.27833 -7.87913,-26.74256 1.92473,-4.64604 4.42728,9.97859 7.31368,18.87856 6.4153,19.77694 -0.89427,0.89427 -4.65154,-5.91038 -8.34003,-15.1309 z m -19.09042,-57.87112 c 0,-2.27005 1.96737,-4.12737 4.37087,-4.12737 2.4035,0 3.22347,1.85732 1.82017,4.12737 -1.4033,2.27005 -3.3693,4.12736 -4.37088,4.12736 -1.00432,0 -1.82016,-1.85731 -1.82016,-4.12736 z m 33.70541,-7.74293 c -3.65409,-2.31683 -1.36203,-3.33629 6.81703,-3.03224 6.77713,0.24764 11.46581,1.85043 10.42021,3.55228 -2.50118,4.07096 -10.36931,3.83295 -17.23724,-0.5228 z m 36.45974,-3.44635 c 0,-2.37048 3.25099,-6.8583 7.22289,-9.97446 6.68082,-5.239 6.76887,-5.04501 1.16941,2.59061 -3.33078,4.5401 -6.58039,9.02929 -7.22288,9.97446 -0.64662,0.94929 -1.16942,-0.22013 -1.16942,-2.59061 z m -10.3184,-25.95698 c -5.44262,-2.33884 -6.14565,-3.62383 -2.06368,-3.77379 3.40507,-0.13758 8.97701,1.5739 12.38208,3.77379 7.54482,4.87579 1.03184,4.87579 -10.3184,0 z m 80.48356,-31.34594 c -10.21522,-5.27339 -17.1203,-9.66353 -15.34554,-9.75708 6.114,-0.33019 30.85204,11.37638 33.65864,15.91785 1.54639,2.50119 2.23703,4.29659 1.53538,3.98841 -0.70165,-0.30267 -9.63326,-4.87579 -19.84848,-10.14918 z m -80.48356,-3.88522 c 6.81014,-3.11891 15.16805,-5.61322 18.57313,-5.54168 3.40507,0.13758 -0.31644,2.63051 -8.25473,5.69026 -18.84416,7.25728 -26.25828,7.14997 -10.3184,-0.15134 z m 88.87586,166.50466 c -6.41805,-6.88994 -9.58786,-7.90803 -13.24195,-4.25394 -3.65409,3.6541 -2.41313,5.76043 5.18121,8.79541 15.5065,6.19793 17.18634,5.25276 8.06074,-4.54147 z m 26.69027,0.79796 c -1.4033,-2.27005 -7.54894,-4.15626 -13.65744,-4.19065 -8.68672,0 -9.75846,-0.93554 -4.91569,-4.06408 5.00649,-3.23585 4.41353,-4.01317 -3.09552,-4.06407 -8.49686,0 -9.28656,-1.99214 -9.28656,-22.76378 0,-12.48527 -0.71541,-22.70049 -1.59041,-22.70049 -0.86675,0 -6.99175,2.32233 -13.59416,5.1592 l -12.00512,5.1592 5.66962,19.92003 c 4.32685,15.20382 7.19812,19.33394 12.12757,17.44223 3.55228,-1.36203 9.44065,0.16509 13.08511,3.38581 5.77556,5.11243 14.98508,8.71837 26.47428,10.36518 1.83667,0.2614 2.19163,-1.37853 0.7842,-3.64858 z m 51.59203,-22.7005 c 0,-3.40507 1.63031,-6.19104 3.62245,-6.19104 1.99214,0 5.93377,2.78597 8.75964,6.19104 5.66962,6.83079 30.97722,8.77753 26.82785,2.06369 -1.4033,-2.27005 -6.87068,-4.12737 -12.15096,-4.12737 -5.68612,0 -12.35732,-4.20715 -16.36086,-10.3184 -3.71875,-5.67512 -9.50394,-10.31841 -12.85673,-10.31841 -7.96856,0 -7.89427,-10.80956 0.13758,-13.87481 8.12677,-3.11891 7.94104,-13.46208 -0.30268,-16.62364 -3.57016,-1.37579 -10.5344,-0.50904 -15.4776,1.89859 -8.80091,4.29796 -8.79404,4.23329 0.31643,-3.13955 9.07607,-7.34671 9.10771,-7.64938 1.32075,-12.51416 -4.39013,-2.74195 -8.57665,-10.06664 -9.30169,-16.27832 -0.90802,-7.73743 -5.74529,-13.86793 -15.3703,-19.46876 l -14.04954,-8.17631 2.67728,10.66648 c 4.02005,16.01967 -1.16942,34.87071 -12.79069,46.49611 l -10.37757,10.37756 10.63759,0 c 5.85122,0 11.95972,2.13935 13.57489,4.75197 2.03342,3.28951 4.82214,2.33609 9.05406,-3.09552 5.95166,-7.63699 6.03145,-7.62599 2.9662,0.41274 -8.58767,22.5065 -7.69753,26.73567 6.70834,31.89763 7.648,2.73919 15.29738,4.57724 16.99923,4.08333 1.70322,-0.49528 3.09552,1.88758 3.09552,5.29266 0,3.40507 2.78597,6.19104 6.19104,6.19104 3.40507,0 6.19104,-2.78597 6.19104,-6.19104 z m -40.33946,-78.74456 c 3.91824,-4.09159 8.01258,-6.55012 9.09808,-5.46463 1.08687,1.08687 -2.12009,4.43279 -7.12383,7.43889 -8.6936,5.22111 -8.78165,5.13306 -1.97425,-1.97426 z M 58.756954,793.85043 c 4.25531,-5.12756 3.871466,-7.73881 -2.103579,-14.34121 -5.621467,-6.21168 -6.689078,-11.91844 -4.635027,-24.76555 2.432392,-15.20795 1.736243,-17.04738 -7.815848,-20.67946 -14.191247,-5.39583 -17.200094,-15.47623 -8.923357,-29.89723 l 6.895446,-12.01338 -13.409799,2.77634 c -7.375596,1.52713 -15.730753,5.74391 -18.569002,9.37049 -5.7397846,7.3357 -6.6478043,26.40961 -2.0072736,42.16238 2.3897426,8.11439 3.5522826,5.0285 5.4412386,-14.44577 2.286559,-23.58787 2.433768,-23.05407 3.095522,11.25532 0.64662,33.50455 1.414309,36.49138 11.018681,42.78423 5.67925,3.72151 14.03991,5.79482 18.578632,4.60752 4.540098,-1.18318 7.213253,-0.46777 5.94065,1.5849 -6.922962,11.20304 -36.952272,-5.33255 -40.197755,-22.13642 -1.29324,-6.68082 -1.931605,-5.5912 -2.3388383,3.97603 -0.3989783,9.35535 2.0994513,15.04423 8.6110533,19.60497 11.703823,8.19832 33.673771,8.28361 40.419256,0.15134 z M 650.96874,742.33545 c -1.4033,-2.27005 -5.69163,-4.09847 -9.53007,-4.06408 -6.01495,0 -6.12363,0.61911 -0.7842,4.06408 8.08275,5.22386 13.54737,5.22386 10.3184,0 z m -362.69331,-6.0631 c -8.79678,-3.13542 -18.08335,-7.9094 -20.63681,-10.60869 -2.55346,-2.6993 1.85869,-1.55602 9.80386,2.54245 8.64545,4.45893 23.80938,7.54757 37.76674,7.69478 12.82784,0.13758 21.18575,1.6083 18.57313,3.27575 -7.34808,4.69281 -27.8652,3.38306 -45.50692,-2.90429 z m -156.06381,-0.8805 c 2.97858,-1.19694 6.53911,-1.0456 7.91077,0.33019 1.37579,1.37578 -1.05935,2.34709 -5.41785,2.16824 -4.80837,-0.19261 -5.78656,-1.18318 -2.49292,-2.49293 z m 99.82988,1.11439 c 0,-3.56604 43.39095,-30.89056 60.22371,-37.92358 22.20521,-9.27694 16.40902,-2.96895 -9.66353,10.51789 -13.05209,6.75237 -29.76791,16.24805 -37.14626,21.10183 -7.37697,4.85378 -13.41392,7.69065 -13.41392,6.30386 z m 13.33963,-35.43616 c 0,-7.94517 0.85299,-11.19478 1.88758,-7.22288 1.03184,3.97327 1.03184,10.47387 0,14.44577 -1.03184,3.97327 -1.88758,0.72916 -1.88758,-7.22289 z m 80.8165,-19.32843 c 2.97858,-1.19694 6.53912,-1.0456 7.91078,0.33018 1.37579,1.37579 -1.07311,2.3471 -5.41785,2.16824 -4.80838,-0.19261 -5.78656,-1.16941 -2.49293,-2.49292 z m -53.91435,-4.04207 c 2.83825,-1.1419 7.48153,-1.1419 10.3184,0 2.83825,1.14191 0.5228,2.08157 -5.1592,2.08157 -5.67512,0 -7.99608,-0.93554 -5.1592,-2.08157 z m 40.77421,-25.29522 c -1.11439,-1.79541 4.35299,-2.52045 12.13857,-1.61243 7.78696,0.90802 14.15685,2.37874 14.15685,3.26475 0,3.10652 -24.29778,1.5794 -26.29542,-1.65232 z m 202.9135,-79.12566 c -10.68712,-1.40881 -20.7854,-3.91549 -22.44047,-5.57056 -1.65507,-1.65508 -6.53361,-15.50788 -10.84258,-30.78462 -6.14427,-21.78835 -8.29187,-46.75614 -9.96208,-115.82479 l -2.12834,-88.05039 -9.10083,2.28381 c -27.39743,6.87618 -47.62426,20.05348 -63.92321,41.63958 -20.86657,27.63819 -28.66178,31.85085 -85.13647,46.00082 -42.37976,10.61971 -44.70896,10.79581 -49.85303,3.76141 -4.40527,-6.02458 -9.63464,-7.02752 -28.50357,-5.46188 -18.41904,1.52713 -23.83414,0.56407 -26.68752,-4.77398 -2.70892,-5.06152 -10.89348,-6.94085 -33.63937,-7.72367 -47.02579,-1.6193 -51.60716,0.30267 -54.70956,22.94125 -2.31958,16.91806 -1.37579,20.44833 8.17355,30.40903 12.94203,13.51023 10.14505,20.19518 -8.45009,20.19518 -7.55169,0 -19.050525,2.77497 -25.552496,6.16628 -23.40627,12.20599 -59.476663,3.90174 -59.161607,-13.62304 0.137578,-5.85811 0.880503,-5.65449 4.807001,1.26572 6.705587,11.82627 11.773988,14.35772 28.086698,14.02753 l 14.445767,-0.28892 -11.889554,-3.55916 c -6.539117,-1.95774 -16.290698,-7.69478 -21.668651,-12.74667 -8.766517,-8.23546 -9.708931,-12.42611 -9.09533,-40.45503 l 0.687894,-31.26751 2.411755,31.85498 c 2.777715,36.68812 7.69753,43.93439 32.962489,48.55428 9.303074,1.70185 16.91393,2.33884 16.91393,1.41706 0,-0.92177 -3.95814,-7.03165 -8.796785,-13.57489 -8.579409,-11.60614 -8.750007,-16.59337 -1.375787,-40.39174 2.466787,-7.96031 1.375787,-9.28657 -7.678269,-9.28657 -15.461098,0 -16.648403,-6.05759 -1.36203,-6.9546 7.160974,-0.42649 26.021642,-2.61675 41.911985,-4.88405 15.89035,-2.26729 41.59418,-4.5112 57.11994,-4.98585 27.24472,-0.83923 28.16374,-1.19693 26.36834,-10.59219 -1.01808,-5.35181 -0.2614,-9.72956 1.69497,-9.72956 1.95499,0 3.55503,3.83707 3.55503,8.52575 0,4.69006 2.06231,12.37933 4.58138,17.08728 4.31997,8.07037 6.85417,8.40056 44.2632,5.77143 21.82412,-1.53401 54.3381,-6.53224 72.25223,-11.10536 17.91412,-4.57449 33.35046,-7.53794 34.3025,-6.58589 2.70205,2.70204 -66.9348,19.32568 -80.95683,19.32568 -8.38817,0 -12.53204,2.04717 -12.53204,6.19105 0,7.88188 -2.36636,8.10613 50.87111,-4.81939 47.38762,-11.50571 62.24612,-20.1484 81.76029,-47.55271 l 8.68534,-12.19773 -8.8243,-6.18004 c -14.8186,-10.38031 -29.38681,-44.05546 -28.70167,-66.34734 l 0.60535,-19.74255 2.76533,22.70049 c 1.52162,12.48527 5.33393,27.96976 8.47347,34.40844 5.41373,11.1026 6.01494,11.31585 11.62953,4.12736 5.65449,-7.24077 5.78932,-7.2105 2.99509,0.67414 -4.83039,13.63543 -4.65566,15.03048 2.48192,19.73842 5.0629,3.33904 11.27871,3.06525 23.73233,-1.0456 17.1657,-5.66412 20.99727,-10.19183 11.71483,-13.84317 -2.83687,-1.11439 2.11734,-0.97681 11.01043,0.30267 14.6425,2.11734 15.88622,1.59454 13.16904,-5.53754 -2.40626,-6.31762 -1.97151,-6.85417 2.19713,-2.71581 9.05818,8.99077 11.07371,5.82509 14.0633,-22.09239 1.60416,-14.9892 4.28007,-25.04758 5.94477,-22.35517 2.1765,3.52202 3.72701,3.07489 5.51691,-1.58903 1.37579,-3.56879 1.15566,-6.2901 -0.45401,-6.04934 -8.40331,1.25197 -16.34848,-1.54088 -25.64743,-9.01966 l -10.3184,-8.29737 16.14349,7.35771 c 9.53833,4.34748 16.72269,5.66824 17.55779,3.23035 9.51495,-27.7744 37.0362,-45.99945 63.08123,-41.77166 18.91432,3.06938 25.12738,12.09317 24.32667,35.3371 l -0.64662,18.81664 -2.44615,-20.50611 c -3.10377,-26.00651 -15.52301,-34.93674 -40.07806,-28.81724 -14.38661,3.5853 -17.16157,6.75787 -32.31862,36.94127 l -16.58099,33.01889 -1.18318,88.22512 c -0.75668,56.50633 0.35771,90.07555 3.09415,93.37468 2.35122,2.83137 3.08039,8.25748 1.62343,12.0574 -1.45834,3.79855 0.82547,21.7512 5.08766,39.89371 8.45697,36.05113 6.4717,34.34791 44.88506,38.47527 19.51004,2.0967 20.07412,1.89308 10.31841,-3.71463 -13.61892,-7.82823 -7.65901,-7.81034 11.11636,0 8.23684,3.44222 18.53323,5.12894 22.87797,3.7504 10.74627,-3.41058 7.05366,-6.02045 -11.83177,-8.36204 -8.71287,-1.08687 -19.98607,-4.67905 -25.04896,-7.99745 -11.01181,-7.216 -19.39861,-7.9094 -15.29326,-1.26572 1.83943,2.97583 1.12815,3.64308 -1.8862,1.77751 -2.65802,-1.64269 -4.16864,-4.25118 -3.35692,-5.79619 0.81171,-1.54638 -1.99077,-6.10849 -6.22819,-10.13817 -7.42925,-7.06605 -7.61636,-6.97112 -5.20185,2.64426 1.37578,5.48526 0.48152,11.21954 -1.97701,12.74254 -3.13542,1.93711 -3.72701,-4.89367 -1.97013,-22.75827 2.04717,-20.82254 1.48035,-24.90726 -3.07763,-22.16256 -4.65429,2.80248 -4.64879,2.20676 0,-3.56879 6.02182,-7.42375 16.83138,-61.61877 17.046,-85.45428 0.13758,-7.94518 3.8013,-29.30427 8.28775,-47.46467 4.48644,-18.16039 8.17905,-38.60872 8.20519,-45.4395 0,-7.97957 3.04875,-14.29443 8.43633,-17.65961 4.61301,-2.8809 12.03539,-11.22092 16.49431,-18.53323 4.45893,-7.31368 8.11302,-10.58943 8.12265,-7.27929 0.008,3.30877 -6.86243,13.05897 -15.26849,21.66865 l -15.28224,15.65096 12.36833,0 c 13.98075,0 55.95327,-19.99019 58.49435,-27.8597 2.02378,-6.26671 -17.94027,-7.15134 -21.76358,-0.96305 -1.42669,2.3072 -4.60889,2.94832 -7.07293,1.42532 -2.4998,-1.54501 -3.30601,-0.86675 -1.82429,1.52987 2.44065,3.94714 -8.3414,16.7227 -11.00767,13.04384 -0.64662,-0.89426 1.15566,-8.12127 3.99391,-16.06644 2.84237,-7.94517 5.27339,-12.38209 5.40134,-9.85889 0.13758,2.62913 4.60338,3.75177 10.47524,2.62913 17.98429,-3.4381 31.03089,2.13522 31.03089,13.25571 0,12.11381 3.02398,14.23527 22.2451,15.60968 9.11459,0.64662 14.8874,3.19871 14.8929,6.56801 0.0124,8.98389 9.86715,2.96895 12.89663,-7.87226 1.53951,-5.50727 3.0116,-7.22701 3.273,-3.82193 0.42649,5.50315 0.92178,5.50315 4.47543,0 3.37068,-5.21699 4.01042,-4.9831 4.06408,1.47897 0,6.29835 2.09257,7.16097 11.40528,4.82351 13.81565,-3.46698 15.00709,-4.52634 11.48645,-10.2221 -1.51887,-2.45853 -4.66805,-3.29226 -6.99588,-1.85319 -2.32921,1.44045 -9.55485,-1.32075 -16.05819,-6.12363 -6.50197,-4.807 -14.68378,-8.74037 -18.18103,-8.74037 -8.93299,0 -7.9039,-8.14054 2.42001,-19.12895 9.69379,-10.31978 7.9603,-22.14467 -3.24549,-22.14467 -6.32724,0 -6.22818,0.68789 0.90802,6.20067 7.76632,6.01219 7.77045,6.11675 0.13758,3.42709 -5.77418,-2.02929 -7.02339,-1.36203 -4.6419,2.49568 2.39387,3.87284 1.01808,4.56073 -5.16746,2.59611 -4.63365,-1.47072 -9.61813,-0.74293 -11.07922,1.62205 -1.45971,2.36223 -4.65153,4.29521 -7.09493,4.29521 -2.44202,0 0.45401,-3.84946 6.43456,-8.55465 13.4662,-10.59219 13.73035,-15.3359 1.03184,-18.5236 -6.98075,-1.75138 -9.27419,-4.65429 -7.88464,-9.97171 1.5794,-6.03558 -1.26573,-8.04422 -14.53657,-10.28813 -9.07469,-1.53263 -19.9214,-5.37933 -24.10242,-8.54915 -4.18239,-3.16843 -8.92473,-5.81958 -10.53853,-5.89249 -1.6138,-0.13758 -3.55366,16.12147 -4.31034,35.98371 l -1.37579,36.11442 -0.85299,-36.24374 c -0.93553,-39.73549 4.04619,-48.16769 19.94204,-33.78246 11.49058,10.39958 10.10791,1.12815 -1.45145,-9.73782 -10.08865,-9.4778 -26.23214,-12.66137 -20.9615,-4.13287 1.64544,2.66215 -1.44458,1.7335 -6.86656,-2.06368 -13.5515,-9.49155 -47.97783,-8.85732 -74.93776,1.38267 -37.30722,14.16786 -90.60522,42.70581 -105.18031,56.3151 -9.02792,8.43083 -13.13327,10.48763 -11.6598,5.84435 1.75413,-5.52654 0.13758,-6.92984 -7.07293,-6.13189 -5.14131,0.56408 -19.02438,1.19694 -30.8534,1.37854 -14.40587,0.23389 -23.26319,2.52182 -26.82786,6.94085 -2.9263,3.62795 -10.20283,11.52222 -16.16962,17.54129 -5.96542,6.01907 -13.56939,16.28657 -16.89742,22.81606 -4.11223,8.06899 -16.5067,17.32529 -38.68164,28.89153 -29.52302,15.39919 -32.87306,18.39565 -35.18164,31.46563 -1.4033,7.94517 -2.79697,11.0008 -3.09552,6.78951 -0.45401,-6.34926 -3.30189,-7.39348 -16.70618,-6.11537 -8.88896,0.85299 -15.2795,0.13758 -14.20226,-1.63031 4.55936,-7.37697 -25.22368,-2.33058 -44.80251,7.59022 -28.854388,14.62187 -52.780706,22.75827 -52.780706,17.94714 0,-2.16961 3.560538,-3.94438 7.912153,-3.94438 4.351615,0 20.566645,-6.71384 36.031873,-14.91904 26.14546,-13.86931 29.88623,-14.73743 53.24434,-12.34356 23.4902,2.40625 25.77538,1.86282 35.16375,-8.36616 5.52379,-6.0177 21.70305,-16.29208 35.9562,-22.83395 17.42435,-7.99607 28.52971,-16.19301 33.8994,-25.02282 4.39152,-7.2215 14.84475,-20.86381 23.2288,-30.31685 15.22859,-17.1712 15.27674,-17.18908 52.4175,-19.99294 25.79051,-1.94674 40.44402,-5.11517 47.84988,-10.34729 17.86322,-12.61873 75.10148,-39.968 103.8004,-49.59989 25.83179,-8.66884 28.54484,-8.81467 58.5824,-3.1423 27.1264,5.12206 33.45915,8.02635 45.63074,20.93261 13.64094,14.46365 24.75317,18.80839 29.2974,11.45755 1.19693,-1.94123 13.35339,-7.6026 27.00808,-12.58157 31.3652,-11.43692 50.82571,-8.66471 68.29133,9.72682 11.32961,11.93082 12.37796,15.47348 12.33806,41.69736 0,33.51418 -11.16589,61.42202 -24.72015,62.0769 -13.86656,0.67413 -40.72468,6.09336 -51.02245,10.30465 -6.09473,2.49155 -11.50846,2.53144 -14.44576,0.13757 -2.58373,-2.13384 -11.59789,-5.1702 -20.03422,-6.74548 -10.23173,-1.91234 -16.22053,-5.65173 -17.99255,-11.2333 -4.94045,-15.56704 -8.8752,0.64662 -7.57508,31.22762 0.68789,16.27831 2.46541,56.15688 3.94025,88.61859 l 2.68279,59.02127 15.07725,9.73508 c 8.29187,5.35318 21.57785,11.04757 29.52302,12.65174 25.16591,5.08353 34.28187,18.47407 12.57608,18.47407 -6.70284,0 -16.86303,-2.12972 -22.57805,-4.73409 -7.96994,-3.6307 -11.82352,-3.54402 -16.54384,0.37147 -4.66805,3.87421 -9.42965,4.01317 -19.72742,0.57783 -11.87717,-3.96365 -14.96856,-8.26711 -24.73665,-34.42358 -15.93988,-42.68242 -23.91394,-75.93658 -23.95521,-99.89179 0,-11.44105 -1.2107,-30.55211 -2.63876,-42.47055 -2.31683,-19.28579 -3.67473,-21.66866 -12.34632,-21.66866 -6.61066,0 -9.74333,2.37599 -9.74333,7.38798 0,4.0627 -2.92217,18.45757 -6.49371,31.98706 -3.57155,13.52949 -8.08413,38.52892 -10.02812,55.55429 -1.94536,17.02537 -5.84021,47.04918 -8.65783,66.71881 -6.31899,44.13388 -2.58648,52.2868 27.70836,60.52088 30.37326,8.25335 51.53975,18.03933 49.87367,23.05682 -1.67433,5.04226 -43.98117,6.51573 -73.89767,2.57273 z m 141.1888,-55.87623 c -2.82587,-3.40507 -7.23252,-6.13188 -9.79148,-6.06034 -2.56034,0.13758 -1.0456,2.85888 3.35692,6.19104 10.29227,7.78558 12.95854,7.73055 6.43456,-0.13758 z m -24.80545,-1.6193 c 13.67946,-3.80818 3.57842,-10.48212 -10.51239,-6.94498 -5.75217,1.44321 -10.08314,0.72917 -10.08314,-1.6757 0,-2.3127 3.25098,-4.23468 7.22288,-4.26907 6.16765,0 6.31761,-0.64662 1.03184,-4.03244 -3.40507,-2.18475 -9.90567,-2.99508 -14.44577,-1.80365 -6.44694,1.69222 -6.89957,1.307 -2.06368,-1.77614 5.25688,-3.34729 5.74391,-12.55957 3.22347,-61.07533 -4.00904,-77.19818 -7.85162,-125.23517 -10.01573,-125.23517 -0.99057,0 -9.14624,3.75177 -18.13701,8.33865 -19.41373,9.90429 -20.99589,20.39054 -8.23408,54.55959 5.50727,14.74569 6.1704,19.14271 2.06368,13.70147 -15.55878,-20.61617 -1.07312,57.64549 19.78107,106.88079 11.81939,27.9051 15.68122,30.14763 40.16886,23.33198 z m -34.77578,-36.38132 c -2.23978,-5.88149 -1.76651,-6.35614 2.30995,-2.30995 2.82174,2.79973 4.08884,6.13051 2.81899,7.40036 -1.26572,1.26573 -3.5798,-1.01808 -5.12894,-5.09041 z M 585.44137,438.823 c -1.41569,-3.68849 -2.45578,-8.87658 -2.3127,-11.52772 0.15134,-2.65252 2.04167,-0.37146 4.21679,5.06427 2.17374,5.43711 3.21521,10.62383 2.31132,11.52772 -0.90802,0.90802 -2.8011,-1.37578 -4.21541,-5.06427 z m -455.38424,36.79406 c 1.41706,-1.41706 -1.52299,-5.90351 -6.53499,-9.96896 -7.32606,-5.94615 -9.11046,-11.69006 -9.11046,-29.33454 0,-18.8304 -1.16942,-22.09239 -8.25472,-23.01417 -8.254729,-1.07311 -8.254729,-1.07311 0,2.72819 6.79226,3.12854 7.01789,3.85358 1.27948,4.09159 -3.83845,0.1651 -8.227211,-1.72936 -9.752959,-4.19615 -8.465219,-13.69871 -15.26436,22.9729 -8.316634,44.86305 2.342966,7.38385 6.239195,9.26455 20.167663,9.73782 l 17.26338,0.59159 -16.50945,2.95657 -16.509443,2.95657 16.853393,0.59158 c 9.27006,0.31644 18.01319,-0.57783 19.42887,-1.98938 z M 83.675215,455.2843 c -2.000395,-6.69596 -3.795798,-9.07607 -3.99116,-5.28853 -0.398978,7.68652 4.009045,21.08119 6.208929,18.88131 0.784199,-0.7842 -0.220126,-6.89683 -2.217769,-13.59278 z M 496.0661,253.2513 c 0,-2.27005 -1.80091,-1.34827 -4.00079,2.06368 -2.19989,3.40508 -4.00079,8.04836 -4.00079,10.31841 0,2.27005 1.8009,1.33451 4.00079,-2.06368 2.19988,-3.40508 4.00079,-8.04836 4.00079,-10.31841 z M 30.363455,455.46452 c -0.316431,-6.82528 -2.444774,-18.89781 -4.745091,-26.82785 -7.127954,-24.57156 -2.089821,-35.61225 19.625607,-43.01124 23.283825,-7.93279 23.139367,-7.93141 20.210316,-0.30267 -1.306998,3.40507 -0.343947,6.19104 2.126967,6.19104 3.237228,0 3.228973,1.53676 0,5.46325 -3.299138,3.97603 -3.27575,6.72348 0.137579,10.08865 3.413328,3.41333 2.316826,4.02005 -4.186521,2.31958 -6.898198,-1.80366 -8.273985,-4.44104 -6.338252,-12.15095 2.763956,-11.01181 -1.10063,-12.21424 -16.575486,-5.16196 -13.756498,6.26809 -15.520257,12.49765 -10.356927,36.57256 2.397997,11.18377 3.546779,24.58394 2.550709,29.77891 -1.455583,7.59985 -1.919223,7.02065 -2.370481,-2.96344 z M 490.34832,401.253 c -2.17374,-5.66549 -1.56977,-5.92001 3.68574,-1.55877 7.16235,5.9434 7.90802,8.33315 2.60024,8.33315 -2.02654,0 -4.85516,-3.04875 -6.28598,-6.77438 z M 219.65941,383.2632 c -8.50099,-2.72268 -8.8642,-3.36655 -2.06368,-3.65271 4.5401,-0.19261 11.04069,1.45283 14.44577,3.65271 7.23114,4.67355 2.21089,4.67355 -12.38209,0 z m 129.40106,-4.38463 c 5.95165,-4.6818 13.6313,-12.52379 17.06664,-17.4271 3.43396,-4.90468 6.2447,-6.84179 6.2447,-4.30759 0,6.44144 -22.85596,30.24669 -29.04012,30.24669 -2.80111,0 -0.22013,-3.8302 5.72878,-8.512 z m -34.47173,1.40606 c 3.40507,-1.27949 11.40528,-5.9778 17.7793,-10.44223 6.37265,-4.46443 12.50728,-7.19674 13.6313,-6.07273 2.85751,2.85751 -24.94303,19.56508 -31.89763,19.16747 -4.38188,-0.24764 -4.26907,-0.86674 0.48153,-2.65251 z m 187.79497,-10.88799 c 3.87559,-5.91588 9.55484,-20.53775 12.61872,-32.49472 5.55406,-21.67415 5.56369,-21.68378 3.21109,-3.16706 -2.48192,19.53618 -10.57293,38.81234 -18.29247,43.58357 -2.52182,1.55876 -1.41293,-2.0059 2.46266,-7.92179 z m -353.92129,-9.50393 c 2.83825,-1.14191 7.48153,-1.14191 10.3184,0 2.83825,1.1419 0.5228,2.08156 -5.1592,2.08156 -5.67512,0 -7.99608,-0.93553 -5.1592,-2.08156 z m 104.21589,0.92177 c 0,-0.99056 9.20677,-6.81702 20.45796,-12.94065 11.59926,-6.31349 25.02144,-18.0297 30.99648,-27.06036 9.94557,-15.02773 41.98216,-39.48097 46.20032,-35.26281 1.07311,1.07311 -5.41372,6.0796 -14.40725,11.13562 -8.99352,5.05465 -21.86951,17.01712 -28.61225,26.58297 -11.82901,16.78323 -54.63526,46.19893 -54.63526,37.54523 z m 64.69089,-10.75865 c 9.47368,-1.87383 22.93988,-6.36165 29.92338,-9.97171 6.9835,-3.61144 12.69714,-4.83589 12.69714,-2.72131 0,5.09867 -35.77185,17.12443 -49.23117,16.55072 -7.19537,-0.30267 -5.06565,-1.54913 6.61065,-3.8577 z m 175.58074,-10.76967 c -2.54521,-8.29324 -2.98821,-13.40017 -0.99057,-11.35024 4.03931,4.13424 10.3074,26.43025 7.432,26.43025 -1.00432,0 -3.90173,-6.78539 -6.44694,-15.08001 z m -221.18809,-7.78008 c -1.41568,-3.68848 -2.45578,-8.87658 -2.31269,-11.52772 0.15133,-2.65252 2.04166,-0.37146 4.21678,5.06428 2.17375,5.43711 3.21522,10.62383 2.31133,11.52772 -0.90802,0.90802 -2.80111,-1.37579 -4.21542,-5.06428 z m 142.22752,-3.53439 c 3.50138,-3.3184 32.67495,-14.38524 32.67495,-12.39447 0,1.12814 -6.44143,4.75472 -14.31369,8.04423 -13.86518,5.79344 -21.89015,7.69478 -18.36126,4.35024 z M 285.6972,294.98719 c 0,-0.88051 5.47426,-2.398 12.16472,-3.38031 6.68907,-0.97681 11.22367,-0.2614 10.07489,1.59591 -2.0458,3.30877 -22.23961,4.92945 -22.23961,1.7844 z m 72.72963,-16.97722 c 1.47209,-6.81015 4.30896,-15.16806 6.30385,-18.57313 2.32096,-3.96227 2.66353,-1.73212 0.9493,6.19104 -1.4721,6.81015 -4.30897,15.16806 -6.30386,18.57313 -2.32095,3.96227 -2.66352,1.73212 -0.94929,-6.19104 z m 186.57052,-8.97426 c 1.76101,-8.63719 2.79835,-9.67591 4.00079,-4.00079 0.89426,4.21266 -0.17885,9.46129 -2.37736,11.66255 -2.58511,2.5851 -3.16019,-0.13758 -1.62343,-7.66176 z m -85.95094,-50.62898 c 0,-2.13659 1.83668,-5.01887 4.08059,-6.40566 2.33883,-1.44595 3.03085,0.20637 1.62205,3.88385 -2.7447,7.14996 -5.70264,8.45834 -5.70264,2.52181 z"
       id="path4226"
       inkscape:connector-curvature="0" />
  </g>
</svg>
