<?xml version="1.0" encoding="UTF-8" standalone="no"?>
<!-- Created with Inkscape (http://www.inkscape.org/) -->

<svg
   xmlns:dc="http://purl.org/dc/elements/1.1/"
   xmlns:cc="http://creativecommons.org/ns#"
   xmlns:rdf="http://www.w3.org/1999/02/22-rdf-syntax-ns#"
   xmlns:svg="http://www.w3.org/2000/svg"
   xmlns="http://www.w3.org/2000/svg"
   xmlns:sodipodi="http://sodipodi.sourceforge.net/DTD/sodipodi-0.dtd"
   xmlns:inkscape="http://www.inkscape.org/namespaces/inkscape"
   width="210mm"
   height="297mm"
   viewBox="0 0 744.09448819 1052.3622047"
   id="svg4263"
   version="1.1"
   inkscape:version="0.91 r13725"
   sodipodi:docname="reverse_lunges.svg">
  <defs
     id="defs4265" />
  <sodipodi:namedview
     id="base"
     pagecolor="#ffffff"
     bordercolor="#666666"
     borderopacity="1.0"
     inkscape:pageopacity="0.0"
     inkscape:pageshadow="2"
     inkscape:zoom="0.49497475"
     inkscape:cx="2742.8991"
     inkscape:cy="-24.121728"
     inkscape:document-units="px"
     inkscape:current-layer="layer1"
     showgrid="false"
     inkscape:window-width="3200"
     inkscape:window-height="1699"
     inkscape:window-x="0"
     inkscape:window-y="50"
     inkscape:window-maximized="1" />
  <metadata
     id="metadata4268">
    <rdf:RDF>
      <cc:Work
         rdf:about="">
        <dc:format>image/svg+xml</dc:format>
        <dc:type
           rdf:resource="http://purl.org/dc/dcmitype/StillImage" />
        <dc:title></dc:title>
      </cc:Work>
    </rdf:RDF>
  </metadata>
  <g
     inkscape:label="Layer 1"
     inkscape:groupmode="layer"
     id="layer1">
    <path
       style="fill:#000000"
       d="m 405.91132,969.19242 c -20.61288,-1.36693 -42.09877,-5.03534 -47.74691,-8.1526 -9.70018,-5.35273 -10.12346,-7.41916 -7.63375,-37.2913 4.37684,-52.53967 3.3789,-66.79011 -6.57407,-93.86786 -16.40652,-44.63109 -19.52528,-62.31775 -14.38566,-81.57407 2.56467,-9.61199 3.43034,-16.80482 1.9224,-15.98324 -1.50793,0.82304 -14.37684,7.10317 -28.59494,13.95943 l -25.85391,12.46473 1.9562,23.58172 c 1.07291,12.96883 0.76427,24.12844 -0.69076,24.80011 -1.45503,0.67607 -8.06143,15.10876 -14.67813,32.08406 -18.30982,46.97781 -26.71811,58.56952 -44.97208,61.99251 -16.28453,3.05555 -22.99529,1.11699 -71.15372,-20.54233 -39.95737,-17.97325 -63.828625,-23.70664 -68.436209,-16.43739 -5.429158,8.56261 -4.651675,31.94003 1.263963,37.85127 9.345972,9.34597 -4.087301,18.70517 -26.84744,18.70517 -34.323925,0 -36.435918,-3.37449 -47.2295683,-75.46884 -2.07378,-13.84877 -0.749559,-17.10273 10.1440323,-24.77322 19.382715,-13.65667 29.413579,-15.19695 45.77895,-7.03263 9.323927,4.65168 31.628452,8.53322 59.198992,10.30276 24.33128,1.56085 48.03057,4.51206 52.66313,6.55791 7.32658,3.23339 8.04821,2.32657 5.53498,-6.94592 -1.58876,-5.86566 -4.14902,-24.5532 -5.6893,-41.52851 -1.85331,-20.42474 -5.49088,-33.84626 -10.75249,-39.68253 -16.55938,-18.36126 -22.09729,-50.89653 -12.81893,-75.30129 4.22839,-11.11993 2.44856,-14.10346 -25.82893,-43.27748 -16.70339,-17.23251 -35.821563,-42.09729 -42.485289,-55.25425 -10.79659,-21.31981 -11.579953,-25.704 -7.206055,-40.30424 7.452968,-24.8736 69.225444,-83.55379 109.450314,-103.97118 34.89858,-17.71311 37.64256,-23.01735 27.05467,-52.29865 -8.13345,-22.49118 -1.19048,-54.26072 15.19841,-69.57377 12.26778,-11.46091 16.18606,-12.66608 35.21163,-10.83774 11.81805,1.13169 26.69019,6.04056 33.20254,10.95091 10.42033,7.85567 11.63139,11.40211 10.37037,30.37771 -2.38978,35.98031 -13.4612,82.55585 -20.56879,86.53439 -10.98912,6.14932 -7.57201,19.68841 7.66608,30.38653 19.79571,13.89477 25.04996,21.51382 25.2131,36.55643 0.14698,7.11935 4.31512,27.82775 9.41947,46.01558 9.3445,33.301 9.51352,46.59906 1.39623,109.68841 l -2.97765,23.14815 13.93004,0 c 16.84743,0 40.09993,9.20194 48.33185,19.12698 4.49588,5.42181 6.52999,29.93386 8.01735,96.58289 1.78865,80.0995 2.88213,90.4537 10.60405,100.33905 4.73545,6.06262 10.7863,16.59466 13.44651,23.40388 3.07466,7.87479 13.47295,17.25603 28.56407,25.77455 25.22193,14.23427 28.40241,20.3983 16.01411,31.03762 -11.41682,9.80599 -17.31334,10.60117 -58.42152,7.87629 z m 53.19958,-8.88305 c 12.81747,-6.8592 10.63639,-11.01852 -13.59053,-25.92593 -13.71399,-8.43767 -24.91475,-19.47236 -29.47678,-29.03733 -4.04614,-8.4847 -8.62728,-15.42768 -10.18077,-15.42768 -1.55203,0 -7.48384,4.96032 -13.17902,11.02293 -11.59465,12.34273 -25.42621,14.42533 -29.26954,4.40916 -4.80453,-12.5191 -10.41299,-6.58142 -10.41299,11.02293 0,14.9662 1.39623,17.63669 9.24015,17.63669 5.0823,0 15.30129,4.31657 22.71017,9.59141 14.08289,10.02792 47.04438,13.06731 69.4606,6.40506 9.77367,-2.90417 9.56203,-2.4368 -1.86066,4.12992 -16.97237,9.7546 -55.19254,6.23751 -71.48736,-6.57995 -14.45914,-11.3742 -29.30041,-12.20753 -27.24427,-1.53146 0.80835,4.18284 6.40653,10.10583 12.44856,13.16138 13.2966,6.72843 80.84362,7.54561 92.84244,1.11699 z M 75.483657,907.55512 c -1.072899,-3.63757 -2.735156,-16.93564 -3.702234,-29.55027 -1.64756,-21.48736 -2.685185,-23.24221 -16.405055,-27.77042 -17.76308,-5.86273 -21.37419,-13.47546 -12.43974,-26.23266 9.181362,-13.107 4.989711,-15.51881 -11.843033,-6.81511 -12.167842,6.29336 -13.66696,8.88742 -11.011169,19.06525 1.690181,6.4781 4.079952,21.70003 5.310111,33.82525 2.888006,28.47295 7.917401,34.46943 26.05673,31.06555 8.994708,-1.68724 15.477658,-0.72016 17.539681,2.61757 2.266313,3.66549 0.911228,4.39007 -4.384186,2.35598 -4.210758,-1.6167 -11.435919,-0.91124 -16.05526,1.55643 -13.08201,7.00177 -26.153731,-8.7816 -26.571133,-32.08406 -0.191064,-10.30571 -3.152557,-25.68342 -6.59612,-34.17108 l -6.261022,-15.43166 2.142857,17.63624 c 8.436214,69.48413 11.053792,73.76838 43.880068,71.84892 17.366254,-1.01411 21.85479,-2.76161 20.339505,-7.91593 z m 313.680163,-7.71606 c 5.75985,-6.66813 6.15667,-20.59229 2.92916,-102.51277 -2.05467,-52.13845 -4.69871,-98.92123 -5.87596,-103.96237 -3.37596,-14.45768 -23.14373,-20.84656 -70.6937,-22.8498 l -44.09171,-1.85772 -14.3298,26.31393 c -8.68901,15.95531 -14.32981,32.60287 -14.32981,42.28982 0,15.91123 0.14697,15.97443 19.17695,15.97443 13.54498,0 27.97472,-4.66931 49.13728,-15.89948 29.0726,-15.42768 29.86919,-15.59082 26.89005,-5.51146 -8.60523,29.11082 -7.70722,42.27514 5.53498,81.11405 7.40888,21.72693 14.67225,47.4393 16.14345,57.13947 5.097,33.62727 6.61669,37.47796 14.79276,37.47796 4.42828,0 11.05086,-3.4715 14.71635,-7.71606 z M 255.99951,729.49854 c 0,-0.92592 3.96825,-2.7278 8.81834,-3.99617 4.85009,-1.26397 8.81835,-0.51441 8.81835,1.69017 0,2.19725 -3.96826,3.99618 -8.81835,3.99618 -4.85009,0 -8.81834,-0.76426 -8.81834,-1.69018 z m -25.12787,160.32288 c 14.67079,-11.54026 41.21546,-78.17121 34.01235,-85.37579 -6.85332,-6.8548 -68.68753,-6.3742 -75.66284,0.58788 -4.17842,4.16961 -4.43121,10.78483 -1.0435,27.32511 l 4.4709,21.82348 -9.73252,-10.50118 c -10.4997,-11.32965 -20.35126,-13.67534 -74.62374,-17.77145 -66.156662,-4.99412 -61.728385,-5.42476 -61.728385,6.0097 0,9.29409 4.691358,11.77645 46.296294,24.50426 25.462951,7.78953 53.054071,17.73074 61.313921,22.09288 40.23662,21.24927 60.29688,24.20489 76.69752,11.30511 z m -65.26013,-25.3924 c -4.85008,-0.99942 -10.80247,-3.75368 -13.22751,-6.11406 -4.08142,-3.97413 19.1652,-0.4997 23.883,3.56408 3.53617,3.04968 -1.91505,4.35479 -10.65549,2.54998 z m 63.93298,-22.49119 c 0,-2.42504 1.98412,-5.63448 4.40917,-7.13359 2.42504,-1.49912 4.40917,-0.73487 4.40917,1.6843 0,2.42504 -1.98413,5.63448 -4.40917,7.13359 -2.42505,1.49912 -4.40917,0.73487 -4.40917,-1.6843 z m -4.40917,-46.74706 c 15.76278,0 33.12463,1.55203 38.58024,3.53469 9.44445,3.43181 9.92064,2.5485 9.92064,-18.40829 l 0,-22.01352 -33.301,-0.17636 c -18.3157,-0.14698 -40.1411,-1.45503 -48.50088,-3.02617 -14.88536,-2.79247 -15.19841,-2.54409 -15.13962,11.96943 0.14697,24.65756 4.49147,35.65696 12.64403,31.67402 3.92563,-1.91799 20.03381,-3.51852 35.79659,-3.55673 z m 14.19018,-63.65813 c 1.36685,-14.17843 6.9077,-29.21517 15.99353,-43.37595 7.64991,-11.91946 13.908,-22.98795 13.908,-24.59436 0,-6.9562 -17.7234,-2.0826 -23.75809,6.53293 -5.94797,8.49352 -9.20929,9.15049 -32.06201,6.46384 -13.99325,-1.64462 -31.20812,-5.86567 -38.25545,-9.38272 -7.04879,-3.51557 -14.48265,-5.36302 -16.51821,-4.10494 -5.80835,3.58907 -9.72076,31.37566 -6.64463,47.17372 5.80247,29.78542 24.23281,41.47413 67.07378,42.53821 l 18.17901,0.45562 2.08407,-21.70195 z m -11.22575,-66.01558 c -4.21957,-5.08524 -3.20253,-5.57024 5.88918,-2.81158 8.64639,2.6264 9.88389,2.17519 5.80982,-2.1164 -3.98736,-4.199 -8.48324,-4.29894 -19.56202,-0.44092 -10.23662,3.56849 -15.7378,3.6508 -19.07408,0.27925 -3.32745,-3.35832 -2.23986,-3.7963 3.75221,-1.51381 6.21693,2.36772 7.52352,1.7328 4.95884,-2.41623 -2.59259,-4.19606 -1.0288,-4.85009 6.16843,-2.56761 8.78161,2.7866 9.14904,2.26044 4.07849,-5.85832 -5.78777,-9.26661 -16.60934,-13.73309 -33.52292,-13.83597 -13.18343,-0.14697 -38.70077,-34.83834 -47.73075,-65.0147 -3.79629,-12.68665 -8.75662,-24.21223 -11.02293,-25.61287 -2.26631,-1.39623 -4.11963,-4.80893 -4.11963,-7.57642 0,-3.72869 1.32275,-3.71105 5.09994,0 6.88713,6.88712 25.48059,-6.53734 45.66578,-32.97325 8.45385,-11.0729 15.37184,-17.8689 15.37184,-15.10142 0,2.76602 -6.77543,12.5294 -15.05584,21.69606 -11.69754,12.9468 -14.10788,18.35979 -10.80395,24.2622 6.45503,11.53439 9.99707,9.40771 20.57172,-12.36038 14.64727,-30.14843 13.08348,-97.39416 -2.12963,-91.55643 -5.3395,2.0488 -5.46296,3.20254 -0.67607,6.24193 3.94474,2.49999 1.39624,3.74926 -7.7425,3.79482 -10.72457,0 -20.7525,6.68136 -47.10611,31.13903 -19.28571,17.8983 -37.536737,39.45032 -43.046731,50.83334 l -9.566432,19.76042 11.509406,23.52588 c 15.718697,32.12815 85.295397,99.64873 102.783647,99.74425 6.75337,0 15.00734,1.79601 18.34215,3.908 3.3348,2.11346 10.60552,3.56996 16.15667,3.23927 8.10699,-0.48501 9.08877,-1.8107 4.99412,-6.74897 z M 110.40869,561.32836 c -3.06731,-3.69489 -4.46354,-7.83363 -3.10257,-9.19459 1.36683,-1.36684 4.69134,1.66226 7.39711,6.71957 5.77601,10.79072 3.63168,12.02675 -4.29454,2.47502 z m 36.46385,-84.50176 c 4.24455,-1.1023 11.189,-1.1023 15.43209,0 4.24457,1.11698 0.77896,2.01646 -7.71604,2.01646 -8.48766,0 -11.95914,-0.91122 -7.71605,-2.01646 z m 140.53937,178.38329 c 2.9174,-5.45267 5.77895,-31.50793 6.41535,-58.42151 0.76426,-32.11494 3.51117,-54.1358 8.11581,-64.97354 3.83158,-9.01528 6.95473,-21.91211 6.9415,-28.65962 0,-19.15931 -8.29952,-44.20193 -15.49382,-46.96207 -9.48413,-3.6405 -19.74426,1.44033 -19.82216,9.81481 0,5.73193 -0.85244,5.99794 -3.84921,1.27866 -4.96913,-7.84244 -38.52881,-22.77337 -42.72781,-19.0094 -1.79893,1.61228 -1.9415,0.60258 -0.32334,-2.2281 1.64463,-2.87331 -2.21046,-9.21958 -8.70664,-14.3298 -19.9559,-15.69665 -22.59553,-12.63081 -20.27336,23.5435 2.59553,40.44972 -0.70547,59.04614 -13.92857,78.53615 -9.88537,14.56642 -10.097,16.64462 -5.62022,55.18959 l 4.6502,40.0529 18.94327,2.84098 c 10.41887,1.56232 24.69576,7.68078 31.72692,13.59641 7.02969,5.91563 17.45591,10.7863 23.16872,10.82305 5.71282,0 13.36273,1.99147 17.0003,4.34156 8.58759,5.54968 7.71311,5.89359 13.77571,-5.4321 z m -12.75279,-60.70546 c 0,-8.48766 0.91124,-11.95914 2.01647,-7.71605 1.10229,4.24456 1.10229,11.189 0,15.4321 -1.1023,4.24456 -2.01647,0.77895 -2.01647,-7.71605 z m -0.16167,-33.06879 c 0.14697,-7.27512 1.07291,-9.7178 2.19577,-5.42768 1.11699,4.29013 1.0435,10.24251 -0.16167,13.22751 -1.20517,2.98501 -2.12228,-0.5291 -2.03263,-7.79983 z m -22.83803,4.14904 c 0.14697,-6.09347 7.92916,-17.46326 10.35568,-15.03674 1.14637,1.14638 -0.73487,5.9318 -4.16962,10.63491 -3.43914,4.70312 -6.2228,6.68431 -6.18606,4.40183 z m 23.29952,-50.44533 c 0,-13.33773 0.82305,-18.79335 1.83716,-12.12522 1.01411,6.66961 1.01411,17.5823 0,24.25044 -1.01411,6.66961 -1.83716,1.20518 -1.83716,-12.12522 z m 31.90477,142.19576 c 3.63609,9.37978 15.27483,10.28366 15.27483,1.19047 0,-9.05937 -21.85478,-14.09758 -26.86066,-6.19193 -6.41241,10.12492 -4.47826,15.05143 2.2957,5.84802 5.87008,-7.97619 6.50206,-8.03351 9.29013,-0.83774 z m -75.11317,-9.92063 c -1.49912,-2.42505 -5.08818,-4.37831 -7.97619,-4.34157 -3.15549,0 -2.6117,1.77396 1.36685,4.34157 8.47001,5.47472 9.99706,5.47472 6.61375,0 z m 97.36331,-74.95591 c -1.38153,-13.33774 -5.18959,-33.06437 -8.4612,-43.83597 l -5.95091,-19.58701 -8.8492,26.20518 c -4.91036,14.54144 -7.52352,29.98382 -5.87155,34.69576 2.83069,8.06731 3.13198,8.09083 6.0582,0.47031 1.69312,-4.41358 4.34303,-6.76073 5.88771,-5.21605 1.54468,1.54468 -0.22045,6.29335 -3.9271,10.55262 -7.43092,8.54203 -13.93151,53.32892 -8.88888,61.24485 1.7519,2.75132 7.15461,5.76719 12.00469,6.70341 7.45297,1.44032 9.72369,-2.0679 14.66344,-22.63816 3.39653,-14.14167 4.79424,-34.50029 3.3348,-48.59053 z m -155.35566,23.14815 c -2.05173,-25.64226 -13.02028,-62.94826 -18.43034,-62.69106 -1.61816,0.14697 -6.54026,2.8689 -10.93915,6.20371 -7.06789,5.35861 -7.40446,8.26279 -2.89094,25.02204 4.32686,16.06848 27.79394,56.81804 32.72192,56.81804 0.86714,0 0.66138,-11.40799 -0.45561,-25.35273 z M 278.04683,448.26987 c 0,-2.54115 -3.19664,-3.39359 -7.10464,-1.89447 -5.11464,1.96208 -6.3492,0.85244 -4.40916,-3.9374 1.48294,-3.66548 3.71987,-9.17107 4.97207,-12.23544 1.29336,-3.17754 -3.98002,-8.9418 -12.28248,-13.41417 -8.00853,-4.31217 -17.21782,-12.22075 -20.46443,-17.57495 -4.98237,-8.21282 -3.9227,-7.88066 6.77101,2.12228 15.23368,14.25044 36.21987,19.36508 39.91916,9.72663 1.38155,-3.61699 -1.20517,-9.60465 -5.74662,-13.30541 -7.93356,-6.4565 -7.86742,-6.64315 1.65198,-4.61052 11.88712,2.53968 13.98882,-8.5729 2.20458,-11.65197 -6.27131,-1.63874 -6.00089,-2.11199 1.44033,-2.52793 7.59112,-0.42622 8.82569,-2.77483 7.21635,-13.73898 -1.16109,-7.93943 0,-13.22751 2.96883,-13.22751 2.69988,0 4.90888,-5.00882 4.90888,-11.13168 0,-8.07907 -3.32599,-12.40594 -12.12522,-15.77601 -13.31423,-5.09847 -25.29542,-0.49971 -25.43651,9.77218 0,3.36862 -3.51852,11.02734 -7.71605,17.01941 -4.19753,5.99353 -7.63227,14.56937 -7.63227,19.05643 0,11.81217 -15.08671,7.6411 -16.84156,-4.65608 -0.77896,-5.43062 -3.25397,-9.87507 -5.51146,-9.87507 -5.49971,0 -5.24986,11.99735 0.32334,15.44238 2.43386,1.50353 3.3054,7.1943 1.93856,12.64403 -1.36685,5.45121 -3.00265,13.42446 -3.63316,17.71899 -0.63198,4.29601 -3.98295,9.57966 -7.45003,11.74163 -4.98971,3.11286 -2.7425,6.94444 10.78778,18.38624 25.24396,21.3492 51.25072,29.43121 51.25072,15.92739 z m -5.23515,-90.46296 c 3.18195,-1.27866 6.98559,-1.11699 8.45091,0.35274 1.46972,1.46972 -1.13169,2.50588 -5.78777,2.31481 -5.13668,-0.20576 -6.18166,-1.26396 -2.66314,-2.66314 z m -2.39711,-8.86243 c 4.29011,-1.11699 10.24249,-1.0435 13.22751,0.16167 2.985,1.20518 -0.52911,2.12228 -7.79983,2.03263 -7.27513,-0.14697 -9.71781,-1.0729 -5.42768,-2.19577 z m 239.11373,616.1003 c -12.71016,-2.33236 -13.27895,-3.43323 -14.56202,-28.17309 -0.91123,-17.6117 0.79365,-29.00499 5.42621,-36.06408 6.07879,-9.27689 6.06703,-15.80394 -0.14697,-64.61596 -7.89535,-62.33244 -6.25661,-92.15166 6.42711,-117.01645 5.2425,-10.27484 10.22486,-31.5873 12.02234,-51.42857 2.69106,-29.68253 2.08847,-34.59876 -4.85156,-39.67518 -7.15462,-5.23075 -7.62934,-10.71282 -4.89125,-56.51381 1.66814,-27.89683 4.97944,-62.81158 7.35892,-77.58819 l 4.32686,-26.86801 -22.82775,-21.17431 c -12.55585,-11.64756 -27.71163,-25.97883 -33.67871,-31.84744 -12.44121,-12.23692 -31.69018,-51.21546 -31.74603,-64.28424 0,-7.6411 17.51763,-32.09141 64.03292,-89.20782 8.69194,-10.67166 19.25926,-16.53144 42.06496,-23.32303 35.28218,-10.50853 41.46825,-20.51735 28.92856,-46.81364 -9.40475,-19.72075 -9.41504,-58.20694 0,-71.6211 11.65785,-16.64462 33.78454,-23.730157 55.801,-17.8689 35.15138,9.35773 36.2037,12.41475 28.76984,83.49059 -2.62052,25.03968 -6.19195,39.19899 -10.76279,42.66608 -9.40328,7.12962 -3.97266,22.03556 10.81424,29.68253 20.98177,10.8495 29.40034,23.88742 29.73396,46.05232 0.17637,11.26837 3.90359,29.87948 8.29513,41.35802 6.30658,16.48589 7.44121,28.06144 5.39977,55.11463 -4.93387,65.36891 -7.60729,77.79983 -18.76103,87.26484 l -10.52175,8.92858 6.41534,42.7425 c 3.52881,23.50822 6.42269,62.14873 6.42857,85.86859 0.004,23.71987 1.71223,50.07055 3.78895,58.55821 2.07672,8.48765 2.09877,21.38447 0,28.6596 -4.68254,16.60053 -12.03851,128.46075 -9.42534,143.29761 2.66315,15.11611 31.74898,48.81246 51.3786,59.52381 9.21076,5.02499 16.16549,12.184 16.17284,16.64315 0,12.20017 -20.21164,17.20164 -68.33039,16.89741 -40.59524,-0.24985 -44.684,0.49971 -51.55791,9.54439 -6.85184,9.01673 -11.2081,9.8413 -52.91004,10.02054 -24.99412,0.14698 -51.39624,-0.89648 -58.67137,-2.22958 z m 98.85802,-5.74658 c 15.8642,-8.09377 15.72016,-14.86038 -0.44091,-20.49089 -7.92622,-2.76455 -23.96973,-15.20576 -35.65257,-27.64844 l -21.23897,-22.62345 -14.96326,14.50177 c -14.25925,13.82127 -28.7713,16.03908 -28.7713,4.39593 0,-2.64402 -1.98413,-3.58171 -4.40917,-2.0826 -2.42505,1.49913 -4.40918,8.55967 -4.40918,15.69224 0,10.1117 1.97972,12.96738 8.99325,12.96738 4.94708,0 17.34861,4.26954 27.55731,9.48706 18.56408,9.48707 45.63933,11.90182 65.62757,5.85244 8.20253,-2.48236 9.18871,-1.98119 4.92798,2.49853 -9.34744,9.83098 -54.25631,7.64403 -73.25543,-3.56555 -22.25897,-13.13197 -34.92504,-13.10993 -33.05556,0 1.23458,8.68166 4.71341,10.24104 27.8645,12.48677 46.48735,4.50761 70.26601,4.06084 81.22133,-1.5285 z m 37.82628,-30.02204 c -14.55026,-7.08113 -23.47884,-12.81894 -19.84128,-12.75133 3.63757,0 16.5344,5.00441 28.65962,10.96855 12.12522,5.96561 27.99824,10.84215 35.27337,10.83774 18.57436,-0.0132 46.32274,-4.94414 46.15666,-8.20546 -0.14697,-1.50059 -9.03879,-8.13052 -19.91769,-14.73251 -10.8789,-6.602 -23.908,-19.00353 -28.9565,-27.55732 -5.04702,-8.55526 -11.27278,-15.55408 -13.83597,-15.55408 -2.5632,0 -11.27131,5.04262 -19.35332,11.20664 -11.48295,8.75955 -16.50794,10.23515 -23.00706,6.75632 -7.45297,-3.98884 -8.80217,-2.06055 -12.99676,18.55526 -5.80835,28.54644 -0.45561,34.18136 31.96796,33.69047 l 22.30599,-0.33804 -26.45502,-12.87624 z m -33.35097,-21.72104 c 0.19106,-6.06262 3.301,-16.70636 6.92239,-23.65227 8.41123,-16.12728 8.31717,-54.43224 -0.22045,-90.66387 -4.46943,-18.9609 -5.70694,-36.93856 -3.73898,-54.33567 2.18107,-19.27102 0.91123,-32.47502 -4.90741,-51.02734 -4.31657,-13.7669 -8.71399,-28.00558 -9.77219,-31.64315 -1.14638,-3.91681 -4.27249,0.14698 -7.68372,9.96179 -3.16872,9.11816 -7.66901,19.0388 -10.00146,22.04585 -12.50882,16.13609 -36.82981,128.35243 -36.54615,168.62388 0.14698,15.96709 25.12199,53.11435 45.28512,67.26191 13.14668,9.22398 14.41799,9.38712 17.25897,2.20458 1.68724,-4.26366 3.21869,-12.71311 3.40535,-18.77571 z m -76.23604,-12.4956 c 5.49089,-8.29071 7.86596,-20.85244 8.05409,-42.61904 0.14697,-16.97487 3.02176,-49.71297 6.38595,-72.75088 5.46737,-37.43827 12.45885,-59.12404 37.3442,-115.84068 6.8886,-15.69958 6.85921,-16.76954 -0.51439,-19.03733 -4.30042,-1.32275 -16.30365,-6.2375 -26.67402,-10.92298 -32.1502,-14.52528 -36.25809,-12.60288 -36.25809,16.97384 0,25.47178 -5.84361,51.74602 -19.82362,89.14462 -6.95621,18.6067 -6.95033,24.36507 0.14697,92.59258 4.14021,40.01278 8.34802,74.153 9.35332,75.86522 3.1555,5.37919 13.93004,-1.17578 22.02822,-13.40535 z m -2.84685,-170.48456 c 0,-3.63756 1.9224,-6.61375 4.27101,-6.61375 2.34863,0 3.12905,2.97619 1.73282,6.61375 -1.39625,3.63757 -3.31718,6.61376 -4.27103,6.61376 -0.95532,0 -1.7328,-2.97619 -1.7328,-6.61376 z m 16.32863,-52.77189 c 4.35626,-5.98618 9.75602,-10.9465 11.99735,-11.02293 2.24133,-0.14697 -0.58789,4.82216 -6.28013,10.88478 -13.21869,14.07113 -15.90534,14.13579 -5.71722,0.14697 z M 670.1294,795.51705 c 3.16579,-41.44326 5.63346,-86.26395 5.48501,-99.60169 -0.14697,-13.33775 -0.32334,-31.69018 -0.39682,-40.78484 0,-9.09317 -0.92592,-16.53438 -1.90182,-16.53438 -0.97002,0 -9.35185,3.16725 -18.61699,7.03703 -10.97884,4.58848 -22.71458,6.09935 -33.70811,4.34156 -16.59613,-2.65431 -16.81952,-2.50293 -14.02704,9.49736 1.56084,6.70635 6.42563,20.55996 10.81276,30.7863 6.72692,15.68783 7.32656,23.16578 3.83303,47.82922 -3.22604,22.78512 -2.67049,34.18136 2.51764,51.65049 3.66108,12.32951 6.65638,38.59053 6.65638,58.35788 0,19.76924 1.20517,37.14579 2.67343,38.61699 1.46971,1.46972 9.02851,-1.49325 16.796,-6.58584 l 14.12551,-9.25926 5.75396,-75.35082 z m -21.01557,-24.64579 c 0,-6.06261 0.99941,-8.54203 2.22369,-5.51146 1.21987,3.03204 1.21987,7.99235 0,11.02293 -1.21987,3.03203 -2.22369,0.54379 -2.22369,-5.51147 z m 12.53086,-136.35949 c 14.6458,-10.3836 15.99207,-29.60758 6.31247,-90.11169 -8.94475,-55.90535 -17.06349,-68.94326 -42.93357,-68.94326 -8.67284,0 -16.84891,1.7475 -18.16873,3.88301 -6.2522,10.11757 -50.39241,7.58083 -73.86242,-4.24457 -9.1167,-4.59288 -10.64961,1.67843 -16.80041,68.70371 -7.20312,78.47883 -7.66902,75.92739 14.27983,78.28482 10.30717,1.10229 30.42916,6.38301 44.71487,11.72545 14.28719,5.34098 27.53528,8.10847 29.43857,6.14786 1.90476,-1.96209 5.30129,-29.3592 7.54849,-60.88477 3.46415,-48.59494 4.12846,-51.95032 4.36067,-22.04585 0.14697,19.40035 -1.14638,46.61375 -2.87624,60.47324 -2.59995,20.80101 -1.95768,25.53057 3.67871,27.08701 11.23751,3.10552 32.55439,-1.74163 44.30776,-10.07496 z m 18.99912,-154.30775 c 1.96208,-0.19106 2.60729,-1.89153 1.44032,-3.79188 -1.17577,-1.89888 0.69078,-18.26867 4.14316,-36.37566 8.2231,-43.11434 7.94533,-71.31687 -0.89654,-91.48441 -3.95355,-9.01676 -7.47794,-26.76368 -7.83215,-39.4371 -0.35273,-12.6749 -2.74397,-25.1455 -5.31158,-27.71311 -3.28483,-3.28483 -4.07995,2.42798 -2.68225,19.27543 1.29336,15.6261 -0.63198,31.81216 -5.53644,46.59171 -10.51146,31.64462 -5.78631,104.20486 7.00176,107.54849 4.57819,1.20517 8.32305,4.393 8.32305,7.10024 0,3.10845 -3.78749,2.44268 -10.27191,-1.8063 -9.85449,-6.45796 -16.18312,-5.23956 -16.18312,3.11288 0,2.16343 2.18254,2.58672 4.84862,0.94062 3.09376,-1.91211 2.86155,0.77895 -0.64668,7.45591 -5.38507,10.25132 -5.31894,10.29982 3.42445,2.54556 7.99236,-7.08847 9.19459,-7.17813 11.61376,-0.86714 1.48442,3.86831 0.86714,5.90536 -1.35214,4.52822 -2.22957,-1.38154 -5.19254,-0.66138 -6.58436,1.58877 -1.39625,2.25162 0.95532,3.4274 5.20722,2.61317 4.25485,-0.80835 9.34156,-1.63139 11.30365,-1.81658 z m -14.58994,-99.07259 c 0,-0.95532 3.07907,-2.91446 6.84302,-4.3592 3.92417,-1.505 5.69372,-0.76426 4.14904,1.7328 -2.58965,4.19018 -10.99206,6.19783 -10.99206,2.6264 z M 601.3096,470.9918 c 4.06672,-4.39888 3.9418,-4.92211 -0.57319,-2.36332 -6.08613,3.45091 -24.11376,-9.63844 -20.75544,-15.07202 1.0435,-1.69605 -0.485,-3.41857 -3.41123,-3.82569 -34.91769,-4.86478 -40.23368,-7.15167 -55.42033,-23.85067 -20.53498,-22.57789 -21.91358,-25.11611 -29.52234,-54.32833 -7.45444,-28.61846 -7.54997,-29.62963 -2.49413,-26.505 2.12229,1.30805 17.32364,-9.95443 33.78307,-25.03674 16.45797,-15.08083 27.8013,-23.47736 25.20576,-18.65814 -2.59553,4.81775 -9.86184,13.57143 -16.14785,19.45033 -12.35744,11.55937 -15.0147,22.37947 -5.49677,22.37947 21.7769,0 42.90858,-67.24426 29.18724,-92.88212 -9.5047,-17.76161 -48.58171,-3.48471 -63.77718,23.301 -4.85009,8.54938 -19.23428,27.8057 -31.96649,42.79247 -12.73074,14.9853 -23.12904,30.61581 -23.10553,34.73398 0,4.11816 4.67813,17.43827 10.34245,29.6017 14.00205,30.07055 79.93827,90.49529 103.35537,94.71781 22.85127,4.11963 44.6311,2.21046 50.79218,-4.45473 z m -33.60817,1.23457 c 2.89536,-0.97002 4.07701,-4.84862 2.62492,-8.6317 -2.25014,-5.86272 -0.91122,-5.74661 9.06673,0.79365 6.43739,4.21811 11.70488,8.10259 11.70488,8.6317 0,0.5291 -6.44767,0.95532 -14.3298,0.95532 -7.88067,0 -11.96061,-0.79365 -9.06673,-1.75485 z m -97.3104,-100.56143 c -4.25484,-11.0876 -2.9997,-13.94915 2.19724,-5.01029 2.57349,4.42534 3.75073,8.9756 2.6161,10.11023 -1.13169,1.13169 -3.30246,-1.16109 -4.81334,-5.09994 z m 38.11875,-84.45472 c 4.29013,-1.117 10.24251,-1.04351 13.22751,0.16167 2.98502,1.20516 -0.52909,2.12227 -7.79981,2.03262 -7.27514,-0.14697 -9.71782,-1.0729 -5.4277,-2.19576 z m 141.51234,178.45089 c -1.30806,-2.10317 0,-6.64168 2.83362,-10.08671 3.65815,-4.40771 4.27984,-17.2766 2.10024,-43.43915 -2.37654,-28.5435 -1.35214,-44.12552 4.4077,-67.10024 10.09995,-40.26601 6.33304,-73.14667 -9.57378,-83.56848 -9.32393,-6.10964 -11.9562,-6.35949 -15.05437,-1.42563 -2.06497,3.2863 -2.63375,9.57378 -1.26397,13.96972 2.08113,6.68578 1.16108,7.24427 -5.61288,3.40829 -4.45619,-2.52204 -16.75484,-6.75191 -27.33098,-9.39888 -10.57612,-2.6455 -23.69929,-9.63698 -29.16519,-15.53203 -10.73632,-11.58584 -20.19841,-15.03675 -11.06995,-4.03734 7.45296,8.98148 3.44649,57.52057 -6.30512,76.3786 -4.0726,7.87625 -12.27072,16.53732 -18.21576,19.24749 -13.20105,6.01411 -13.46854,11.87978 -1.60641,35.13081 6.52852,12.79689 8.77132,24.15343 7.71606,39.05643 l -1.48883,21.01411 21.35361,2.04732 c 16.54321,1.58583 24.48854,5.19548 35.27337,16.02293 12.10464,12.15315 16.6211,13.85509 34.64286,13.05703 11.3977,-0.49971 19.65902,-2.63962 18.35978,-4.7428 z m -49.66344,-48.83157 c -5.57759,-9.28718 -5.48353,-9.38124 2.10906,-2.10905 4.37096,4.18577 6.99736,8.55967 5.83774,9.71928 -1.16108,1.16109 -4.73544,-2.26484 -7.9468,-7.61023 z m 30.42182,0.14698 c 0,-6.32423 2.06349,-12.77337 4.58554,-14.33128 3.00852,-1.8592 3.55379,1.46973 1.58436,9.66049 -4.05791,16.893 -6.1699,18.49206 -6.1699,4.67079 z m 0,-40.41741 c 0,-3.49499 1.79894,-7.46472 3.99764,-8.82421 2.19871,-1.35215 2.96003,1.50059 1.69019,6.35362 -2.69106,10.29541 -5.68783,11.59611 -5.68783,2.47059 z m -64.19312,-35.85978 c -4.70605,-3.81834 -6.10818,-5.70399 -3.11434,-4.19165 2.99382,1.51235 13.90652,4.41799 24.25044,6.45796 l 18.80658,3.70811 -15.69224,0.48501 c -8.63022,0.26456 -19.54292,-2.63961 -24.25044,-6.45649 z m 65.3057,-21.71957 c 0,-9.70018 0.95532,-13.14962 2.00617,-7.66462 1.0582,5.48501 1.01411,13.42152 -0.14697,17.63669 -1.10229,4.21517 -1.96649,-0.26455 -1.91652,-9.97207 z m -36.38594,141.09346 c -3.01882,-3.63756 -7.72635,-6.55055 -10.46003,-6.47413 -2.73516,0.14697 -1.11699,3.05408 3.58612,6.61375 10.99501,8.31717 13.84333,8.25838 6.87391,-0.14697 z m -57.31923,-46.51528 c 0,-9.82069 -3.30982,-24.20488 -7.3545,-31.96649 -4.04615,-7.76161 -9.53409,-21.41387 -12.19723,-30.3395 -4.81629,-16.14786 -4.89271,-16.19048 -15.15579,-8.44945 -9.83392,7.4177 -10.08083,8.90506 -5.3013,31.92828 4.76191,22.93504 26.14786,56.68283 35.92005,56.68283 2.24868,0 4.08877,-8.03498 4.08877,-17.85567 z m 93.69488,-160.15137 c -0.60259,-1.52264 -1.19047,-7.23251 -1.30806,-12.6896 -0.14697,-7.14726 -5.29541,-12.4221 -18.41416,-18.86537 -10.0147,-4.92063 -19.16226,-11.80776 -20.32775,-15.30423 -1.16108,-3.49794 4.42093,-0.85244 12.41622,5.87155 16.33892,13.7478 36.50353,14.70165 38.9418,1.84303 0.89654,-4.69871 -1.24926,-7.71605 -5.47325,-7.71605 -3.8154,0 -6.93709,-1.98413 -6.93709,-4.40917 0,-2.42505 3.96826,-4.40917 8.81834,-4.40917 10.82745,0 11.84597,-8.61699 1.10229,-9.32981 -7.34568,-0.48501 -7.34568,-0.60258 0.003,-2.52792 5.72898,-1.49765 7.02234,-4.7913 5.01911,-12.77337 -1.48442,-5.9171 -0.5732,-13.31422 2.01646,-16.44033 7.59553,-9.15196 1.10229,-23.95649 -11.56819,-26.3786 -15.19842,-2.90564 -23.02764,0.52911 -23.02764,10.09848 0,4.31363 -2.96443,13.52586 -6.5873,20.47178 -3.62139,6.94591 -6.59759,16.10228 -6.61375,20.34538 0,8.56555 -0.69078,8.87713 -10.68931,5.03968 -3.83597,-1.47119 -6.94297,-6.92827 -6.90622,-12.12522 0,-7.71604 0.85244,-8.23633 4.34156,-2.8351 2.35009,3.63757 4.30482,4.37684 4.34156,1.64168 0,-2.73368 -3.40388,-7.62933 -7.64843,-10.87741 -4.2431,-3.24809 -6.24487,-4.16962 -4.44739,-2.04734 1.79747,2.12229 1.0582,6.52117 -1.64169,9.77514 -3.62286,4.36508 -3.54497,7.56467 0.29395,12.19723 6.59906,7.94974 1.82099,36.97531 -7.92033,48.1114 -6.61817,7.56467 -6.07585,8.91976 8.27453,20.70694 8.44504,6.93857 20.31599,13.32452 26.3786,14.19312 10.9612,1.57113 29.66196,-6.27866 27.55732,-11.56672 z m -23.97413,3.03792 c 3.18195,-1.27866 6.98559,-1.11699 8.45091,0.35273 1.46972,1.46973 -1.14638,2.50588 -5.78777,2.31482 -5.13669,-0.20576 -6.18165,-1.26397 -2.66314,-2.66314 z m 7.42064,-94.02116 c -3.45827,-5.59524 7.95267,-10.19989 18.50087,-7.46767 5.88625,1.52558 5.08819,2.28101 -3.04967,2.88801 -10.19107,0.76426 -10.35862,1.1023 -2.20459,4.61052 8.50235,3.65373 8.47149,3.8007 -0.83774,4.09907 -5.31305,0.17636 -10.89507,-1.68872 -12.40447,-4.12993 z"
       id="path4443"
       inkscape:connector-curvature="0" />
  </g>
</svg>
