<?xml version="1.0" encoding="UTF-8" standalone="no"?>
<!-- Created with Inkscape (http://www.inkscape.org/) -->

<svg
   xmlns:dc="http://purl.org/dc/elements/1.1/"
   xmlns:cc="http://creativecommons.org/ns#"
   xmlns:rdf="http://www.w3.org/1999/02/22-rdf-syntax-ns#"
   xmlns:svg="http://www.w3.org/2000/svg"
   xmlns="http://www.w3.org/2000/svg"
   xmlns:sodipodi="http://sodipodi.sourceforge.net/DTD/sodipodi-0.dtd"
   xmlns:inkscape="http://www.inkscape.org/namespaces/inkscape"
   width="210mm"
   height="297mm"
   viewBox="0 0 744.09448819 1052.3622047"
   id="svg4480"
   version="1.1"
   inkscape:version="0.91 r13725"
   sodipodi:docname="situps_light.svg">
  <defs
     id="defs4482" />
  <sodipodi:namedview
     id="base"
     pagecolor="#ffffff"
     bordercolor="#666666"
     borderopacity="1.0"
     inkscape:pageopacity="0.0"
     inkscape:pageshadow="2"
     inkscape:zoom="0.35"
     inkscape:cx="2884.0936"
     inkscape:cy="-251.67004"
     inkscape:document-units="px"
     inkscape:current-layer="layer1"
     showgrid="false"
     inkscape:window-width="3200"
     inkscape:window-height="1699"
     inkscape:window-x="0"
     inkscape:window-y="50"
     inkscape:window-maximized="1" />
  <metadata
     id="metadata4485">
    <rdf:RDF>
      <cc:Work
         rdf:about="">
        <dc:format>image/svg+xml</dc:format>
        <dc:type
           rdf:resource="http://purl.org/dc/dcmitype/StillImage" />
        <dc:title></dc:title>
      </cc:Work>
    </rdf:RDF>
  </metadata>
  <g
     inkscape:label="Layer 1"
     inkscape:groupmode="layer"
     id="layer1">
    <path
       style="fill:#f2f2f2"
       d="m 265.2721,793.55334 c -12.83492,-5.98401 -23.93221,-14.3389 -27.84538,-20.96127 -3.57738,-6.05679 -17.88947,-25.33917 -31.80322,-42.84818 -13.91503,-17.51029 -28.63695,-39.59253 -32.71737,-49.07222 -4.07914,-9.47969 -14.28145,-31.24147 -22.66953,-48.36108 -17.69925,-36.11728 -21.14513,-66.95786 -9.87548,-88.37748 8.71366,-16.55913 8.26936,-21.4924 -5.04051,-56.05974 -16.5936,-43.09331 -15.64882,-56.03675 5.64441,-77.32998 18.94277,-18.94277 24.83486,-20.18247 54.31445,-11.42796 18.53677,5.50524 35.7215,18.62486 30.81759,23.52877 -1.30736,1.30736 0.17874,7.32968 3.31438,13.38136 3.12926,6.05295 4.48386,11.00537 3.00924,11.00537 -1.47461,0 1.20013,4.12765 5.9355,9.17199 4.73793,5.04307 7.04497,10.14103 5.12478,11.32839 -1.9202,1.18735 -3.79443,10.18571 -4.16596,19.99735 -0.85541,22.43461 -2.27768,24.61526 -16.12632,24.61526 -16.23484,0 -14.19718,9.36478 2.293,10.54192 7.44842,0.53623 19.72158,3.54802 27.27213,6.70281 18.68105,7.8059 47.85167,7.20456 81.97215,-1.69038 41.34675,-10.7794 129.90043,-17.26133 188.6566,-13.80779 39.00524,2.29172 48.68027,3.9553 47.09074,8.09444 -1.4644,3.81741 1.28439,4.99072 10.27764,4.38811 15.036,-1.00862 19.70881,5.65206 6.53045,9.30988 -61.62498,17.10684 -73.62109,19.43942 -81.57381,15.86331 -5.73505,-2.57899 -12.50808,-2.40663 -21.16045,0.53622 l -12.7264,4.33193 7.89783,7.14711 c 4.34342,3.92976 14.8981,19.39218 23.45344,34.35796 39.26058,68.67633 73.83941,113.35406 87.77998,113.4179 3.24799,0 18.26994,8.45319 33.38381,18.75126 19.67689,13.40945 32.77865,19.45347 46.14596,21.29195 26.0784,3.5876 30.3733,6.85346 25.8205,19.63859 -2.03,5.70186 -8.55789,13.99036 -14.50488,18.41932 -9.72737,7.24286 -16.26803,8.09061 -65.11299,8.44043 -60.18484,0.43408 -80.36731,-2.83689 -93.32735,-15.11388 -9.57033,-9.06475 -11.5416,-30.34137 -5.30352,-57.21389 l 3.36417,-14.487 -32.14794,-26.85081 c -17.68137,-14.76789 -36.868,-32.76716 -42.63752,-39.99853 l -10.49085,-13.14772 -11.03346,39.16483 c -6.76537,24.0152 -11.24029,49.53439 -11.56714,65.97478 l -0.53622,26.81123 -38.30176,19.00917 c -48.90624,24.2731 -75.97665,27.12275 -109.43452,11.52372 z m 100.43488,-11.39988 c 40.30367,-17.71329 42.74987,-19.65519 35.26954,-28.00752 -3.17522,-3.54547 -11.10879,-14.82917 -17.62902,-25.07489 -10.01719,-15.74202 -11.13816,-19.77647 -7.2301,-26.03498 4.04594,-6.47683 2.1666,-10.14359 -14.98365,-29.2485 -10.7845,-12.01271 -22.99638,-28.39693 -27.13807,-36.40838 l -7.53013,-14.56744 11.86206,-16.07397 11.86077,-16.07525 -9.80908,-1.21289 c -5.39544,-0.66389 -19.38835,1.5691 -31.09464,4.97157 -21.13364,6.1436 -21.26514,6.27511 -18.58274,18.45251 4.71112,21.39026 8.3051,58.01185 6.27638,63.9716 -1.07245,3.1599 -4.54514,8.76089 -7.71142,12.44808 -3.16628,3.6859 -4.51067,6.7028 -2.98754,6.7028 1.52314,0 -0.93201,5.19117 -5.44395,11.53522 -4.51833,6.34532 -9.55119,10.70917 -11.18667,9.69928 -1.63421,-1.00861 -8.49278,6.68238 -15.24027,17.09535 -6.7475,10.41298 -13.83077,19.89904 -15.74075,21.08002 -6.81261,4.21064 5.5895,21.73114 20.93064,29.56895 36.02408,18.404 59.22218,17.78862 106.10864,-2.81773 z m -85.85595,-9.53458 c -10.14231,-7.97826 -20.57698,-30.66439 -14.10526,-30.66439 1.9968,0 3.63101,2.45259 3.63101,5.45161 0,10.45128 19.04874,28.50673 31.7445,30.08987 l 12.30252,1.53462 -11.931,0.61283 c -6.91346,0.35748 -16.01652,-2.59941 -21.64177,-7.02454 z m 55.02942,-31.97942 c 7.1586,-4.93582 13.69032,-8.42639 14.51509,-7.75611 2.60196,2.11554 -16.57062,16.47104 -22.17544,16.60382 -2.94413,0.12767 0.49792,-3.91061 7.66035,-8.84771 z m -31.03209,-15.24921 c 0,-5.44651 24.17352,-56.20911 26.76783,-56.20911 1.5193,0 -3.19182,12.49531 -10.46788,27.76878 -13.25624,27.8275 -16.29995,33.13868 -16.29995,28.44033 z m -3.83017,-62.34888 c 0,-5.31501 23.47387,-36.77607 25.74389,-34.50606 1.00861,1.00862 -2.97733,8.41745 -8.86814,16.45572 -15.09345,20.59996 -16.87575,22.50611 -16.87575,18.05034 z m 373.48557,125.91704 c 4.23618,-2.28917 10.93771,-7.73696 14.89173,-12.10591 10.04144,-11.09602 3.10116,-18.22143 -20.97277,-21.53325 -13.44009,-1.84742 -26.31586,-7.59013 -43.68444,-19.48283 -26.8125,-18.35803 -32.62671,-20.22333 -32.62671,-10.46149 0,17.85756 -24.46844,26.22266 -41.6021,14.22145 -12.5783,-8.81069 -16.46848,-2.67347 -15.10111,23.82369 1.11076,21.46814 1.75039,22.7704 13.01494,26.41162 15.88374,5.13499 116.2484,4.43917 126.08046,-0.86818 z m -51.75078,-5.59461 c -7.37309,-2.1232 -22.02352,-3.02967 -32.5565,-2.0134 -14.20357,1.3712 -22.9568,-0.12767 -33.88557,-5.63546 -8.10337,-4.11617 -13.75927,-8.45831 -12.56681,-9.65077 1.18736,-1.18736 6.7692,0.8554 12.39445,4.5362 7.39224,4.84262 14.96578,6.16786 27.30916,4.77623 9.39414,-1.05968 27.68196,0.57453 40.64072,3.62973 22.88147,5.39417 34.52266,5.29331 50.37192,-0.43408 7.55183,-2.72964 7.55439,-2.6824 0.22981,3.28884 -8.32552,6.78324 -31.30019,7.44969 -51.93335,1.50526 z m -92.88943,-26.88146 c 0.8171,-8.81068 3.0169,-18.86617 4.87964,-22.34652 3.19692,-5.97252 -1.6457,-15.16239 -7.98975,-15.16239 -3.9821,0 -7.50842,33.04676 -4.91284,46.0285 3.00925,15.04494 6.13722,11.72417 8.02295,-8.51959 z m -283.479,-17.40048 c 6.11807,-7.90038 15.0028,-20.79786 19.74584,-28.66377 4.74303,-7.86462 12.80938,-17.59327 17.92522,-21.61751 7.89016,-6.20616 9.24605,-10.43085 8.93453,-27.83134 -0.20428,-11.28242 -2.36195,-29.09784 -4.79921,-39.58997 l -4.43024,-19.07428 -17.11451,1.23842 c -11.94631,0.85541 -19.62326,3.94253 -25.42598,10.20487 -4.57195,4.93327 -14.32358,10.09762 -21.66986,11.47521 -37.1808,6.97602 -68.25374,-43.41633 -49.25351,-79.87577 6.7194,-12.8911 6.86495,-14.34529 1.20012,-11.95526 -3.54674,1.49632 -10.18954,3.53525 -14.76277,4.5311 -11.54033,2.51387 -17.84352,20.2361 -15.8314,44.50792 1.58059,19.05896 16.13653,55.08815 42.38984,104.93023 9.232,17.52561 45.23055,65.50367 49.41948,65.86499 1.40312,0.12767 7.55566,-6.24319 13.67373,-14.14229 z m -10.70789,-72.24223 c -2.35045,-6.08488 -5.04307,-17.09663 -5.98274,-24.46972 -1.22565,-9.5665 0.47239,-6.86878 5.91507,9.42223 7.77526,23.27598 7.8276,35.13931 0.12767,15.04749 z m 176.41663,78.69352 c 0,-4.35236 -1.65208,-10.99899 -3.67058,-14.77171 -2.57899,-4.81837 -1.55889,-12.43659 3.428,-25.60218 3.90423,-10.30828 11.04751,-36.83991 15.87353,-58.95918 9.30094,-42.62475 15.1675,-56.35848 14.30826,-33.49105 -0.6639,17.64945 6.10403,27.7126 35.73682,53.13986 13.18347,11.31178 34.39371,30.90952 47.13287,43.5491 12.73917,12.63958 27.4164,25.22809 32.61523,27.97433 13.02387,6.88027 26.28139,2.76794 29.25488,-9.07496 2.02872,-8.08806 -0.22981,-11.99229 -13.52052,-23.36919 -14.67213,-12.55914 -65.26492,-85.42697 -75.68556,-109.00681 -5.99039,-13.55882 -27.62833,-37.81533 -33.73236,-37.81533 -2.70538,0 -16.08291,5.22436 -29.72855,11.60927 -13.64436,6.38618 -34.08984,12.62426 -45.43355,13.86268 -24.93572,2.72198 -34.33242,8.13147 -45.49227,26.18692 -7.59524,12.29103 -7.9706,15.02067 -3.5327,25.7324 2.72964,6.59045 14.97599,22.68741 27.21468,35.77001 19.12279,20.44165 21.44387,24.45695 16.5055,28.55524 -7.65014,6.34916 -7.27223,9.73631 2.57643,23.05638 6.39129,8.64471 9.50139,10.27637 13.40562,7.03604 6.24063,-5.1784 6.80367,1.12352 0.65113,7.28116 -3.35779,3.35779 -3.24416,5.86655 0.47239,10.34148 6.81005,8.20551 11.62586,7.37436 11.62586,-2.00446 z M 551.16794,720.6153 c -3.31055,-3.31055 -5.90869,-8.91282 -5.77591,-12.44807 0.17874,-4.76857 1.11075,-4.28725 3.58632,1.86146 1.83849,4.55919 6.46917,10.10911 10.29041,12.33189 3.81996,2.22151 4.91539,4.09318 2.43216,4.15702 -2.48195,0.12767 -7.22243,-2.59175 -10.53298,-5.9023 z m -47.70612,-39.60785 c -0.24258,-2.97605 -5.83719,-13.81417 -12.42765,-24.08415 -15.72287,-24.50164 -12.75959,-26.85592 3.68846,-2.93136 7.25819,10.55852 11.99739,21.56644 10.97729,25.50131 -1.04692,4.04211 -1.97893,4.67154 -2.2381,1.5142 z m -91.7174,-29.0621 c 0,-4.21319 1.49249,-11.9693 3.17905,-17.23579 l 3.06669,-9.57544 0.12767,9.57544 c 0,5.26649 -1.36865,13.0226 -3.17904,17.23579 -3.2914,7.66035 -3.2914,7.66035 -3.17905,0 z m -130.9984,46.18809 c 0.12767,-1.98275 -2.40919,-0.25534 -5.50269,3.83018 -3.09223,4.08807 -5.6776,9.05709 -5.74526,11.03857 -0.12768,1.98275 2.40918,0.25534 5.50268,-3.83018 3.09223,-4.08807 5.6776,-9.05709 5.74527,-11.03857 z m -63.75073,-80.88693 c -0.37025,-1.98148 -1.84742,-6.61982 -3.28246,-10.30573 -2.34024,-6.01465 0.29364,-6.70281 25.69282,-6.70281 15.56583,0 37.72596,-2.58409 49.24457,-5.74143 11.51862,-3.15734 42.02597,-8.20935 67.79284,-11.22625 37.24336,-4.36002 53.34286,-8.27063 78.51861,-19.07172 17.41837,-7.47395 37.30719,-14.70915 44.1964,-16.08036 6.89049,-1.36992 13.44392,-3.97444 14.56361,-5.78484 1.12352,-1.81167 6.1985,-0.56176 11.28753,2.76922 8.54129,5.59588 10.95941,5.46821 31.39978,-1.65464 20.06374,-6.99262 20.9549,-7.74717 9.47203,-8.02039 -6.97092,-0.16597 -11.69608,-1.88444 -10.50107,-3.81741 3.85061,-6.23169 -157.15595,-2.00701 -187.48456,4.91923 -14.74618,3.368 -35.11123,6.15254 -45.25609,6.18956 -10.14486,0 -21.76561,1.84359 -25.82432,4.0153 -5.48481,2.93519 -14.32231,1.84104 -34.42307,-4.26426 -14.87513,-4.51833 -26.21883,-9.04049 -25.21022,-10.04911 1.00861,-1.00861 11.27604,0.90648 22.81636,4.26427 29.5613,8.59491 39.31548,7.34117 14.05802,-1.80529 -23.32705,-8.44682 -56.03675,-7.28117 -71.66515,2.556 -12.93195,8.13913 -18.07077,32.30754 -10.64789,50.07445 7.03221,16.82979 16.08547,27.69472 26.77549,32.1339 9.28818,3.85698 19.40112,2.54451 18.47677,-2.39769 z m 37.06078,-28.85783 c 0,-1.9087 2.46025,-3.47141 5.46822,-3.47141 3.00668,0 9.88185,-5.60227 15.27729,-12.44807 5.39672,-6.84708 9.82951,-10.52661 9.85377,-8.17743 0.12767,7.03986 -14.53552,23.3679 -22.847,25.54089 -4.26299,1.11075 -7.75228,0.45962 -7.75228,-1.44398 z m -30.64141,-10.90834 c 0,-4.24639 15.03089,-13.2805 17.68393,-10.62746 0.93201,0.93201 -2.65687,4.56429 -7.98847,8.05869 -5.33289,3.49312 -9.69546,4.64983 -9.69546,2.56877 z m 122.88482,-1.17459 c 0.88094,-0.52345 6.7143,-5.26649 12.97025,-10.53298 8.47108,-7.13051 9.93803,-7.6195 5.74527,-1.91509 -6.64408,9.04049 -11.96164,13.26646 -16.80043,13.34689 -1.93041,0 -2.7922,-0.37025 -1.91509,-0.89371 z m 0,-16.59742 c 0.17874,-4.46216 1.09798,-5.36991 2.31343,-2.31471 1.11075,2.76539 0.97031,6.06955 -0.30642,7.34245 -1.27672,1.27672 -2.17682,-0.99585 -2.01084,-5.02774 z m -149.67945,-20.8668 c 0,-2.04021 2.58537,-3.71017 5.74526,-3.71017 3.1599,0 5.74527,0.67667 5.74527,1.50526 0,0.82987 -2.58537,2.49728 -5.74527,3.71016 -3.15989,1.21289 -5.74526,0.53623 -5.74526,-1.50525 z m 37.53572,75.95749 c 7.13945,-7.13944 5.47588,-10.72449 -4.97923,-10.72449 -10.42573,0 -10.6798,0.31918 -7.25052,9.26264 2.78199,7.24797 6.05168,7.63993 12.22975,1.46185 z m -63.84392,-87.58463 c 8.5349,-4.35364 19.73689,-8.24126 24.89486,-8.63705 5.15797,-0.39578 10.60704,-2.71049 12.11102,-5.14393 1.50271,-2.43216 7.86718,-5.00859 14.14229,-5.72483 10.83301,-1.23843 11.41392,-2.20874 11.47903,-19.17769 0,-9.83079 1.34567,-19.15216 2.90711,-20.7136 4.19149,-4.19149 -4.57706,-13.11963 -12.88344,-13.11963 -9.0456,0 -9.31243,-6.0721 -0.48515,-11.09602 6.22148,-3.54036 6.07466,-4.44938 -2.04149,-12.6383 -10.09889,-10.18955 -16.24122,-5.27288 -13.21155,10.57639 1.03415,5.37885 0,9.32776 -2.49345,9.32776 -2.353,0 -4.27703,4.49279 -4.27703,9.98527 0,7.35521 -1.51292,9.37244 -5.74526,7.66035 -7.63737,-3.09095 -16.08036,-5.32267 -12.40466,-3.27863 1.60484,0.89371 4.80687,5.15159 7.11519,9.46692 3.82507,7.14455 3.33097,7.62715 -5.52822,5.4031 -7.6195,-1.91126 -10.25722,-0.76604 -12.17486,5.26904 -1.34567,4.24001 -7.12412,10.12827 -12.84002,13.08516 -9.20519,4.75963 -10.22402,7.16499 -8.90261,21.02384 0.8171,8.6064 2.24193,15.64882 3.15862,15.64882 0.91924,0 8.64854,-3.56206 17.18345,-7.91697 z m -5.60994,-13.78736 c -1.40439,-1.4044 -2.55345,-4.33448 -2.55345,-6.5113 0,-2.40024 1.78359,-2.17426 4.53238,0.57453 2.49344,2.49344 3.6425,5.42353 2.55345,6.5113 -1.08522,1.08521 -3.12798,0.82987 -4.53238,-0.57453 z m 30.35543,-18.51252 c -3.45099,-5.26649 -4.78772,-9.57544 -2.97094,-9.57544 1.81678,0 5.26777,4.30895 7.66673,9.57544 2.40025,5.2665 3.73698,9.57544 2.97094,9.57544 -0.76603,0 -4.21575,-4.30894 -7.66673,-9.57544 z m 164.34519,34.7397 c 10.53299,-2.93008 16.56551,-5.44906 13.40562,-5.59716 -3.1599,-0.15321 -14.36316,2.12957 -24.89615,5.06094 -10.53298,2.93008 -16.56551,5.44906 -13.40561,5.59716 3.15989,0.15321 14.36316,-2.12958 24.89614,-5.06094 z M 203.9612,525.00565 c 0.88094,-0.75326 -3.75996,-1.36482 -10.307,-1.36482 -6.54705,0 -12.95238,1.69805 -14.23422,3.77273 -2.11425,3.42034 20.29866,1.22565 24.54122,-2.40791 z m 348.54602,-3.8123 c 0.88094,-0.76603 -32.73268,-1.13628 -74.68843,-0.84264 -43.15332,0.30642 -69.63005,1.71209 -60.96364,3.23267 14.62362,2.56877 132.32237,0.48516 135.65207,-2.39386 z M 152.573,340.60566 c -16.01013,-5.75676 -32.17092,-16.35103 -39.86575,-26.1333 l -7.98464,-10.15124 -17.681366,16.2974 C 69.746722,336.56099 68.918127,336.86357 49.05228,334.52844 22.935586,331.45919 18.288306,329.53134 11.303342,318.87196 5.258047,309.64507 1.9334542,267.59995 6.6458475,259.97407 c 1.5116428,-2.44493 6.7436635,-4.44556 11.6284145,-4.44556 4.883475,0 11.0258,-2.58537 13.648194,-5.74527 2.622394,-3.15989 6.576413,-5.74526 8.785147,-5.74526 2.210012,0 7.043694,-2.73858 10.743644,-6.08615 3.855711,-3.49057 15.136856,-6.54066 26.443536,-7.14966 17.53327,-0.94478 20.089274,-0.12768 23.065317,7.73823 5.03924,13.25369 35.3155,17.21026 47.08691,6.15126 4.64856,-4.3664 16.54253,-11.51861 26.43205,-15.89395 22.94147,-10.14741 76.9776,-11.36413 102.09845,-2.29811 9.21795,3.32587 24.41482,6.04785 33.76938,6.04785 14.74746,0 19.77393,-2.3862 37.78469,-17.93544 11.42542,-9.86398 21.86392,-21.36727 23.19427,-25.56132 3.42418,-10.78705 35.84789,-44.59729 42.76775,-44.59729 3.17138,0 15.3041,-8.18764 26.96061,-18.19334 36.89481,-31.66917 43.258,-35.42912 59.9563,-35.42912 8.60257,0 19.27472,2.54579 23.71645,5.65717 4.44172,3.11138 27.18914,33.04803 50.55066,66.52632 42.00937,60.20399 56.19251,75.27956 66.93999,71.15574 4.60515,-1.76827 29.49235,15.71904 37.25229,26.17542 1.18735,1.60229 11.48159,6.19595 22.86998,10.20614 11.38967,4.01148 21.33153,9.16562 22.09501,11.45606 0.76604,2.28917 3.61824,4.16213 6.34533,4.16213 2.7258,0 7.00666,2.47046 9.5116,5.48864 3.57866,4.31278 3.15223,7.63099 -1.98786,15.47646 -10.54703,16.09568 -20.09438,19.2377 -59.08174,19.44453 -20.01267,0.12767 -42.86223,1.62655 -50.77793,3.37822 -13.36476,2.95817 -15.31815,2.20362 -27.37554,-10.58023 -12.87961,-13.65713 -12.97025,-14.00567 -11.35775,-43.86445 1.87806,-34.75757 0.58729,-36.75692 -36.32539,-56.37126 -26.6427,-14.15633 -46.66048,-41.27397 -46.26342,-62.67317 l 0.25534,-13.93035 4.82603,17.92267 c 6.80367,25.26768 21.73497,42.92606 48.23851,57.05303 12.57447,6.70153 27.29384,17.99672 32.71226,25.10042 10.03761,13.15921 19.72924,17.57412 15.73564,7.16881 -3.12798,-8.15189 -0.37025,-7.1586 10.61214,3.83018 5.26649,5.26649 7.71908,9.57544 5.45034,9.57544 -2.6607,0 -2.43216,2.03893 0.63836,5.74526 7.05646,8.50299 14.91726,6.99135 19.84032,-3.81485 4.93837,-10.83685 -1.23843,-20.2744 -20.8234,-31.84664 -5.92017,-3.49695 -27.35511,-30.51374 -47.63462,-60.03673 -49.14116,-71.54259 -47.38311,-69.61601 -53.4833,-58.62595 -3.72038,6.70153 -4.90518,7.24541 -5.00859,2.30065 -0.12768,-3.56206 1.84997,-7.70376 4.27447,-9.20263 7.28372,-4.50174 -8.1072,-13.04686 -23.49813,-13.04686 -11.51606,0 -19.14577,4.50684 -46.18809,27.27852 -17.8167,15.0028 -33.03144,27.84921 -33.81024,28.54757 -4.65877,4.17234 6.28787,24.35992 22.50611,41.51018 10.35041,10.94409 20.33568,23.99733 22.18949,29.0072 3.13819,8.48511 4.7175,7.02837 23.05766,-21.2728 10.82791,-16.70978 19.72285,-28.65866 19.76498,-26.55206 0,2.1066 -8.46213,17.15791 -18.89936,33.44765 l -18.97597,29.6162 7.22882,21.91499 c 3.977,12.05229 6.29553,23.42536 5.15414,25.27278 -1.14905,1.84742 -7.49055,6.66068 -14.10654,10.69513 -11.78034,7.18286 -11.83141,7.33734 -2.45514,7.40884 11.78673,0.12767 20.92553,5.47459 17.82053,10.50106 -4.0919,6.61855 -22.9185,9.00092 -144.21634,18.24441 -45.29184,3.45226 -89.24311,6.90708 -97.66949,7.6795 -43.23631,3.95913 -81.26485,5.10052 -88.09405,2.64538 z m 105.32985,-8.56172 c 36.86544,-2.23938 74.78418,-5.57419 84.26387,-7.4114 9.47969,-1.83593 25.42343,-2.39896 35.42913,-1.25119 12.56936,1.44143 18.19333,0.68944 18.19333,-2.41556 0,-3.06797 -4.57195,-3.74974 -14.36316,-2.13979 -13.93035,2.29172 -14.07462,2.1998 -4.78772,-3.04116 6.52918,-3.68591 11.8378,-4.26937 16.6868,-1.83593 3.91061,1.96232 15.11388,2.48578 24.89615,1.16182 9.78099,-1.32397 26.40268,-2.47813 36.93566,-2.56367 l 19.15088,-0.1532 -13.40561,-3.77911 c -7.37309,-2.07723 -19.43815,-5.46694 -26.81123,-7.53013 -7.37309,-2.06446 -55.01921,-5.41459 -105.88012,-7.44331 -63.84903,-2.54834 -97.49202,-5.46183 -108.6838,-9.40946 -8.91537,-3.14585 -21.34557,-5.71973 -27.62323,-5.71973 -6.58662,0 -16.22717,-4.04978 -22.79337,-9.57544 -16.93577,-14.25081 -30.17924,-12.56681 -46.92094,5.96486 -16.71872,18.50486 -15.91949,26.35544 4.57068,44.86413 16.27314,14.70149 32.10709,20.32674 50.70898,18.01715 7.37309,-0.91925 43.56825,-3.49696 80.4337,-5.73633 z m -98.30658,-20.69828 c 2.41301,-5.11328 4.99327,-8.69067 5.73377,-7.95017 2.37727,2.37727 -3.57994,17.24601 -6.90963,17.24601 -1.76572,0 -1.23843,-4.18383 1.17458,-9.29584 z m 25.53323,7.82761 c 0,-0.80434 3.44971,-2.37088 7.66546,-3.4727 4.21575,-1.09798 6.70025,-0.44685 5.51928,1.46824 -2.06191,3.3348 -13.18474,5.02647 -13.18474,2.00446 z m 79.04845,-8.10721 c 1.21289,-3.15989 2.88285,-5.74526 3.71016,-5.74526 0.82988,0 1.50526,2.58537 1.50526,5.74526 0,3.1599 -1.66995,5.74526 -3.71016,5.74526 -2.04021,0 -2.71815,-2.58536 -1.50526,-5.74526 z m 89.4793,1.91509 c 3.15989,-2.04149 7.46884,-3.71272 9.57544,-3.71272 2.10659,0 1.23842,1.67123 -1.91509,3.71272 -3.1599,2.04148 -7.46884,3.71272 -9.57544,3.71272 -2.1066,0 -1.25119,-1.67124 1.91509,-3.71272 z m -149.37687,-9.23966 c 0,-3.32332 -5.39289,-7.41905 -12.44807,-9.45671 -11.47649,-3.3131 -11.67183,-3.62079 -2.50877,-3.9387 11.0424,-0.38301 25.77709,12.56937 19.03598,16.73532 -2.24321,1.38652 -4.07914,-0.12767 -4.07914,-3.33991 z m 44.68539,2.85603 c -1.4044,-1.4044 -2.55345,-4.33448 -2.55345,-6.5113 0,-2.40024 1.78358,-2.17426 4.53237,0.57453 2.49345,2.49217 3.6425,5.42225 2.55345,6.5113 -1.08521,1.08521 -3.12797,0.82987 -4.53237,-0.57453 z m 120.01218,-4.74814 c 0,-1.90998 3.44716,-2.57005 7.66035,-1.46823 4.2132,1.09798 7.66036,2.66325 7.66036,3.47141 0,0.80434 -3.44716,1.46824 -7.66036,1.46824 -4.21319,0 -7.66035,-1.56272 -7.66035,-3.47142 z M 131.50703,282.08567 c 0,-4.83751 11.93483,-7.53906 18.08993,-4.09446 4.56174,2.55345 3.15351,3.73443 -6.07466,5.08903 -6.60833,0.97031 -12.01527,0.52346 -12.01527,-0.99585 z m 511.26468,40.34325 c 15.19175,-4.60771 23.11766,-4.95242 38.82649,-1.69166 23.08064,4.79155 36.47349,2.28023 46.1766,-8.65748 6.80623,-7.67184 6.78835,-7.77398 -0.67666,-3.98977 -13.209,6.69643 -36.60244,9.47969 -42.00299,4.99838 -6.01337,-4.99072 -21.94052,-5.84357 -40.3458,-2.16022 -11.73821,2.34918 -14.8049,1.21289 -24.65484,-9.12348 -6.18701,-6.49214 -9.15029,-11.8046 -6.5828,-11.8046 2.56622,0 5.6776,2.63389 6.9122,5.85123 4.12254,10.74237 15.30155,13.75289 33.7847,9.09923 14.69894,-3.70123 18.79851,-3.39226 27.08701,2.03765 5.68653,3.72676 13.29071,5.458 18.20865,4.1468 27.10616,-7.23009 37.23442,-11.36413 36.10963,-14.73851 -0.68943,-2.08873 -9.7095,-6.26106 -20.02927,-9.26903 -11.61437,-3.38715 -25.92263,-11.90802 -37.5536,-22.36567 -21.00341,-18.88405 -25.62132,-20.50294 -25.62132,-8.98177 0,22.26865 -18.7219,29.91878 -33.83833,13.82694 -4.60004,-4.89497 -7.62971,-9.63545 -6.73218,-10.53299 0.89371,-0.8937 -2.29044,-1.63037 -7.08327,-1.63037 -7.85824,0 -8.39191,1.12351 -5.42608,11.46499 1.80784,6.30575 3.28757,20.26291 3.28757,31.01421 0,16.48763 1.3495,20.19907 8.61789,23.70496 11.21604,5.40949 9.54225,5.47205 31.53512,-1.20012 z M 98.63774,302.99588 c 3.33225,-1.27928 6.05806,-5.58312 6.05806,-9.56395 0,-3.98211 6.03764,-13.92269 13.41711,-22.09118 l 13.41583,-14.85087 -12.20422,-2.43982 c -7.5148,-1.50398 -13.24347,-0.76604 -14.90449,1.92402 -1.48356,2.40152 -4.614086,3.1816 -6.956877,1.7338 -2.428332,-1.50015 -4.257879,-0.12767 -4.257879,3.33991 0,3.28374 -1.783586,5.97125 -3.965509,5.97125 -2.732193,0 -2.732193,-2.30194 0,-7.40884 2.181923,-4.07403 3.965509,-11.77652 3.965509,-17.11578 0,-7.63354 -1.431209,-9.17838 -6.702808,-7.23393 -3.685907,1.36099 -7.994855,4.32299 -9.575441,6.5828 -1.932962,2.76411 -4.107225,2.22916 -6.644079,-1.63549 -2.521532,-3.84166 -3.790597,-4.15957 -3.830176,-0.95754 0,2.63261 -1.884446,4.78772 -4.114885,4.78772 -2.23044,0 -2.991368,-1.72358 -1.689108,-3.83018 1.30226,-2.10659 0.497923,-3.83017 -1.784862,-3.83017 -2.284062,0 -5.172015,5.10307 -6.420652,11.34115 -2.065742,10.33126 -7.975703,13.62393 -12.884712,7.17903 -1.059682,-1.40057 -5.154141,-0.19151 -9.082625,2.67601 -5.043065,3.68846 -6.455123,7.96038 -4.804317,14.53935 2.234269,8.90388 3.112656,9.15029 19.884997,5.57291 21.552401,-4.59622 24.832309,-2.00829 13.177083,10.39892 -11.161133,11.87993 -7.490548,17.11451 4.298734,6.13084 4.750695,-4.42513 11.327108,-7.99102 14.617229,-7.92464 5.074983,0.12768 4.965185,0.89371 -0.727734,5.21032 -3.685906,2.79858 -6.702808,6.06445 -6.702808,7.25818 0,2.13341 9.094115,5.24479 17.880539,6.1168 2.46025,0.24257 7.200731,-0.60006 10.532984,-1.88062 z m 500.15078,-13.63415 c 0,-13.94695 -1.67251,-13.44137 -5.27926,1.59591 -1.50015,6.2534 -0.94478,10.53298 1.37631,10.53298 2.14617,0 3.90295,-5.458 3.90295,-12.12889 z M 454.04744,268.70942 c 13.878,-33.71193 12.24635,-42.59411 -12.87578,-70.08073 -10.86876,-11.89015 -22.11288,-27.2466 -24.98679,-34.12559 l -5.22691,-12.50681 -11.79694,8.67663 c -6.4896,4.7724 -14.9096,14.75128 -18.71297,22.17672 -3.80336,7.42416 -16.12632,22.07458 -27.38576,32.5565 l -20.47101,19.0564 0,26.81123 0,26.81123 49.34416,2.74369 c 27.13935,1.50909 50.30042,3.69995 51.46735,4.86687 4.99966,4.99966 10.36063,-2.00828 20.64465,-26.98614 z m -90.81475,-8.38809 c -9.78483,-2.28278 -17.26899,-8.34978 -17.11961,-13.87928 0.12767,-2.37598 1.87295,-1.30353 4.02041,2.38365 2.91348,5.00221 8.87834,6.70281 23.50323,6.70281 10.7794,0 18.88022,0.61283 18.00311,1.37631 -3.45354,2.97732 -21.1579,5.1069 -28.40714,3.41651 z m 105.42942,26.53802 c 7.98848,-6.46917 8.26042,-8.02933 3.7689,-21.63794 -5.38651,-16.32166 -7.36032,-14.81129 -17.23962,13.18985 -6.26617,17.7618 -1.62528,20.67273 13.47072,8.44809 z m -142.2987,-22.71295 0.21705,-25.85369 -18.05801,-0.70219 c -9.93164,-0.38302 -25.59962,-3.40503 -34.81757,-6.70281 -21.68135,-7.75739 -70.4612,-7.78675 -93.14861,0 -9.58821,3.26714 -21.39919,10.16146 -26.24564,15.3207 -8.71748,9.27797 -8.72642,9.3801 -0.77881,9.3801 4.41875,0 13.15538,4.30895 19.41389,9.57544 6.67727,5.61887 16.19143,9.57544 23.02574,9.57544 6.40533,0 16.49785,1.99936 22.42824,4.44173 9.841,4.05488 51.78525,8.74685 91.82591,10.27253 l 15.92971,0.60006 0.21704,-25.85368 z m -89.32098,9.24094 c -3.85316,-2.81645 -6.33639,-6.69387 -5.52056,-8.61789 0.8171,-1.92275 5.30096,0.38301 9.96612,5.12222 9.31499,9.46564 6.61854,11.58628 -4.44556,3.49567 z m -22.57889,-30.11667 c 3.22629,-16.93449 5.13754,-18.39506 5.13754,-3.92721 0,6.54705 -1.69804,12.95238 -3.77272,14.23421 -2.35683,1.45674 -2.8688,-2.41046 -1.36482,-10.307 z m 437.94744,-0.7405 c 0,-0.82988 -2.67474,-2.53175 -5.94443,-3.78677 -3.40886,-1.30737 -4.94603,-0.6639 -3.6042,1.50526 2.24959,3.63994 9.54863,5.38395 9.54863,2.28151 z m -87.79657,-45.2497 c -2.35556,-6.75516 -7.99485,-16.23484 -12.53234,-21.06597 -4.53876,-4.82985 -6.55087,-8.7826 -4.47364,-8.7826 5.36863,0 19.73562,20.36377 22.70017,32.17221 3.53015,14.06823 -0.56175,12.397 -5.69419,-2.32364 z m -69.96966,-24.1033 c 1.93807,-4.2132 4.48259,-10.24572 5.65462,-13.40562 1.83976,-4.96263 2.17171,-4.93199 2.43216,0.22981 0.16598,3.28374 -2.37726,9.31627 -5.65462,13.40562 -5.86016,7.31563 -5.89974,7.3118 -2.43216,-0.22981 z m -3.10116,-35.93471 c 0,-2.1066 1.72358,-4.89497 3.83017,-6.19723 2.1066,-1.30226 3.83018,-0.63836 3.83018,1.46313 0,2.1066 -1.72358,4.89496 -3.83018,6.19722 -2.10659,1.30226 -3.83017,0.63837 -3.83017,-1.46312 z"
       id="path4569"
       inkscape:connector-curvature="0" />
  </g>
</svg>
