<?xml version="1.0" encoding="UTF-8" standalone="no"?>
<!-- Created with Inkscape (http://www.inkscape.org/) -->

<svg
   xmlns:dc="http://purl.org/dc/elements/1.1/"
   xmlns:cc="http://creativecommons.org/ns#"
   xmlns:rdf="http://www.w3.org/1999/02/22-rdf-syntax-ns#"
   xmlns:svg="http://www.w3.org/2000/svg"
   xmlns="http://www.w3.org/2000/svg"
   xmlns:sodipodi="http://sodipodi.sourceforge.net/DTD/sodipodi-0.dtd"
   xmlns:inkscape="http://www.inkscape.org/namespaces/inkscape"
   width="210mm"
   height="297mm"
   viewBox="0 0 744.09448819 1052.3622047"
   id="svg4606"
   version="1.1"
   inkscape:version="0.91 r13725"
   sodipodi:docname="squats.svg">
  <defs
     id="defs4608" />
  <sodipodi:namedview
     id="base"
     pagecolor="#ffffff"
     bordercolor="#666666"
     borderopacity="1.0"
     inkscape:pageopacity="0.0"
     inkscape:pageshadow="2"
     inkscape:zoom="0.35"
     inkscape:cx="375"
     inkscape:cy="520"
     inkscape:document-units="px"
     inkscape:current-layer="layer1"
     showgrid="false"
     inkscape:window-width="3200"
     inkscape:window-height="1699"
     inkscape:window-x="0"
     inkscape:window-y="50"
     inkscape:window-maximized="1" />
  <metadata
     id="metadata4611">
    <rdf:RDF>
      <cc:Work
         rdf:about="">
        <dc:format>image/svg+xml</dc:format>
        <dc:type
           rdf:resource="http://purl.org/dc/dcmitype/StillImage" />
        <dc:title></dc:title>
      </cc:Work>
    </rdf:RDF>
  </metadata>
  <g
     inkscape:label="Layer 1"
     inkscape:groupmode="layer"
     id="layer1">
    <path
       style="fill:#000000"
       d="m 91.144123,954.46939 c -11.635235,-0.90246 -23.383922,-3.49251 -26.10676,-5.75251 -6.812253,-5.65324 -6.18698,-37.44548 1.005594,-51.24274 4.973821,-9.53896 5.276788,-17.02805 1.909338,-47.22552 -6.678173,-59.89599 -5.301283,-87.48794 5.667423,-113.54829 11.34645,-26.95893 13.015993,-58.15812 3.531182,-66.02883 -6.951489,-5.76927 -5.681605,-34.95211 4.665697,-107.1834 L 87.513672,523.71043 57.192443,495.18637 C 28.80118,468.47884 5.9355257,434.24868 5.9355257,418.45699 c 0,-2.99615 10.0069463,-17.4651 22.2390923,-32.15192 12.230856,-14.68554 24.740184,-31.54857 27.79822,-37.47126 7.14874,-13.84883 25.228799,-24.93099 46.128392,-28.27265 23.16604,-3.70394 30.24645,-14.82091 22.00316,-34.54988 -3.30299,-7.90681 -6.00649,-24.74019 -6.00649,-37.4068 0,-20.29881 1.34079,-24.37276 11.3052,-34.33716 13.44014,-13.43886 33.3032,-15.09164 54.44516,-4.53033 12.96829,6.47835 13.58325,7.73663 14.65717,29.96798 1.21187,25.07539 -5.68418,70.32968 -11.23686,73.76159 -7.70955,4.76497 -2.67643,16.95715 10.31378,24.98643 18.47714,11.41864 25.2288,22.79732 26.72817,45.04673 0.69618,10.25577 3.97725,25.60912 7.30215,34.11799 7.71213,19.74058 7.81785,36.05956 0.48991,74.70788 -3.2424,17.09509 -5.4186,33.16912 -4.83459,35.7192 0.58015,2.55009 -0.97981,5.38766 -3.46801,6.30688 -2.84531,1.05716 -3.80062,-1.12162 -2.56813,-5.83244 1.29309,-4.94417 -1.07005,-9.63308 -6.94762,-13.74441 -7.61028,-5.32964 -9.69495,-5.45599 -14.28974,-0.86378 -4.04558,4.0443 -4.34597,7.16035 -1.21187,12.55574 2.29352,3.9476 4.24928,5.43666 4.34726,3.30944 0.12892,-2.12722 1.64762,-1.54578 3.44609,1.2918 2.61841,4.12809 3.7555,3.89474 5.69836,-1.17319 1.59735,-4.16419 0.91535,-5.39282 -1.99314,-3.59436 -2.74475,1.69662 -3.35971,1.01849 -1.62184,-1.79588 3.70394,-5.99489 9.51962,-2.11562 9.45903,6.30945 0,3.68073 1.80749,21.48619 4.07265,39.56754 8.3864,66.89905 9.31335,84.73287 4.69406,90.29845 -4.18739,5.04472 -4.56642,11.32195 -3.43062,56.67294 0.24495,9.57248 -1.58187,33.93879 -4.04687,54.14735 -5.30644,43.4958 -6.00133,96.69171 -1.26344,96.69171 1.84488,0 7.89778,6.86511 13.45046,15.25666 5.55269,8.39155 18.04268,19.91333 27.75439,25.60525 30.58681,17.92535 14.80415,28.6143 -42.37546,28.69939 -34.24949,0 -39.41412,0.97981 -47.50399,8.58364 -9.67691,9.0916 -33.72864,11.58625 -78.326726,8.12339 z m 75.853997,-10.94937 c 4.99058,-6.82514 4.07652,-8.09374 -11.57851,-16.04953 -16.2326,-8.24974 -37.31913,-28.7935 -37.31913,-36.35995 0,-7.20934 -10.45173,-3.26174 -21.272174,8.03186 -12.660167,13.21453 -19.228757,14.58239 -23.207298,4.83458 -2.535901,-6.21276 -3.023228,-6.13412 -5.943317,0.96692 -5.680315,13.81531 -4.220915,21.27217 4.165479,21.27217 4.338234,0 15.072302,3.66526 23.853198,8.14402 12.642122,6.44998 21.046562,7.82172 40.375882,6.59051 13.42596,-0.85089 22.27132,-0.19338 19.65677,1.46585 -9.44097,5.99746 -45.39224,3.28107 -60.834548,-4.59737 -19.741868,-10.07141 -30.941345,-10.09848 -30.941345,-0.12892 0,10.67863 24.423035,15.33272 72.986763,13.90684 19.27259,-0.56726 25.82055,-2.33607 30.05823,-8.13242 z M 110.36514,916.5469 c -7.21578,-7.44526 -11.23815,-13.53684 -8.93947,-13.53684 2.29998,0 7.00177,4.30343 10.44915,9.56346 3.4461,5.26003 11.91371,11.19561 18.81621,13.18875 11.37997,3.28623 11.62879,3.65623 2.67127,3.97209 -6.50542,0.23206 -14.3555,-4.27248 -22.99716,-13.18746 z m 83.15487,5.51659 C 180.7567,915.85201 172.31616,910.76474 174.7644,910.757 c 2.44823,-0.008 13.76116,4.32277 25.13984,9.62018 20.57986,9.58022 39.72224,11.45604 63.2338,6.19601 l 11.603,-2.5965 -15.84841,-10.15907 c -8.71644,-5.58878 -22.06505,-17.6443 -29.66373,-26.79263 l -13.8166,-16.63355 -14.48184,10.30476 c -11.0293,7.8475 -16.15138,9.41003 -21.48747,6.55441 -5.76283,-3.08511 -7.36533,-2.02022 -9.03359,6.00519 -1.12162,5.36446 -2.97423,14.2717 -4.12938,19.79344 -3.27978,15.67308 4.05332,20.94085 28.68005,20.60565 l 21.76595,-0.29652 -23.20601,-11.29488 z m 17.55019,-23.07838 c -7.36404,-6.29527 -11.49342,-11.44572 -9.1754,-11.44572 2.31802,0 6.6034,2.87755 9.5222,6.39455 2.91751,3.517 10.52779,8.67002 16.91073,11.45087 8.6378,3.76453 9.62663,5.05633 3.86896,5.05247 -4.25443,-0.004 -13.76116,-5.15689 -21.12649,-11.45217 z m -46.80523,4.02495 c 0.1676,-5.31804 2.89559,-14.65459 6.07224,-20.74746 7.37435,-14.1389 7.28411,-43.93284 -0.23206,-75.8179 -4.04816,-17.17631 -5.0963,-33.11755 -3.34683,-50.87272 1.94673,-19.75605 0.96692,-30.28256 -4.14356,-44.60453 -3.67944,-10.30992 -7.43237,-21.22834 -8.33869,-24.26317 -1.86422,-6.24242 -19.99713,30.43726 -29.49355,59.66522 -8.44312,25.983 -19.77152,111.05623 -16.26096,122.11647 4.40656,13.88106 24.04916,39.46568 37.66722,49.06008 11.48439,8.08987 12.59699,8.23298 15.08906,1.93383 1.48003,-3.74003 2.8234,-11.15177 2.98713,-16.46982 z m -67.786043,-8.02799 c 9.171533,-10.29315 10.248033,-13.97388 7.991893,-27.32765 -5.430208,-32.14032 15.42684,-133.63954 33.66547,-163.82927 14.19434,-23.49608 5.0963,-32.87518 -31.89021,-32.87518 l -19.086945,0 0,23.09514 c 0,16.22745 -2.876255,29.59926 -9.66917,44.96035 -11.049928,24.98514 -11.971722,43.81295 -5.557839,113.51993 5.7061,62.01935 6.261755,62.97982 24.546801,42.45668 z m -10.609014,1.58188 c -1.418145,-1.41814 -2.578446,-4.37691 -2.578446,-6.57504 0,-2.42373 1.801044,-2.19554 4.576741,0.58015 2.516563,2.51786 3.676863,5.47662 2.578445,6.57504 -1.095839,1.09584 -3.158595,0.838 -4.57674,-0.58015 z m -7.38209,-77.74529 c 2.595206,-24.16261 4.803644,-25.86567 4.803644,-3.70393 0,9.80196 -1.522572,18.76205 -3.384209,19.91204 -1.861638,1.14741 -2.501092,-6.14314 -1.419435,-16.20811 z m 24.141987,-85.81711 c 0,-2.07049 3.4809,-5.62745 7.73533,-7.90422 4.25444,-2.27677 7.73534,-2.75636 7.73534,-1.07006 0,1.69017 -3.4809,5.24714 -7.73534,7.90423 -4.28537,2.67514 -7.73533,3.15086 -7.73533,1.07005 z m 7.44268,-36.38057 c 5.15689,-5.6107 10.15521,-10.20033 11.10794,-10.20033 3.81739,0 -9.9167,17.09767 -15.01428,18.68986 -3.00905,0.94113 -1.25055,-2.88012 3.90634,-8.48953 z m 101.96978,116.45677 c 1.26344,-30.30704 4.45942,-64.32834 7.10104,-75.6013 3.72714,-15.91417 3.77742,-23.32333 0.21917,-33.14979 -2.51656,-6.95922 -4.57545,-19.29837 -4.57545,-27.42048 l 0,-14.76546 -23.3504,2.1169 c -12.84324,1.1603 -25.82185,4.16935 -28.84378,6.67559 -6.43323,5.33997 -4.41301,21.04528 5.76927,44.8482 5.54494,12.96055 6.13025,19.90302 3.23337,38.37629 -2.66096,16.96488 -2.06018,29.04619 2.42245,48.75711 3.27849,14.41093 5.96007,38.18678 5.96007,52.83493 0,14.64815 1.08295,27.71829 2.41085,29.04361 1.32661,1.32661 8.02283,-1.86809 14.88021,-7.09846 l 12.46807,-9.5106 2.29998,-55.10654 z m -28.19143,62.63044 c 0,-2.25227 1.74045,-3.02064 3.86767,-1.70564 2.12722,1.31501 3.86767,3.15731 3.86767,4.09586 0,0.94114 -1.74045,1.70565 -3.86767,1.70565 -2.12722,0 -3.86767,-1.84359 -3.86767,-4.09587 z m -1.1603,-76.07187 c 2.99873,-19.42214 5.02539,-20.97823 5.02539,-3.85993 0,7.67474 -1.63731,14.96529 -3.63819,16.20166 -2.16976,1.34079 -2.72928,-3.64206 -1.3872,-12.34173 z m 18.81105,-61.80276 c -2.09886,-5.51143 -1.65536,-5.95621 2.1646,-2.1646 2.6442,2.62356 3.83157,5.74477 2.64162,6.93472 -1.18608,1.18609 -3.35456,-0.95402 -4.80622,-4.77012 z m 0,-29.34013 c 1.45166,-3.81481 3.61498,-5.96137 4.80622,-4.77012 1.18608,1.18608 0.003,4.31116 -2.64162,6.93472 -3.81996,3.79161 -4.26346,3.34683 -2.1646,-2.1646 z m -41.10816,-46.22637 c 2.40569,-6.9025 6.26949,-29.09389 8.58623,-49.31277 2.31544,-20.21888 5.58749,-41.11331 7.26992,-46.43136 4.54064,-14.34776 -0.12892,40.15542 -5.93945,69.61803 -2.73702,13.82691 -4.725,25.27392 -4.42074,25.43765 0.30941,0.1676 14.04221,-0.46412 30.52879,-1.38978 l 29.97443,-1.68759 0,-14.08089 c 0,-12.17671 -3.35069,-41.57357 -10.15779,-88.5335 -1.33047,-9.18314 -3.82254,-12.56992 -9.24501,-12.56992 -4.08426,0 -9.28756,-3.48091 -11.56433,-7.73534 -3.19083,-5.96266 -8.09761,-7.73534 -21.40883,-7.73534 -9.49771,0 -17.26785,1.74045 -17.26785,3.86767 0,4.58706 -26.29757,4.80493 -49.01625,0.39966 l -16.139778,-3.12508 -4.052027,23.59923 c -5.78732,33.70801 -12.282424,107.05576 -9.831612,111.02141 1.134516,1.84359 11.99235,3.1702 24.117487,2.94716 12.12643,-0.21916 26.39813,1.43362 31.71617,3.68073 16.53686,6.98759 22.19526,5.30516 26.82486,-7.97513 z m -49.63378,-53.94108 c 2.49464,-4.66183 5.88659,-12.92832 7.53808,-18.37142 1.99701,-6.5802 3.11476,-7.56258 3.33522,-2.93427 0.3352,7.12037 -9.88576,29.78233 -13.44015,29.78233 -1.08294,0 0.12893,-3.81481 2.56685,-8.47664 z m -8.73062,-19.66193 c 2.86079,-3.52861 7.49167,-14.74098 10.29058,-24.91552 2.92009,-10.62062 5.23424,-14.7384 5.43278,-9.67175 0.43834,11.26265 -8.88532,33.75443 -15.69758,37.85673 -4.385931,2.64033 -4.389799,2.11304 0,-3.26946 z m 49.22639,-61.74475 c 1.09584,-1.09584 -0.78642,-3.0503 -4.18353,-4.35241 -3.57372,-1.37174 -5.17494,-0.76065 -3.80707,1.45553 1.29954,2.10272 0.95402,3.7684 -0.76064,3.70136 -4.54193,-0.18049 -16.66578,-9.88834 -16.66578,-13.34733 0,-1.62184 2.65322,-0.74775 5.89432,1.94415 3.2424,2.69061 6.81483,3.97339 7.93904,2.84918 4.18094,-4.18095 -19.17332,-18.4101 -30.79309,-18.76205 -16.799861,-0.5028 -40.449362,-27.7415 -47.417611,-54.60245 -2.847893,-10.9816 -6.279804,-23.55668 -7.624463,-27.9452 -1.344659,-4.38722 -1.134516,-6.74134 0.46412,-5.22908 3.843173,3.63303 33.184593,-16.75474 45.955634,-31.93276 5.563,-6.61114 10.11395,-10.48783 10.11395,-8.61459 0,1.87324 -6.09158,9.31077 -13.536837,16.52655 -15.684684,15.20251 -17.645592,24.32763 -4.834585,22.50854 19.842422,-2.81824 35.641852,-66.56773 20.300102,-81.90948 -10.01082,-10.01081 -43.06133,3.59049 -52.704715,21.69117 -2.550083,4.78689 -13.598722,20.01519 -24.550669,33.8421 -10.953236,13.82691 -21.205135,27.30316 -22.784433,29.94607 -1.602504,2.68416 2.350253,15.49645 8.948495,29.00751 9.15606,18.75174 19.210708,30.73249 44.65094,53.2088 21.69504,19.16687 37.110272,29.7501 45.441232,31.1979 14.26396,2.47788 36.97491,1.80491 39.96333,-1.18609 z M 40.667186,436.86323 c -2.690608,-3.2424 -3.91537,-6.87285 -2.721549,-8.06667 1.198977,-1.19898 4.115199,1.45811 6.488658,5.89433 5.066645,9.46547 3.185669,10.54971 -3.767109,2.17234 z M 18.554438,418.92885 c -0.46412,-6.22566 0.477012,-7.16937 3.822545,-3.82126 2.926536,2.92654 3.139257,5.74865 0.618827,8.26521 -2.517852,2.51785 -4.033978,1.00559 -4.44524,-4.44395 z m 53.131446,-52.69569 c 0,-1.67212 3.353269,-3.0387 7.451708,-3.0387 4.098439,0 6.605977,1.36658 5.57331,3.0387 -1.031379,1.67083 -4.385936,3.0387 -7.451708,3.0387 -3.065771,0 -5.57331,-1.36787 -5.57331,-3.0387 z M 195.76326,513.72669 c 3.60853,-6.74264 5.6932,-24.29025 6.08771,-51.24661 0.33519,-22.54721 1.80491,-56.94368 3.27462,-76.43801 2.64291,-35.03334 2.55911,-35.5168 -7.19773,-41.91005 -11.35676,-7.4414 -19.49562,-4.4027 -16.71219,6.23854 1.04427,4.01335 0.3352,7.29829 -1.59735,7.29829 -1.92739,0 -3.5054,-1.74045 -3.5054,-3.86766 0,-2.12722 -4.40656,-3.86767 -9.79293,-3.86767 -15.15997,0 -35.50004,-9.99019 -40.67627,-19.9778 -4.44653,-8.57849 -4.12422,-8.51274 6.45643,1.30341 6.50929,6.04 17.56695,11.26522 26.60827,12.57507 l 15.47067,2.24067 -11.603,-5.99359 c -11.12471,-5.74478 -3.42547,-5.63133 10.63608,0.1547 5.70997,2.35026 6.76842,0.60594 6.76842,-11.16466 0,-11.33485 -1.43877,-13.95068 -7.67474,-13.95068 -4.22092,0 -13.35764,-5.29097 -20.30526,-11.759 l -12.63051,-11.75772 15.04394,9.82388 c 8.27294,5.40442 18.33532,9.82517 22.36028,9.82517 10.43883,0 13.34345,-10.89136 4.65796,-17.46768 -6.95794,-5.26776 -6.89863,-5.49725 1.44908,-5.61585 10.17455,-0.14182 11.92016,-7.6451 1.93384,-8.30647 -6.09931,-0.39966 -6.06579,-0.63172 0.3352,-2.28192 5.42118,-1.39881 6.52475,-4.12422 4.66698,-11.52436 -1.33692,-5.32965 -0.47701,-12.05166 1.92223,-14.93694 2.39409,-2.88528 3.19212,-8.90724 1.7714,-13.38084 -3.60854,-11.37094 -30.25291,-9.74008 -32.06684,1.9622 -0.65751,4.25443 -2.75894,11.21623 -4.66699,15.47067 -1.90805,4.25443 -4.01335,11.19561 -4.67988,15.42684 -0.67039,4.22994 -4.48907,8.32193 -8.49597,9.09289 -6.23726,1.19897 -6.94505,-0.29652 -4.9171,-10.44142 1.41299,-7.06752 0.61883,-12.92575 -1.96993,-14.52567 -2.77957,-1.71853 -3.25013,-0.92824 -1.31114,2.21617 1.76494,2.85563 0.79932,6.28367 -2.30384,8.22267 -4.03785,2.51914 -4.30472,4.96866 -1.09584,10.10621 5.6816,9.11223 -0.30941,36.05569 -9.78907,44.05532 -4.95835,4.18353 -6.17409,7.87973 -3.81739,11.60301 11.31035,17.86862 -3.01033,72.70958 -21.562248,82.57342 -4.254435,2.2613 -8.407021,4.49423 -9.229545,4.96222 -0.825103,0.46412 2.225198,9.49126 6.768419,20.05515 4.822982,11.20979 8.262624,27.36117 8.262624,38.794 0,18.71951 0.47702,19.60134 10.63609,19.88497 19.30353,0.54147 25.3371,2.94974 37.31397,14.92662 15.96058,15.96058 37.09868,16.70833 45.18597,1.59864 z m -42.311,-34.75487 c -4.64636,-10.36664 -4.5458,-10.66574 1.56253,-4.68633 3.5892,3.51443 5.82213,8.49727 4.96351,11.07572 -0.86378,2.57715 -3.79547,-0.29652 -6.52604,-6.38939 z m 27.28253,-7.20676 c 0.12892,-6.38165 0.94113,-8.52434 1.9261,-4.7611 0.97981,3.76325 0.91535,8.9846 -0.14182,11.60301 -1.05716,2.61841 -1.86164,-0.46412 -1.78299,-6.84191 z m -0.45123,-31.26365 c 0.18049,-4.50583 1.10873,-5.42247 2.33607,-2.33607 1.12163,2.79117 0.97981,6.12768 -0.30941,7.41303 -1.28922,1.28923 -2.19813,-1.00559 -2.03053,-5.07696 z m -46.09874,-25.5279 c -9.23212,-2.06275 -16.1604,-4.37562 -15.39718,-5.13884 2.76022,-2.76022 34.1167,3.08382 34.1167,6.35845 0,1.84746 -0.43834,3.17149 -0.96692,2.94458 -0.52858,-0.23206 -8.52047,-2.10143 -17.7526,-4.16419 z m 46.69049,-22.49564 c 0,-7.44526 0.79932,-10.49041 1.76882,-6.76842 0.97981,3.72327 0.97981,9.81485 0,13.53684 -0.96692,3.72327 -1.76882,0.68328 -1.76882,-6.76842 z M 167.12189,259.42106 c -2.64162,-6.88187 0.52858,-10.04691 10.04691,-10.04691 5.25358,0 6.80065,1.83456 5.15689,6.11736 -1.2918,3.36487 -2.34768,6.84577 -2.34768,7.73533 0,4.22736 -11.02672,0.96692 -12.85612,-3.80578 z m -20.01905,252.95452 c -3.84962,-4.25443 -8.90596,-7.67732 -11.23558,-7.60641 -2.32963,0.12892 -0.12892,3.5518 4.89518,7.73533 11.81186,9.83935 15.29791,9.76844 6.3404,-0.12892 z m 83.97094,-37.87092 c 3.88829,-26.67788 3.58533,-32.67406 -2.49465,-49.42622 -3.80578,-10.48525 -7.66572,-26.89576 -8.57591,-36.46824 -5.09372,-53.54013 -13.19906,-12.60602 -14.55016,73.48569 -0.56726,36.55205 0.14181,41.26287 7.22738,47.14172 10.41305,8.64811 12.69884,4.33179 18.39334,-34.73295 z m -24.02209,-25.67358 c 0,-1.07005 3.4809,-3.79676 7.73534,-6.07353 4.25443,-2.27676 7.73533,-3.26947 7.73533,-2.20586 0,1.05717 -3.4809,3.79676 -7.73533,6.07353 -4.25444,2.27677 -7.73534,3.26947 -7.73534,2.20586 z M 98.756983,475.16217 c 0,-13.95584 -18.484875,-67.21363 -23.328485,-67.21363 -1.400096,0 -5.410868,3.16504 -8.911107,7.03271 -5.648085,6.24113 -5.784743,9.26564 -1.224762,26.85967 5.053753,19.48531 22.579447,47.32865 29.790069,47.32865 2.018923,0 3.670417,-6.30301 3.670417,-14.0074 z M 382.8024,928.27238 c -4.12809,-3.12249 -10.33957,-5.73317 -13.80242,-5.8015 -3.46156,-0.12892 -8.25102,-2.48046 -10.64253,-5.36188 -6.15217,-7.41303 1.40138,-44.5362 10.85525,-53.34416 7.95193,-7.40788 17.4419,-37.01617 20.94729,-65.35715 1.19898,-9.66788 3.40613,-20.98081 4.91065,-25.13984 2.42503,-6.70138 1.60122,-6.52734 -7.24414,1.52644 l -9.97987,9.08644 -9.01167,-10.86944 c -4.95577,-5.97941 -18.76464,-20.51024 -30.68608,-32.29245 -18.8046,-18.58543 -22.00703,-23.93571 -24.18066,-40.39135 -3.14441,-23.80807 5.1324,-39.89757 25.74578,-50.04247 16.99066,-8.36318 23.73588,-20.001 33.55073,-57.88094 15.36109,-59.29006 18.33404,-62.92438 66.92871,-81.78958 l 14.61721,-5.67516 -6.18312,-14.6533 c -9.30432,-22.04829 -8.97814,-52.81301 0.69618,-65.84834 10.72505,-14.4509 30.45918,-19.10113 53.58139,-12.62794 20.23693,5.66614 24.93615,13.03791 25.39511,39.84214 0.38677,22.71482 -0.3352,28.92758 -6.0645,52.02143 -4.7263,19.05213 -4.59093,20.30525 2.19554,20.30525 3.97854,0 15.49517,2.80535 25.59236,6.2334 15.16642,5.14915 21.76079,5.47275 37.89928,1.86034 14.06284,-3.14699 25.48536,-3.22821 40.75749,-0.29652 11.67004,2.24454 40.79745,5.15432 64.72929,6.46674 23.93056,1.31243 43.51127,3.73617 43.51127,5.38509 0,1.64891 -9.57248,5.14013 -21.27217,7.75854 -11.6997,2.61841 -21.27218,6.74006 -21.27218,9.15864 0,2.7989 -8.79379,4.46329 -24.17293,4.57416 -13.29575,0.12892 -38.96675,3.31201 -57.0481,7.14487 -18.08135,3.83286 -44.76181,7.1539 -59.29006,7.3808 -24.72343,0.38677 -26.94605,1.1603 -34.69814,12.01427 -4.55483,6.38165 -19.01991,24.79046 -32.14291,40.90833 l -23.86093,29.30532 27.76341,6.9141 c 15.27084,3.80192 37.27014,11.64555 48.88991,17.429 l 21.1252,10.5149 -0.28363,25.40413 c -0.24495,22.14627 -2.59005,30.03889 -18.24637,61.56039 -25.28681,50.90625 -25.88243,55.06786 -10.2042,71.24374 7.06881,7.29184 15.77751,13.25836 19.35381,13.25836 3.5776,0 8.48696,2.39022 10.91199,5.3116 14.42124,17.37614 -27.34442,37.76004 -51.09448,24.93615 -4.64636,-2.50883 -14.28072,-4.18353 -21.41141,-3.7207 -19.64389,1.27633 -23.17249,-3.71941 -19.41698,-27.48107 1.76623,-11.16596 5.55912,-22.047 8.43022,-24.17808 7.4414,-5.52303 18.11874,-39.18206 18.31857,-57.74429 0.12892,-8.66229 2.62486,-22.64391 5.62746,-31.07156 3.00131,-8.42765 4.87713,-15.90256 4.16805,-16.61163 -0.70907,-0.70907 -9.53509,0.78642 -19.61165,3.3249 -15.41524,3.88056 -20.09383,7.4053 -29.47808,22.203 -6.13541,9.67432 -11.15564,19.68514 -11.15564,22.24554 0,2.56039 -6.26949,13.96743 -13.93263,25.34998 -29.2731,43.48033 -30.27095,56.1392 -6.84191,86.83173 14.03835,18.39205 15.6473,24.46558 8.398,31.71359 -6.56472,6.56472 -42.57271,5.84147 -51.66689,-1.03138 z m 46.32435,-0.54147 c 3.36487,-1.29051 6.11736,-3.90119 6.11736,-5.8015 0,-4.72629 -14.44058,-4.38336 -17.4045,0.41255 -1.31501,2.12722 -4.46329,3.80965 -6.99662,3.73874 -2.53332,-0.12892 -0.60593,-3.46414 4.28538,-7.54066 5.24714,-4.37562 11.58625,-6.39841 15.47067,-4.93514 3.96565,1.49421 1.52129,-3.31846 -6.15088,-12.11354 -7.00177,-8.02541 -13.74569,-19.67096 -14.98721,-25.87857 -2.68674,-13.43241 -9.17927,-14.21239 -26.94089,-3.23466 -9.51446,5.88015 -13.09979,6.66142 -13.29833,2.90075 -0.43834,-8.21363 -6.8909,9.35331 -7.19129,19.56267 -0.1547,5.0834 2.77312,11.61461 6.4964,14.51407 6.33137,4.92999 6.29011,5.10274 -0.63172,2.66998 -5.31031,-1.86551 -6.56601,-1.25055 -4.44395,2.18781 1.62829,2.63388 5.64679,3.75679 8.92915,2.49722 3.28365,-1.26343 8.76414,0.20628 12.17929,3.25142 8.75253,7.81269 33.30191,12.09162 44.56972,7.76757 z m -23.31688,-23.81839 c -4.69535,-3.10574 -17.08091,-25.72386 -16.80631,-30.68995 0.12892,-1.70048 3.66139,3.52216 7.92743,11.60688 4.26733,8.08471 11.58625,16.24162 16.26741,18.12647 4.88358,1.96606 6.03743,3.50539 2.70737,3.6124 -3.19082,0.12892 -7.73405,-1.09584 -10.0959,-2.6558 z m 107.55598,-13.01599 c -13.56907,-6.71685 -18.20382,-7.41432 -25.13984,-3.78387 -7.96224,4.16677 -7.81656,4.31503 2.28579,2.32318 6.55183,-1.29051 14.1041,0.19338 19.23134,3.78773 4.64378,3.25271 11.10149,5.91238 14.35162,5.91109 3.24885,-0.003 -1.57929,-3.70909 -10.72891,-8.23813 z m 47.44469,-6.34556 c 1.89902,-4.94803 0.63172,-4.68503 -6.06451,1.26344 -8.45085,7.50586 -8.4573,7.50457 -4.03526,-0.92824 5.933,-11.31035 5.82342,-11.63652 -4.80751,-14.30393 -5.08083,-1.27633 -14.77965,-8.63005 -21.55323,-16.34476 l -12.31466,-14.02545 -11.60945,11.08989 c -10.86685,10.38211 -11.93175,10.65285 -16.64902,4.23252 -4.71469,-6.41646 -5.19041,-6.29141 -7.39498,1.93383 -1.29567,4.83588 -2.3799,12.90254 -2.40827,17.92535 0,8.38511 1.08295,8.92014 13.77664,6.53765 9.01553,-1.69146 15.90127,-0.87667 19.77796,2.34123 6.09158,5.05504 38.20096,10.58323 46.34756,7.979 2.49465,-0.79932 5.61585,-4.26217 6.93473,-7.70182 z m -50.1469,-18.40881 c -6.38165,-5.23037 -9.69753,-9.51962 -7.36791,-9.52993 2.32963,-0.0116 7.297,3.36487 11.03962,7.49941 3.74261,4.13582 10.53939,8.24973 15.10324,9.14316 7.5729,1.48132 7.62189,1.65665 0.56726,2.01119 -4.25443,0.20628 -12.95669,-3.89345 -19.33834,-9.12383 z M 384.8239,861.91093 c 2.20457,-0.27073 6.52734,-0.69618 9.606,-0.96691 3.07866,-0.27074 10.17841,-9.62018 15.77622,-20.78872 5.5978,-11.16725 12.37267,-22.91593 15.05554,-26.10676 11.45861,-13.62966 44.79147,-82.33234 44.79147,-92.31995 0,-13.32283 -7.29958,-19.86177 -34.35779,-30.7789 -27.25546,-10.99836 -32.4304,-10.63738 -46.2947,3.22692 -13.12171,13.123 -24.34181,51.23371 -17.18792,58.38761 6.19214,6.19214 32.37754,-0.3352 42.68101,-10.63738 12.74268,-12.74268 14.81704,-11.32969 4.17579,2.84403 -17.7874,23.69462 -22.46212,32.71789 -22.48146,43.3991 -0.0116,6.26176 1.61797,9.85224 3.84704,8.47406 2.12722,-1.315 3.86767,-0.73485 3.86767,1.2918 0,2.02537 -2.61068,4.68375 -5.8015,5.90851 -3.19083,1.22476 -5.85823,5.32707 -5.92785,9.1161 -0.12892,5.94331 -4.5574,19.84887 -17.05255,53.30162 -2.28321,6.1122 -2.03053,6.51831 1.19898,1.93383 2.24969,-3.19082 5.89432,-6.01938 8.10018,-6.28496 z M 433.95489,749.5874 c -1.41814,-1.41814 -2.57845,-4.37691 -2.57845,-6.57503 0,-2.42374 1.80105,-2.19555 4.57675,0.58015 2.51785,2.51785 3.67815,5.47662 2.57844,6.57503 -1.09584,1.09584 -3.15859,0.838 -4.57674,-0.58015 z m -52.85813,-9.69495 c 0,-1.7585 5.22135,-3.19727 11.603,-3.19727 6.38166,0 11.60301,0.67039 11.60301,1.49549 0,0.82511 -5.22135,2.26001 -11.60301,3.19728 -6.38165,0.94113 -11.603,0.25784 -11.603,-1.4955 z m 115.88952,109.22682 c 2.2007,-4.11005 7.48265,-8.57849 11.73966,-9.9296 4.25701,-1.3511 7.7392,-4.44653 7.7392,-6.878 0,-2.43276 8.94463,-23.34782 19.87853,-46.47906 16.13462,-34.13862 19.95846,-46.16964 20.30526,-63.90032 l 0.42544,-21.8433 -19.52915,-10.53424 c -10.74051,-5.79506 -26.71656,-11.68423 -35.50132,-13.08948 -13.95197,-2.23036 -17.2743,-1.25055 -26.26405,7.73791 -7.16807,7.16808 -9.39843,12.29403 -7.35114,16.88753 1.61668,3.62916 3.68717,13.98291 4.60252,23.01134 1.57543,15.54674 2.20457,16.28159 11.91242,13.90556 5.63648,-1.38076 10.82818,-3.97984 11.53725,-5.7783 1.68244,-4.26733 19.98295,-4.26346 19.98295,0.004 0,1.79975 -2.52043,8.32709 -5.60167,14.50375 -3.08124,6.17667 -6.53378,19.06245 -7.67345,28.63493 -1.53418,12.88578 -1.18609,14.89439 1.34853,7.73533 l 3.4203,-9.66917 0.38677,10.63609 c 0.20628,5.8492 -1.00559,10.63609 -2.72026,10.63609 -3.07737,0 -20.10027,48.54697 -20.10027,57.32271 0,7.13714 7.04173,5.34641 11.46248,-2.91364 z m 45.82671,-126.66872 c 2.79246,-1.12162 6.12896,-0.9798 7.41432,0.30942 1.28922,1.28922 -1.00559,2.19941 -5.07696,2.03181 -4.50583,-0.18049 -5.42247,-1.10873 -2.33736,-2.33607 z m -18.61251,-16.69672 c 0,-2.12722 1.84359,-3.86767 4.09586,-3.86767 2.25227,0 3.02065,1.74045 1.70564,3.86767 -1.315,2.12722 -3.1573,3.86767 -4.09586,3.86767 -0.94113,0 -1.70564,-1.74045 -1.70564,-3.86767 z m -136.14192,64.97683 c 7.78046,-7.78046 5.27679,-10.82947 -8.89564,-10.82947 -12.69884,0 -13.53554,-0.77354 -13.51492,-12.56993 0,-21.9142 8.08343,-42.72097 21.84072,-56.47827 7.33181,-7.3318 12.45519,-15.6099 11.38642,-18.39591 -1.07005,-2.78601 -10.69797,-6.22695 -21.39723,-7.64638 -10.69797,-1.41815 -21.43591,-4.96996 -23.86093,-7.89263 -6.53636,-7.87457 -12.44616,-6.53378 -23.90219,5.42376 -10.76114,11.23171 -12.12127,16.26484 -11.1131,41.13652 0.54147,13.30478 3.48992,17.73455 24.47331,36.74285 13.12429,11.88792 26.56444,24.66025 29.86742,28.38224 7.10878,8.01123 8.97042,8.27294 15.11614,2.12722 z m -13.78695,-94.78753 c -4.81782,-0.92824 -7.86297,-3.13667 -6.76584,-4.91193 2.49594,-4.03656 17.45866,-0.41256 17.45866,4.23251 0,1.8784 -0.43834,3.17923 -0.96692,2.88915 -0.52858,-0.28363 -4.90936,-1.28922 -9.7259,-2.20973 z m 27.63965,85.69077 c 1.32016,-3.44222 0.6704,-4.99445 -1.51999,-3.63948 -2.10273,1.29954 -3.82384,4.00046 -3.82384,6.00263 0,5.56299 2.77183,4.33694 5.34383,-2.36315 z m 75.95971,-92.08789 c -1.82811,-1.8655 -19.17461,-1.66954 -39.38446,0.45123 -22.4183,2.34638 -33.18331,4.79591 -28.38224,6.46029 4.25443,1.47487 17.28203,6.50026 28.9495,11.16854 l 21.21416,8.48695 10.43496,-11.61331 c 5.73962,-6.3881 8.96526,-13.11398 7.16808,-14.94725 z m -29.8816,-6.03614 c 11.15564,-4.24025 22.75349,-16.11013 51.31751,-52.51391 l 21.24252,-27.07368 -16.54588,-2.59907 c -10.19775,-1.6025 -24.02854,-0.54147 -36.04796,2.7757 -10.72633,2.95619 -27.26061,5.33222 -36.74285,5.27936 -9.48223,0 -25.5279,1.05717 -35.65603,2.45211 -17.98337,2.48691 -18.51582,2.95232 -22.78701,19.91333 -2.40569,9.55185 -8.61201,22.40411 -13.79211,28.56144 l -9.42035,11.19432 9.00136,3.517 c 27.92843,10.9094 72.05465,15.10067 89.4308,8.4934 z m -56.59559,-42.59592 c 6.72588,-4.10102 14.07058,-10.6219 16.31898,-14.48957 2.37217,-4.07781 4.1397,-4.92741 4.20802,-2.0215 0.1676,7.34985 -17.74872,24.00017 -25.8141,23.98341 -4.86295,-0.0116 -3.2785,-2.2497 5.2871,-7.47234 z m 15.16384,-34.15022 c 2.67385,-1.81394 -0.3352,-7.28798 -8.32193,-15.14192 -12.17027,-11.96657 -12.57122,-12.07099 -14.77192,-3.86767 -4.6296,17.26527 -2.85305,21.97222 8.26908,21.91034 5.8492,0 12.52093,-1.33821 14.82477,-2.90075 z m 58.97807,-6.87413 c 11.11052,-3.30041 25.68905,-4.95836 32.61089,-3.71168 6.88445,1.23766 21.21932,0.39966 31.8554,-1.86163 10.63609,-2.26388 25.72902,-5.15561 33.54042,-6.42678 10.54842,-1.71467 13.62837,-3.80579 11.97172,-8.12339 -1.85906,-4.84361 -0.58015,-4.73016 7.68893,0.68329 9.38812,6.15088 11.40059,6.05032 37.54732,-1.89129 15.19478,-4.61542 28.69423,-7.32408 29.99892,-6.01938 1.30599,1.30598 -0.52858,2.37345 -4.07265,2.37345 -3.54536,0 -6.44611,1.49937 -6.44611,3.33136 0,4.14743 18.68212,0.86378 21.55709,-3.7929 2.53332,-4.09715 -2.66869,-4.73273 -42.82927,-5.23295 -17.01774,-0.20628 -50.44342,-3.65753 -74.27857,-7.65927 -44.63289,-7.49039 -57.3111,-6.63048 -113.30334,7.68505 -6.91152,1.76753 -8.13757,1.38978 -4.29569,-1.32532 4.2712,-3.01936 3.08125,-5.03828 -5.8015,-9.84966 -14.88021,-8.06022 -8.17754,-8.05635 8.80926,0.005 11.83893,5.61714 14.08992,5.69449 19.13464,0.64461 5.04473,-5.04473 4.82557,-6.8187 -1.86421,-15.06973 -4.16935,-5.144 -9.01038,-7.92743 -10.75728,-6.18698 -1.74689,1.74174 1.14741,6.48866 6.4358,10.551 10.92359,8.39284 8.72417,9.62921 -5.55655,3.1225 -5.35156,-2.43792 -8.81183,-5.91882 -7.68892,-7.73534 4.13325,-6.68591 -8.63908,-3.01807 -22.65809,6.50671 -10.83849,7.36533 -14.43414,12.47968 -14.43414,20.53345 0,15.28889 7.15519,23.01134 27.07368,29.21894 22.87984,7.13198 22.50467,7.12941 45.76225,0.21917 z m -6.04517,-8.31678 c 3.76325,-0.97981 8.9846,-0.91535 11.60301,0.14181 2.61841,1.05717 -0.46412,1.86164 -6.84191,1.783 -6.38165,-0.12892 -8.52434,-0.94113 -4.7611,-1.9261 z m 97.62382,-16.72122 c 1.33692,-2.16203 4.04945,-2.92911 6.02969,-1.70564 5.36446,3.31588 4.36531,5.63648 -2.42889,5.63648 -3.31589,0 -4.93644,-1.76881 -3.6008,-3.93084 z m 20.26658,20.83126 c 4.78559,-1.28922 8.70225,-3.59306 8.70225,-5.13497 0,-3.26303 -33.65387,1.26344 -37.42485,5.03183 -3.17019,3.1702 17.00485,3.24369 28.7226,0.12893 z m 44.03985,-12.21152 c -2.78988,-0.92824 -6.91153,0.14182 -9.15993,2.39538 -2.86981,2.86981 -1.36013,3.37261 5.07309,1.69017 5.23038,-1.36658 6.98372,-3.11992 4.08684,-4.08555 z m 69.08944,-2.52687 c 0,-0.94114 -1.74045,-2.78086 -3.86767,-4.09586 -2.12721,-1.31501 -3.86766,-0.54148 -3.86766,1.70564 0,2.25227 1.74045,4.09586 3.86766,4.09586 2.12722,0 3.86767,-0.77353 3.86767,-1.70564 z m -13.07916,-8.16465 c -1.26344,-3.3017 -1.01849,-5.26132 0.55436,-4.35757 1.57157,0.90245 10.68895,0.43833 20.26143,-1.05717 l 17.4045,-2.69447 -24.17937,-1.65021 c -22.98813,-1.56769 -24.18066,-1.22476 -24.17292,7.05334 0.004,5.41087 2.35669,8.70225 6.22178,8.70225 4.02754,0 5.40443,-2.11174 3.91151,-6.00262 z m -35.73339,-13.41436 c -5.18396,-5.18526 -47.13011,-5.52948 -59.48216,-0.48991 -7.6077,3.10445 -1.87582,3.99788 26.8803,4.19127 24.85621,0.1676 35.28602,-1.01849 32.60186,-3.70136 z m -96.225,-5.8621 c -11.61977,-5.32062 -32.39688,-7.76241 -27.91425,-3.27978 2.74088,2.74089 25.11792,8.38897 33.71575,8.51016 3.19082,0 0.58015,-2.309 -5.8015,-5.23038 z m -56.56465,-0.34809 c 15.28116,-3.05675 15.43844,-8.41991 0.39966,-13.66189 -11.65071,-4.06105 -19.47758,-13.65674 -19.01217,-23.31044 0.14181,-2.7989 1.84746,-1.09584 3.80707,3.78516 3.85865,9.61502 28.33583,21.891 37.00972,18.56223 6.11092,-2.3451 7.34212,-13.89911 1.48261,-13.89911 -2.12722,0 -3.86767,-1.74045 -3.86767,-3.86767 0,-2.12722 2.8234,-3.86767 6.27465,-3.86767 5.14013,0 5.40442,-1.04427 1.46069,-5.8015 -3.93858,-4.74563 -3.68976,-5.8015 1.36399,-5.8015 5.09501,0 5.49209,-1.80878 2.26388,-10.2996 -2.66998,-7.0224 -2.63904,-11.57464 0.12892,-14.31037 6.00391,-6.00391 4.83588,-16.79084 -2.10659,-19.45438 -15.5635,-5.97167 -20.8506,-2.44178 -31.24689,20.85834 -10.3834,23.27305 -16.7831,29.40072 -16.7831,16.07016 0,-3.92439 -3.12637,-9.9644 -6.94633,-13.4221 -6.49511,-5.87885 -6.93473,-5.70481 -6.76842,2.67514 0.12892,4.9287 2.13882,11.40446 4.53419,14.38901 2.52301,3.14442 3.1109,8.68292 1.39494,13.16297 -1.62829,4.25443 -2.07178,12.95669 -0.97981,19.33834 1.89258,11.10665 1.72112,11.27167 -3.97983,3.87411 -3.27591,-4.25185 -6.99274,-6.69235 -8.26005,-5.42505 -3.88056,3.88056 13.38729,22.82311 20.80806,22.82311 3.83415,0 12.41006,-1.08294 19.05729,-2.41729 z M 460.63278,474.8231 c -2.09886,-5.51143 -1.65537,-5.95621 2.1646,-2.1646 2.6442,2.62356 3.83157,5.74477 2.64162,6.93472 -1.18609,1.18609 -3.35456,-0.95402 -4.80622,-4.77012 z m 39.95559,-8.53594 c 4.33565,-2.74605 3.95662,-3.78516 -1.93384,-5.29355 -4.49423,-1.14741 -2.51398,-2.05115 5.11951,-2.32576 9.57892,-0.34809 11.93562,0.88956 10.22224,5.35285 -1.22476,3.19083 -5.95621,5.77443 -10.5149,5.7422 -6.29914,0 -6.99274,-0.87667 -2.89301,-3.47574 z"
       id="path4676"
       inkscape:connector-curvature="0" />
  </g>
</svg>
