<?xml version="1.0" encoding="UTF-8" standalone="no"?>
<!-- Created with Inkscape (http://www.inkscape.org/) -->

<svg
   xmlns:dc="http://purl.org/dc/elements/1.1/"
   xmlns:cc="http://creativecommons.org/ns#"
   xmlns:rdf="http://www.w3.org/1999/02/22-rdf-syntax-ns#"
   xmlns:svg="http://www.w3.org/2000/svg"
   xmlns="http://www.w3.org/2000/svg"
   xmlns:sodipodi="http://sodipodi.sourceforge.net/DTD/sodipodi-0.dtd"
   xmlns:inkscape="http://www.inkscape.org/namespaces/inkscape"
   width="210mm"
   height="297mm"
   viewBox="0 0 744.09448819 1052.3622047"
   id="svg4713"
   version="1.1"
   inkscape:version="0.91 r13725"
   sodipodi:docname="wake_up.svg">
  <defs
     id="defs4715" />
  <sodipodi:namedview
     id="base"
     pagecolor="#ffffff"
     bordercolor="#666666"
     borderopacity="1.0"
     inkscape:pageopacity="0.0"
     inkscape:pageshadow="2"
     inkscape:zoom="0.98994949"
     inkscape:cx="-98.283147"
     inkscape:cy="731.21352"
     inkscape:document-units="px"
     inkscape:current-layer="layer1"
     showgrid="false"
     inkscape:window-width="3200"
     inkscape:window-height="1699"
     inkscape:window-x="0"
     inkscape:window-y="50"
     inkscape:window-maximized="1" />
  <metadata
     id="metadata4718">
    <rdf:RDF>
      <cc:Work
         rdf:about="">
        <dc:format>image/svg+xml</dc:format>
        <dc:type
           rdf:resource="http://purl.org/dc/dcmitype/StillImage" />
        <dc:title />
      </cc:Work>
    </rdf:RDF>
  </metadata>
  <g
     inkscape:label="Layer 1"
     inkscape:groupmode="layer"
     id="layer1">
    <path
       style="fill:#15cdc9;fill-opacity:1"
       d="m 514.80888,496.72159 c -7.10829,-2.45666 -10.46408,-4.67986 -13.75543,-9.1125 -5.08273,-6.84514 -5.10879,-7.24619 -5.10879,-78.09743 l 0,-67.16382 14.65962,0 14.65963,0 0,63.79645 c 0,35.08826 0.30043,64.86323 0.65045,66.16739 1.03052,3.84227 7.21037,6.07814 15.36546,5.55872 12.0513,-0.76737 11.1167,5.16055 11.1167,-70.51968 l 0,-65.06416 14.93111,0.30224 14.9311,0.30224 0.31853,63.52497 c 0.34024,68.00185 0.0362,73.06249 -4.867,80.47085 -5.98076,9.03757 -15.48455,11.84498 -39.93029,11.79503 -13.78475,-0.0362 -18.57935,-0.43689 -22.98629,-1.96005 z M 33.351999,497.0546 c 0,-0.31853 -1.208967,-8.25789 -2.686875,-17.64585 -1.477545,-9.38759 -5.402705,-34.90475 -8.722296,-56.70415 -3.319953,-21.79941 -7.403292,-48.43107 -9.07449,-59.18146 -1.671197,-10.75039 -2.848311,-19.91259 -2.615205,-20.36052 0.231659,-0.44793 6.946853,-0.81442 14.920604,-0.81442 l 14.497465,0 1.164445,7.32974 c 0.640318,4.03158 3.624729,27.12031 6.631943,51.30869 6.125552,49.26938 5.926832,47.93082 6.775643,45.60773 0.325769,-0.89587 3.701465,-24.71758 7.497765,-52.93718 l 6.902693,-51.30862 14.290059,-1.8e-4 14.290059,-1.8e-4 1.162273,7.32974 c 0.639229,4.03158 3.612418,25.41002 6.606968,47.50805 2.99491,22.09803 5.86168,42.37718 6.37096,45.06477 1.39828,7.38085 0.49988,13.21937 11.73892,-76.28435 l 2.96559,-23.61821 13.36632,0 13.36596,0 0,2.69151 c 0,1.48007 -2.42734,18.46099 -5.39401,37.73496 -2.96668,19.27397 -7.60781,49.70301 -10.31387,67.62033 -2.70569,17.91732 -5.45338,35.87554 -6.106,39.90676 l -1.18616,7.32981 -17.57346,0 -17.57345,0 -5.770825,-41.5356 c -5.832722,-41.98192 -6.604795,-46.84493 -7.324746,-46.12498 -0.325769,0.32577 -3.697483,23.71674 -11.974562,83.04552 l -0.643575,4.61506 -17.794253,0 c -9.786477,0 -17.79389,-0.26061 -17.79389,-0.57697 z M 157.1444,495.51335 c 0,-1.16517 0.47055,-4.46341 1.04535,-7.32981 0.92953,-4.63317 9.19937,-50.62639 13.53066,-75.25203 4.08515,-23.22483 11.55794,-64.9016 12.12079,-67.59716 l 0.62331,-2.98615 19.73113,0.007 19.7315,0.007 6.87627,38.2719 c 3.78182,21.04941 10.01198,55.52777 13.8452,76.61808 3.83286,21.09068 6.96893,38.80422 6.96893,39.36382 0,0.58204 -6.22328,1.01748 -14.54198,1.01748 -16.77822,0 -14.83374,1.64079 -17.05005,-14.38815 l -1.31394,-9.50161 -15.43206,0 -15.43206,0 -1.29729,8.41571 c -0.71344,4.62882 -1.56804,10.00402 -1.89888,11.94488 l -0.60122,3.52917 -13.45283,0 c -12.61561,0 -13.45283,-0.13031 -13.45283,-2.11822 z m 57.545,-44.84688 c 0,-2.67384 -10.75184,-70.57397 -11.23615,-71.05828 -0.66746,-0.66747 -1.20245,2.1794 -5.03965,26.80793 -1.81418,11.64626 -4.02362,25.53707 -4.90971,30.86811 -2.65937,16.0036 -3.49913,14.73962 9.79118,14.73962 8.4016,0 11.39976,-0.35835 11.39433,-1.35738 z m 52.62987,45.60773 c -0.28595,-0.74637 -0.39201,-35.56317 -0.23528,-77.37025 l 0.28234,-76.0128 14.9311,-0.30224 14.9311,-0.30225 0,36.08263 c 0,21.09104 0.40106,35.65366 0.965,35.05062 0.53064,-0.5672 4.26504,-9.0944 8.29879,-18.94892 16.70365,-40.80951 20.35842,-49.47534 21.42333,-50.79528 1.39321,-1.72709 30.79934,-1.43628 30.44389,0.30115 -0.12307,0.59725 -2.48417,6.2167 -5.24923,12.48776 -5.00816,11.35958 -15.5859,35.57692 -23.28311,53.30494 l -4.04896,9.32641 3.79775,9.13386 c 2.08855,5.02409 9.3105,22.69455 16.0485,39.26789 l 12.25074,30.13367 -16.03618,0 -16.0362,0 -12.8259,-33.93432 c -7.054,-18.66369 -13.46369,-35.15595 -14.24373,-36.64906 -1.19268,-2.28401 -1.4247,3.09951 -1.46126,33.93432 l -0.0434,36.64906 -14.69365,0 c -10.75474,0 -14.83265,-0.36377 -15.21235,-1.35737 z m 104.60748,-0.54295 c -0.26423,-1.04499 -0.44268,-35.86179 -0.39816,-77.37025 l 0.0796,-75.46985 32.84842,-0.2874 32.84843,-0.2874 0,10.87483 0,10.87491 -17.91732,0 -17.91733,0 0,21.71797 0,21.71796 17.37438,0 17.37437,0 0,10.85898 0,10.85898 -17.37437,0 -17.37438,0 0,23.34682 0,23.34681 18.46027,0 18.46027,0 0,10.85898 0,10.85898 -32.9932,0 c -30.51592,0 -33.02941,-0.14116 -33.47209,-1.90032 z m 231.52183,-75.85687 0,-77.75708 29.04778,0.50143 c 34.42044,0.59417 37.75922,1.27926 45.8973,9.41742 7.27407,7.27371 7.85177,10.66967 7.40329,43.52099 -0.33663,24.78092 -0.5234,26.9024 -2.70063,30.9481 -3.06476,5.69481 -6.27721,8.58511 -12.87839,11.58726 -4.56077,2.0737 -7.90317,2.55403 -21.16162,3.03906 l -15.74553,0.57625 -0.28957,27.96188 -0.28957,27.96188 -14.64153,0 -14.64117,0 0,-77.75719 z m 48.12231,-0.59 c 1.30452,-0.68665 2.73103,-1.78594 3.16973,-2.44327 0.43871,-0.65697 0.80538,-11.8229 0.81443,-24.81314 0.0362,-28.95946 0.50422,-27.96188 -13.55708,-27.96188 l -9.23013,0 0,28.23335 0,28.23336 8.21554,0 c 4.51878,0 9.28298,-0.56177 10.58751,-1.24842 z m 52.86623,63.68757 0,-14.65963 14.11668,0 14.11667,0 0,14.65963 0,14.65962 -14.11667,0 -14.11668,0 0,-14.65962 z m 7.15136,-32.30548 c -0.5643,-3.63124 -1.26145,-10.09776 -4.9868,-46.25274 -1.34507,-13.05286 -2.16456,-28.77812 -2.16456,-41.53561 l 0,-20.52992 14.11668,0 14.11667,0 0,18.837 c 0,16.39236 -4.45146,71.74168 -7.15245,88.93833 l -0.63959,4.07211 -6.37097,0 c -6.35105,0 -6.37241,0 -6.91898,-3.52917 z"
       id="path4783"
       inkscape:connector-curvature="0" />
  </g>
</svg>
